<mxfile host="app.diagrams.net" agent="Mozilla/5.0 (Macintosh; Intel Mac OS X 10_15_7) AppleWebKit/537.36 (KHTML, like Gecko) Chrome/138.0.0.0 Safari/537.36" version="27.2.0">
  <diagram name="第 1 页" id="db-pMTe5nH4QFg-SLGSs">
    <mxGraphModel dx="2061" dy="1939" grid="1" gridSize="10" guides="1" tooltips="1" connect="1" arrows="1" fold="1" page="1" pageScale="1" pageWidth="827" pageHeight="1169" math="0" shadow="0">
      <root>
        <mxCell id="0" />
        <mxCell id="1" parent="0" />
        <mxCell id="Lz09PXeNm3lCibMd2Dtf-2" value="" style="rounded=1;whiteSpace=wrap;html=1;hachureGap=4;strokeColor=#82b366;align=center;verticalAlign=middle;fontFamily=Architects Daughter;fontSource=https%3A%2F%2Ffonts.googleapis.com%2Fcss%3Ffamily%3DArchitects%2BDaughter;fontSize=12;fillColor=none;dashed=1;dashPattern=8 8;" vertex="1" parent="1">
          <mxGeometry x="30" y="290" width="740" height="130" as="geometry" />
        </mxCell>
        <mxCell id="Lz09PXeNm3lCibMd2Dtf-4" value="微信&lt;br&gt;&lt;b style=&quot;color: rgb(153, 0, 0); font-family: Verdana; font-size: 15px;&quot;&gt;（113个破解功能）&lt;/b&gt;" style="rounded=0;whiteSpace=wrap;html=1;hachureGap=4;strokeColor=#82b366;align=center;verticalAlign=middle;fontFamily=Architects Daughter;fontSource=https%3A%2F%2Ffonts.googleapis.com%2Fcss%3Ffamily%3DArchitects%2BDaughter;fontSize=24;fillColor=#d5e8d4;" vertex="1" parent="1">
          <mxGeometry x="80" y="310" width="170" height="85" as="geometry" />
        </mxCell>
        <mxCell id="Lz09PXeNm3lCibMd2Dtf-9" value="私域渠道" style="text;html=1;align=center;verticalAlign=middle;whiteSpace=wrap;rounded=0;fontFamily=Helvetica;fontSize=24;fontColor=default;" vertex="1" parent="1">
          <mxGeometry x="-110" y="350" width="140" height="30" as="geometry" />
        </mxCell>
        <mxCell id="Lz09PXeNm3lCibMd2Dtf-10" value="" style="rounded=1;whiteSpace=wrap;html=1;hachureGap=4;strokeColor=#d79b00;align=center;verticalAlign=middle;fontFamily=Architects Daughter;fontSource=https%3A%2F%2Ffonts.googleapis.com%2Fcss%3Ffamily%3DArchitects%2BDaughter;fontSize=12;fillColor=none;dashed=1;dashPattern=8 8;" vertex="1" parent="1">
          <mxGeometry x="30" y="90" width="750" height="150" as="geometry" />
        </mxCell>
        <mxCell id="Lz09PXeNm3lCibMd2Dtf-11" value="反外挂打击&lt;div&gt;&lt;font face=&quot;Verdana&quot; style=&quot;font-size: 15px; color: rgb(153, 0, 0);&quot;&gt;&lt;b&gt;（攻与防）&lt;/b&gt;&lt;/font&gt;&lt;/div&gt;" style="rounded=0;whiteSpace=wrap;html=1;hachureGap=4;strokeColor=#d79b00;align=center;verticalAlign=middle;fontFamily=Architects Daughter;fontSource=https%3A%2F%2Ffonts.googleapis.com%2Fcss%3Ffamily%3DArchitects%2BDaughter;fontSize=24;fillColor=#ffe6cc;" vertex="1" parent="1">
          <mxGeometry x="70" y="120" width="170" height="90" as="geometry" />
        </mxCell>
        <mxCell id="Lz09PXeNm3lCibMd2Dtf-13" value="版本自动化升级&lt;div&gt;&lt;font face=&quot;Verdana&quot; style=&quot;font-size: 15px; color: rgb(153, 0, 0);&quot;&gt;&lt;b&gt;（30人日降到2人日）&lt;/b&gt;&lt;/font&gt;&lt;/div&gt;" style="rounded=0;whiteSpace=wrap;html=1;hachureGap=4;strokeColor=#d79b00;align=center;verticalAlign=middle;fontFamily=Architects Daughter;fontSource=https%3A%2F%2Ffonts.googleapis.com%2Fcss%3Ffamily%3DArchitects%2BDaughter;fontSize=24;fillColor=#ffe6cc;" vertex="1" parent="1">
          <mxGeometry x="280" y="120" width="220" height="90" as="geometry" />
        </mxCell>
        <mxCell id="Lz09PXeNm3lCibMd2Dtf-14" value="私域AI排障&lt;br&gt;&lt;div&gt;&lt;font face=&quot;Verdana&quot; style=&quot;font-size: 15px; color: rgb(153, 0, 0);&quot;&gt;&lt;b&gt;（1小时降到2分钟）&lt;/b&gt;&lt;/font&gt;&lt;/div&gt;" style="rounded=0;whiteSpace=wrap;html=1;hachureGap=4;strokeColor=#d79b00;align=center;verticalAlign=middle;fontFamily=Architects Daughter;fontSource=https%3A%2F%2Ffonts.googleapis.com%2Fcss%3Ffamily%3DArchitects%2BDaughter;fontSize=24;fillColor=#ffe6cc;" vertex="1" parent="1">
          <mxGeometry x="540" y="120" width="180" height="90" as="geometry" />
        </mxCell>
        <mxCell id="Lz09PXeNm3lCibMd2Dtf-15" value="" style="shape=image;verticalLabelPosition=bottom;labelBackgroundColor=default;verticalAlign=top;aspect=fixed;imageAspect=0;image=data:image/png,iVBORw0KGgoAAAANSUhEUgAABLAAAADMCAYAAABjjlpmAAAMTWlDQ1BJQ0MgUHJvZmlsZQAASImVVwdYU8kWnltSIQQIhCIl9CaISAkgJYQWekcQlZAECCXGhKBiRxdXcK2ICJYVXQVR7ICIDXXVlUWxu5bFgsrKurguduVNCKDLvvK9+b65899/zvxzzrkz994BgN7Fl0rzUE0A8iUFsriQANaklFQWqQcQgB6sZsCCL5BLOTExEQCW4fbv5fUNgCjbq45KrX/2/9eiJRTJBQAgMRBnCOWCfIgPAYC3CqSyAgCIUshbzCyQKnE5xDoy6CDEtUqcpcKtSpyhwpcHbRLiuBA/BoCszufLsgDQ6IM8q1CQBXXoMFrgLBGKJRD7Q+ybnz9dCPFCiG2hDZyTrtRnZ3ylk/U3zYwRTT4/awSrYhks5ECxXJrHn/1/puN/l/w8xfAcNrCqZ8tC45Qxw7w9zp0ersTqEL+VZERFQ6wNAIqLhYP2SszMVoQmquxRW4GcC3MGmBBPlOfF84b4OCE/MBxiI4gzJXlREUM2xZniYKUNzB9aKS7gJUCsD3GtSB4UP2RzUjY9bnjeG5kyLmeIf8aXDfqg1P+syE3kqPQx7WwRb0gfcyrKTkiGmApxYKE4KQpiDYij5Lnx4UM2aUXZ3KhhG5kiThmLJcQykSQkQKWPVWTKguOG7Hfly4djx05mi3lRQ/hKQXZCqCpX2GMBf9B/GAvWJ5JwEod1RPJJEcOxCEWBQarYcbJIkhiv4nF9aUFAnGosbi/NixmyxwNEeSFK3hziBHlh/PDYwgK4OFX6eIm0ICZB5SdelcMPi1H5g+8DEYALAgELKGDNANNBDhB39Db1wjtVTzDgAxnIAiLgOMQMj0ge7JHAazwoAr9DJALykXEBg70iUAj5T6NYJSce4VRXR5A51KdUyQVPIM4H4SAP3isGlSQjHiSBx5AR/8MjPqwCGEMerMr+f88Ps18YDmQihhjF8Iws+rAlMYgYSAwlBhPtcEPcF/fGI+DVH1YXnI17DsfxxZ7whNBJeEi4Tugi3J4mLpaN8jISdEH94KH8ZHydH9waarrhAbgPVIfKOBM3BI64K5yHg/vBmd0gyx3yW5kV1ijtv0Xw1RMasqM4U1CKHsWfYjt6pIa9htuIijLXX+dH5WvGSL65Iz2j5+d+lX0hbMNHW2LfYgexc9gp7ALWijUBFnYCa8basWNKPLLiHg+uuOHZ4gb9yYU6o9fMlyerzKTcud65x/mjqq9ANKtAuRm506WzZeKs7AIWB34xRCyeROA0luXi7OIGgPL7o3q9vYod/K4gzPYv3OJfAfA5MTAwcPQLF3YCgP0e8JVw5Atny4afFjUAzh8RKGSFKg5XXgjwzUGHu88AmAALYAvjcQHuwBv4gyAQBqJBAkgBU6H32XCdy8BMMBcsAiWgDKwC60AV2AK2gVqwBxwATaAVnAI/govgMrgO7sDV0w2egz7wGnxAEISE0BAGYoCYIlaIA+KCsBFfJAiJQOKQFCQdyUIkiAKZiyxGypA1SBWyFalD9iNHkFPIBaQTuY08QHqQP5H3KIaqozqoMWqNjkPZKAcNRxPQKWgWOgMtQpegK9BKtAbdjTaip9CL6HW0C32O9mMAU8OYmBnmiLExLhaNpWKZmAybj5ViFVgN1oC1wOd8FevCerF3OBFn4CzcEa7gUDwRF+Az8Pn4crwKr8Ub8TP4VfwB3od/JtAIRgQHgheBR5hEyCLMJJQQKgg7CIcJZ+Fe6ia8JhKJTKIN0QPuxRRiDnEOcTlxE3Ev8SSxk/iI2E8ikQxIDiQfUjSJTyoglZA2kHaTTpCukLpJb8lqZFOyCzmYnEqWkIvJFeRd5OPkK+Sn5A8UTYoVxYsSTRFSZlNWUrZTWiiXKN2UD1Qtqg3Vh5pAzaEuolZSG6hnqXepr9TU1MzVPNVi1cRqC9Uq1fapnVd7oPZOXVvdXp2rnqauUF+hvlP9pPpt9Vc0Gs2a5k9LpRXQVtDqaKdp92lvNRgaTho8DaHGAo1qjUaNKxov6BS6FZ1Dn0ovolfQD9Iv0Xs1KZrWmlxNvuZ8zWrNI5o3Nfu1GFrjtaK18rWWa+3SuqD1TJukba0dpC3UXqK9Tfu09iMGxrBgcBkCxmLGdsZZRrcOUcdGh6eTo1Oms0enQ6dPV1vXVTdJd5Zute4x3S4mxrRm8ph5zJXMA8wbzPd6xnocPZHeMr0GvSt6b/TH6Pvri/RL9ffqX9d/b8AyCDLINVht0GRwzxA3tDeMNZxpuNnwrGHvGJ0x3mMEY0rHHBjzixFqZG8UZzTHaJtRu1G/sYlxiLHUeIPxaeNeE6aJv0mOSbnJcZMeU4apr6nYtNz0hOlvLF0Wh5XHqmSdYfWZGZmFminMtpp1mH0wtzFPNC8232t+z4JqwbbItCi3aLPoszS1jLSca1lv+YsVxYptlW213uqc1RtrG+tk66XWTdbPbPRteDZFNvU2d21ptn62M2xrbK/ZEe3Ydrl2m+wu26P2bvbZ9tX2lxxQB3cHscMmh86xhLGeYyVja8bedFR35DgWOtY7PnBiOkU4FTs1Ob0YZzkuddzqcefGfXZ2c85z3u58Z7z2+LDxxeNbxv/pYu8icKl2uTaBNiF4woIJzRNeujq4ilw3u95yY7hFui11a3P75O7hLnNvcO/xsPRI99jocZOtw45hL2ef9yR4Bngu8Gz1fOfl7lXgdcDrD29H71zvXd7PJtpMFE3cPvGRj7kP32erT5cvyzfd93vfLj8zP75fjd9Dfwt/of8O/6ccO04OZzfnRYBzgCzgcMAbrhd3HvdkIBYYElga2BGkHZQYVBV0P9g8OCu4PrgvxC1kTsjJUEJoeOjq0Js8Y56AV8frC/MImxd2Jlw9PD68KvxhhH2ELKIlEo0Mi1wbeTfKKkoS1RQNonnRa6PvxdjEzIg5GkuMjYmtjn0SNz5ubty5eEb8tPhd8a8TAhJWJtxJtE1UJLYl0ZPSkuqS3iQHJq9J7po0btK8SRdTDFPEKc2ppNSk1B2p/ZODJq+b3J3mllaSdmOKzZRZUy5MNZyaN/XYNPo0/rSD6YT05PRd6R/50fwafn8GL2NjRp+AK1gveC70F5YLe0Q+ojWip5k+mWsyn2X5ZK3N6sn2y67I7hVzxVXilzmhOVty3uRG5+7MHchLztubT85Pzz8i0ZbkSs5MN5k+a3qn1EFaIu2a4TVj3Yw+WbhshxyRT5E3F+jAH/12ha3iG8WDQt/C6sK3M5NmHpylNUsyq322/exls58WBRf9MAefI5jTNtds7qK5D+Zx5m2dj8zPmN+2wGLBkgXdC0MW1i6iLspd9HOxc/Ga4r8WJy9uWWK8ZOGSR9+EfFNfolEiK7m51Hvplm/xb8XfdiybsGzDss+lwtKfypzLKso+Lhcs/+m78d9VfjewInNFx0r3lZtXEVdJVt1Y7be6do3WmqI1j9ZGrm0sZ5WXlv+1btq6CxWuFVvWU9cr1ndVRlQ2b7DcsGrDx6rsquvVAdV7NxptXLbxzSbhpiub/Tc3bDHeUrbl/ffi729tDdnaWGNdU7GNuK1w25PtSdvP/cD+oW6H4Y6yHZ92SnZ21cbVnqnzqKvbZbRrZT1ar6jv2Z22+/KewD3NDY4NW/cy95btA/sU+37bn77/xoHwA20H2QcbDlkd2niYcbi0EWmc3djXlN3U1ZzS3Hkk7Ehbi3fL4aNOR3e2mrVWH9M9tvI49fiS4wMnik70n5Se7D2VdepR27S2O6cnnb52JvZMx9nws+d/DP7x9DnOuRPnfc63XvC6cOQn9k9NF90vNra7tR/+2e3nwx3uHY2XPC41X/a83NI5sfP4Fb8rp64GXv3xGu/axetR1ztvJN64dTPtZtct4a1nt/Nuv/yl8JcPdxbeJdwtvad5r+K+0f2aX+1+3dvl3nXsQeCD9ofxD+88Ejx6/lj++GP3kie0JxVPTZ/WPXN51toT3HP5t8m/dT+XPv/QW/K71u8bX9i+OPSH/x/tfZP6ul/KXg78ufyVwaudf7n+1dYf03//df7rD29K3xq8rX3HfnfuffL7px9mfiR9rPxk96nlc/jnuwP5AwNSvow/+CuAAeXRJhOAP3cCQEsBgAHPjdTJqvPhYEFUZ9pBBP4TVp0hB4s7AA3wnz62F/7d3ARg33YArKE+PQ2AGBoACZ4AnTBhpA6f5QbPncpChGeD72M+ZeRngH9TVGfSr/we3QKlqisY3f4L4eyDGczwg7MAAABsZVhJZk1NACoAAAAIAAQBGgAFAAAAAQAAAD4BGwAFAAAAAQAAAEYBKAADAAAAAQACAACHaQAEAAAAAQAAAE4AAAAAAAAAkAAAAAEAAACQAAAAAQACoAIABAAAAAEAAASwoAMABAAAAAEAAADMAAAAAI39JLgAAAAJcEhZcwAAFiUAABYlAUlSJPAAAEAASURBVHgB7L0JnG5XWae76qt5rjp1MpIBaANhknAFcmUOrSAYHJAhorYg7URrRMBugW75AQ5MdgstDuhVGxFkuEJAIIAi2NLSDYQLRoaQOTkZzlTzXPV993nevVd9u06mwzlHDMla+eVU1f7WXnutd69vr3c/+/++u6dDSaWcUAvcfPPN6S1veUu69dZb0y/8wi+k7e3ttLS0lL7ru74rDQwMpK2trfjZ19eXWq3WCT12aaxYoFigWKBYoFigWKBYoFigWKBYoFigWKBYoFjg7mcB8Uu73Y6OffrTn04/+qM/ms4777z05je/OZ177rl3vw7fzXpU6MkJPiGCqne+853p6quvThdddFG66qqr0qte9ap02WWXxZGGhobS2NhYAKwCr06w8UtzxQLFAsUCxQLFAsUCxQLFAsUCxQLFAsUCxQJ3Uwv09PSk3t7e+P9xj3tcesc73pEOHjwY7OCKK664m/b67tOtArBO8Lm44YYb0sLCQrrwwgvTxsZGeve7350e//jHp5/8yZ9M4+PjJ/hopbligWKBYoFigWKBYoFigWKBYoFigWKBYoFigWKBbzcLGJ11wQUXpHe9611JmLW6uvrtNoRveX97SgjhibW50GptbS3+/+AHPxg/n/3sZ6eTTz45SVtLKRYoFigWKBYoFigWKBYoFigWKBYoFigWKBYoFigW0AKGFcoQ+vv70+zsbNq7d29hB3cwNQrAugPDHMvmlZWVtLm5mUZHR5P5rdbX12MyDg4Olgl4LAYt+xQLFAsUCxQLFAsUCxQLFAsUCxQLFAsUCxQL3AsscODAgfTCF74wPe95z4uQwnvBkL/pIfZ903uUHW7XAiZiU3F13XXXpXPOOSeoqcnYJiYmbrd+2VgsUCxQLFAsUCxQLFAsUCxQLFAsUCxQLFAsUCxQLKAFFMKcddZZ6fWvf3166lOfmqanp4thjrBAyYF1hEGO9U9p6T//8z+nr371q+lDH/pQ+sxnPnOsTZX9igWKBYoFigWKBYoFigWKBYoFigWKBYoFigWKBe5FFjBy61nPelb6xje+kS699NJ70ciPfqgFYB29re60ppPs5ptvTjfeeGO8UeAxj3lMSdp+pxYrHxYLFAsUCxQLFAsUCxQLFAsUCxQLFAsUCxQLFAtoAd9O+NCHPjQ9+MEPTv/n//yfYpTbsUAJIbwdoxzLpu3t7ZRzXZ177rnpEY94RMl7dSyGLPsUCxQLFAsUCxQLFAsUCxQLFAsUCxQLFAsUC9wLLTAzM5Pe//73B8y6Fw7/LodckrjfpYmOroLJ231jwL59+9LU1FS6733vWwDW0Zmu1CoWKBYoFigWKBYoFigWKBYoFigWKBYoFigWKBbAAr6V0NLT0xM/yz9dC5QQwq4tjus3J5ng6uEPf3g6++yzy2Q7LmuWnYsFigWKBYoFigWKBYoFigWKBYoFigWKBYoF7l0WUBjz3ve+N95GePjw4XvX4I9itAVgHYWR7qqKCdxf97rXpRe96EXpi1/8Ymq1ilnvymbl82KBYoFigWKBYoFigWKBYoFigWKBYoFigWKBYoGuBUxN9NnPfjZ98pOfTOvr690Pym9hgZID6wRMhP3796fLL788JliR+Z0Ag5YmigWKBYoFigWKBYoFigWKBYoFigWKBYoFigXuZRYwskvl1RlnnJGmp6fvZaO/6+EWqdBd2+guazjB1tbWInzwnHPOucv6pUKxQLFAsUCxQLFAsUCxQLFAsUCxQLFAsUCxQLFAsUDTAu12Ox06dCh953d+ZxoaGmp+VH7HAgVgnYBpMDc3l/bu3ZvOO++8NDY2dgJaLE0UCxQLFAsUCxQLFAsUCxQLFAsUCxQLFAsUCxQL3JssYA4sy0UXXXRvGvZRj7WEEB61qe644vnnn5++4zu+I51yyiklefsdm6l8UixQLFAsUCxQLFAsUCxQLFAsUCxQLFAsUCxQLHA7FlB9dfXVV6cvf/nL6cwzz7ydGmVTUWAd5xwwRvXGG29M1113XdrY2DjO1sruxQLFAsUCxQLFAsUCxQLFAsUCxQLFAsUCxQLFAvc2Cwiwvv71r6f5+fnk76Xc1gIFYN3WJt/UFqHVJz7xifSnf/qn6Zprrvmm9i2ViwWKBYoFigWKBYoFigWKBYoFigWKBYoFigWKBYoFfAOhTEF4VV4Od/vzoQCs27fLUW8VYM3OzqbV1dWj3qdULBYoFigWKBYoFigWKBYoFigWKBYoFigWKBYoFigWyBbo6+tLj3vc49LFF1+cpqam8ubys2GBkgOrYYxj+VWAtbKyEuGDhZIeiwXLPsUCxQLFAsUCxQLFAsUCxQLFAsUCxQLFAsUC924L9Pb2psc+9rHp0Y9+dBocHLx3G+MORl8A1h0Y5mg3DwwMpAc84AFpZGSkUNKjNVqpVyxQLFAsUCxQLFAsUCxQLFAsUCxQLFAsUCxQLLBjAaO6PvvZz6aZmZn0wAc+sECsHct0f+khCXmn+2f57VgsoArLOFVhVqtVojKPxYZln2KBYoFigWKBYoFigWKBYoFigWKBYoFigWKBe6MFxDJXXnlleuITn5gmJyfTJZdcEkKZe6Mt7mzMhbbcmXWO4rPNzc00NzeXlpaWkknXSikWKBYoFigWKBYoFigWKBYoFigWKBYoFigWKBYoFjhaCyiI2bdvX+rv748URevr60e7672qXgFYx3m6L7/88vTiF784vfSlL41XXh5nc2X3YoFigWKBYoFigWKBYoFigWKBYoFigWKBYoFigXuRBQRYN9xwQ6ivjOwqgXK3f/JLDqzbt8tRb52fn0833XRTGhsbK28iPGqrlYrFAsUCxQLf3hY4nuD7np5v77GX3hcLFAsUCxQLFAsUCxQLFAucWAv4QrjTTjstXXDBBenGG28s+a/uwLwFYN2BYY52s4nW/F+AVd5CeLRWK/WKBYoFigW+eQvkJ1Embmy3u+kbt7faaXl9M3XY5nV4dWMzrW+0qWWdnrSytpG2qCN04t+0vLyZ2h0/v22xzvIqn/MU7M7KEnU61On24s5qNz/rSWPD/aklxboLkOWbaEaGem+7tnDQvr7eNDrsEt5tpENvBvr70sgg22tK5nhso5/XMrd6ur0dHh5I/b1dEbb9qXeJzpb1rHnOyu/FAsUCxQLFAsUCJ8YC2Ze5vdZcs/Vl7qpsb22nleVVqnV9gLva53Y/xy8YGBhMg0P9t/vxXW3sae32HZr1ix/RtMbR/d6Hrya8esxjHpMMH5yYmDi6He9ltQrAOs4TPjQ0FPDKWNXyRT1OY5bdiwWKBe7xFmjjnS2tbARb2iRv4OraZlpd306bwKD2NiBKeGSdJSFSJ21ubaWV9a1k3ZUVoBEW0rdbWl6PejbU09NKfcAY3Tg/F8z09nXhTH+vDlblZFE7DQB/7qhYb2KU6zkv5Lgjt9A6Z54ynHp9aUf3MHfU5K7tOqaLALStu8iZ6DG2trfSvgNrt+vMapvt9nZAuW5He6Lu5rZW8P/Ktd0E3m1j22bx+NpRZznhwA4jVR8awC71oEeAbP3agL8FY0NAscH+gdihv7+VhgPCVS26X/9AH7v2pNGhvrCLzfZh92H2C9vz2djIIC86afai/F4sUCxQLFAsUCzwr2uB9dWNtMmDLxb+WAI3N7fShn4KC6APs1aX1roddG3m87WV9Vjz/MA6K806bHMp9cHZyuLqTj3rWpaXVsPfuY2PQdsb9GNtacOu3GFx3W6xXPf1HRt02tUw678vINvgQV/4A7s+vPM/rD800p8GBivfINfWz2r14Q+MDudNjZ8czwdtY4ONbfxKW/34EgPDg2G7Fg/whkdp14KhhkeHui9Ko+4AfpoP5jo8jOzHfxnEJ7mnFOeTXGFkZOSeMqQTPo7yFsLjNKnqK2NVt7jJOuusswJmHWeTZfcTbAGfdGy3t9JWm8UpLou3PUCbzza2vDnmqnhEcYFx//XNNW74TNTvltvWczc/2eSmc2Obxa5RJX69k5VhfWuF47t47L7JvJNDebjd5Y67tbuef1nXQsfi5rR/OA30DrFW3/GK6U3oQN9Q6nPVvL3C50P9Iywwfp4PYEWe7vQOpD5ufns63GDHvixgPapC2LarbnxY/vk2sIBARFAiYBJICaHctry6nhYWfTNrJy3gFM4u4Kjx+xZ1hU5MAQBHNYd4cBdKJEFHzBk/Ezbx3+SYb3XtAUb14QT18RPFEY6SSqFwmgAjw8CSgCNsG+xHqRR26wBOegFY/BXzO6VB1UcCLidffag7M7H9uqvicY+13NnT12abjrP6vjS3dn8PxVk96thKl4RaG5uArbqa3dza4hoYwKzb5/Wow7e/rri6hkOOii0XFWa24x6OVbC4zktLPDfrG9so3rheebli/wBh/kOp2Fl9HaNxDr3TQyFkFLaNjXBN4JyM4nQO1uBsEGdcVZnHFKCpJvOkDeLIDfRHTzjn/cwfnGP6JFTT8Q7wVrVc/i0WKBYoFigWuAdZYHNjK2CPMGmDdWeb9cdFYs0HWixCrk8CKBVJrkeL8ytsr9TY24CmZcCSvsTK0noFqeoVaXlhpWqXui0ealknF33VVvglbhHGdH1jVzrXn12uMBuHRgfTwJA5i+pW+NnHujUyNkq38sbqs/FJfGV8lJ269S5W6x8EXOD/3FlxPx+g9fLg6Iim72y3O/ysgzZ9S7t+s43Rj5Vl4J++Q9d8nqrU3mynRfy/2xRs2+Y+aXmR+6TGPh56E59jbXkldrGNDnWFgP6uzbeYC7noV1b/UY/f255/6ujnDY0PxUM1VfKDALEh/A1+xY/oTUOAM+HY6Pgwh++EDfvxJXpbfZy/yjftB8ipcheo6Tt+K4uqqze+8Y0BsHxB3E/91E+l+93vft/KLnxbHKsArBNwmpo3I8dzU3MCunKXTaysL6b5lUNpfav5VgNvSfjGU6p//aXDzcpKXW9na32tsXZ3W+x4B/94bZLEN1qOmh5RdcHa1nIoEaxRfVD/Vl/VtzuAo43VGj7lSvz0IlX3Rri0trGCgoOnJTtbu0d0gfOmbhv4VLW+c7T425EE4Nr25o2//PiI4Q30DcZNt93yInpHpdrNzzkmlXvrugFrelUfuGDR850mfPLBzRmAx5v63p7qhjy3H2bgapzHmrff3s+AX3XDd1U/h085X1mGOQ+r3KyymDv8nb7lo7Aw0JFQudDHHdVH/jh++pRK5QxKGs5ZVaqG4l/a3T1nKoDVC8Rqfmf6scPwwFhtJxahvmEgl2CtarHXz4FtvYA2b5GHBG98PjI0nvaMnswN8T3nCUxtxH+1Hysoo/bt53qBkyHsWMD5W+KJ44ZPFFf9zgGFAVau7YMDld09l14PR4AMQ8ClCRQ3wgUhRR+qnVGcOwGV26zby84DOIburwy9chPqeVOf8+rcV9+ZelNlE/7YNc8bHzZ+vVP7+f3Kc+tOK/Kh3w3rH60voy91J0KvXYcT+uz4yrs+uf0/7EvD1779SkdsZZfd5YgN8f1sbHOsjT/ZlxqNDc3fm9/uNdRyepCeGx1M58kq2/x9nZ95vVzi5mPDEIhVgRshnny+COBcXvM6ze9AUZVjVX2vP9yk4BBrp+rmAaDOnBJgDWJouzaIEzqK89/T6sRcCwDG9gme4nozYv093Djc56QJrivfWqd0t/HvWX+1t9bSyuF/5oZlmZODGnJghjlQP+hgovSw9vVyLa8ekPjtrFaDFtfzFg89dk0sru0toPW3e+lso6BgfEdTOtgv6t7JA6SddvB3/E70HM1aR71om3Xy3lQitLv5wJJrR2d7PW3j48SFIhsDf2Vrc5FtNXCP7T0AklmuV+usT4NpeOZhqbd/NO9Rfh6vBbhQ7993OC3MLqZVwIfX9W1V1osoqiEMS8AnFgDUQKiQVgBPXvf5PULq2L5FagBBlevL+hoPxDx1bFcxZSoB2xMOuc3Sy9owOjbMd6Yd4GKA9SHmAJ+PTIyEP+JaNhAPQ6prllcn93Ob3zVB0YDhdTvrH/4rAKS/3razmeP1SE/oQ/eaVneEH/7msSzxuz+tS8N5u59ZYnuz4dgYHzX6wa/1WltdUevP6x/a6Mjt2We6o+3dMdKIXbPcRT/sg3WOHEt3jHx8RBthomh79wfR56q5OOy28FJnirLFT2Gm9nX/DfyJPBe8h9vkIWq0y/6q4zb53D6sAz03mGtK2rYQCqz4gJUOxVzjc0GV//fiH6h68pz347/qM8R2PnNswwCvPvyGIVRl/YAwpkU1h3DGRqdH08zJE2ls8vivFSsrK+mFL3xhmpmZSV/60pfSm970pnT++edrglIaFvj29xIag/nX+PXzn/98+shHPpJOPfXU9LSnPS2deeaZ/xrdOKpjbgJovrLv8+nL1/0jX2pvHnH02VNI5MVFyFJdgGyuUi1Zz+25CD78r6WTuRM7Q1uAjX4gTx8AxrwtXiRWgSKbOA0WwUwuZo2xHW8fusfzAkfLdMQbEo+bSwVMXES6/djiYuUxdIhd4OJizM+2ITX8x3MJPrMF/6mO5yC3PQZ1cglHsKoYm+yP2/zPPsTffCKY6QM05eNV7VatePnNvfX3gFE65izGMZZwSm1LrFWttto7Fx3dBR0rPjL2uXLyc8+pCPDaOYC/uinvnH+yXafNkveP32PLEfWtCzzsxDms2ra9aJd/mn3j09R2G207jNWNdezuk5aqB9rK4tj8VZWb4FNIl2+wteF63KB25cnWD/tyoyKMyn32eGF/G6OSttRRcEZs0jZLTPzt3sIv55rKOFVf3/udz01n7rn/TlvRsfLPMVvgy9/Yn/7hi9fzfeH7w/8qqIQRTrOenkp91WFbH08RDQ0zbE91zEnTAEYXfM7hOvUHB1ppiaejiSm+ROjcKLmXDuCDDA04R3AUcARU2+DDesoDEPlTxZUqqoVlnqDRhn6n86MqLb4DKm+q72jeurxuqFwnjQ87p6razqeV9Q4wzRC4LrQQhiyvsX0U56Xe7GxeBqjouAxTt26CeZ3S3Mp2GuFp6jB9ydttA98IYMf8xLmqvg1+T9zeSZOjzX6Ypwu4x/7NJ70bPPU8tLCVxkZRm3W7B/TxKpTtVI3Q79WhBVVQhvR1v2P6dx5zdNC2q7qq3eyfjUR/MYcW4VRyHlU1VYBJaORx/Mp5bt0/LMc/2nKW8AfbVwzVLfSAhrwmeDldxFl0f4uRik3I5+ZN+hEqu2g4qkV92w+o7/WEdhyx4N8+DvFkGd4ZfRF0rWEnVXbVcbwmMQ4cVkMh+3or5VgP96IOdpsGXBeGBus1jfb8e4POqRb8sac/JJ1z1gz9bHSo6lb59xgssLT/C+n6v//PqXeQkBBOUE//JCed0Fd+d113/WgNchOJT9CJ9ddZwXdXZSQPIDw31aRzM/NaqOXkio3WdV7yRH34jGo763FMWp6Y94/M1KDICau/Qf0eQPnQGEqGqZhTnU1CeFAYcyDg2kRqDaCIYE3qbMyn1uhe9mFf16xebj4CPAF8aLtbmGwbC4yBYw0Ig6p50+HBWeLBWc/AePS5JVTi8NvLB6nBmjl2UrcuNuhsLKfW8BH5TNy+Tv9QbzRLZ30JO2KH/IWuP2yvzNZ97tbuqN52HTyi7TYPLP0y9fQz9rrP7tVemUutEc5RY5s+Qc8R4LBjmDEPPFsDI4wx35gxMoBbG5uyAFdtVF/KtL16MLXXFlPPyB6armzkOr+9dpBxeF48p9X59Mfm/NWpjZ17erBbFPfZTJtL+8NTqjfyo0Ubhzi985wm69oWdfEJNlavq6rVffCPtj5IrfasrqJcr/B/3dYCpNY94Hz3c/pQgeBP9qAGb/VX52B7Q6iFkn5pMZ3x3RenmXMuqo5R/j1uCywtLKePvP3ToTLKCifB1RawQeVRPjeucW3Why0enqmOyfOp3/W3nkYTo2PRn0qV40xjSqpIyq24wXVibY0HaH2AC0B7HeZnu639C0xhGqOe1yqn1CZK5DierdgZP+M7tE39XvtRbYpjbVDXVAV5HPEh+whWbKP+CsQeghbb6VNtnAsVPJ77N1MeeFzt0XdEG6ZYUOWuKqhbaAP1kz7Xkf0Q4FS2y7WFhbfTD0ajDX2IeGQ/bGMAmNMttsGdjP1gfe2Wqg3X86ZaTQNuAiBvbyy2scse1j1yLBoRe9iPPhX39QF1GSINAxtU3PMn9q7qxrn1tHpu/YB/mGLMpY1QZQ2PV9/zsYnhsOdOP6jr9cKZJBBNHYBXQG7WG0pAMfwQwWbuiMd0/hryed8HnZ7+7bO/O+oe7z+bqN3NrV3KHVugOSvvuFb55HYt4KS9/PLL0zve8Y70oAc9KD3iEY+4WwOsNZyngwu3pFOmzkj/9zlPTeNDU9zgrKfFtXmeTA+ksUGcsBpWLeM8reMMjg2OARGqL7vQaRmHyHGP4Rz2AnQsAqZFnTvgwjhKGOGWl4FVHJzV9RVu+EZQylQOlNeSJRwcwdYYdaPt+oq0xDE7OBKj9qOGVSrFVteXuXHhSZhPweq6c8uHuaFZ4Sn7eIQY2a5gamkV5wmHz7YrsMVFB2dmdX2NmyHC3+jbFo6MoGwFe7hojQyOBgyx8XUcs1WeItuvkXBUHUtKBxZv5VNuoPpyiFxcEgmRwnaAu2Gc8GpVZXzYwnDAccahosh+CA8PYPteHERVQ+Gw067HX8ZZ6qPeIMfMN932w5BGbdcM2Vtax87AwGYbMW7Oi9s83q42OO4wTnBuw3O4uLbAzShKpngiXhnUNhY5L8OMudnGKrbbxrEdwnm1DdcHYcY8juSgfaaN6nwzfOaO/R7Fntqv6gcJtZkHQi3nl+OsCuPmfAs9x4cmavvzpIT+LtG/Efrs+VJ9ZV891yvMJedXP3PBxWuAOSW8ml06mD5zxYdRbxxOW1NnRf/rg5Qfx2EBocTZp06mxz7iTADTACBpK82Rl2oI8GG6A3NX8TVH0QkUAFCNAlR0rlRnOUeWASobzKv9h6onqs6ddaDM3DLOpE4ffzv7NnEIFiP3QgVkrGcJyMMf/um2+Mnv+LRu4Tyb96qq7Ocek6YCAnXVXEJVYTyQCbjTzGu1Tmybew8o448W/T56vQCYMUbnb9W6jlLVRhXGVvXFXqxvVgCmj5uzTdtjYnK4+J1mcaC6/Y82+ExIFW3bZ+vSOe2mPSzuYZ/jd7ZlO7kp/uef7Gxbx7qMrLJR3YbbB1C19XEt7GcsuQgJre82r2zab5ywzK22DpugsDoHuT4+O3bjOyqIs0s2xU9B4SDnu09nlYbOOG2cMRCiwfaxIVaC2q+1+tJalcthegxYUXdFJ3FxxYTzhn46Yn/3IUgv3+cObZhUlutNdTjmGkCQ6bZnwhBDG68+ga3FSRsbrsbPX9imhzZYR6g3pfKquoRj507af3g9vedjXwIu4sRXJnaXUo7TAlvrt6aB8T3pvk94M6cGdSzr1Mb8tUCSGVr2xmaJn0KIG1N7+VaSmUynrbXDnCyuEUuHAQusxVz7t1g/BCltzs/26s3cKAGHPIHOfQFL62sBIZz//h+F76nzqeOX3C8IxRtFmqZ+PeFsIEo9T7xg5P3rT/wCRRgRa3S1X963qqAqLCAc88vdLZ14mMMvQJhe1qMe1jPbDdUT65ZjjsIOPfhNvYTI9oQaKrdN34F6Pfo7tT+V53bArsHp1D96Fk1Yn7pCIwEba2Yort3ODZawC7pXA6i6Lr5U4jwkFM1hw2iD/gh3hG6Dk2lzdR+/06Z9Fsb5AK1VrdFb1OMumubJ86MPGIOmbX628Rvb+GWd2k/zc9f/bfwhzVodzy7bF7pM3bb94TxoR+3rOcolHvTRVozJBjxv7NsSItoG554d+Zxr18jJ9GeIfrn+APO1G3X6R/byw7lCHcBGD74CE4JzNsnpof7yodRLnb6Rs2K+2Jfe/rHUWQXm4Wf1jpzE3+7jXKJtfKprP/tr2Ojm3M3y8wRY4NbrDqVBwrme+bNPqdZ42jx0y1zkLzpSvTJ/yPuNTppGMdssB26aQ+kyTE6kwbRMiJpQRmgxiqLqyDxIs0CqIdYB8yflopJn9tbFNH0KPilrTi6Lc94ToNhFTdMsswcAXfgsE9NdoLBOSL0KnulTmF/VNI9d5g8tRV9m8J2a5dAt8/RviFC26n7Kz2zDY+6xjUYj84e5F6IfUzPd41n/8K2MhfV6BCWQxTor5NJa56HM1MndfvjVWqJdK0zs6bahjeYOLqXxaeykeqwuGyyui7MraXLv2I49vEdaOLyMr4ByHrvmIryaRZk/OjWUhhtjETDNU3/6pPEdCGY/VgzT5NrXtJ1tz2F/QZLn0OJYluaXUd5t7bKp25cXuQ/BP5ms7eG2dVJV5D6Hqq7uoMo9Q0idM9mmMZZDy/QLf2eqe27dPs9YBsewaSNXV9hjbjXG0m2D/s1iUxyh3WPBBz44n7522TVp9oBP0E5MUcwwOTmJXRhsKbdrgQKwbtcsR7fRL6V5RXY5U0e3679KrTmeCh5avCWgj4u0KqYNnJNBHK8RAIX5iyyCBb/YUyPTEcLlNhVIC4AFb/kmR6d3oJZgZnWLJ4VtoNHwGECjWiTWcLQ2ce4ETIKLqg1ubmnbfYRU/o9bF5+t6jxxzBG25X4IrwRBQ0CV8aHJqOtXWYiGa5P2Tpwa/c5tL+KsjY5MVZCjdgYFKtucp1He4jA2iNPHf5YVoRhwbkzYUvfZfgnRpnpO4gaKi1/tfM3h4NynrqsKKxdB0J7x06JuX/201v1HAWMTOE2DvNUjj2+Wp6aTY6ekyeEpjmcb1bit71OEsSEBUfV1dD5ZfxSHdACIk9sQBK2sAXGGAX+NNqyrAziKo9oEVXM8ZQ0AWdd15G7zXI5jiwEukLkfsz6RZbzCp9wPbb+wupAm4ng6td4opDQLKDqD3z3f/Q17zC7PRpsRAhgQ05vlLcDHPACE+YVz3x0LQMqxjNiPagHT/vO0MTN+MiBtlP7EbTlAQQC2CXi9TwC93MYa8Mqb/3HOudvmVg/x9zr9VynX8CjocynfvAW0vgoZYdOAySTJTTQ1PsJ3VMWlVxCAEfcVS6iYSDewA5Ocvwur1fdMqJX9MgHO4WWUP30Cigpg2SvVTQfnAQ5sG1ZR5Q7sfmB+Iy3rmJH/KvuY1p1f5olsL0dnHkeh+gbODf4MbQBVaqjlZwurVYijqqcIecRxtc+LbBd69OPQ1LeYXBNoh89Vb+m0OIN8iL8AaFFYEoqxOGC1fRGl1gh1TRBvfcMjN7jWLABgJlBTDWCkPA2XATDCoIlom0bqPi9x2ZsYa6Vp833VlbWnyqlJAEx8RanuuGeXtsM+k9hjmGMJoxewpyGd0+PAH+1GGzbj/o5xCnWZY7Qs8/cKUNEwOsdYman6Ts+jclNFJsyratsGEnv6MkX/mAI7ZTGfW+p7SAfjMefoi/6sx8ttCI184D05Us2Z3IhtyBvGOQfOparwHV5i3BNCNbbXjagWI3qVfgjMwnRRXYUa2hVsx1h22qAftHHynkHmWO5fZY+1TcbHZcyb5MrUztHc07oL5ccxWWCLNUGj9gGmEGciaNlIA6eeXyuCtHF1PdievwmwwI0Wa3qcPTezRnRYZzooXlr4HPXJCQjWXt6fesdOBZT0wVIWATWz/A+AYf8KiNjdCuyo5lEJlYQSW7Pc8FB/9XClPhJgcN63+LtDSgKhUYs1UCjiFOjoa8zvC4DDDrkLNg7MwIcgqXIb0OO1LdYWrz3A+R4e4EQDjsYvKT5IzC3WIMFP/BFjNL0BAE8Ik+qbHK4VdJLDDdbW8Wh0hm1hLx/2rC6n1fmb49qgUpuLI/9XD5L6hoGDQiH7oe8Wu7E/N1gBYGinf/xUrk36qNSzVR5S2ace1vlOhwcJqNGIlIttrcmT/cVqwCXCrYDILYAPhoo2qw9oe20WO2O78CtiK8Aau3NhbbEWVyDOdvgfUBZqr1EVWZW/0c/5aa8eoA8T9LsCRr34feaf2fZBIXPA8ZhaoZe50kaNJcBq4e9pw4B9+JbtpVuoC8zCz6p7wfHYThutyTM4XjUWz1d7EUWcADLmV/di0V5h3o4DuVTh1T4Lg0/bCzelzuhpXGOFZFU7bt+pUx+x/PjmLXD4IA8ogUkRksfMP3Qz/iFKmAnBQm1qW10QFrBBAJMVUW6fO7gYCqRBHqqZw0rVlpBrYqYCWtbJ5fCtPGgFkEzs6UILAcw828dnRnfgifU9nj7P1CnM7SP7wRyYPonrVr0oreGXqObae/p0pEbIx7NvQqK9p0+xvQJjXjMOA6+GcZLGG2DM/F3CN9vYUVRxrbANle0zp03tHI8mAG48LAc6Te6t7qc8pvDLsLmZ0xr9oO4CAEcFfECtus9CmQXA2Ng0Lx4D/uViMvrlhbU0ffI48K+C1x5v/gC2w+ebmAKA1fYQFM7uX07DPEhqQj5B3AJ9mdjDg+ecdJ0DmONKewvz8sME2z4ssAQa7ZwXj3d4MZRrM6cS3l8r3ezjEiDJa2uzDbct8/RK4DbK3MlF1ZR5zqb2TuyATC+zS8w5QdyUtquclrjEzs8tpQGU+ZN7ujZVAWY46wxQcUdhRv+EYnpL04DCPBYv3HPAzcHhaj6PAShPRBnE4XzFK14Rbx985CMfmR7wgAeciGbvcW0UgHUcp1R4JcSSlAoQ/P3uXJZxrlZ5EqqaaRGHsY+nWCqdBBYDbLOoSloD+owg9zf/kKVS7XBhxolQLZMVWSqZrG9I2QhPsARhFsGCYKYfB2cU8GOxjVXqruA8eizr5tscIYdwxr5kACbMWKa+EGMUpzTXXRfi4MAKh1QnWbyRFrrZD6FYhiobOHzLgDHzIrndYjv2wz5Gn+sxOhb77E2k6i3D2iyzODgqzCaGJxl3dXF3+zxQyzamRgFSbI+bdpRsS2tL3KxNhHrIvmuzhbU5fLuNNI1z1xx3qNywxwROVbapebrmAFLGYQ8yvqxuWua8qVwbJ0Qgt2HdWZ4qCuimh/bs9M9Y8Dn6PSAAAw7ZhrZYWJ6L/FTT9HmwhkmOrRrjZpoendnph+d1nvGoIhv0yS7/CTuFVFyzq7EYkkGxjcMrB8POAkhD+yweU6Xc8CCLGjcQeSzCygXGMolzav9sW9A4D0RTATZiDqza/sKrCsQJWKt+2HYFGxe56R7he+fb1FDfYec5xtgzRpJGzmuBWFrq2Iv2W8MZU3mF789NCuFzAqLa/18DhpifUxilkib7fLMABNU4MxNdSCXIMHxuENLQBA7e85kDyZxZ0+NVfR0c4dAgMq+TcbZU6FhoIs0tttNZ4+bQykerts9zTKGHMCmXJSDJHtqfqCGJ31GR1+FFw+foN3Ctvsfh+8mTOOpPMj7VSbmVw8Ao/Z2JGqg49y3zQi1somLJuv4PFkmH6cfpRA0FBKsbWQMECWz0bQYMf6Cu454DGp3JPZnKMAGMbQtrOn20MUL+jXp1tq42Pf1knHmhDHXdxsNKbiJTOhlHcJix5KIKDcEpduYtP9SPp6DAK27TsFFvQLQ8biGSYGwUoBUKtboRwxHxrwOMDdYAzI8WUNtt48zvARplPzC3Mcw8iJDOuo2YHwCwSSFa9yE3yqttvu9VG3kuec4XOOdwNx4KdIHZKoquBdsYARTW887mPV+qwMYEcY3tC8BNz0PYqTaJ80ag6jlZJ7/WNvtWpWuzekP5cYwWcA2ObwHrXZsHO8KKgBkx2/mINWl78WagBdf2UMbU3xuAwza+iGChw36tyDXEbQJAqYdw9b6R0/kMuEA7vYClNiEdrelzK6VTo6/bPJhLk/dPveOnUJXz6nddhRDray/KsOgb/6qYai8C0YQnrOlV4TuCOlrY0po4nardySrw6RC61jNE/8LfoG3WtfYSUIltlcqH/jJ8FUydtQP0ly/1zgMmPmMt7RBC1wKIxIVUm7Bmt5f2MQ58G/sRX0jrorzgQUyLfI7E3NAodflMhVVn/TDb6V9AN+ynWo11twXgi7r1aIQ9MUYelgkLc+nwwCj6MU4bXtAp7aVDjIfQQ0BXtFtXbi8AkvQ/eHglNMqlvcK55c8WCvxd2xcdNzd2+gR0OZdt2vF821YuwqE0ft/UO8kxc9uMcXv+xtS/98G0AwSrtwuYWpz33pn77ZwXVWiGUfZOnEm7XTAhMGyrsuKhYk/9UFJQ2QYAap/WmPOoORZgJjbsFXblTuNH2A8BXYdzuE3oWQ/+sUCwYyildirluCxw6JbZACVOeRVFAyiKJswb1Jg3i8AkFXqGAwpRchH4uKCphlrl6Y/gYJ08WcNjqIGOCMEVSBmCOH1Sd+7ZpsDBELDxBsRZmlfFtAkI8ruYjwb44Hgr88AdlFoZXpmPawE1zyRKI/N65uLxVgkjCxVTY8ETPNnoZANehVoJUDV1EnCuDgfUP1HBtEo/9gJx8vFsf54+b7E47j0duFYX4dXaIn77qTy4bvRjCbCzTj/2AI1yGwKmwyjRTAw/3sjRJJCaO7CEogs/q4ZX3sYuAK966FcTXmnLORRGffg8k9PdfpiTyu1DpIFowiST6i+rYsJ2TeCjqs4yOV3dk9nuAiBpA79AhZVAMpdV0hv4v3Att+G4Vxm3ar3m8QwDnGcsJmhXpWYRbHq+PYb22HFa+Mxzu4Xaa+YUrzdVCXscXE6jzI0deMVHhp2aQ2sKqJX74ZI3BxD0vt9zqxpPDnAiiqlRHvrQh3Lp70lnnHEGvnd3TToR7d9T2uheGe4pI/oWjmOAx7lPeMITYgL7qsv73Oc+38Kjf3OH8uKockm44RMs4YLgSLWKIEjoIJBZxeELOFQnrRSSCE4EPCqpBB8W21nBYTNOtwJSFVxQNSVs8Qs3VoMnnVtDvTZoow/HaRh4lWGQ/RIoCbhGOabgQiCyRF/bxLtM4Mzk3Fe27faqbSTi9UpjeNka/R4RlNQQLQAH/TZ/kv3OdQUlKzhAjlFlVzUWjkef8Rap2w1nE7QIxSZwzHJ/rS94coyThGAKnuy7YW/Lm0vcSPIUyKeHNbyqwgmxHQ6fSq9mPxYZy4RAMEINXJe5AAOIBG5jPJnMECeAD8BMVVKAGVqJujhx2nQ6AFgF19wu8DG/WbZn2A1b4Jpx8woAq/uhnReAVJvMhUnsbOigRWhkaKQwyblhn7WbcM58aVM8Zc+qKeGRwI3byFB1ZXhl23OrgriBCAfMYwmQhq1MxJ5BXGxbmQ9AJWhs1hWueawhnekaajln7Ldx74M4zGtt7uRZTA4vHeDGdjXGUeBVnMrj/meZp3uGhc2wLquQyn6S8ADlesAlQwqzz6eSB0aQZhqAQ9iyJEDhHKmiycDBv5dwWvAtQqEjEHGbOaiMTlS9VYWXeb2pQIugLFRa9QFVSM0BLazbVA+pPhIc7UGZlCHJJmFywhp52ATqpgxgVPIISYYBNUMCJj63z4epy1QDBHXb4M+ASb2EDA6T/yG3Yf8WGbs7CPTyMW1bWw3Rtnm8rL8OHJoDqKiY0qa5jVBN0Q+BW34AaZijoMtUE6HeYn+VXEsY2T4KasyFlQv+KAokcjQIG9luv1aoq3JWFZt9c3wWba1aScWUCrXcigq1AD61TavaQkXD+Hiqi01zn21Dm3pezA+W27CeNh2njWaaDMMJBWNThCRmG9m+2z1f403bAfPmAIUqqZoQzTEJ0lQCZrhpG8Iu556AtNk/oecITrdtLHLwFZxWryGlnDgLtHmLrkogYY0llC55NrAmBWASIgQ0qmcJ2wUOFSRhpxqqqHRReYWjUsMM1jvWDJU/KmWqELw4DP+gfEJZHvAp1EL1jQtKq0SYey9AqkcFkTVZGzrLKH9YW3vHarURfQ6wxvWtd/K+dLx78xTgCbgjzOjWB8SxrvUBkm4D6NjeGj8LOFbdmMVBBXdCmPGzA97FNv4R4vSRT6s1Du2uoUoAGHyc1gT6ZhTcOyW3MUEbNbDpkOagzRrYC4wSxu0U67IOqkTrFYLV5yDGgj1aQxzTNrjp2kbZ1NMGXlGvp/b3IDXRt5bnKucGqxtv066wq3dMP7e+UfPcMhYBVdVGvgJwiEXa54tY2YPtYWvgFd+93glBY779ADaizLNU86Zqu204Ig9dm1Ax4BUgNPrcgFcC0jYQswefbJeN7DN+jVBrp8/8FqDQ+dGEV8ylgGvYzHO7hcJrk4elStQ6+FQ9AMFSjt8CQqizH3B6AARzFB0Jr1aV23J51s/3BS/ZlxPCGPrnWubb8sZR+6wjmx4aw++vgUXuncofcxKpYsrAwWu+4X2hCEIhlYuKnRUUSHtOxffMCwcfCk5U+ggzMtwJ8AQk8diDjbxQEfrG2jI6QeoRAEouqoo2Wcf2nt4FYyq0DMEbM4yvoXgSzGzQxtTe0d0KJODaKmkZ9p7WhVrWXQKsqVYyt1cu5mhaof40KrJ4CzMfGFJnaNvwEUoj4c484YR9PEDLiiy+zmkBtZLOwmRDeeX2eZLub7NGzzCW2hUPWy4yxgivbKiYHOO8IGgKEJSfxNGXhXlAFWMRJtmGyqoFVHTbLNyqupoQUjC2OIvKaoaoEICg8HGBsW0xD4bG+3b67NhdzlWu9eHHZDAptLLPm/gFe0hx0Dy3qtFWUVlNAcbypayyB+GEKNyb5zBAXK1Qyzb1mCrAPF/aw75po9yWnx9P8S2EpiYyLdHy8nJ62MMelqamunP2eNq+J+3bnfn3pFF9i8bihfWcc85J97///eOId2dKah4ok56rpukzxwHfeFUxQhyhg8BnBafIMYxkeIXDYViekErlT4ZDql1UTAmxvHjaTj/ARBAhyPEOyRC1HfBEvoTqDYGGl/DGvRqCaTTByDpPWu2HYMVFRjikYmmCJ3cZ7ghZAmpxoZgcMf9WNXUDSAGaBgBSI7XaS3hiG4Kz0RomeayNAGAow3CUDbfzdkvgU4E9FkRgUg6fExoJbAxxy6ow2xDuCJ5Ulgl37K9j1h7DvVWoo30LewrmuNsaAmpp0wxg/EwA04Q49lUFkraz7Wy7gEm0PwCoEcTZhsd0/1UVYDhVWSkXbQC6GNaO/bVPhISiS6jCRAWNFSR0HOZAG+MpawZjoXiiDeFSzk0l1PQthXoVQrushNJ2szjtHleFWrZdwCugFllB6n5U50o12rxQC2CXxyKAE9oJFA137NqIpzqot/pJxmvYZW7bc+DYOSR2wkn3abQFuzlHnEfNutWH5d9jsQAmJfnpBvasw+1wOJh6AbSEDUIWgUgGUgGNAC7TqGVyjlG+rpG/SOhiuFhWSNmOoEoIk+GCdQ21U0HjQ7isCHJ7QBIAhIDDfllsYxZ4JcSIxOrV5gAtKpkMq8uQxOMbemgxaXv2UwVMizg4+D1816u27ZPHs/0mvHLfJcCJ832sAcCi37V6yDHmEEbbXuWpqcdSneRPIdU8YzS70wQQJ/cjgA9Qa0zQUlNCbTzH8QaoZA6qvL9j85gqyJrgKfrtGPnM+oKeVRxD83DpzI3yeuh8rhyL9lBVpzIp21R4Fcnq6cewOcOsSBHCrXBcgWCGmNpHWOZ4m2BMW9vvMfZvwrUl2jAhv4ApAzrbXsQe5vgXMAVAZJtjNPxTWCnky/2z/gLQ03mU67qN9BusD16HupA16jJGn0LHWBjMBiEGkXNMZ7OUE2aBLR6QtH3gAxToHzkFmFGrHgKIoLzCr6iACF+0KMxh1ggTovcYUgbI6iFc3uLvAonWKHAHoBTwqlYl7YCWqEk1Qw9Z42wjg4sKdgHGxlDimLuJEuBDKMba3DshNGIyCHtUbtHHFuH9u+AVoEZAZGmhTI76jkUVGcfaDa+4jglVWI9UmO0UviC2b58N2cslQuLUQ4aap7aHoW+EMAaAaQKpfEyUVFnFFPDKdof31HCobpn12P45tN5m8nh8k7ZADx+iRfoHQVIF/VC5DdpG3eewByBJ9Rxh/NFQ3XQbn8BQyt6J3SCovYRSy3MbcCdfLTiEwHGnfsPWnldhUgMUCrogY7sgk+BK5VtLQNc8h6jnAl7lPts/xx0QjfNSQ6YOvk0bRTY70y6qqXzHbXXmi+fgyHPeJpemObV6J86iFtfMNrl7CB1VudYT6jL85lKOywICIBN6a1+Thk8LPbrTJmDLBjYfGh4EIJFPdbKam/rRq8tVlIZAYWImwysiRVD+NIvgaRElkyFnTeBgviRVVlMn41/XC6FqqiW2q/BpgqB1HnJY3xfMjAFhLAKVQyjGzB/VBC0CuS0e9PkGu2Z+JVVdKqT2AJ5yP1RRHb4FJdT4QBo174KFdVQAtgnYGVJN3VCSxVjoxxShchkEBbwC7EyhAGvmfqqUYaTlIFwy1xVeqbBS+T05A+jOtuaYkV9MZRKqotyPeeEV6+WUebNyXdZKwdMW6/HEXsQOtVNVKae4x+HBoMfMai+3q8gyRHBnjBxAeyzPo6ZCdaZizNynhoBG/jvO4fh49xqZlWFj5Nkyp1l1LO7p8C3CzhPdutrP8EUh0kSdK836Aa/wLaY53/0NyCfAVEEnhMzqN9vQHuZAnKjnnDbRfvPkcJ0EKuaQULcbQroMQBSAOZc2ubdR+TYxVa97VjqO4ksH/uqv/irg1Yc+9KH06le/Oj3mMY85jhbvmbtmb+KeObp/4VEZQnj11Vcn30R4/fXXJ199eXctgowtJPICLJU23ugHKGGBD4gDvPJ6lcFC5C7CgdvkrQ3mXMrwSniiUktIIdE2XE/YIZQxGbzbBREZIlR5rHCUgCaqr1QyZZWO+wiavGgYZuaNYYQwZjUVgMhiXxZRPW0CtVQyZaDk/qrDBIlZZZUBmP3ISdRzG0eGJMbxCDOwHYFWVlkJcYRXKuzysWxDQGfo4IDqJupbhFe+YS9UU9jJcdue44iCpHSMuhm0BNwB4vR2eLUvdsq2MKRTtZvjy7bTzm73vAgQ3W6fBXkmVx/DPp7H/IRqkSeWQsUM4taBTqrktL2AMSvtBJBCrch/Jvjrq+Ca58p8X57TDK+iHtu1q+dZVZaQqVJ6zVZhpYw72y5vtx+CsTwWx3bYfCQudjV4UtU3zzYVfJXyqoJR1l0IMCZs6IIx7Rn9wS7OyRwq6rF0Ym2v+4arsH755zgt4NxTXdPHd0xgIWASjKiUHgaIqOqxqNIScKgeUpFlsb7KK3zBUMs0gYMwwyep+pGCKothg052JewCB4GNbcwudkGL23IJkAH0aMIT+xdvHDRsrV7dVCUZtmZbhqLlPguYzAlltbEaamUFk4DI/FEZxHnMUPgA6CYJw8PHixLwCkjEtOb7UcEnPxJUreMoCclVQhlR4Dbfeii8mmzAtQoaAWvYP0Mjw++EQKQ7jhxZHi/ebAjU0kiqzUYaYEebCZOi37StMk3llXkftuiz7TaiGrBHZX+hXbZpjB07DXKwpk09rnBo8gg4JAAzwqnZhnNDqOhYVEhpC0uEE6KmmuB4Q/X5drvzZoN5M0BOszHsal9UqC1wHlWoWT/3z/pCUufNkcecp9/Oo6YiS1WXUK/ZxhJP5S25X/FH+eeEWMA1QsvuqKwMDzQ0T1gjjIpvWnUo4ZUwSfVQ5HZC2Sv0cntnC1/EXFqsm7vgVVNxQzNCioTyS0V5PmYoawirq3IjVWt0AIsVlDj2LZRXfBlZM8y3RCsVEOHhWS72p0OonOtqi4daAVACkgCvqLfr7X1uF17hV7UiXK87s7aBO1X7QKN6xhkSp9IqQh2zPVjvQvkDqNkFxthL0GKScvthGyqpKqXR9BHQqFai0fcWycgzIIqxs5ZaWmN7aFBwSB8Yf88AIUb5TYT4S9sL+6wFwGmE9rFFO3d40UyENe6opmjKduh7ZdP6Ymt9/KcObyOMBP6CKttmHCqZQkHXsLUgrbNpCCmQ0Lr18doo5VqjgNC6bqW82ledK/yHblE1BfjT/r75kCJ49E2InNoKxDHPdgrjbgu7hH+N+RSAzhcRGV5Z199iHjmnYy7W6vSddsovx2QBc+v6NMI35kUi7O60CQBhqNbQUAWvDHXzO+g5iPxD+J2qZlQ5bQCxhsduC69CIQWcMLfSrjxKwBPD+4YnSV9Sq54qlRCRFEcongKsAJTM/Wm+KfvgGwirJOz4qhk8YYFl1Fu+gKWDQzRCovOs9lIBtngYmARoyzBJcHLoZvxr1u2xnEgccwiktlnzfMPheAOeRF4pxuJ4h1F1aQfDFFeAQIbauS0X4dpChL51QymFcCrO7NME8Cr3ze/FHMqkDfytUCBxyfK0HN4PsGesU02oyPaFBe4VSCMxTD9yAvpKDWW/WXfJQZUTwnM5BF4RfkiboeCqOyjkU802DuCxDfu2jI3Nreq4xie516vnQhX2l5VQQ5VKC5WX0TRy6HGUYTtjoX3nhiGTU3XS9gy7tOk4b8Sucq1VHQmVFSGFg6P99KMG0ozRXFgdzs/UTBeoxvzA/mOTQLRGwvuwNdsFYPE2wnqMmyZh1ZAnoGiTnJJIAUn+/QQ0fY9qonH5uEeN61syGIHVhz/84fTSl740veENb0hf+9rXviXHPZaDbATAAiqooCE/kEk6c4k8VjyZrt5W1xfqJ9VAAqMKXlVPIPxSCVUESrppvnVGqOFb6lTFbBryhxInQx9VVMKgIOw6j/yX1VeCDo9rYtVRHAlBjmGAwhnDzpoKKettoBSqQgSrvgR0A355OxNKHPbPAEylT5W8vLrAV3Vx/DyW0KhW7Xg8oU3kaGIcllA8AY16yWuWQyDdLhwxJM5bMhPKC3GEV5J3L6oVtOuv4BVQrB8nyOP5Nr18PNsxr1Sbu8uxkS7cWWEcKqF8w17OhWW/QjnlxZ3tAigvjSafF0p5Dk00nwFYBbUAO9HGQCjbzDcWn3OyVF8Jk+xT9RZIXicrqKqVcgHnOOeeI2GZ+xlGuMlNCJtiDNWbD6s3ARk2KESLkETzXlB0Tsy9tc6T10jOnp+cuh2V1TY2HB+txiLIm6d937xY5RyrSIj9m6dt+3Nk3jFVhCoCx+hfDncMIBj1eZ02Nwaee+dpKSfGAuZX45RwboVXUBGK1h0CjGQg4lv7Fg19wzETUuVi+KHKIl6Gx/euq+YRLPDFZVEWrHBdYBdBVy+OlqeO/OTRtscxp5Q/mxDC9s11ZC4mcyBlwLEKCFlUhQP0yAofgYptw3DYLmDyylXDKPqtoyUMEXYJcAxN82czjM/6qqGEOFPNcELatG2BigQrhwOqQFqnL6qbjIrSVkIqwRoPBvnuV8ezXQHLYQCd0CgrjQRGht/51vlJ80HRvPBsk7xidtjLl+om/opCtQA7tu3Y3b6CjQep45sFhVfNEDwhkH1UASYYs0Q/sKmgUntoF8tOWKNtoIbKRSBI05HfKrcR8MpwQjq8S9XFscwvZphnjLFuJCAfl5cOBzMZvuN0m2N3HmTVWT6mdvE8NJVrfia4c3wq+XIPret8mOR85f45hx271ynnXCknzgKRNByj9qpWci2OfESofoRXwKhuuBhbuF67aFahg3znWUd7eHDT5g3CJmnv8U2/rLEVvBKEnLQLNtjrUCEJsPz22T5rWWwzfI7cVBXw4VPVNsAQi0qqHkCEgMowu+gbYYe7QhLxbTr2zwlC3So8T0gCvBKUhRqrO3kirM6xBDzJs4+WGRP/VOofF1CPxtrf2SCMT5hHXqcozMVQgdHGkeAooAr9adVqqrZhg6jIDGm8Dehi7e4I8wBBeTyeEyGTNjI0rwf41AbKeEGPJOkBr+gb8HB74Ubq8V2ZBODU/bV/Acx4yGSf4w2LbqTEuVGxHyqyau2uPgAQmVwdOBaKMQBXqL342TNM3+oHf9GGffZ8m4i9Vv0LIH1LZYyjBkxxDheBVJ6rXfDKUEwVZ54X8lvx/Y5jcc71ybRbVm9F3xh3KOhoNyu1oh+cq84KuboMpax9GbevHfx6tBkX3Gig/HO8FlB1tYEK6yRC+LJiJ7e5BPTpRSmzSk4r33qn0sYioNjlnRVHAABAAElEQVRYQbnFfv08NBMgDPHGuCPfNih4UiE1ypvtzOmUiyom39I3yAOS8fpteip8zL9l0vEMtKxviOIyxxPQjAJVVAoJr/bfRJQAEKOZP8p2t32tLxNv0FxddUih2839pHpohNxcFhVkAjDbm1IJVRdzP/mZbdg3561FGxneN2AS9WleSkF/hFfr5GEaA8qMNJKFhzKMRPiGvuWcUAKiJSCVIoOJCMGrG6ZtlVAbrJkq0SI0j++NeaKsG0nOu5exsP0Wth/AdjnM0O+Z+aN0lPpRR+2E29nOLPdErLvCpLwYG9a4OAeYpH+2IZhbXVwGIA1xX7cRb1TcmQu0MX+wDkkE5qlYW5glzBExgW+ZHeUlQnleaCcT6QvGhJAqwwJeoRbb9EEcSramms1+G9LZol7zPKqccn5Nntztcyi46McwKrLmXPJc+fZK1WXNtpeBkIv0w/l7okrOsb2xwXrlE8lSbmOBE2ft2zR9z98gFd3iAqbcT5glKb27FsMHVd4Y7qcSSthjEdismhSdMDfBU6h+gARZyZPfCGhdFT2ChXgyyZV2oIY+FbwiVxSqGCGHRcil6isUOFwQDQwyZC7fYhiiJ5TyrXc7x8WRMCeX4CiHyllvbYOLH+EFObm3gMKwP6FSJBmvQxKjLuMRdGWIZl3ffGguK0FJVgo5bkGQoWs5ZNKxL6BAUk01RQ4EYY4lwxahzsQYSigcQd9AKGzxIp3Bk8orbWmYpL8PmayevuUxC4S0yR6ehGZQZZ+X16D5jVBFbez4zC81xtv7chJ11WqG82nTgD71k0LbMBxwypxcnMMcNqgNDJscwcYCMPtrvx2P/TaJvW3ZV/vmOTKflmDLeh3eZuTnznFt6u/aU5BnyKShfTt2Zj4ZHmhYo23ksEbtF/ODMU0RvjBImKX9EID58oMMH63ndhPeC+8mca6z6s/PArDRR0NCPaY2tS/2u5eQ2D5uNpa5QVBlKFJouNTuXsoxWMDv+SqO1AYOnOF+fcAfIQAvEQwQJDgSzPiWvlHggeFibIoSiiweSAmvmmF/ghjZedwf0sAgzoRqoMpxc29Cm3Hy/G2W3EWbHHAGRVGGEDYuAIONRdL3vD2Dj3FAS07w7nHst6DFUDRD82zXPri/4MntAheBToAujicEym14vEjwTh9tm+7uFOvHJYJ9rK+aTPhl+6M4fPya2Mx85jqLc63tBDgez2L/IicXf2dYI3hRpaVKyRBBD6ctbdc3EupkCmuqFhwD/aZvbbb7pj/D+Ryz6jjPWx91M7TzmBHmCQQyFDDbTv85h0xO1In0rUuX+X7d9txGyB9LXYRo1h1xbLYhhDSMLwMw+x1hhtRrQi1zewk37b9w05BA7SQI5bITObI4XTslzg+f2UZtvvhsnrFrjGbbnq94MyZ1cxvVGLWt4ercbPB/7uPOQcovx2yBLcK9qjsWThoPPTrkNORuM/UAXXdDC9VAAJXIhUU4vEplTwRfBhOgB7wa21sBkhVgjeGIzXAx92Yt6fAgpycuIhyD9aBS6KDy4feuqkiAA7ChtFTcAEncN0IUgTZCjAx7ohLrSQAQ1koywNfKIq55KrWYlC0TxNc+gfUrwLQBeDoC+gB2IhG7ai/WUkvkoGI8rTFC4uhjVYRXKpMMW7sPx+iuWlWOJh6kGbInEGS97SwC3RzfGJCw2Q/B2CaqB5XUoQLzgKgjAUS+ec+Lq29LjBA5v687ijXOFfW2ffsiX6LbwCshJPYTQHb7zC74U5GPzLDLhiJLMBYhjCrJDFXkb23dYU2OsMuGQq2Nosuk9KECC3UZ1QV0Nfxq4ctYAl6psAJe5W3xAf9EnjT63zuJ7eLcYR/pvpcEjtXss/tE3/hZKcbcUh2zswycFKI14Jj9bq8B/7TXruIV6zYbd9Uof9yxBTbXuRnnYfne053D3TJPMmxD6PoJzRcuZEgRb/sjVMtE7h3lvlw7TNh+ZM4r4dUceaUGkEw3w/iEJebJ0r8YJexM5Y55lwzjM7dVVhTZExVSS3OEjbKYCT8EZKqrDgKHBlgvpndBmY0AaQM4OOukWRjhZTMW4ZVARfCU+xHwija8zDXfYGfYYCyAfDDIm/vymKsQN5VTPCAilE8/V/uY92uYJOwZUnk8QZxAZYBEk5FwnW0bODfLQByvjyOo1JrqIfN9bWKT0SnGp6qI6Sy88hhTvGWxObUXsYV1W7TdVIatLW8CE8lnTJ6H8cYbACMnFA/B9pC0PYcZ+oZEQ+3M/zm1Z6KCVyTfNzR0hZDQQUJFm2F8cwAmx7/n1Kn6fACLSNSfw0qbidUFmto6Q0ihU9iU73+/wK0BMR3nAvbexpfaY6L+uhiOurpALizCGnNYKZctcpQBGwGSJorPBRNFnq0BfLimuizOOaq4pu3yPsf6c2hoKF144YXp4Q9/eLrpppvSyScb0l3KkRbgK1LKsVogAyy//P5/d5b5BWw54humQireFgjdVimkIklI4u3RBMocVTu5CEXWqZ+b6AfMCHRUCa0BHEYBHCYZt3gs3xYohFJ9JDCJ0MEauNiWAMm8VcPAFeGECiKXJ8FMqI2wp3WWcVQjL1cNW2xf5c8qUEv1V4YcAeKoLzBqQjfVWx6vglqVIiurmwYATTkU0G3z6yY/74snAJe8/5L093//9wFv0Pakr1/99fSaX3t1+thHPh65qkaHybWE/HVlcSX91mtfn976u29N+26+kfEMA1F4NTaLUiRtd9WyzzwdveHWG9Kbfv1N6Q/f+ra0/9b90S/hzihPn3varfSud74rveSlL0lf/PIXYl3TPoM4ntqxCp3DEXQhboRoarsFYNM4Tza1R87zZaifENFtWa2k8ip8APpjOKFquIBX3GwIy4R21hVeudALOyX/tiVw83bTEErt7xsEtZ19s9h2QC2c0SaodLuhm0K+oRpezZLbynNq2GcoxNjftj2uUFFV2DDOeL5Nd/4Iqpxzw4w9H9O+aGfb7mOeCa6EgaoHHXspx28Bn/wdWuCmr/IdecKlQqpSPQkVDCMTkDSVNQIcQYSJxJvJ0oUW7mNI4hbOhiFfocaibdVcOiBZhSTU2uDY5tPKEMLRCKoiVBEHJYMMgYXJvkdp17fu2VWBiooxDhfAKCvA7Jt9sDAFuVbYlwp0qcxRJaQqrPrWMi91fOiLgKq53X77XYpbTh1QOmldQxh9o9+n//4z6eIX/UL672/9gzS/yLWN74nHigT0HJuqkXxepDZFTihhkn0zF1QLEnbJ+96dPnjJB3jrItdJ7DSKHf74//mT9Ir/9DKuHdxQ10Wb/s0n/za95Bd/Ln35S18EUBEmEfAK5Qv9yiGJVheEhSqJ0MgMr7STSfDte+T7qgcuXKvO7e63E1ZgEmUT6q18XtxXFZlAsKmOEhrZtkUlFJeUKNy/RF40jy3M07aeQ1VjFu2XIZ9/2459UXXWhHHaeiMUWd22bdPzFcCyniAq00zIzzIXkLEFjOjFua+74yFKOU4LYOKqsPa1BSc8kOEVT4AEftaWFvhIFyr1EN8XHpwYntbDOhxQqQWcARK1Cd9XEdMzLLRohou5O/PMdlxXUTG1UON2eGgSoArw1Bu5m1iTqFeBKsATMESIpios1FWGK7KONMGanW8bascaY3hhj4oqFUuGuAFgKqVR112OHE1AmFBNNcCT+wq8egY5Jj6VpVKBAeOGVZJV29we/dsihQJwJoMut/NJ9CVAlcoy7Litiow1rkom3+yHIAi1l7bgwRi/VC3gV/T49ICiDQPM+QXEN4tE6faZ33PS8oBw9VpeNeA4KrVXE+zEWMxHptJrB8S5R60kE8apGOPi2EZ1rbpL1VvL+VD3rQox5Bzy4CnnF6vyemE384sFoGNXAZo5xzjWbeAVqjCT8ke/mXyhhOM4jsl8Y1nRFWPhn1Dh5fq5H8JMzxXKsF2KrAgt9SEHb3n0klRfKLRVKA1zo+XnN22BTR7QWAQuuUQSdSBHL9d3QUkGORuGwKFCMueUMEYQNDTaDZHL+1chXXyPaHKyAZkEHObR8mmZ+wlK9DFUaQ0JghqAw+2G8uk4GHo4BpgRZM1S17fuTZsnqp4HqptUFZmna42wsQyqhG2rrNf6FaHwia8bD1kZg/703tNRhtYLr8ohjxlvgTeFSp33Sn8r3sDIomreK4vwSgfMMeyEHrLdurO8WdA2p06u+pfDH/U3hENDgLFc1lBv3XjtvvSSX31J+qWX/GK6FT9iETWW0TjTwCsvqbkIZVSjuWiPkiQ/9/vgrYfT617/W+kXX/wf0vwCeQvrRd1k5qqYZlAx7YRu8r0UIA4AoHx7n2WL8z/O2wcFR/08kcvj9rOlBSJtCFU0H5lqq0Ug3PAouc5QIMULmxqJ+qtE+EuAP+7hPFfYUnjlPLFPwrzcN9s2NHUNP1bVmQ8BLc4b81uZT63Z5znygOmDNSGVDpvqrQ7HMRxzZy4wjiXykQ0AXquLRTR93P8IsH7u534uPe5xj0uvec1r0gMf+MDjbvOe2EBRYB3HWVVBcsopp8QbAr7jO74jjY1VF5zjaPJfbFfDAX2eL1QxZEPYZjiWZZhtvglwE6evlwvfACF8QqB8GyfkWGexF9JZhEZCpghbA3qp5FFJY33rqBLaZuUXWrnvAFAoK3UEC0IlL9wCDOGEEM3tQpH8lkOhkzDDG40IBwSgWPJ24U4Fn7j5oW+2qbLMRO6530ItVVUeOyvD7E/kwmKVEQRZNwAaoEXF1QgO1Ic/9dH0W6/7rfToRz06ffYf/zGdec6Z3IBNpk9/8n+mk06ChLMm/NMX/yld+APfT5hPK330ox9ND3rYuenpz3h6LfU0nKUKi7TPKqRWtpfTV/7pK+kjH/5oOuf+56Snft9TCbdoBRyyby5GX/ryl9I7/+Kd6fQzTktnnnU2UmPewEgWHMe2hSMo5LHdQZRd9ttwOdVQgyRFFwSGbQF+o5wPxyk8rML+ULnUiioXhkHPL2DM/d2+ReLSSZ6IxznFDiZ9FjZ5fj3Xgi7PqznOtJ1vTlTVJTyyCD2tK7iyHy6eefsCSX1VuPkWQftviKGLQ86xFRVtg5sW27GuIZ25bY+rWsvxTjBfVIFZBFq+EXGCm5NFnFlBnaGoc/x+Rs+/ibFHxfLPcVmA9TocGb7ZzG1hg1C6CxUEDc18SaHaAV5FKBrzu/YVAhqtAVCEK/ETB9a8SF5ShCzLqJkMI9O/i4ThgAnzVTWBhZBjEUWQCp8cIiiMmiUxuDmXMkTjqxTttZmfzkS32w8Bkf3jkhLbBSKGzglOhFHxNj62VbO6Mpuqoj52vo2KjGP4ZkFVRLbPnwFODA/89Kc+lX7ply5OV37jG9HIgQMH0sUveXHaO9G9Ga9CIIVGXXi1xvh8cnnNN76SXvvqX8MJ3oMKbSNde+XX0k88//np8i9dlj5+6YfTz/z0T6cPfOAD3PMOpWc+60fSF77wv9OHPvD+9IM//CPpYd/J9QzIF3alX3kshnlGknP6l/N6WUcwpA2a+b4ci+NW6TUuEKwb0X6RC8vzUsMh2zgEvHKe5LE4aM+B8Kra3k2mv8UHKswEor00LMQ0CmON8EqPKwhsvtXS9lVwCT0FXTvjYe7kvuyANPbPdQNYUtl+mENNmOr59qUEOwOyo6WcEAuYCsAipOqdPJsLhF80VG71ul3lvOL7aLif374AUQAO1owKXqFAmDythleAk6GTaqiQzzi7cYwAMfUmVT4dleUrqr+YT/FmO24kanjVAaaoSBLAdHhA1WHNUEllWGAFxrptt1WMOdGBJgFACCULhRVvFjYZvDArl52wujGTg1eQKD6jf1WIGjdJPAziwwAekehcVXmozqpjRv6oOpwwgzTfPKWafwtFVD+5H8d6hmO+d1jTXA8DonmXXpeASfhwEdpYJ4RfXiIdwcJBussDNOb86PRJ9IGbeO+qsVUAI8diXyPnFR8ZNtgYHx9W4+D6sqNm85jCSUM0eUNi7nPuSwXjeGhpP4Bu1Tl1H875qGCt6nf02RBNtwgbQ11W5fVK+Bw7b2X0WIZtcv52VGWxF02qOMMmrcmzYotwSjDoOIVqt+mbvo9vYOTtjh6v2slcWDfTCfOOqQaqzwttmYOtd/p+JK2+LvweL0zOj56Yz10gUDVU/v1mLLBIyJzhgRkuCH0WADSTwJoIt6u/kmsAkYVDS6GMUZHjm+tUTO2Eq9UHFVKZCFw/cRy1kmH7FgGHQKMP5ZQgyv30sc3zNMDb+DJ0sq6fLwgnOM+qcMbI0xR+J3X9bO8pRGNk6OHxaFdllMBrhJA24Y6gZg1IwsACqGQIt4K6Zw4QMzo5kObnyX/FQ2+jTHw5lfePK7zKOYMqj2m4nBDKPvQDoFdJAu8itry6zEuibGOdaBnAFIDDtn3QlN+eqEJrGQjUP8i1lHuh4bHuNYuvEwnJt1Dy7OVh0Wr60Ps/lJ7w2Celi579Y2nsFK4ztd21RygYBWbcY3XIY5BVT0ItHaVbbr0lfeCD708zJ+1Jb3nLWyK089KPfiK996/es6OM05ZbJOPnUhxA0pxnwp/HPu4x6ccu+nHOBf5eQ91UvQmSBO+8PdFjOE9GUMxtsl57Tjz3uaiK8y2ODDEgU8BHxu1D7E2ejk1Mo0St54H7OMcizPAkE7FXNtnG1xKOjpHXayeElD7PMRedJ1ONcELb8FyrPIvQ1zwXBGDkHXPuxhxkrCeqOBcOHz5MYvuuz3ii2r4ntdOd4fekUX2LxuLkuuiii9KP/MiPxMXIi9PduXiN0hEKaMSiPk4+B+GTyiq/MMIr39AnvMoqFyGHIMiQQvcXMKnSWQU6CaoM7RNG5PoCJusKScwP5U4DwBKLybkFHR5LpZU/I48UzqVvHDQhuUU11AoqH25zAlLlvFkqm4Rd9sPE6B4zgBTbWvRb5U6zH6q3IkyNtr31iXEDSXS2J3hC2sKZcX8hjp8Ztnbd1denT/zNJ3haP5C++/Hfnf787X8eMs4Ln3ZhtDHIeK+98tr0Z3/yZ+kRDz8vDQ+PRPjogx/wUF4vz1NXbkBHW8ArwJMlK6SESf/wyc+kA7ceSM9//vNxylw4yfvTIdwQOa63b4970mPTBy55f/q7T34qPfV7vy/twfFb4CmvTwLtn0oobZ/HIqwxnNFcWC4IqrRUVgmyMG3U1x7LQClt6X7CoyFyjFQAk0SOnPvxYfOC9QdEMnxS6LXIPgKtAI+0Jbwykf4YkEjwl+0s+LSu86IJpcxXZTigoCzmBzcts/WNRuTdyo4kNooQSMbpsSI0svGZgM63C06NTQMoq++XOcMEkxPkEbOPfu65bOFgVn2ubBQnoPxzXBbwu8bpJ78dzoKqG/z/bR0+VC79QAWhgEDLgl8R0MJ5NlmDGbcLSCpAxfeNP6yvE2J9Q7/mAVCGH9q2kET11iTgpAmvrGu4WLyxkOPmdlXWRNJx2tEJc94vEUKnGkjnSTWPYX8qh4RdJnD33trcWbbpdsdnnx1L05EzSXwbZ2qCsdQ+C9ANFRn7hXoM6CZ8czz22WP97cc/ll72spel62+4Mf3yy/5T+szffzr9zn99I/fNm+RKfFmamJgIaIQ/TihxBXYcM35x9MKwwf/xJ38UsvHfuPgl3EQtpT/+oz9M3/u934M9UGBwI+p1873vfS+d7k/PuPBpad+11/CUdDQ9+IHnUKc/2RSsZ6c4bsGfMCon2PdDVWT43ajcVItW1bVfQDvPrQCsbsfE6uYXG6d/uQ3tZsJ2IdVUA4xF25wrxxRtY3OLba9yTNcg0ZrngKnEOaeDbNPnVAGXj+k+5trSGW32ZZMDGtqorZpzxDlJszt1o3/Aq3jTIv2z3XVBGR1pHsPjlHJ8Ftha3RcwqcM64pelvUxod87dJLAwBA8YkeFVGxUud2gRakeMSgWvmOu+eS5yWOXk4o1uVQouvttMGuFHwCsUUl6hIixMmCTkMrk4CcMNqduBV6zxFbnmDXv4A9GPuu3IVxVaTTYANFQBVW/Bm6XdU2mnenhm9QhBjLC6IxVIXFd8oyElq4oCpPHWPKFJBXGqL1OAsXXGObg3+nfZZZfF9/kLX/hCumnfPt48tZj27Nmbzjr77PTo8x6SnvusZ6T7Pei7aLjrroeaDCDXww3Z+lZ/uuTd70mXXvqxdMXXvoqy4pZQt++dmU4PfMAD8CUuSD/wfVw/9gCXkmsogEp4Q4k38e2CV/glETIpeGqEKgacuyXgUAXiYvf4J/JhAYgiMTq+Y5xbh6rPSOhmhnyhqEKdF3Mh8pZx/vEX462MqLF6JwyT4WLBhTtyjunjBfCs7ObBqlBM8lVNnBngTqCpmq6DLxrAFB+wWar6tzCW0wJuxWcB7xw/8ygS1tfnxXlDWGNr/Aw+Yxv1BC2Gg/pnlYus2Xr5/Zu1wAJv1FPp7BogWPBtgXuABc1E26qClvlfsNPHgj3LW/SGQ2mTQ2+rowqvVNa41leJxKvvR6hxAA4DJIMXooybQ4rFwLAwHxA1lTWuBcIJP/chnQonZ8Mc8GyddWkvbzLMMEQoZt0J4NUKyi4VTgOEmanIWhVe4QgM0N+cm+ujH/54et973pu+/o2vpoOHD0Y0x8zMTDrj9LPSky54QvqBC384nX0/5lo1/SLHlYnV85sIr7vyhvT+D30gHohdd/21aXbucBodHY1wsnMfeG76nic+NT3jmd8fNorwR0Lz+lCzfuxjH02f+p+fDBtrKccovGI6o8jqTzfccH283e5N+CVf+OLnGLUrZbdYt4+nXGeecRYRIS+ODzxXQp9xHsL9yq+8LH3la5ent7/97emJT7ggPeVJT0vXXncNAOsv/UrF8aJJxhXfH9Zr//NebGFhgevZj+4KzVON5TwwV5f3J4tAPMM9TV2CB4bP1I0E8jzFmxLplaoz55Khgfo9PgAYHgeC6/DVRbA4Ry4r85llUFW1QUQHYZ7Omyi0u0Dusy3GPu05zw4fH0aYIaGX07z1MYdGxlsS9wsmecDPHDh0cxVSms9lffhj/rG6uppe+cpXpkc96lHJ9eFFL3pROu+88465vXvqjt0V8Z46wn/hcUnC/f/uXsx/JZXvxQlax/HxC6qyyQTsLib+74VOiJDhhKGAa3XeK8enUksFV+RtwmHwKUIzDEzwJExQweWTC/8zMbzt2bb7GZKWQ+AER4admQdLhY43kQKlqMfFy3A8lTVuFzqp/rFPAhCVOBWQIlcU2yb7u/CqC7VQ+lDX/a1jXqlIJA7wUa3l/kIf66sqMtHjJZdckj6FguLpFz49/V/nPyL9xV+8ozoW9nM8XqFVs1lMcH3djdem5ZXldNVVV6YPfPj93MTydhBA0yMf+ch00iknceOIBJlj3Xrjremyz18Wir2Dhw6kn37Bz6QD+w9y01bf3dHe+voab7O8IV1z9bXph7/2wyhSRgL6VXbZSo9/zOPSK17xinT/+98/FEjaeGK0UpEtAXUM+XM1NDfY6FCVtF1Vk4uAx9livNressQbd8yLZmhlP0679VTMCa+0f4QfeU6YF45hCdvb/ijOf54fgs1FlFPmzJogn0hWRwW0IyFvf88g210MeoEPOIeYb4JQglzPfgg8nQf9/KcKrPmZfVrjc7cP1slVbXuZ11pHbrAajNpOzF2e4G4bdsC5LuXEWEBbruEoDvYBrLy3cKEHFDgvmvDKc6v6xa+IoCv7EG6fZ7uhfc5X/1fRZG6rUdRYqq18KCaIMBzMUEDfXtd8Y6EjUSmkciiHxAmfhFeqeJpha5FU3WsZ8GSYY7qPbxsUphhWJrAaR+4d8AqYoqCBS00kVm/4LMzJGu4Ar2qxUbQhwFJlZa4q7SH4UdXVy5PKd73jz9OrXvVr6ZZb9qeX/5dXpf/wsz+dnvPci9J/fOkvpf/2334n7d+/P73sV/8zDvXpAB/2rfumssz8HubBuvQjf53eg9P7kAc/JP0Qis6P/+2nsTk36DqD9f8CwTZvMR2gA7pqBw7cinO5yXXrb9PnPk8OO97od5/TTwvnp5drtLYTDO1OsO/1tIZaqOpqH7oKJ+QPFWfZHuY5mxfQYb/mGwQN81zHOZ0GRDVBkmDMMM8AZrRtYRoEMPNmw9+Fff4SYYMAqh7aGeG85GO6j+1o2+lGXi7nn8DThPJCxNxv6/IcIPJy5TbmeAEAzQZcc5vH9ebZORn/+3cpJ8YCrI+uPYlwO5VOAWxYFyKJOCCjRV4rEAAAyPxYhBjygChC9qizo7wi51CEkJFD0brNEpCJa7vXeRN2+7bZCCXkrEaC8lB6cX0BlnW2VwNWtEanquOpvOLmiYtPrerqti3gSOReImkKn6PYInSww8MX+x2Jy1kPdwpjDDWVCqR6Hc2ftT0Gx22N3wcz8MXmuplzLjXfOFi90Q/YI1xjXfv93/+D9MY3vjGAtTdsVRqKHgD4vvTlf/qndCnq7ne97wPp13/9N9LTv9+bVcfBzaiqZJQY11+/L73yVb+VPvTXf5286dG/0kaWb3DB+N+fuyz95Xv/3/RDP/iD6fVveEM6/fT7pA4qKjob8MrwvmYJ+2GHyL2VzwHtBVBiDd6lyGLHAETCK0P/8AEMH40vMb6g4aNZgRfqLaEl50uFVJWPjLWapPSe61aosRhb2A3ox7zYAYF1BwMe8mbH1ihQkfMdyiv8OyGY7TbDAN2lgmO8cXBwmv+7SoYAjb4RUQVX7X9Vqq4Dqce2zZXG/GpzTR2ZOgU1D+eVUNWY3zZcyjFbwBcYCRJU8wipVNyYSNyib2D43ApvGhRm+Ja4gzeRkxZnwjfPNYsqpRXC9QQeAqaszHLuLwI0BoBLG4T3CUL83ITtnr/pvZzHvGiwZQloUd1f4AMAr6yrImwdtc00eZFyaFkVokZ6C/qxscY1jDXYtwDaj1VUVKql/O5FknJAimFfv/fW34t7g3hLoTtQrrnmmnRZ67L0kUv/Or373e9Ov/Pm34l7Bd9auAk8CXUYyqR/+PQ/ple88uXpc6ir83Uhf699Wdg//MNn0l+88y/SxV+5OP3KS/4jvoEPb81Xux1Q6m1ve1scL/+T99Vvs5/+/OevXJ6+fsXXcpWdn9b1gft5jzgvXfziX+DE4O+QWP/A/lvTgYMH0iPPf2R6+ctfnp79nGen//KfX5nO/csHoRB/Xrrwh55G24gSOIeCq17Oq6F/G+SGPnh4f3rGMxABsH0UyJQvLT68nwNQGtI5gHJskcTzvl3SPpi7bLLxVkA7aFjhBv7czKnehwiduC/hrT/mnxZYNvN92fbsAaJImEfjWcHFpTESuTNvmiDTRO7mwpo5jRdYMQdyyWGGKuIymHSeRoJ90lgYvpht6z6qzE5Esc25uTl8yVvSlVdeifKO9aWU21iAFaOUY7XAIrlNPvKRj6TPfe5z6Wyelj35yU9OD3nIQ461uX/R/QRLAhvVN33c1KiMMe+R4V7CClU7wgsBlyUuIKhchFL+LuhwH6GFKigvcPnNdtZ3f2GEMk7vFAQNtpeBxCpO4jrtGR6mWkc4YS4lE5RHcnauaKq9DJfbwAlWvqqaKMMS4dX6hm/qY2EDatmnZVQ7XowjBxIXb0uGWv7eTAbv2/t844UARkgX9XC8BCSCPHNQvY+8M3/8x3+czr7v2elpP/B96aS9e+lV9XbEUGlxrLhQKq3lv9mlQ+mKb1wRTzP+7M/+LP05N7AuhiZx//23/X568lMu4M6WGzyUVO/9u/el6667Ln3fM56SzrzfWemqK65KWzzhcRwqy3pZgIaJcd+7l9AJYpy0hZ/5n21qb9UbKjAMn9vEmZ/E0fd8qbBSeSQo8vxo436eamtL7SNoVLEk1LItQ0eV2goHtaWKJnNcZXhVAbAqP5WAz3PnORNG5fMp2LQfYWdsmrdrV5O5q/iaIIzC7dFf5keEKfKkNRfnyLzSfKw8QciE0upcKjhW5fayX/Zb0LhAXo2RIfKtNXJkLeA0qyCb4IZlE6dTBWApJ8YC3PPFdSK+1DRpwnCXaJVT+AA7JYeL7ZnAaemu/1wrqvxRAzihQgbB+QaL/BiwwhBC27ctIckswEHI1EzI7QEEZvAdXnRQAQ6+FqESgkWk6QmvX1U3qjcC8jvbubcLqGLOJ8PnRurQxRxmuER+LMMfhUej9CWHodmS/VpC4TOlMqnyrfmOClsEccrU7Xe1n7a46eZb0tt+7y3pj/7oj0Jh9prffH36qef/BM7oZHrYg6bSH/z+76df/uVfBoa/M339yuvTa1/zasKTH0G/nNNCliq/1mWf/1z61Ze/grwaq+mlPOXcc/IpXBfskefAsECuFdRfANwJz01EfuuBwxx/f+SzePHFF+Oc+01J6fGPf3z6H6hHe8nvok0z+LMtFV+Cw2EG3VQ2CaQEe1MkeM82Vb2lymoUEJXzi9mGyeCXcSSnOCfNtxPa9gr283jNtj33KmfEHIJLx6VSzvmgui8r5Wzb4nkTghnamG3gdtVhjq8Z0un5ta4hp/k8OhbfWNhMVq/9FnlIwRA1U7Rjm6UcvwX8TnIygRPcWITyCnWd64NQKMMr1ia3tbh+VyGFqm5ORfWCAmINIIN/cWSCcnvWYZ0XlPSo4lIVxPclwgE9pJAEeGIJ+ELIn2+SC8jF2hf1WP+QMu70KyrzT6iYOHaEn7E+2u9QdZn7CZC1KxSNAQbEsY+sg83ZExBn9SDHJBF4PESiLyrDHPs44Yf1uhZ5nlAy02G2n5r+8A//OJ6yz87OprPPPI3QmuemR333E9MMqQOuvfIr6dOf/kx613v/ihvNr6af+/mfT3/6p3+avud7vif1qGRG6XEIIP7zF/9K+uQn/y7UB08jLcHTn/60dO79z4xr9j99/cr0nne/L33hsv8vvee97+Nmei297Xdfj7KbsDmA0Q5cqg0SSiogYisSyndvDYR2flmOPDcxHtZ6P/QcB7zyi8W4BYI5B5h3+54bb175J85ZB/8m8laxt+q53JesYmsqo+xevFGRHFSq83pQgQe84txD7jmeoZGqt2g/F3yAtoo4/IR4Q2G9PYAq+UgNJ8zwLqDiTs41zy3N4ptuMzd68Y98G+WutqNG+edYLODb64ZJHj5AAvCBU4DXtRMRIX+EAra5lo9OVPmpTCK+xcK79zSiJRqLgFDBhOH9rH+bwKR4cx6d8fpuCJ4hdoKcfsCG4W8qr1QP2U5zivg2Pn0F1yVDCq0boWJLqLYCoFXKy1g3CGnTP3f/DcDI5B7Sn9A3Q8eGeZueoYA54fprXv2a9Nv/9bfjO/mwhz0sPe/Hnpce9tCHcW1ppX23XJ8++pFL0yUf/ED6x89+Nv34j/94+st3vifd/+x/E8BHqPLlL16efuZn/3264sqvh4mf+9znxvf+nHPOSbfcdCB98YtfTO9+zzvTVVdflX6HB2P24Tde+5uRK8qcV0I97xfe+MY3pUc94nx8HEDeOPdNgMNl3ga4wgP3KUCe30eBuPcb67zcZB54NMLbHW+68eb0s//hZ+LYQrUNfA3vO/4bsO3jf/MxHpT9XXrC45+QXvj8n+bh2X4UaeNpes90mpqeAgJtpK0ZRBH4hkODvBSMh/ICq6uu9uE6X0dhZe03brHwH7oVeIUSaoxQzEXeYOjbJa0TKixAXlwzYk9hIy/eov0JcqL189RznnOi8moTJ4Wryg7EtLpzZHY/IBO/xXOVSyRyBzqaJD7PBcMXTd4/jRIww1Tr5zcODjEfd95EyHxRAabfMkkuryhsWyIXsnOu2d/qw2P/13mnqsyf/l/KbS3QXaVu+1nZchcWcHJdddVV6X/9r/+VDh06FKFmd7HLv/rH/ThzPTxNF2KczlVGeLDB0yjzF+U39NnJnGvKWw4Bk/BKAGVeKiGVOa+EGhZVGn5mCKIQZR1Q5Gf5c0GKqhkvaCqyTBa/wtv6VHNVCbiJU6cNgdYG7Rgy6DGFOhbhy+o6CdoBR0M4L0IdAZghiirAIsyt7kd+e5/KK6GOX/s4PvXN22TIYwWvSDpOIni3OZa/+cTfJCHUCEkDf+pnXpAe89jvZmCAIy7c7+MJ5scu/XgkXv/vb/7dgGrGJ7dQQXz9K1ekycnJ9PMv+jkWv6X0rr98V3rKU5+Szjn3/lhOaDOVbr1pf/rgBz8YoOvR55+ffvgZz0wveN4L4qK0Sr6FFscQ1AmttLMXVlVQqku2sIsJ9u2LIartFqoxHHpzPzm+JRRQ7m9oYc5DJYxyf4GPgGqZ30c4v4bZmVTd7SZQ9PwYZulPz79Ayf8zmNTGgr8+oJNhgCqtLNZZWkH5hnWFUgIyi3Y1X5XQzDcO2o8q+TxP1FBe+Xcu1lXZZR6r6ahbteHnhjUe5gm4ii+VedrG+eEbIrWBENYnSF7UPbezvDHI8ELzpTUdnXys8vM4LMBcXMNhM2xQ4AATCAVTVljZsuBICLMHmLQLXgEtLDncznnN1Ah4pWMquFDNRNOATBxOvu6+AdD7nFwELeaZmgaM5e2RdJzGhFfZrxWcVEfDSdJ5wnEx4bsgJGAZsFjQ4ndKeKViSDWVQCpDKo9pn+ZzuB0QxmL/Vhi7Sdw9nhFvtunDto9+9G/Sb7/hN9IXPv/5tGdmb3rDr/9meuYPPgMZO9c5QoGW+P6cdeaZ6b+++S3pJb/8svS3n7g0/ehzn5l+gfDAH/uJn0zThPn4VsdlEqK+kqea111zTXr961+fnvy9T+UYXEPp8wbrzAte8IJYY3wS9/x/96x0w3XXpic+6XvTN66+Lt1y8770Q898Tvqef/vE9D+4hvnWmp/4iX+XOr08QcamR8KrBa7/A3xXmqBQwCTwEV7lcyjM0tZVfrEKjGkPVWzWF1A181KpSrPtfr6vzbatD1cOCClAFDItYk/fkKi9tatvIcxFaKYCzrc+Ns+N0KzNdXCqocgSfBpOKNDKKjDnjPmxpkYJMWx4OIaxCicFn6WcOAu0WQ9USEcuJm/48SkisbiKpIBZhL3ib5hsvUXYtyFmFaxCSYUv0CYUng1AlUql1eyZcKjNOhFg1sTqth31mS+sJ+azsgR8UUnFWmU7ApJK6YVSRxBhYvDan6h2ID8LD0MCprGGGu5YQRWTenPDLBxplAhz07+JfE7duWpurXhznkrvWpUVIA2FcyiFaqAVb0lUncSa2Uv/rr32em4w3xBP2S94wmPT61/zn9JDH3UBN+Uozjfm0vmPemh61kXPSU/+vu9PL33JS9PNN9+c3vSmN6VHf+cDUQ6QEoEv0dvf/QFeNPM/Gfx2eu2vvTz9/C++OI2P4dE5v4FkT3rKBem5z35mevVr3wjMfnv667/+UHrfEx6V/v2LLsavqW4o8xAjsbpvSWxAOD+LsfiAzbchYvtcYjysxxyIfWYid5nX9/ifh1Y7OcZYo20jEtbgd6hwi9DKHPppMnh8D0tAP1RuKvKqhmIzJkMNtXBDNWd407VvU+xRESXUVx0Vc6x7TgRmXfWbYZPVZ1VY6CHqd8MJA8L5pkqu19G3fEh8LJ1H315Zbh5ro5yAHypsXElyKJZNViFaqqnImce6bQ6jDSTTi4dXAA1Che68iyTlQLAhoJEJ1A3ny46B8EkYo6/ow/kJEsL7hr111vuT7kN6j24zrLckL3dusoj7VkPhlYBEADMyxRvPUVflsoCiSIWVYXWLqLMmABde74Qeo4AX36Y3AqQxdO1TnyRlAKDHe8PnPe956XWve11EXWws8cAYcCwU+ZEffDZr9+PTr/7qy9MVV1yR3oAy8g/e+ofcewwBQlbTW//gd9PXrvhqPLB+85vfnJ7znOcEaNpmTfv/2XsPAMuKOm2/unt6OofJEZgZhihxSIIJRBAxIYrIGnZFFyWY0XURAybWVb5dEdOuoKKAiWBOK2vGVYIiIkEBkQEGmJnOabr7/p/nd051n5nZ/T7CrMvy74Lpmb733Dp1qs6tqvPU+3treOfR9PSnHZVe8tIT0hve+AbCBb+bPn/xhemoo45Ohx/+VBbaWKCJvrguLV28rHwmVfVYS9/+5nfSOha7Xv6KlwPL2K14cDCdc845acmSJel5z3p+2mOPufh4jaX5CxYEWFTRqdn8HIB6fx+qNPpqgVXkP9GQXv+aN8HmiX6hPlQLDQOCrE//M/Szr68/LVxMn87Xb4DQUUFhTh7XgzrKOUA70K6/h50UMXtvAjoK0lqo16ndCfmQoaJDGP0XPmjNqY9nrdk+D5FnjUllm/dBmcaZ9/Wt5/vLeTvnoZYt211QNQqcnIvqT85uGgWAqhgTPlbVW1RhlE9z9qkQRoq/cT2L/8wb5y+l/yGPCc9Feb2W6CdyxkX2D/unz507E/5t2yxevDhCRx92Zo/hD1amd4/hq/xvurTqwOYD9f+WJBQRNqm+UpnVxESwChcirItwu0lWsTrwrRAijAJ7VEE5+LjjoEbiJutAtYydmkBFhVITCiTVPSbf06C7EfgkbBJ0CV3CLJEJn1CkyMOdBYfp0Fh9KcPf/LzlE6S4UtDB6q7nF1qYj55ZAhqTeRThgJg9cp7sm+VuiCrGLK+m78Vx/QHiNP22TPnRbOXKlemAQ/ZPu++1W/r4Rz6O9qox7bHn42JFZ3TTaNptt105kaoNfKPaUR0xSbzrz3fR8e/BRPFF6YYbbkjf+e530kGHHJAWLV0S4YQCqS984ePpN7/5TQyC2y3ePnV2AIOoo+9f+X08ti5MGzeoZGJ1mcHXsoTaop4elAc5pm5p9crVoeBYtv2StH5gY5RZVZKqMAdvoWDUMfXvdVs3tqEKNsvdwrULLj1GcCQQMlbe9hRs2b7hdUb964lmHgIw69kydTBpzHDT46xPcUHsLMjno8y0fy8TVeGWXmJCxQCHQEm9qjJkjLbiWi372AQTEACYOy3mZPl6WY2fXTeb96bDDd1xUKBp27q6FBCTe3SQMhuyKlQVnhqbPsG9MJO2TQ1YlUrgsZIAphZqqSpUcKc/IUK3fk6VLlCIwPNFgAwVOUIJg8faUdSYp/BI5ZMCJ0MBeQsF3TSksvQCEVU+Qq2cdx/hY+ZlWFl+TSjBPCLmsUIlgY1G5oYOCppGKYthCErDBwBlhsH5nvDFEMCcuHXwaUOZxXeqFSDi5VjWQWCLfl8ajBu+5nt6zXz04/+SvnjJRWnjxg3p0MOPIjzwjPSkg9ZQT6z8cvx5wO4rLr8ifej/fDjtvu9+6cMf+QgT1Q+HIuudbz8jfe/7300nnXRKetYznhb9nruxnXHG29ILTzgBJein0wPr7grfg8MOOwwj2P60Hau0Tsass+2Xb4eU/4B06+9vwPh5OL3o+Bekpx95RIQcCXnXHPRkVrn1pZsGggI9fayczxmumIGggMl6nkP952cF55rraRfrQq+qPLwJCvX7EkpWFVYsatK/8HBu3hXPMM8pGDO/9gjpRAGKOsoHGNVkGk0LnvKt43ER8siDjL5oOXk/hSKrorLy/hJ8qjDLvlwB0cjf3S9t35wCunGNpnwt+b2Zvx9ZDUwyPtcglHWhggYwMfYIpsKQmyqPHeDom4UOYQIuLNCA3XmD8IDWb+hYwN/ePdMpPJNU+NCMwoU6FmAmhBdBIOkrSiWUEEKTbgFVGIMLNoBFdSi9VHcV4YzTD6QBRAwRjPcpZ0ApHnz77gSmFKFwcdKyKIWnFmbCW0CcUBYZAheKLwAZBS38oFAbNQNmWBwzRX04VjNmRpkZ2y666KK0du3aNLe7K531969Naw45nP6pDLl0fCav2VzzcS84DkuB29N73vOeUD788Cc/jVCdBzAxvvDzX4iwwWOPeVY67fVv5p6nh6UthIOJcbie/JZtv1N67/vel37961+na1FuXHDxpenYv3oFD9UVXxmOjdBI1JrVULsCCrJAhkKqCv+m2oVOW7N6VWuqoEKp5Hkr3llFmCg9DvdEXRkaWoAqVBqxU2NRjvAFczFPY/zSP9S6swMOs3kBZ9sC7iW8w2x3Xo+2FUxWwBpvxD0W1x9KsuLpNUDoAKbwrYumlHURYsh9oEKu2GWy6C+8vvHeOxi/WOgr55dRFuYmVGr8c+bHw6uBTcwX9AzKSY8idwqcZUgx40GnsfWkXoBAxxzmpoR/5RTKK9RGreyKJzQSHmW/I4EUXy9C0Viw7RdIdLDDXD8+W+MYb3fF80bOx9BFn1dUZQktLI+vDfawSI7xebshbmUSajlOGi4opAjPJG6pPjybNKMfHabswAbDyzz2Ix85LzxxV65cGQtRy5YtC9A1y5UU8hkeGsZXa2469dTTeF74XbrgggvSt779DVSWv01r1uyfbv3DLenSyy7l9q6lV73qVQHBHM8tn8ovnzPbuprSrnN2Te9999npumuvwxtrY/r8RRempx15GIszdWnh/IVpxx1Xx8L6bNRNvX0b0wfP/lA698MfSfPmz0uHP/2wZPluZZOZT3/6AhbGNuDp+9l02mteg6fms1FSdYZNSXfH3LjuEdRZLR34FJahnl6nvOi2229NZ7zjrSxCscDJ5Mn2cyQvAFaxwdm5552bdli6is8y38iSfdpJpZyLUV0o3QZoL+FVK4CvBxjUTChhU/UeATL1ATObNd8nZK8PUCngcQ4xRChqF8Azp0kWRgtPsyLvDD/D7J/27cLIPRvsez/1YcLejj+W7TuVnIMAyEzdlR0HDU0d5X6av6TwyHKjgSFCUO1+3LXSvmdbJVWEhmn63HvMMceE79m2yvuxlM90T/JYuqq/0LX4cK//VWtra3yh/kKnfcSnUalSeEBh1sdqWYZNZmwooIBCb6wOJpxCECWohpGZWlghNOwvP3IISkLRY/w1K2zRmZfvC6/6WD0V1gifhCkDrsSST9tsFTmYeNJRF5CrgCVCpcYyzMwwGb2dTIKmHCInXClUWtMdV0AtyhKhjuWkw/BHr8VrbXeFlP8GWFkT3Ai/2pqZrPpESDrwwAPTqp1W4Cdbj9rq++miz12S1uy3L6sjH0zzup0kWepiguPxDiTf+973YqeI7m53KakPg0I771aMFjWBF5j99Mc/TZdccknEMi9ciFS+/E9j9vvWryO++Y/prrvuAs4UUCafxnxUx3lGZdI+JLfNY5c/2kPVmNc7yUS+Hb+GEdRsSlp9z7bw+gyL1JzfQSNgEscwZFtwgCWGh7SFyi7rQWBmvQgDCwDGygt5MMYDGTRKn1ZY2X56gLUDGQVnxX2gqXJvGqb+u5lctvCAkkGl8CpUZVZamfo5dojJaidw1DLke8lJhRDM83a1Ca8KxZfKK9+rAi2VYSrLBJPuXDiLMgo/ewYfwCgaibQPPFF7+awzfz+cGnBzgB5WDzXTXr4I0J2pEZkNopIhImszwOQ5hAhw7PCmGmNCIaxibkOb8hDL+yq29DsSluhTJBjrLg3i/bxJSFUYdU8rawQfwxxsWFgGLXpbCddUGvkZYYsm3242JyATXjnBaOT7MVjCqzHKw4Iq937x/fJ8gpMNqI18RmnvmoY7ltUZbDMnVHUkHPshMvo3vPGNob6dM2dOOv3v3p5eduKr0+odFsR5XVUUyqxde3e68fe/T3ezCrwn59h+2eL09ne+K+2595r0T+d8KAzef/HTn6S3nXlmOvHVp6YPnfNPafvtt0u3/+nP6YJPfQJQWxeTWCcwlCK6hurjk5M4lVZDQ6gtkeqb3Omoie+c/Y9eZGQRyToxLNIr1pSeuV8kgVQfvmOG32WYR5ccO/dZZ1V/Mdu1n+Ob+HBVYWXbWrf2kF2AzNw2hmcKCrmFAvpZJ/0AQJ8Bhcz2odU28LwbMF33OH3Qcm8roOwdNFyRMvKeyXMZThg7rdEmZEWfgzcFxxkaqaorf1545TUK0PJ1RyYzP7ZtDdAIPvy7Im64WY1Frxrjbx0LXsINVUz6CwX0YJyKnepopQAk5Zg/VSBDwErPJFUwdbw/4efp4wNO0L/7xa4RGhhhYeQTEIybKBRejO01xrzCh6mqNvJ9QvCce/CdEarVEW4/gcKHp+Eod3WcD9WOaipDAasKLs4+odm5iqESbEUoGobfdfpxlib0Aa8MpTT8EVVXHfMelQ9uwjDG9vAvxqB930MOZf5I/US56MhUKpWqIh9eVV/ql/O73/2O+cSPsDd4XvrZVT+KXU7dSOjVJ7+GhQEWAoF9Gs7H3IEvWQH46tNCzIdP/Ktj+PwN6frrf4v663Z2U8YegTmLHd5k/z1cO8o1lGf52iMskk1Ywgesopz2eMMyA1Y6d7LDZNw3DHOScVd1me1iKtrFf/DgzbzOehZg1gz5w3YgK9aEbrVRzwVcqp7Lj9LmdiD1HUsjv0Jxx30WZVPdUe0ROZTxvxY7R5JXVr8xD5wcMPxwXlknNBtljvqmIwnz+LJtC5+t+1KN+9ROpRHI5oQklHbsUNjQuZTXy87Ti5xJD7oGJhighwFPLR1z4jPxu6GAQKRx+oyOMmSsF5WTCqGOCpiIEEMVT0CjIczKmwEeWaEjBPP9dt4Lk3VM2/W2GkZtMw8FVwYvnlTQFWMpA74qIcFF7ICHOkf/qQgLKwcOjcv17OpEISQ0aWpl/gOI6sXgvRWfJufNQrAu5uWWQdD8b1d+L67tpJNOSgGvAG4KBQzf83PtlM3k+PyKvzkpffWKr6b1G9annxHFc/CTHp++cumXAUoPpOXLl8fYH/CKMm9ykkMfpxm5c3pVYYYlvgDA/fFPfCz9/KqfxbPI3Lnz0guPPSEde8zz46t5+VcvTR/72McjSmjlypXprLPOCrsbv/uGN372gs+l8y84P112xaXplFNfnb77vW+nM884M33uMxfTP3BGdlnXm6pG5EcMunxfJgA/jdSdaq9rrrk27bD99mGdIxCKPoWS3njT7zCL/zObVq1PK7fbMULwfNbzT38fm1Kx4mUo4OionsmNoXiz7RQ2NFdgkmoqVW+NjOmdKE9tB8/RjDq9H/Clyi6H7anq0oh9EpgWpv5ARZMqKT2rOuayOE/oqsn7pec+whc7OHdndXzgHuGeHGeXHc3cqfJI3iOq8zRyN8xQiKdHl+fuQIF29x33FSGEedJRfOxh/3RuZGSPSb7g7zNp6xqYAVhb18mDfsUbzPjkQw91AtIQHdaD/vD/0IH0H9GJCDeEJtkk3eKofglAwQRKZYyhZLEjIBPBCQZxAYc7FOZHA8GWwCQboguYshm7YX9CDXQPqGYwiydULDyr6PRV7mQFlwBMeEI/CdBAxskEzGRHN8zERtN14ZPqrikgBZU2z1wOgZa73gljWpx4kCLMjXA5zTg7WCX0Wg1RNGROSKM/lq/l1Az9n9+yIN15x53pFz/5eeR9yCGHpEsuuoSH0BsLwESZ9KsyXG377bZPN918U5gaSst9iDSs0NWIduLNVS2tu2ddUgL8pzv/FNuh2gn5n/5RXt9zjn5uegLn0CTRgSrAHBPZUVYxZ3MOwZPHuwXteP0YxxDKB8gbAz5tYvBQjSQoGmcSLSxzQBU0+m/bxYlX86x28sXcVRk+ba9SybZvo64yiDTs0t0MrXvzcwdIwzPdndDdJC2Dn1fhNsK5DcOs7lSpom6ISaOQsYV7RtWckEpz/qq6yrpWTTfARNfdBr2/HNxz6mXVfJi6mcvDT1YE6u8lbOvC3yqDTZVk1qHw1ftAJZf5CFtmAyubmBxY5pn0yGtAMOrkUjWM8CrXaqGIAfag8KlCrVEmdJqxt+GNpKJJVQ63XUAuF+AEYUILF/NUzyBuSt3k0VQBYwKRCF1DQZNBhiFl4bkEfMmAZJwJiybgKqMEZQIrigrA9Py8BvhgQZLvgPCp9K/iOAFKawVeWUuWy2exuZX8vUbLrlm9EMW+03LPX7IDE64O+v4Xppe/8tVpxU570e8QEosPxuxmPP1KeOL3XQytYquVCbk7+W2aaEzPO/YYDNYfn770hQvxqPlCWrbDTnxmdtp11505vj59+ZLPp3vuXkuIwVsxZ4USpwAAQABJREFUaf4TIQnnsspK6AX5WdeautfoMFfvtDpdfe21oXq9hdVU+6AHHliPUnRpqNlyVJ7tEP5WlF+olRV0AYYAO6q0qmonFVC2+1bwSoUV37MO6pa3I9mn6FHGHDFUXTnv3PbZ30uVlP5pPttaLuta36s8L7Nuw5SfN8OnrMzfNjakUzBZhVLFjoNMHsuyqALsIX/rZ8ty93GPGCrqYv7URDCfuLiMmZ+PpAZyXdKGNTye6rqWE/ZHCAcQKozUeV0/IuFDQBUaP+ABnwtlVQkaporgWAWIgBrweTyP2JwjlFsuTNHXh8KHxY3wRYod87gfOxbxcVRUKKJUPgW8YowLNdJUxpRDmMQYEVAFsOb7E71rOYJxVjjhDVqmIkwOpVbrgq3BiuWbUDEE2GIcimOBKmQYZTafUCqxIBMPWJVwR+0mHnjggRivn8AuXk2Ao7heFv4SY29cX2VusmTJ/LTzqu3T75mHrL2PxRyUC3fcfht93UTsVLjr6h3wxUKpZsfG+ekhKLOQgDKw4DSJr9UTDjU88YNpBN9WHyz322+/eBAMzynaIZRrZe9eY3FNZVyAQ8uUk+3ieZib2LYBy5hbqIiq4WXZ0A5ULEGQ6i3bL/y/gGPCKkP/YndI55AY4VvnBRgirA91VQ4lzKcL5Zt+VaiywiPNOR/zbEGmx1vv1VTs7kh9t7BQyBwokiAUQFfXyAJoKMOErG40YPij9USZMzyNY9dy3YSTjgGxathltM5P44N3UXbuX2wbZuBVtcYf2r9HWW0aHmTxszTUNlyOVRruY54JSrN1QdAI4MmQv5x8X2N1TdY1UHeurNeTSWWNBuMFZAJIEIanKmcISKJBfDZh91jD4fzOOFesA4K0dxfgaYRxexbjcxdwKcMQ8x1BGaaJuOV00T8UQvgf6dPUwDijKkj/LcusV5Q7iLrLnoDliU96IjsgAssZGFUZ9awv/Z3KFRTVPKtXrSY8jKgKANa69feGuucWfOtM+l2tWLEizO5jl3L6UK9ZaCc8cXhUgXTgfgemj9U+GkrMe/DiVBjQAdS55JIvps9d9GlUl9dGP3Psscemd7zjHSizdgxVj+dQDbf/mgPSfgeuSc973vNRin8gQPm1QKkzz3wHuyQ+x8PivIYTmihGPLs0Mu6GSTvPYn/7t69Kp558StS7k6RZKEHPPvvs9K+f/Nf4wCzmTwHV6Wfc4XCCzSpUyukZFfXaQZvRNs4BOoGYOekx1rehmPd0LwD8005eeAsgUbuWNo6tL+eNhicOUKeulM4CiOYQUE3lN7KAKBTLaj7vp43r8A1mjio0rSahpZsIzFnI82E5gfI1QyA75xdG7oI28/W5TKBIl0RbM6Hh/2qYZDXfh/pvI5lc5PCZzvtJT9PtsKKYSZvXwOYjwObvzfz2/6gB5X1Lly6NOFUPnZoc/z8+9z/5trHbhoEJb2YzIcwKJBUueigJC1S6qGoRAhmCZ6ev/5Sv5eNVWwmfTKq17IiyIkd4JQhTQdSBGsBV//5QdfGQySREyOGjsKF4qoUkK6q9qrBDVdYok1WPNVyuUIYVnVk2Z/fccS6giD5MghvzFd6ovPIz7i4oCDI//Z+EHgI0gVhOAdGEMyMj6ft42lz5bz9Me+29V9p9t8elc889N/38pz/n4ZOJs7CFDlSZ7izkCnbqhgMa/33rbbekPyCpNf8FcxZGmf9w29Vh8n7CCSekP9/5Z1Y/rw+A43VrWv6TH/8E4/gvp54NTErt4unBvYcEiYZWaq7vgDF/0bz01yf+ddpj1z3j2gREwivNym2jdsCf1y0cKjy0VLzwwM4E3Wvz3/7RK8tzB1gqVXLCIE7KsbQ371mf3iPeA4V5euEpIEgaoT28DwRVGf55Tv3UBFpCKTvcXibyTcLEsp1zPRdKOwYezlVVv/m+fljDeKZ0M5nPii2P13OtHRiYVWCez/vC+monf+vb3RQ1tdcfTdC6rQaRXO7///6NxJ77fBb3xyyMVZw0mSK0D5gR4IOJX35d2DAC9GkBFgg4+pkg8VJALgGVUKrJ0DBghsof5n0oM1HhAHxychLjcap/cohaDv9SgZNDxQQnqqNU5Ki8EV4F9CZf1V2u3DGf4B4EXkHJhEhOXMw/55vPaTnZyTlURYb+mbxGYZiQRf+vTYC5FvIVwuy0enW67CtfYdLMJJvv0fXXXZPeeeZbAVMvTJq3g2AiD05H32e+brBAf8eDZyvG8BPjdWnHVcvTm08/PR13/EuR9S8IOD1Ov/LzH1+ZvvylL8a1HHnkkYQW3Jy+9vWvI2nfEPUceUYRUQcAat19UBXYjagz7rjzbpSaG9kIoovvC7MqkserHGMuSDmmQyYN7QswhCqpas4uvBovfabK+VvAuwHa235POJRfpyqjDTTlN6SwuXyjaBv80jinOxcK9CyDN8VsNrVwMdn28B7JSSDl52zj/Lq/97jjIPeO6iluw0h6YQlJs9m891gfANI7cWt4RagoD0l+vph+x3AT96n5T+OKXJKZvx9qDUwwdqq6cnCsMSbV8Lusw++ybrbhZapf8JUCWAS8on8ulC+MR6pkywWnqXPyBVV1o0ondo/Dxy1CELUsYCyrawHMCBzK42zTMAFnvIzzMO6o/Kpz4YXxoJoCqjAOClbqmPsIOSYxbBdkhIqqAo1CiTNIuUvT8Go+ocoiZDH8oih/AaoIRSMFSCOfgGuGuwVk4SGE8TQmD/w0dFDYbFq2/cpUt8ldGSk3Y2+E2WWgwvsqherqNxE+vII+pCHdedfaUG7decdtMdZ2EU7V0cR30++7oYNApil4xWKWdSe4WbSsJc2dOxfVQn9yMxnH6WgH5g/1KsiinJ4QSIVKyvbKCinLSYNwPH0Q9ao6y1DDqGeuq8bYXafirCy37wsaVUAVHlUYvLPhTU0lFq8V5eP7yO9F6CL+RFu1VS/3EeUg5E8Tf8uiOf8EIKneUMctlFpZxVU3u7zPyjKHFxbXVgDO4py1IRR4JIHq1Hm5vjiWEFLP5cInF+QdTZVwL1K3W/qiRSYzPx5aDdAEPpDrPTQMKNAcu1BecTswWKlS6mb3v+xlqseRChyVVyq26LKnAJh+WEILwwUNQ1TJ47NKGHKjlKl6GqmgUcU0C6m2eXYAHoRUQ5hv+73UhymHIwpOzFdljfBC4KJHUo/wCuVPc2sj/+6P0DO9PIfxZ3JevPZeQbgbyMxOi+YvDmN0Pbo0rg/oxudM5r0JhU9LS1vsCupugH8AXI3xjLGh5/44ZtGiRdx9RT0JSgRuLSyyjwAAfVbTK0potnKnVREFJDj74y23p913fVwaWj+UfvKzf2dH4l+lIw5/BkquV6anPu0wzgfQLwdRr92NnKx7YdpznvvMtP+BRJz8wwfTpy741/TNb3wzPevoZ3KNRR+qumlExRHtJziiyqK9/N0Im1iMxhM4dmHkOrxeB9c2lGqRbDiS57d+ig3EeJ/QO6/JsnQCKM3XFGqqDeyUzlxBmKRPGiMDflS0A1CrCQ+0rMBzvt9vKJ8fpq46uFdMzvX6abNGTeJLaGrbb7i3Lxh8N+1bTSrI9F3rnM9zhSuVpFHCBN3JsB1fNFVzPYSlKtiQVgmvLIP3rW1SQ2Xby33h71PhkpHLQ//hzpNXXXVVLHS4e7WKvBmAtXU9zgCsrevkQb+iBNwtLr3BlHJ7k9nxPJrTpBMcHyQAPq6m52TImAbqoYxhUiYEUtXk3yHxRCKu95DJL6tgRIig6qWeCYLwQMDj6yp6TEIpw8AEY4adCVSio6OjMV9hhPBLICIsySlUX0y+VDp5vOof83AS1U7YmdDCJLwJ9RAdinn4ACOoUdE1wspdB6sRqrIKoIaXA4OAZuRZ3WMeRTmGKPdo+tEPfkjo4EUR0rfn3ntG3PcF55/Pw/ZIKH4EdIKv8dqm9PnPfz59/LxPpONfeHz6wQ9+kH7xy1+kW26+JS1avCjN6Zob8GzOou701y//6/TsZz47ffifPxyrIcJDfafsp+9etxZp71UBt7wmy24Hn/8U5RtPq1k1eclLXhYPtcNAHX2qfJj0uqxTvaEGWPG0bF7jMIo5dyIUSKkIs72oPEDPJh4oCyBoXVn/1qFqMdvBvB1YVKjZHran447gT7Cpb5bm+Ln+VYz1cV6VW4YDmmcP/lXCN2Fihp3FdWzigZktkX0P4JYBmO+Zz4AKLj6ToZftMjCs8X6x+6V5e5z3Udy/9QwoPNT4uqBSg/p22nsovEbMdSY90hpwlWk26qa8EmV+gh1D+wRJGow7gTEFKOH1FsCECqmADDwDMM8IYCX4aQREqMQRPggsDMsTZJRZRD4FQEEpVO4uKJwy/KuT4zLo8p7UkFt4pfKGOWWUY4jXPL8PZ+PMXlqYhAivVO7wEuBeJQ+TwcoJhwhxY14W5czKKeZ2AaxU7XioKjLL6e6DTsra8WdoX74sre+nXAIywvZu/N2N7Mxzb5zbC9FEfBNlZ2qTfovXxSQPX82URxWWHlxtFHr5ip3S4qXLucdVkNXSnQDwd7797YT43BGmncN8/qlPf3Y65CmH872jz+T0gjTvefuKE1/6olgF3HfffdO//eBK/vwQqD5CiMCKWGVlrlYAJq7HurO+vR7rbOOAbViApFwf0Wa8V/UXC98s1imYm6GwApoVQ4CXGBBSfyvvhXbyz/kYWsqzRpzTaxNq2mbNtL/gUsBYLkRHPsItr18gNQXH+MDGfj7H31Vj/+ndCYv7LCapQC4hVhdwMOdrGxbQjfYqodgI7vvj3ggcSzc5Vd4oxMyPh10Dk5MsenA/ctNRsYxBqKb8O8K0qvCKMwhNQoVDXz21S13lzEUIGAAM5YvAIMIIGXd44ivDAQuFdoSWhQJqWUCRgDGMWUJsGzeHmuWsA6pog+Cch3HS9ycBGbWsoiqVQ3G8EEfVjjvYUYZqyqFnemWFXxRjTxHqyDyobT5gBbjma14384VihzwtCKa/OH141jh39KG0raGAOjUe+iLMrmquLuBBldzQOY/NjLlvuXGdG0wAkjZsMBRP1SlAiO3jNSGPc2GK7rmKUDgAkPUsjKoDZHnTkzxvzTYbRa2kuiwr4Ki72GnRhUpUVRwZx3veoh2AVz5Rcl16nIXyCkWb4YPCJZP1E4CLeqsxFgurNMuHZHEMIKkM/aQAACNUTXx2qzpmLlpzV8BmQgRLeGRd2uaWa0ulVoSR6pUGQCt2HCzKHUCKzzfMWUHJeC3aSkBAPQi1Km1bKNEY62hD0ybO3zibzQCEodR5Ue5cH3HIzI+HWAPOMQ0d8zuqp5OKIg3b822mr5ReUv7JSbWLoXuOLaOYtquIMum5lHeqGwNMqeYxPMxQMUPTmireWQKSMT5rKJygRBjlYpa79zkcCNGmYAjdh+GHrfhrWc5RvAg6UWYJLjRyV8nj7ohNnEtIIThRtSUkGVR1SjJSImFy7u57ghfL2jWvUAQOow4bA16Ztws1s/UyIOnLpBeXIMrk/H2CsdVQPaFcBwBGpZchd+4UOAh4U/2lt6d5eY9ab55L6HTqKaelIw87Kj350ENReC+K983H5OLeENcuFNSAPMAdZZnHwvuZZ7w97FR2Xr3LNLwC0qmQco5tMowy2hCVm0qhy6+4PKC4ZWhkvBcS/fiHPw7gY9tSvIB8zsuyeT8vhW9UKOgIK9UYP6vfHJ/7enk2cZEUHzTBZbQb7dAPDLTOWkoFnvDKsEJOE+cVggX8NA9e98ZxZ8dIvNaLEs57qXsB/ZsfKpNl7gOe6vWVwadAS3jVQnh2a6veW9wDjEVGJGi4X71nDCc0rDS6lrKfzXk/nL+tS0MHrV/bzbqbSVvXwAzA2rpOHvQrrmZ9ndXxK6+8MqSZxx133KMWYNlh+H1tYOB2Vzm/IDnpJxQwBLAgeBhnMmq4naoj4VULipnsR2THpTLGY1S7zHISxvvCCvMQitiptLK6IFApws4YrJhcCic8TuAgeDIEUa8mO2sfyky+J0wTlgml7P08VvBjKGEOMfQ4VVb2RlkRJKgRchhi18bkM6uKCqDGw2vl857Lh8DwkiKvW264OV302UvwlfhDdBxKXhvrmsJg8FLiw4WUYTjPk5wD5RMPeVL6+7+bkw554iHpj3f8MV35/X+P8MMXHf8ituTFQJJJ21LkwacgrW1pKuCcE0jrt0aZDbt7zrOemw4++OCoLztvOykhWQaF1qVtMxdfiQWoNIaYgDcDi2xDVU8trAoaVqchunmrUvLfAi4VcsIeW91rcVVA3yqBnnUtsBNKqd6y3gSEhiaFp1TZTtbREHVsfbr628GxGV4JKgVShjp2opoSSPVojEv7tjMxzNdgHubfywST6WEJNae7HcvRw3uq5DL0sl18TX85Q0K9V73nhG1Ovi2nii/PqYKvj2M1co8dNiv3teeeSQ+/Blxd7GTVz/rXj04o0AckagxFy7RShuYIUML8MCCVsMpQQr2M2kIBJeQuYAnzxwj1Ch+likeTpRwAbrjDXzdeWbAO2tswQ+/bzVVCKq98DuUU3DcuutWH0bpgiFstYEgzK2MCGQEKnUioiNqRjDtpzEkYYmhiI9eXVVmCl2Fey5DF0DvD0oR54/RrHSXUEgCxIBe9lvk4Ic59qqGOo/pseW7K+HdveTMTNwpKRVlX1sUSwNXnLv5K2nfv3bi3+X7Sb737rHfGFtkuhniPGx7ZwUT66qt+mH57/W8IAxyNx2Dh3EH7r8F09bTU3s5GGPTRl+Ol8YVLPsuEZyztv//+sfGE7aA6Snjljn5+NYRXhm5SZQCp6foQOnkdc9yF0CojeeyQyis+1456qxrmqbeV1+n8u+qHVfiiTZ9zhMnyJscD2qNPJRxlEXDmJNDSnF1/tOrrEZbIdc6tlNH7wfuvk/shh63axiNcYxfly+o821DAad2bb76eoVh1dpGASThtyl8zaVvUAIspkRiXGgzTyvBKCJSVV9S2MKaGyrauYUtAUnzc8L4aO/AJVepZECnC1XhoYqwJSMJYYArINc6DV9sSXm8rwwILMF1j5XqrnQJRA+nFxZMNX1i9oQjZY1GmNkLoWnsBwIoS8JN7TogTxxHKXnzDi3cLKHQvHU4Tip4FPjFRFtQ8hjoy5gUIEn6pVGJeY7lDbVQ3/UAuZGquuSkNkInP96KiEP7VCdW4lqkU+VA+jeaZi93N/MOHrGUL5/Cg2kyoDWXjRu4f6OcBj081GlppCB/XKPjKvlblNbh7qRYHXs/yRYA2vbpQl01DnBJesbCpR1n1uot24EtLOaMDtT1QwkWdVspt/YQ/Fmqs2pCqLCAhD/Uq1OoEm8Iry0cKlZcQKYDW9Dcx6pjwTH3EIszTxT7mgXG8oAxwWE0FUHwgvuv17cCnnD9wMuqfcNZ4jYEhNgwQMFJhUyqwKAsqPOq7QdP3slcwX9ukBnSrEw5S1pn0yGpAeJWNyAVRsTBWNr3eVCqqFiydDh0UXs1GMeV8W1jVAYhwnuwziO+5e6AApx9z7kaU4j3Aq3b8jFT15KTSS+XQbBVLmKCriHKsNjStRr+ldYjKppwMTfN8wgl9pgxbVKHk4q074KnkqvH5JqBXH2FljuXOjWcxz3HcNrmINFHHqpjzDs4dkI7fAtag1hpn4mK5m9tnp3vvo68hGdonYGvDP9fUw6IY1DpUY50ozNyVUZWZPl8DwJ02wgRNfqfd8VB1pQvnPnvZHa/Ad+qzn7kwferCf6Gei++cxzMk8sPz2ycVgK5RVZrfD8bRiKQBnOirZfK1AUL3zMNjTPpHTbBYqWeYcOX63/4m3X7HH8w22sb61bN3/nz6GfoolWK2rc8oAjbn95qem7cgrpXw0Wysbv4q1jYxV2jrao4FOk3kDe/0HvF2yZ5VFqe/z13SGwJweT9kFZ1gcYI6m7OoBFWUrZd7RihoaKmL4FOJ9/pQTs1yYbJUaglEN64jooVrbMMSxvPMZqFgrASI1Y0IzGfMiSsp8q1kHS8+jB/Wm4o5AZbt6z0/k7augZleees6edCveFMJHbzJXFHLhPtBZ/AXPNCHfcGJMKOahgEAQpIWvFsECHZShg2OsfLUQCcndBLc5CSk8o/XPrt8X2ihd5Iwwc+3ED4QxuF4HQlh9EwydNAy+P4Qrw1zvOCrldfzo0R+z7yFTUpoBSsjrPa1EZ6Wdxy0AzREMbbKZUUuwBKfySFnKohU+RQ75gG/OF74kn23vJZ8Lv2hBDv147Oiwz3hxSeku+68K2SiAribbr2RHTo+k277w20xCNqB+cD4+C8enF72spelicbxtO+afdJVP70qdhjZefedmWRxAjpIfcRUewnb9KyKqqdzs76bUQ9981vfCh+tOjywDAtUceY5p8rHcf7eDAA75EkHp7322it26zDczmv2OgPOkafG6VHX+oRwItVXTnAzvS/gVQEKrRfryvo3CdNU5mmEHgCtnAQKAz2uRviYoDF7UKmO0q/K9uzgGoVawisfurtCdTfdrdiWHuvA2sXKfN7N0PMKpPyc121dCb1slx58Nsyz1RVw7y0mk95fKq4sk6q8gHjAOtvWNJsVYF9z7NBvzfs831dxwMyPh1wD9hSCIFUrqmgM7ZvNJETfIQFITkILnsc4lu+r0IQJGvPJABtCKW7DUDBxK5ShXqhq8JrKahvzUdk1EGbiRZgb84c4n1Ci6okUvlTkY9n8vOae7hIovPJFgUmLW2IDMFR7aYSugsoQwyogCThD2Zza5R354HWhDGsTkPCG5ypW1Fj95eskAPNaNJ73RhN8CWc83tedE3F6Huy410ujdCciTz/qmWnZ8u0AXvZoTACZ4LW2zwFwz0ORJATie8ofw4pOPvlkYPm69I1vfos8yZtr+Pa3vo4fwldi4u0EaYTC3PHMo9N5550Xfdatf7o/tr7+zXXXhjHr6tWrCVecFfBKUKOHl+XzmotQO8BORe0kRBrcAiIJgQRoBua5IK7PWE6CTNvVNmgrw0V9L4d6NtEwArPwQ+Ne8JhQx3Etm+XDZNJdEQ1FFUTmZD6a9XcTvul9ZLLsPYC3VvLIxu+2j38ilJW6NVG1tDdKKwrXiSIrf977SbXdTPrvrgHmGPTrk31rGQexDyhhiLCjtolQMJSz9XolxTdhuiyx490wIKJF5VUJr/xCMValin9U9jmqb1tcgA3GAAYXIAOwAaV0Pd+rzfJm7BWq8ATG6yppCvASCp9W8qhCI44QlNiRbOmH5TlC9cV41OCufNxKAdJUFpFHKL7o4AJeEU5UY5yqA5SxKwz5FSlCDQnpW7Zyl1gk6+3tS7fdcmuaeNphRP/xoGWnUibD5urbmI+hLvH7cNfdhFWS/9LtdkBsNSctW7o4HgjvW9+T1t9/T+rcbQ0f54vKOB5qIvJq6DIaoPhe3HLLLTFP1SR52XzU1QGqrKvinPpTKbMsFEzT33Who4fUMTYL0ihEAa9Y1OLFaaUW9Wwetm2NeV+ddTDK3AE/LRedCpBXfJmtI8MJG7qWTpUvLptxW+UaF8avVDBjelbK1am2xre0muI+G6LcJOFdqN/4d4R4avIOkCpCDWkX5hnml1gwq1OlVs5xhFoquBq6gFdcj8l8xzbeDqdE+cYCob6n5RvF3+Vni19mfj7YGhBsCAa8n/SQykmly2AvnlULgZbly30otIwQaQIu6X/VVoEcocoylA9jdCFTI4tDQqw21DNV43ehieF9msSPlUoq8xdS8XVGNQWUAkTlJJzytlPJpBqnDXilYioW0/HLirA7IJi71rmLnkDGfNrnFsBs5aqVkZWRDrfddlvaYfmOEWYmVBH6qNziylGuM+dAkbV27V3hk+uHDA9zrrB48eLI4+67704b8LubtxDYzvxrEIhmmOMQMKlzDmGy5bio8tvPOYdeTPSH5/L6HPAHgMhaCvh+JPsnoFH/YH9EmbS3tqcVq1YEVPJ9j7OPmTvf/plEXQjvvH5hu6ozXzMEsmF7Ih+Yd+n/+/rXvS79zcv/JgD7AO0xi/nXP5/7T+myyy4LQ3TryLoSwMfu8yjTOE1AoRbUZNUdBwdReo1S58IxQaK7TRrqNwwI9Dm7ey73iEUjT1Vas/guTtZRNu6FrNyLPAj9FF7lS/c6xgaxW1gsOJ3u37yejajrfDLOSi3rqBffLH3RQu1GGdpQYA2yg2QLiwdbwqth7ptRzhfqMvLbFslnzOc973nhfXXjjTemFStWbItsH3N5VKaNj7lr+4tckIDAP1nq9xc56cM4SXgI0QmpesopA58mAFOryiB6FeGVr+upoNF3NdwuVDvABGGH8ES4JcRQrTUC8DIJmYQgQicVQx6nZ5VAwvwFEIOGuHHOHPbn5wQOqqHCBL30qPJ3PZBUgAktTAIOodYYnVkBiJC1859lFqDZ2apACgWDQI22aUPhFUqecnT0eMHdgOAOOOR7u+yxc3rr298aO4B8hO1mR+hEaVnOCFxiQDrhJSewpe0JeN9cxs4hX4uwxgnk/yrL9j9gf1YI6CyZcO+w4/KIk9dDyroLlRfhcXbenn4IWKQMdRMrxRdddDHKrSvj3omL2+JHFcK8/x/en/bcfa/YYU/DdXccDLhEtsLBYa7F2GyvXyinUaXgzMFPlVVWXoUZO7sqCXyUBGus73mEP+aTFVbmXYQUEqZQgX9ej7sCahw/j8mqQEp/LGO2O9qmdw7Ml9KPqa/AqwvPryq8Mh8VXPqkdTHRz+ft0wiXpFm91yKI83q8XyyP95YbDwzy4OK91A0Uy9DPAVjz+d7BHl5fEBA1l2Pm74dXA+4quonvUB/wqoNFP8OxmCNNpSHAkyt+bQCLQnmlIkrFDvcWD15OnXyPWyzycP5qiFoVXgm8etg9LsMJbtnYEdAd5qrqHuGUflQx0SLfYmfAEl5xJk3JBVmCF6IOSjWYIYTTxuUWPGBG6c+lZ5JhcX49h0IhxKSZiYs7J7pSqp+XgEwAZplVZAm6UJDH+bogXV6jX27BjiqmRfMLUGX4o2X9mxNPSoc95eBYTfZIipesEh9uVVOpbDJE5n3ve19avv0O6YwzziS3AgL5DD/KQ+xsFgU+eM65adWK5eklQHYrVA/GwU0NacXyRemgAw9Iv2eXsSc+4QmsUHZGmGa94LkETMUuhAV0qqqdhFeanHdyfRkieX1D1I/t2shFq2IrrrEARNaTb3ZXDO+FVf2AQqGedWqoo+1hvXkOFnmnwJN14Pu9QEYBnZ5oOVl/vYaMAq8MUTXZNtkXLcPMCG3kuBZuxhyG6nG2lfBNeKnKzxz83bI4b+WQmbTNa2C6/bKvkbv81Zc70oVKhtByk7sTOqZWU/gXqQhit8FQR6nE4qGEx7J4EMv+UYamTXJcfevCgFd+jqco/s3chfEgjL0DSZe5M1cI9RD3pA1vaGMN8KJqyvA0d8KrpghvnODBtGM55xV45SSYApSwCJVN2yOkLuGlZVicoIrkueoYp8LLSrWQnlQ5ORaHkX0H8KkprVy5fVq37r70pcuvSC/+m1fyEDddh4K+737v++metevSi098ebrmN9ekG264Icbyxx/y5Ohf99p1ZfQna++6K333R9ekV+60BphP/9h3N2dkftPQmT71z+elJz/5SWmfffbBa/Mrsci6y04r04oVq9Ks2OWwaIeAgoCmvJtiLrIgiG88fRPXpFcmqQibpIMA8hRKN79U1DP1U88Yj5sxFe0Drx91TlgArzBz9zfyrLEDcUOHD+qV+4APTPQBrzzeBVPmjXEvCJ64E4qQUP6ZE8e766JPwgLP7KVWY86pkb/G7zk0MlRyPvF7r6iUU4VFmmRuojl8fef2nKJ4FNKzS/hYA/CxrJAaMekf6r0JqKVf172cC78uIwNm0kOuAYFSVmDlDzsv3nhfP7CIaALAhylMymnXVtQwemK1GK5Vvie8cl6okXcvKioJxQChbC2omQz1y0mlj+oevaJULqm8Eu4IvGqMPfVMUgzLy2k0VEKbwhNKdVYz4WBCL++v9m6eJ4Bvgpt2lE/CEFVX7nZnvjltv2xFWrRwUVrHAtQF538mHXnEUaHM8rnHsES/ExdfcmFauHR+Ov5FL0xfu+LraS2gShW1u6DbR+3BHP+L/Peb63+drv3Nr9LTn/H01Htfb5x3jBDCnt6N6bxPnMvuwy9NC/HZ+sqXLw111EGPPygM4QcIDTQJfT587j/j6wuwpY4sg5DQevzxT3+I8fpJycV6jd1776eOO/XX0pOsBdURG1rpl0eZLdM4z1qGToa6iW5KBegmxnTn/Oa9eMli+rOVdI8cvIPj7Vhyx3VD/0wuuvlsxKEorWhj/g5VG3WYoZPHCQuHAVjuQNmMvN3dJjXn30Q+hmIaZhhdBvUY8Mp+xvz5z90kTYZ8Gp7ajQdatr6w3Yb7BVqGXFb7dctBGCn3ZVZqudBumOHEBAt/qPmGUT+1A9kGKIv+Z02lj1mcjB/eqxq8z2LyFLtpAmOFtFueJx//YP8W+LlLpO2mgbtzvZm0dQ1sVStKjW+//fZSbrz1Bx7uK93d3XGTazj7WElK/Hbffff4IkvOMz1/1F5fOUeyI1GF425zSkn1vbIn0PNqCFhgT6P3kCqqnIQQQg1XFzQPDhUMkzwhlSFmfmY2Ew9f9/chIJWrAnpOZQNuQVc/sEP1UYehBeWKl+dQYWNIm2qtbLo+xEqev+uNRPcXX2ZD2ixHQJlQGxWfFXaZn/BKGONxhtAZniics6PNyXMZfqgPWDurxEK91jbMUAn98zNCFWGd12ps8yRPdAvZCWi33XbDsH9pGPy5y96vfnU1W8juQLgR27OSVwcGg13IeLtZBQ54BeQxhFKIZ+ijMElDRjslQRL/iM7/9NNPxzB+9yijr/ehsFLd1spDrQbOF154YYBCVVyz6gRurAZRTtvQ6xMWOigY5mndNHCtY7SXYV9tlbBBz2uIoZ5Zto115getN+FVVtqFjxnvebzwSkhn/Wd1lHnPIYRACCZcGmTC10m4QJMrnJXktau02/I98xVeFaqsabDlrpWCrVB1UT4VWqr1hHWGRNquqrA0nhdWdhKqUAWs1qdlbOWa8z1XKc7MPx9iDVCd3Nt42LG65C5/hvJt5oEEFNBXqo1JkYonfuVe4vcSWviNE1751TMkDCYSPkXVUDQVM4YJ6o+kssu0cYAJAPeb3kf5aysM0jvLyZCfEaqotBFYeW/6b/2vVIqp8lF55M6CmsZveT49lzZpqM5zTH7Pz7sqLEyB18W5hFfDZb4qsvJOiJqhsxAb1ylgMllOIYl+W16FqjRfE8YJYlqQn7uqJgArzkl4AHWneihfo2PJ4CZ3feRDpMLjq5buu39j+D4ctP/ePPwuiVXPeh6c717Xw2T5lvTEg/eLFUL7uDnzUV04sePcwiuhjfNIQ+oEUx2qkso5nBBIr64O2i9DJE8tvKJKuQ7apFI+AVG/gCjyUfUYxaS8RRvCy9jUQtN786DvQbGm55d5ZdWUn/B9dwxscYUz2q/IRwCoabthhtmPzHd6+gk/IBNVe9Z3KMkIYRCKtZdhqN6r+p1ZNustq84sm9djW/YN0r6s6vbwwDNCLKufmUmPvAY0XLdPN00CFRpQzk4pmOjPAyAwwdD0PIOCfNbYvU+/KFQxwoEwWqffd4e7YsdBwsJo/SJU7H6ghsfhr+RCGuOLEMrQw4ApQopKCtUNCinPaahajfGyMHpXGba54ikUYKOEwAMsMuDIWYViiEWo2I2QsTB2MjRf7kl36vPvUF6pAvMLDyDZDLgIZwzpUyHFWNvcPisd94Lj07XXXp+u+sXV6bMXXphOOeUUvuMsxuHJ9cC969KZZ52dbrrp5vSL636bVE/pjbMb/cOTDl7DjoMPpCc+8Qlpl51Xp2t//dv00Y99PD35KU9Ju+6koonTo2z6+iVfSe95z7vjQfKZz3xmWF24yPrcZxyR5i1fTTkKiKPSq8aCVn0b/UYJccyjxiKhfld1jKWatJtCrcYxNdVNVQAW4I4wO24BASFP7UwwiwVNlVdVfyzvj1B5CakqKZRvk3yWHScLeIV3FoBJ36riXJWDOVGo33hPSJXrOhRZ/XcDQvH1Ys5nKpRXnItjecLcDHTVhgRdS4t7jWPjngKQNnQsAVjQvsxn9NsKeKWikKiAGXgV1fqwfuSxsvrhHpQuTfhHZSWUEGOcDl7PKFVQ+h1lyGFomeqYjnktgAfVfSy4A3Wa8CgyxMxxxqQJe/hUocpx/m7ooabcwgbn8o6NXfhk5STsGiJETEAiAGoCVPg9dr6ed6nz3O4+6I6Hses68KaNfAPqkJGqn0ULFqdnPfuZ6fzzL0jf+vY30je/84303Oc8h10V6c8mG4i2uCG94z1viznqz392Vfre979HvzmZhE/6WArXjjvuBaFeWr/+gfSPH/pHnjkexwYOywPsqEj6wpcuTu9+97vT17/29bRm3/3Tr6+/DkjXlF7w/BdwjxdziUagnf5izYZzl8md9boRL82Osb54HvKZfD4qzbmd85k3sWHWIuYohNE5j9Dzyut3btLEddfqADNOJPiOj3HsBOO6HmAec91116XLL/tqwLI2wvgUdPz+978vYBUfcIc+69gxwrw1RnfOZkhmTrbjEHUsp2lC7TSs6on6dcFSENle7lLp+XtRmBnSaN3rCZbN2D1HHwb2HbStPl0mr2NAdR9AyzDTajIk0T/zl3RzLVwoXXcvnmCbAHECURfD23guHOjHh437MO9imPMwb++z9jlcMxPCuQsdU6giJ0qPMFlX7hZ78803p1122SWsibRUmUmb18DmLcp7v2M3o/e///3phz/84eZHPsLfDH8644wz0rOe9axHmNOj5+PGKz/72c9OThAkpv55tCf7eMHGYBmeZtignckIE44hV5/4FrfhM1DsBOfRHk8HD6gSjri7XPYqMhRujMmrah93vdKXSLAyCHiyc1NhlVU3flZ4ovqogxUzV1FyEhaptNLDSNgkQNHjSd+Y6o6DhdLL0Lf2OM7Pe6zKHFVEzUxmBEnCsxFhGBMWgdpmoMy8mZAVnk6dIQ/3GuwwGjBebGbSoqLHQUrIo5TX3QkXzl0csMi6cqT8yhe/km64/sb0jne9I1139XVxnPD311f/Ou37uH1TYyfKJCbYypsFWCavucaDs5BFJZEjaTthAvut2S+tWbMmjukbZXJoXda3hCrp5j/cFF5QI6weKmVvnT2PB0bbA4iHMi1AFpOzrMhSHqt3meqrMOTn+osy05k74aetPNa2M6lUM5/cTkIj2882V7k2beaOSoaJqjsAdhMW4usCRw3eNYGvwk7ztb1Vymnkn3cV9HWTflhezxweKjL0sq4Ei11t3VGWgFeAKgGdoaIqvrzvhHV9TLjn4N8xnW8BrgaEmMySvA+qbV6cdebnw6kBIYveT/pTasKek0oZ5nC0T6Gw4TC+QyqvMCQXWpAyvBLmCH+6AFvZiN33HeY1bY/PlXBiA7BCb4ps4u5xASEALe4QKFxSUSUgEQwJawtvJc8r1CiUOyrGhFiqqXLyfCp0JvgOMscrysdr+igxteK7pb+aIEQlFxMtYJgm9gKnCI8DmrhjX+xICBDJACfn7/VaRX5eiOLkzzDAHH1nPThE+Fre9dBjTNaBEQaWUU8vk7sW3scuOhs2PBAPt06m/L66unfX2vvS6153GqrHJr4zb0vf+c53IwTxissvTc859rj0uF13ivIV8IprJmPVS1WfKHchbKNwLYZAcj6GhQCBUXD+bVtWHzq8LiGT9ZTzsb42RhvWMREWMxXXL7zSQ01YVVXReZ0CSus0+455rcI1vbmEWtXjbRsWzPEBLFR75mcY5CT3SDfwiuaOFFCSVdNZ+IbkfL1vBoRX3KMa8Heweuo8dZQJtSvqZDuTtkENjLMj36SdAV/OCH2bsxLm5NSSfnloPX8DIAE9WRGTTxk7FOqT1YzyijnBlKJKxQ/zgSlIUno6GUIW5uKMB0IV/13DY6kKSXLe4aeFAsjQt/BZ4sZTAcVTFfkKnabnaqG6AQqFoXkJPqbyYc5SA2yp2FLpVexkCGixxxBeEWIW18h8Ib69lHVzXycWqzwvyZ0GDYmsa56Xjj/26HTxRRela677daggnGf87StelpbM6+Rha0E66cSXpbe+7d3pM5/5TDwQtuBL864z3pwWdHEeOo3uefPS6177mnTSya+Jh8UXHX98evtbTktPOeKZaR6bLai8Ouyww9LXvva1CDXWR+XJTzwovRpz56aWAu6EWokQQZVrAQyjlFyFi1eM7SqqIrTQ15mv2H4T7CZYeG0Vjw4CKdta0BOqNBaYQoXl9TL/0wjfVOzKKIDkPii9zOINfkRbocriDY5HuYeiLUz3masF9Ky0lZ8JKGX9U+dFXfsi32nvJXa+LAzozZeyUVc+NDs/FJCaAlSx+6TQLoeQWr7aMACTuuBDaVPfn1PTvFXx+UJRJ/R87Cy+R0X8hX8MEv5WTWGyTSfsLoImQwlV2givInSNuXP2O3I3wE2oa+Zgvm2on8BgBDP02YzDmrLHwEMe9uuqtFQR6T/Vin+RqqPw2OIz3gt6Sk3tEsf5VeFo2m6YmorzKAsLHB3lrnhRFgZuFVfOKwU0LUyIGhkHTcIX/bU0VT/1lNemr3/1G4zb96W/feUr001vOD095+hjUK93pT333R1P3JPT+88+O33iXz7G+DgeO9i//31npzHGNAHVjjuuTie/6tT03veflX70ox+lF7/4r9K73vUuIMZu7Fi6mJ2Oj8Xv8or0y1/+EgB+bZz/OMb7I556ZCif3GUx+zjFm/zw2n1mEPIVYMo5VgH/GphDaXKvD9ZsFitNAiZVT6qm9Jdy18WN6/Uoo48n1RisrVM9qrTO+exnP5suvvhi3uBNJwAkYfm8ufOoM795zNmYp/h8PIYnmaGkeadAj51gbB7qRx3p3B1YpmqshfYwJK8H9Zlm83qMmZGm8w1871XWeT+p0PKc4bulkg/VVPY0G+E6hILeH4YYVpPeaAOEnaqgix0HybsHk/ZNLqaywOAzWjs7vPb3FxEzLZVQU/PxOtztMjYMIG/nNV6617otkvfY1Vdfnc4555zwVnvve9+bDjjggG2R9WMqj2IUqlySN7Y3pX4cYaJcbr3p6w8n5bzMzy/sYylZJzl80C+nK+xVw7xH07XacfvtKroTCLMgigmZ8stCXYWUki+Nxuc53Mzy+0VWqTOMn4FbxaqGshM3fGu8hoycf/uniQlM4TlFfHk9X362M86G6yqcVDwJhAz7y+Fi5i9oCfUUnZc+S5alT2l3PEAVYWQeF6GHAI3ZlMFy+8hleJnQwzKGyomJ7wjlnIJhXIshjjkJRYRoNfrCLlZxTZ7P1RavwfJZR8Iby+ifW2+9NTr7pUuWxEPkEFuEDwwMpK9e9vV09NFHp/vX3R8Pj/MXzovvyxcu+kI65MBD0uP23S0GySbCCFxl2cTE1vrRn0l4FQoxypPvIZunB1WSQKp7thNsgNMkPhqU37JZpiagluWzvlRn+VmPty1DecXgK1TSF2oreIWSiSlewCvDDd3y1fKEt1Upqfde1kdrgjZR+Sbo8twmFWeCwm7aT78tP9vPg4uASXhVPALHoVGnAkiBk5Cp+p4qK5V/ndR/BlCWXYAl7FI5pdrK+6WF9jTMcXiCMFImvbZ1H/l2sRKa71Hr1rrxAb2B+y7uc844kx55DVi3Kn02MWEJ7wpvvvjeFWooVTsqbFzRVHkl2BB4OVRkiGDYXx8gSDN34U9uGY8RfPAWIJO+k9tM6DROZhlWeAUeJzxiLkv/BKSGGqmKEizNgkYMMPFTxWMZBT8qoHxN+XgL58znMy8hh/eJt7Rl9Ttn3kKRrPYaQAGkMblhjTGhAqh4jX2ExwlXXF1T6VUu8JltGqsVExgnVfVk2sb1kCX5F6uZzeUY2sTnHHBhcamLcxTfLHMoINoohZvLw2csFFK24bG69GcebO+9+x4msKuL/odx1LCLX/3yZ6jjWmKx6YLzz09/vO12VnKfkH7zm2vTFz//mXTG378VJUFnADshk0DNEE3rQ7Bj3YcCqmwT61lAVUe9jaN0E0CVHC3KZz0N05aq21TimY9pYwkc55QA0rovzPS9Z1SpTUMwThHwShAqHLP+TZavB6jlr9mPzNf12dLgvZv6FFQVZeQeofzd7dNqQEMUVQKavztHcgmRp2ox71GBoW0s+CySwLv858xf264G6C/qWgjvI3TeNAlkqm3qK+BPaQGQT1aoZe7lPYzENf2mb4+d7VD8BpRSPaAiyP5dMME4EuCEditCAFEGsVBVh8n5ZqF6nCDUQyiLvKEKwMH42b82Tt3QjtKo8s2LchAaFnAMiFZNeiMJNYi3K8rImGQYGiXgC8UchHFPmKK3qP2kYXZbhkgGAHKRT/8mgJpAxtcWb7dD+iesCk4++dWxaHzuueemL15yMQ+wqwgNmku/hE8l0Mn5s8nvxlgsOunDx30M7DnuRS9hA5m70gc+8IF04+9vSiee/Ka04+pPsAvpDmw335n++Mc/Ts1PzUOF12iNjofcCj8uYBSwqLqrXxFCx0IQnlKTQ8zDWDiyPeuZS00Kr0JRlduXcH/eN8Qz4BWLk4YWWljbJKugPMbwu2LnxgKeWR5TtJXhpfaVwivyF57VuNbClD1/Z4vjAxZSn6Z6/NIoHP8SEqK8spwauVOArN4KBRXtVq9vmQXLMDRCAYs5oOWr0Y4CyTrmfKGwMy/CUWuGmzIX2hxKktVMesg1oBG5yTlaQB8AVA7dUjU1CEgyDHAQ36rYVbpU6AhOhFFdwN0RANcoKqhNjMl6FAmNHKdNjs0CC8dhQZi7wgm4PJd/TB2EA85yslGmPsLLmjClUr3jeKSqx9BB4ZW/+zkhjIJBx59xwJY7HGYfpPDZMkSRcqtQWr1iJwzQP5FOOfVkQoTXpXexMcsnP/kJvtc7pkVLFqV77ylgdvV7LZQRsDj/Vnl0+ptfn+74023p8xd9Ll31Hz9Pxxx7TNpt113T8u2Wh7G3occqn1x495kzhzPWq1yuGNjHJdJV1dWAfIRoMq0PSNZFpIlt4DnrGYtb6UMb+GxOKtv0fFIJ18xCvNDLATMr4ZhohUfVPvvsmy789OdiPuJOjkW76gUN4GISU48ibIcdVkRdCRR9XrGtWglXzElFXB+KKsGjJuzaJTQTouhOgL34jDUTPho7SlL3HqefXqu+aPy7g3BOlVPOh3rvI2oF0GY5TN4zKvhs7xxemM8pbOy9jx3OKUeroYfkraprtN+2NUKG+SsAzbBBxQxVpZh52M4992M/04HpPvUdyjSqb1sor3IZ/Vv+4rPm4CDiEUQUM2nrGtgKYOVDDI878cQT08tf/vJiVzZb9SEmb+jLL788VoAe4kf/VxzuzfXlL385/eIXvwiJ35FHHhnxqo/GwqtuYipIaAwhZlB1lUoZXoWnlGF0TDKFFvnxxEeCEUCV4VrCqw6N1WlTAUohLy3gkJ5EqmTMR/ihf1E2TFc1JIzwXhBa5DA162jKp4pJaichhXZwKnr4lVCj6dAyTeP7Qr1FyB8TQcsneBplQiissZMR4oT6i7KpnlJVlHdO9FyWS0hiZ6c/VeHdpaoJiTrvz2Yyaj4qjDbxRxD5pzv/lH7yk5/EDh+rVu0YZbvplpvSwOAAUt/j0tHPOjp96l/PT/fee0/60D99MG0g1MeJ6AfO+Yf0zne9k3j2IoZ5aNz4dw0M9RVDReQkmAd163rt2rXpbWe8DXPCbs5L/DcruoIzr08ouvbPa9P999/P5zQuRwbNNYTCiIFAqKgSKkJBmQAGvEL2344iSkiW21FAJOwTTg4z6ecNHvgEaQzwqMM8rvDGIuySXczcBrhQrhXta71FmCDhGvqeeV8IopqY5HmeDLmsZ2Gi7xnaJ9yqvlfkw04xAMgc1ul1CrsM+xNoOYgLMFXPWTbvKV/3PhJeeW9ZtnxtnlOAZXsb7tgzYJf20Psq85lJm9eAtdjNgH4/Ez6/vyZBgaFnAiTDCr1HHfFVvtn23lwZXgmB+lD5NPHAVQUT5qM/lmGB4b3ERFTY4PxWf6ysqvH8Kmic9EyQl+BIWKGySiAzGLBEkM13i/IJr1Q5+UCZd93zXCbPZ/G8CpVIwhmvQxiSlUYew9xsKrWRn0BOjygwctz3wjLVQ7/61a9ihdRQtBt/d0tMMr7z3e8B19hlDL+qTUzIrrnmP2LiccFnPp2+f+WPuKeZTAvauB7Pb3/3eMIH1gC8B8dmhULNa4uhlotXNfTVyz6HAut+xpWXx+T151f9Mq3fsCEtRKVx1llnpXvuuSddilnqE5/0lHTWu9+fTn/ja/Df+FTadddd0rOOeQGT9ZY4V1bD0Q1NmePndvI1wy2dDOZ6rqrLDI10x0E9pfSmKm+FAI5UTyihfCawDTWq9302YgqQl9vSSu0FUtk2ub59zWsVXpnPHHYMFD6ZNPXvwxdtDior29okgMSqJBRaWVnncfpv8fG47yyHeXo93qMCLMFoMyvGDYCsnMrT5F9n/n7ENUDdAjDq6cf9lgUIGQEKzGLOwKJH8c0rT5IhgvMJ4RVjVo1xv45xq4BXKF0YB2nJwtOJsa2+QwABGNYTCZWPBuGGqm2p5gmfLH0UKU4ouPCZm+jjoZEvf0PnYp9Qy0LwV5TjbopG/lvtOKhX1gMcz6JkJ9CJ8RMXYH6ng6Bs9Yzj4a+luow5SQ3YU1UmeZKAW4QeRhkBO5bH3Q8ZFOnTmuO7f8kllzA//ki67NLLMGpfm9bygJv7Wndge8YznhGKy29/+zvp5Ne+hQ0e7k+nnIaKCpW8j4FvedNpabcd5qePnq+a6/rwytL01zycoy1buigdfuiT00/pN378k1+kY499fvrchZ9Jj1u1ACi1eUhc0WZcB3UxiQpbzy+BTnhRubMiyq2sohM8BZDzmthxmV8ciLk2voDUWTXUTm+rgEu0dfU+yJ5m0Sm7UAe0DCUUc70t65IP0uZ9lInQXzqsuKekCqTJ/nVky+c7hJPCK45jDlcHpKqhAIyQRaEfoGqi9664hmJzAQ7nvrCd65g7BJDEZF+frPFx/Dknljgx5Hoq94wnnEkPqwZogWJsIExQADRXk21fJKlyCvUN4Mn+uwPgYtJHqQBb2HsAJYYI8WOKGKkbNVZWUjmW9mL2rleQPlsCE89RGLkDonlfuDGrMrDFjoLcS76nuMJdAItdA7kX+I4KJoaHC1WW3yXnD3o4ZYVPqL2ALGEcz4Ciz5Vqoec899l4YS1MZ5/9gfSjH/97uuPOO9Kdd90ZcyXzES77vXZncyOd/uqlL0ofPe9j6agjnhmfF7596APnxA7lH2Wjlj/c9od0zbXXpOt+fd1U37B61ep06KGHpsuuuDxd8oWL073r7k2f+eynU0utCSB+Y8Br63EEGCgYcoQ0PLMNj6v/+I9fxjz7pt/fnC7/yleJ2C0aQfCkSbxAbwyQtGz5krTP3vvSXeGty/cgICDX2ck12r/MmzM/HfPcY1Es8X130Od8wwPUfRvHDhJySEMZyufX9Pbbbo86DrVT0XyxIOnOgHqSGbYZx3MeFV+Ge6qGCyBFvnpemdoASwI/zd/dudBr7EWlXk+7dHYVak/vk40BqDbfkdLPuxC7Efg0i7ldKOx4zbxHKbdAVEBm2Ogg8Er12ZbwStC5YV0/18Xny50gzVcRhHMYOt0w+98yXNFjHkqyPgVY/f1cKyxmJv3nNfBf9sw+mCxgkrzzzjtPbe35n2fxf391Salc+b8f9b/zXTsjd3m44447YqtLfQoe1QloovImTyLsuIUphuYZ/ifgqAIHw7X6magYXhbwigmk5ud2hj6wCo+EIMIEDdGtD9VRmq77mmDBz/tgKzSq+hJ5bv2NCtN2diiksxBcCDQEXTkkTYjw4gwAAEAASURBVNWUEMPOJBt7C50ssxDGL7pKr+h8UUeZj4Ck6o3k+QU/hhtGWCPHex3mzeMWqwVF6OEY71s/s5igbkR+/q1vfysUWK866dV4YC2EyrelI444Iq3Zb18Gm6NY+fxHZJ6/TK94xSsxaX4q190SMPPb3/l2OuiAg9N2S7ZHec/KrOYw1jv/G4qpskW4I9AaGhxKV19zNQMrHT1l9zDLaztYz/197MIY9B2pL0qkjkYUbAwoA9SdkEeI504c1skYkzbD+apQyTqyjQVdgiwqjHay3ZrjNdvJthAuWR/hC8bENqvkVL71EtZonrFjJJ83lNAdYvzd+s7JfPS2Eg56H1TVb0JI7wWVY21AKK/P+8NwQtu6FYWV1y3MEn56P1omt/UVrrlTYgcPCgGv8qyHE3uM98JcJtIBR2eeTHNzbJO//X7NZpXPgV94JdBxZz/D6Azp459MduLxhX9PwyuhiL5X3BLI54vwr1ygEcCV3ksqpPQ6CnUPeaiCEkDkpCk8UXRG3XCswJbvJrebfkqGlgk2mGNGGTTy1v9KKN7BqitFmUpCLziTc4tQgTmHZY4DnGdSS1ijkEUQ4vNX8Z4hk5i08rvnoVOI5zJhiIDJ9LOf/Sx98IMfTIYN69MwwUP4VT/7afrlL67i3eIYZfR+1z9/4eeKCV75emTgURz2qpNPSyvZQWw+BhXZ98k6c2X1d9f/Ml36pYuQkHemI488gj6iNW234+7A8+PT8455Tow5+mG0t3ek173hTWmvPXdJp7/pDenVr34VhvBnp33WHJhWrt6ZfFVxchnku7Gf1VEoUYZXlkXlFV/WmKAblpnhkO9Zv6rP6qiDqppKmMQCelJ5xdwxDPxVxPnHMM1WQFe1LQ0hhd2F8TuHTCXDAQNcko/PiqY4J+CzA6VXKKh4TYCmSbxQMdeT4Ipog1C7+VoOa7RsKvB8zbZ3rLJdN7J7pLBzJv131kBxo7m7G+QGqICSqnrf0+cbUheKJ4EGv2vGXWc4YEAsHkLKnftyqFhDgAnGQwGG/QPfKW9ovbCqeYeayrAxktBC76Xw32LcLMzXRT5l4sswEeCDvmlLQ3HG0thxkGPqOwgpsyMQijBvEIIITwJEAXhCqTQA3PFaSqDiGSIsjnFT1ZF3qOUJfyjyDjhDnTj+66v5ofe/Lb3+lJPwkrk6rSVkZhN97VKUJat33j3tsfc+4Tn1z+eel/71058n5IWdxlRzkQROs8d60/MIHzziuScAr36Hb9ZN6YEHHghj6O23W5Z2X7EwLcFD55Y/3JPe+Oa30V9tTM11hOuoaGNOlusvwuqAgw0Y76uEM7yw2D1QJZbXwUIXyus4L/OkSRbCPFbQpZorHmCZl9ABAyWn8w1llvPFUEZNd+5TbWVbBkBEOUV9215RP5W6jHM6b2IOIfGoZ56VwaVhgnqwNXQuj2uJ0EP9yqhvwVodXp25XSb67uHz06CLExbwisVP8wvllXMwFt8mhu9LjSuP8EaKcsWFz/x4RDUwQtiVaQw1VXG/FNkZ4qbVhhDAeUanoXuk2A3OHQgBCs4NBVl+FZ1nzlmIIXdlgBkEbAmvnO824wmlWkjA5Gdo5gBaGTyZt2BLJY5he6MMIqp+DGPrmsfclLFDSDqgYTwTjgnyNO9J5vEqenLS/0iFkLCih53sZqP8amSg8Vlkt533Sh855+PpAe65398MULr19jCeX7XjqrTTTjuFr9H6+zakd6LQ+uY3v4EyG2sVoJ2hbQK4BYvnpxcf/9J0zDHHoK68Id180y2xqcOy7ZewScxiFqh2T0sWLUlHPePo9PYz30bezOcBHs45LiI02YX0SA53ebwt/+0iscDuG9/8Gj5c38mXs9nxzs/3eNye6ctYpSxid8OeHsB2OXCr0qbbjt0ObZtGJgCbRgGN+Ih1lAq6ca5hsn4ifewj50af5IKfbb506dKp8/RzfI32djdIZm7xTGEbDeFRGaBvTnEfCDdtD5Vj/X2E9AHYQg3G9ajS8r3u+fSzXKf3TN8DA/h2bR1KGfcTsMtyqOYz6V3m7oReWwNtJ9Ry50rTlvDKz29E6eV8osPPl/Vqe+uzNXdJFyGP7Iy+DSLNLOOyZcvSE57whOjPWwkhn0lb18B/CbCqh0ZnU33hIfz7kXz2IZzmf/TQfI12rP+bkkBDLyThhtBoc+BQelahSnKXOL+rw0wi6CsCKmhwJ7zSWDt2oQN+NPOAldUxGUa4g8VWZtvk5bn1vmplMiJsMhzN0D8hleFhJqGMeZs09lYhJcwQrAk/7GSz0msQOJIYYNqALxl++TnbRABmaJzqJ8tnKJpG5PF5zq3Cx/A4J1D+WwWXndSq1SvTC17wgnTMcc8Jg0fB1nEvej7ldUe8Id7fIb3ib1+RTnnVKWn5suVIekfTa1FAdPIweuABBzLRLIGhtwUPgCrgBGaGw6l+cyDZfsX26c1vOz09/qCDUysTRMtpuQI4TQynKy67In3s3I+H6s0eU9XTAKEZQrsAeLzmQ7vl18C+lQmznzdlVZX1oQKLItDZEx5JPRrymY+zfgzzNDShDZVVhldCJ8Ma/bxm/N4fPYRU2LYCyXxcnIwfwijhWJiwV1YtrW+hl3DM/M3HPAKEcZzqMtspPNIoWw4XDFDKscIrgduWgFW4Zvl8QJgN8BKgkM1M2oY14P3arAwfNZAQoonJyggQoIXJYyPfkSEmgnpW0UzA4UJ94+ljtz4mOdVQL19XdSUUctFPYBVG4oAJlT0ZQHic4EF4NckP5pgBNXje4x5nt0PhFSOXLMJ+SXXRKDBKKNUBeOI2mErmL7QAwTAZxSAUWsVLodTSbN45cGEQz3tCMq5RY3D7OVU8Qi1PwgJhgLOc9ZMPOyrNX7wd+TEhJ0PPaT14H4dhefxehChqJG+II9VFuafrSC+mBct2oo6AugA48xbyGHbpAtIqHjzdgeaggw5Mu+7+OPqxlFYuX5TOwdxVwHUTBp977rl3etnLX5kORsnVzMTOsOY3nP5WQhXuSfPmz6NuuEbqze9FmOMzUdMs37KYbNOoL85rt1E1W486AEb5ANBJaGN+XhAkRmif6ijyC8hXXpvtLkz09ZyETyP8mdNRwMLp1w0RVOU3DZ98QHHHQSFaDjO0fVTHhdF/qQBj3hv3iIGHgkx3pDR5nNfjPSG0FLR2oCLsAV7ZlsLKmbSta2C6rZkdFCopF4e6hArcfDkxdkeoF+NcKGC4wQr1CwomAJEeUdkzKUzVGWMbVF7RuQgmwotI9RVjmWqd4ttfZk7eU2bxeCuGJ5MhjKOEgLXidcR4V01xLOO1Jt4ZcMT7fFGK95gfEO6nh1YRHkcHQHkMRZtkPDKU0DIYDhjqHeYEOUXZR/D+ChWZYZWExTEuqlraDOT4pUTx04JqbfWqprQjD6WT+hskvLv42SAwMkQRk+u3vOk16fkYNe+0O/6aKKSL3R7v46BGHgDnsalKXTrkkENQdT0+Hv6ck9aNU6fMCxpY1Npnv+3SF7/0hdR/721ph1UrUkP4ORVfhqlwQpRXNb4kk5QzPk+5BVV0RiiqSigFLKqhsG5go5oi1I95l1845iUB96JdinwjhNQdBzGVJ5NcPZQdQIiiy+MLeIUHF/MAgaJwMJu+5w8I1wwphPjxGa4rykI23DM15o31HcvIB8AZx1nHtJGhfywSZsXYJPVsR9bQxbFlWaKdGRTqZhebAkCtaFMUZbQp8hvKof1DpdwB2yq/5wLO/P2gamCE0L9IMeAU/1Qt459GBnnBbcArb36+Gn1AIVVZs+i0+wFZfl34GqXuhWw4lFc7OHQQ4BFjL/Np1UMamMd8EgAldBB26I2UUwG2iCphUNcEvEXTcP2U8EPSd8k0ANioQybtsS4uCykyWIv3VQgBtwxBc9c77QuKcDTmN4Su6Su1cOnctMMuS9KegCDV1LMNy+c4x3bfn9s9L330o+fhfXdS2mfffTimCJXs6EJlxLW3EJ7WBZhZtHhhOmi/J+JRxfeQgXu4byy+46rM9L7a9xv7hiqso6MjnilUdzWwSUM7n3eBWm8vjzVcT0AoOPf5yTC9SNTrCEqzRrwTsnpNX6p5c+eHykivKfPx9g/FPX+r1NKnSmAnDBzo7We3xg4UbGwuxZ961G9umPLnP9+ZrvzBvwcg1CvaqK6oP6DlBOr6Bo5hKYL2wuNWgIdv1Rhtok9ZHIdPlW3ZNQeDferZ0NJs+C/Y2jQ0nuYBjqwXyydAamDs79Ibq5KEXO5aSYAJyj+iWWjnYdpgFFWa/Ze/GwbqjpUTZJTVXFNZUEe9G/piPjp38fQOh96nwlN3lbdcPeu2jYjFeta8/ZOf/GSo+zXcn0lb18B/CbD0rNKcTYnjI9nCUXNKY4G7upQPP7aSHYHyPumo/340p0aAhwofVToCDJVOhgb6b+FVFUYIllTLuENhp74QDCjCAr6r0QGrmmoCRhiiJ/zweOGV6iahiB2OeQtY9DWqAiXryOPdnU6goUeUIYmDTJQEGdnfyg7WvJWVuoudKjDzHR2zgzFe3VV1pPx0aMIr1WAdyMAz0MptYd6CMcP1hDCCmhFUSyojVDAJy9w1Ud8lf98OEPXmt76JDn6SB8gdqSc6Yx6Q3JVxFHCmB9c4E2h3YjzlNZood0b5hD3W7X7sDLL3/9mbeRaDBf+5eiN4edPpb+RB8yVpj932inBMK/MDH/iHdM/Ge5i8rk4L5iykXqD4k90FZKOcqsFOOvFV6elHHhUAbU6n3hiDrFZZF6hb+M+BZZAVR8MKhX8ZSllXhmN6X9oOMSOgExc4WhcZVgrMRqhTpdgdwKUc4qkaS1hlHQswvT8GmDCalz5mjTE5z7XMgzCTWu+LToxf/UxO3meq2VRseS/k+6wvwJNhP8bjM0Ehb8GhgNG2D3UcbWzoqNcm+MrXZt6h6OL6rNsG7kPWVXmVsDbK7S6O3Uxi87lyWWb+fug14HfewV91k95IwhAhktBAvyPVMu4GF7vVldkLNDR57wKUVNU8Qoc+3nOyaUihii6NxDtUzwCPclKRk720BCGcnrYv4RXABXbD98pyFeF/zJ/4jmvSzV1Qeb6wbMIPP8wjMGX0JxMOIIvhhsy9AhgJZDQy9xoNUwSBxc6IZAka5Rxca9VPS9XQMrwudt91tc/W3HPUAecdo6DNnMuymliUjH9bJstCtU295/sbh5hc88FQjPG7gGUD4XSnnfa69MoTX5r23GPPdPjhT+UZdTb9MSuKKpKYnPEzrmO7FbukD3/8fCbCXdQnD5CkETaieOUrX813epzXmWCWw5Jm+U7U2ivwKnZKpEJ4OWBgAMjIhbrl9T78wCx3J21V7Jxo3813nXqyvbO5vccK4IRXzomzSs2sBJFD1G9X++bwKkIEuX4VVUIzk/ms5/odcHKoouf3frJOLYd/ez8MU7n2ft57GZx6Lu8LTeBNwzSM9eXOhhyauglPbbLR/WUmbbMaqKFw8iaqox/WfL0WYAhoJNTIiS+rCpgIJWvTDJvvNeFddfTfNcYfAUj4RPFOwCrBhIbaqLEirIwxXsBV4wmkUDAVbRzZc+MEdGBnwHoM4UNNI9wYBi6xI12h1MoF4f5hMaWGcqmuFZXWZmCLfHxvkodXoFDkY0iZ0Iyxv86dDPk74FUOnWPOkNVAnkHlklAlh50ZxjYFZ/CVEtjkNOkYKFVnTNVjqo684jVVWpyr2GmPJy7u9yYg1+P2OSDyEvyEeowvQ6FOK+5nx/o8D50w1BJ4pUl5HX6kzhMWdDSm+c3LgU/UawlxMkyKOhXAu/Of3yznfcxzJAb1ZXt5bGHiDryiTFMm6dYh4ZhFuxQdToQjuqujuxtuBjEBZMAlKok/KLNUyjEHVPFWbxgfi3vVJFwrfMiAeQGYzI+PWs/D64FXS7inuO+cL1GfAsIAjLyW7yfPF5sLqNKywyZFmCHXWS9cZM6QP2u9WoZoc/xKG1uX8aCNytZ6wVetoQMYV1GdR2YzPx5kDWze78ZzAiDDxeKw9gDc5K5ZONGIR1MTIKQfXyvnCgKYznlsOOSKVpmGNXSn01e95aZP2e9IqDXOAN7AAs6WShpN2xuYRAhrWlBQqbhRSZTD2wQlhi461swKqFMClbL4YSLPZEazeUGUzwoZbvWhyhpg18GuOXgM4+HlsfpmdZZqIos9xPkM0etG7aWKa++99ka9xQ7FQKvOuZ3shJivnfua75nl0dfL77Zhik5K9K8yD83XV+64Q64O5sINac3eB6QD9zsoupoJxl7hTgNzmAjvIyJkFHCk11MWXowzp7IN3P1YY3qPHwUMzQacj7B7of2BdX7We96ZXvv605hzs8gNvLNtxgFdg4DCVnZg18fMujQUTwDkvOLv33JmOvXk14WBvBDGjc/cEVGfMf23Gnnu2ET7aTBvnQ/jPdDOv1VECQZ91hNG6cOV/x11yO+CvDlLeC5wsYx6UgVnnt3UYb6PcsX0c59tct7CjoFeiwbvQstxFrhm8RmVY4aPTsGrsq3j8+StV9oY8xDhldeek20ziPqKRxggIf0349xYSNPzEQ//b9sn84XcVg8/t8fmJ6dH0y2uTwnf7bffnv70pz9t8c5D+9VOyrz8Y0fzWEp+GVXoHH744XFt89gZ5tGaVPyoUPGLLqwRhPilEOpUvaIKw3XgFRMrwwad+IwAgXxYEAj4fhMPVKqQBEwqfwQ/gqcMr4RGhuO1MSlTSVRNAqEIDaMzFnipzjG8T/CUAZidQKiCAEsqfQRg3kcjrICOM6kQ3AhE7KzjXOQZhuGocCxvTkIOlVKqlbrw2BK+WN5xQEszyq9i10R23ODzXoOeS6O1kbRqpx3jM672DfCgJLwSchXG50zUeCL1fl44b1EcF/CKetEMMcAO4Mlr8glbryfrZfkOy9KOgKoM2Mxr3tJ5af6yeVw3ngu0ibAn14mdtUCvaQ4rs+2rUGe1UQbNLQWEfJ+oD+sg6o5JvlBJOJWT9WJz294cHS9zOZvBK1VwwivnstWwSwFSD9BJWbNeZLb7MBN3IWZHwMTKgwk52579QDR3Btw8dLMIEfSRu4tJcIZjwi6BY6i4mNALr1yZMozQ5Hlsxn7vCx5ssvor3uSH9dTHQ4Ihm42ULeqEC9Ugf5I/DvS+NpMefg14fzmpVKZvWNiIEzqq1DAyYY3wQz8iAVVWD3k2/ZL6hVIoAnL4l68LHfSzIluAL43L/4IFjcWFRvwaSWAhSPKAgC8eyq96T/l5DcAFPa6stjMJ469QTbUBpyxXTh4zxHc3VuYoZzv+Sp5EeDWbc1puyzSEwsjzu4OhUM4//QFueJMkvIpwuzJjYYqKosK0nP6HMum1pNKrnQkdt3EkYYo52MeOcrzG7s6zTJZZ8/NGPpdD+TxWhZTwbPddd+T+XRX9jK8/0CdwKwBerifDLumC8OdbEHXteTPomQVk7zaMgrKbBEsUL/zFchkC9vCePMeQTuvSCXtO1rURH5ZP5ZPJthHeCa9sWyGUDxbt1P0gde35CsBW5BL3Atfu8cGNipcDKvbib6WJfFZZ+VYv9W6bZEN47xX9q6wvvbBcHPe1QdpA5ZUbB3huyx2gTGhKO9vvqSzTa2yAe9HUXYaxtmLAG/1ivDrzY1vUwMT4/dQp9c4YNTmyDkCyIsDJdN5FuF7sGleGkhkeWMc8QsNgO5YczlaEsgEmYmc8VBOMdcIFnmYDHoXyqoQQOf/JgfsBGJh+t6LkYR4S8GToPsrgjnSuXE/f2Fkd5U6AW4EtzlPbBNjyc8yLzJcn2FB8GeLoF64WKizC7BzfLTfH5fyLslNWE4OtKjN39xOubaksinBIewgX41SeMfaFrxTziHpD81Ao1YBCXr9g0N37Ar7we+HpRX+sIf0WC0lxakMtKSeZxnktX1w3i1UF8CofwJxHAHes+zAvB9755ShCFIFZzOGKnfeKL55ATY+zOuYbAdAof4RIApkKeFXOP1RYDalMK5RwUR/lD0GVIX+J66wrdwG0DBGiiBJqs+Rcz/uEeZBtavtyctqB8CTaJtrbuSHzAcNQw0PL+YwAMJRg/BPwVBvh2I7tqL5iYa0IMyzUdDZBXJfA0FBJbpW4F6OT4MGezwjHJgbWpsbuVbw5/fC6WVlnfnlQNWD/nb+Owp0xxhmVS+14M+XXhQLchSijZmPWrYqK8YsFGXd8a+a1nFT7qNYxhXVIafpuSOIYPlKCjS2VNEIRx+Sw0QA4qLjRF8pd9Uz6PAVc4bstQFOh0w5ACUjC+5tYwRlDrWSoof/28/7bslvu/vUa0bdEKFrsnAhkynDL/KPMlLtrfiefLSCu0E3z+dZO4A75OX/NKqM+QuT0ghK69KFCM1kuOob4P5uWxxv8GCQM0tTMgpZwLxb229sItesP2DXMudvxsJqCdSicfD6oR2koxHJhXk+oFkIqRwE69cxRXMDsoA4Mr1s4dwlnZqEOlZtzsAGPpf58JupnF78G5goqsayvEc4vtNqOZx/rx3oP1RP154K58G2TzwHka179KJn0uFJxNyyw4j3hVYRV4lORd6u0Dq3rLpV4rmBRFZqw13FzdS34T+AVkHAToLEFgG9bjzJxDXjlpIjUMde2dOdF7jHOl+/DeJMf1qmQqhtgWVX+WQ7v4Sbnnjwv53vEZ8NtkfRIO/XUU+PZ973vfS9ho7tui2wfU3lMP/FucVl+iYy/PPTQQ4MCChAebvKzCxcuTHvsscfDzeJR+Tm/kF6XXmFeo78/epPdTpH8grkVqWCgqpZRvaLyys5IU3WT0KiAV6xYMFGJ3f6EV6xGCS40cBe6ZEWPwEijcAGRvknVZIekGsoOQuAkDOtHLWPHGXkwObAezdfzCsWETL4W4ImJi4DKcwmChF8at6va2TK8TJXXAJDDibXX6ePkKJOgUI/xWctmeVQ9CesCXpFfqMm4Jrcq1KPLsDxVVIYzmhwo/ZyqIBVkHm9Z9bQSXhXKNmL1GXRbm+3YebgzBI4yzlb6XyaNzjWW71Kmz0RSCCYAs048l9duRRXhc3S6lNPjBDOq0lRFDuA/ga4BILD5zo4CIAGY6jRhF0NTgL82Jp9ZlWS5B4GYXks75qxev2mSz0VoHzmrLhNuRl2idmoPmLg5kBSU6ZHVweRTCJgBom3WyzUKQbqYyOf7TMWX6rsu8tYTbcBt0Lnfsm9XqLxo5xHvNWTQqu9ymS2f16XPlmDLdh/nnjXpBeZKmCEflmMGYEW1POwfrsZtAmxYnw0oMbmR+M6hwOL5QXChh5Uhf6pfMhQRcPQEmCgUObk7tN8ZABSp3tHXSIXOBgBOfB64kXtNThFAyDA6V8VMgijPMVjCK19z1UyPKpOvC02quwIKQYQ25qEdgX5MljEAD+XXT8vO0GOEWeGLxEuGoemf5HXwf2rbArAIRQYi3JEJC3mrQGtksqWZfex+R94m1WeqsjyPoM9QxVxHXqPwSrjSybXzVyT9vngrVELFpfMAyQvrOVYVWlYZebCwJlak+TeRAQH6LJt5Cam9uKwYC+Nz2rHb8L3yXLafczcVVIZeWr78np/2fRYoA1K10V5+TPWcoX1ek/BqjDytN8HhIMe7OFKFVzxvhHdWOyu6VXWdr/dY75wwK6o8p23jLozuOJhhl2XnFHHt+naZBGjjhJV6rbFTIn/bXvpheU8IuYSJ1t0wZbTw3aU5PL9Fu/uXm1J5zEx65DUwVY+MKYZ/acxefQoIPynuyWInOBZ/VLMUzVnChjkcT8MJJgYBT4zXWRkVoWaMzzyBoIoC4jAeVVN4TQmdAl4Rish4MDmwjg6EMMV2jp86Ee3tQtwQUMow+y3KOLUbHmFjgifD3wp1FEbmMR/g84yB5unuhwF3UA9FuflZKIWEV8XDSz1he4KXUBsxT6irzIVqjIHhh+WxvsdcKKAb43YoiIZd/OIGpT44gNcEN0V/F1BNhZvwhznIlsm8J4VrzBPq24R3zAFKVVihaCvnICW8qhNI0WYRYueXSiDGuOwOhHpcTZ0XQBSgjXF+sp/QRXagrmvkwT1CKalnYFkk8o1dI/Hpqkc1XU0B0bwmxnbhVkBC8mUyOhUWOHU8N1W0vfO/UL9xj7hAx/gfHmraWjhHYq5k2QVoEabJvDTAHu1egEzCEtuXRVuYd7wG4It7kTpSBWg543WuxRDDSe6hGjuoNTQu4m9N4wFiAM98T06VceYfD60GaFN3dxPcCCXcJa6dsLF2wVPZH+hJ5HxbkNEPvHIeNwIEautg93FC4nISNAkh6lHDhPdm6U2lAfoI+UdEQankmf7MGKDC+SKLZhibDxPS2MIA2lhOHlQTDQuAKGconChjK6qwWaVCOHZKBI4JtBw6DB1rR2kUsAaY0XO/YXTYsRCKOAoQUY0k3HIRzSTwCpN4XlP9NUb+KrO8zjAxB6A4X28vPcD6S9gmpOpZj6J0gjEWgGe4myF/hrxVk95RhgiqZhqjfkaFPpR1oB9FF32okKaJ683wSvWYS0EsuwXoasPjV2CmFcGoCinmfhFxQR7O5SJUkxPaXkKtAVRJzYRfCnV6UT8559fY3EVP22eEurYs+foDHPXTxwW8MmSU66f+rMue9b2AzP+PvfeA86uq9vbXZNInU9JDCimEEnqXpiBVqiDSBBtWLIhd0Wu7llevioooIE0FFBRB6UgNvYQSCCUJkN6TydT0yf951pkz+SXe932vwH3/XD/ZkEzm9ztnn3322WfvtZ/9XWsXLomCr9UYbnXktYbBfUU7dc6/UxnW2W5qB7C4r9ybk1VHrXVHy2EoTTvbUVkvAkt3U6zmGRrD2GfQbuwtjUT+rx+MxwffGwetDjdFmttGSUDV3MjCPe2rVPd5gDtqqgrrgS3Us28BMM1TGPhGASx3qnzuuedyEzE38toMsDZ6NPnL/xZgKV07+OCD45xzzsngcP946j/3iXDn9bgi/nNX+39ztIoyg9MZxF311fjx42Ps2LH/by7+T16lO0ZJNWqXNax+CQQEMyVUMCvBi0oYBwyVV6YCXjlBAl4h3e/JRFZgJSARfgg9PLYEDCp6VOr0Jih6AWAym/wrIRTnCWeEVb7kueMg3wrLyrIkACMPlUsG+zYJb/zjVErY5bGCqxWstvUERnmtEqB5fHEvwhMnLxhS3JNuhu2UT+gk7DIvA6r7nSoxY0QJxMxPaCOYMXB85kdHayfrfa6h/Kp+rIeEVRiLRV2yKgkMasOAWoMhr5ue9dOOseuxqtaKqSCTecritRpQJTl9b+b3BGVcZxXlULnm/fg8elMe685r+W93GtTtsy3hlZPAjXd2LGOLZdBJZv+CaAcK8+zJymneDwaascUsr1DLuF+Wzes0sgrr5w0Yv1nPHNvMymRvYJxKuPIezMdnooufsbuyTit6fwPyC+OEV6ULqe2mhevWs5qtgi/jm6GiEO55v1l2jFufq4BKd8RKV8WEawRm9djymRPGPwd930WfbW/qprIt5A1v/us11YDDsUZddwBjqSzStU9Vi/BDdU75ufZAI4AjwQxql06bLa8riBAYCKwEK0IZVV2l+qgsnKofgZVB4uUVCa+4hpDKlT3HEIGLoMLrJoDCmCuVRmU+BhH3eOGpUEUgYhlMKrm0cQwwz6uRRgw2Y7qdCW5UYglZBDe6opUGkee3cd+68eVuh1xDQGZsqz6d1zB/QY9ui36mC1vld35vIHGqM10oyzoSSK0AwPTXza7CAFOhlnC/wu1PVZP5Gx/MuvTe896of18/6yzdOfk+g+MDGoVXgkdT3iP3Z7mEipsq14Q/BkvvSeGMUeb9+2zLuFRlbCnLLEAqYZFxr8qiCyCXA5r6+rw7AZjXtmwCKI8z7/L+LadgUHhVPkvvyThbNRiIfTvz8Jogavpigu9zPe/JPFXB9WEF3XmI9Y9tD0BEoUojakC51cm+6Cd43NwMP2iL1Bd9j5OZzekNqAErl365ChVuCT3MVUAgVKquG85vBUwJxr5gTEx3wIRMPMgEHwR37w5c0n3Ncxlb8vFwvgqoTYFNAqkVqL96DyrOYWxOeMWLsJGbHHmlOgqXeAHNf/qdOxeyM6AxtzJAO+ofZlqdf1DhuNDGeL2eybWQKKGS0M28GbMyFpYvNkkgVYVNkxCM1raRSgsbxPyr7HyoL+/VmF7GABOOdWBXCa68ji9fAVoKM12otH4N5/bB7Q77YtOU5bDOvKaAhzE271uVFYqkrvrjWaX7Jnaayq9iF788LSGV4CgVVZ3ujhncnLIYe2qdarg1xNbqBbQCpFWxqFUG3bc8wspCMaYNueHdUrGWrpWeA/gy/6wf7lU3wspjMx/dS7ONoJjRXsMe8AVe1zwvy9wN18x0aWyZD3BE6UVZ1wE/C4UeqhGfCd/pQtq1IyLX6qAN5PWo+3TX5Kf5ruf5VzeM4tK2RRej7fsILN4ODE0FnDBwc3q9NdCdTlqgICjSxa7cCc58hVprAFB9gVeCB10CVRH1Qe1TCWtS+QS8qlZ9Q8o8aGq5YyGASTtBCFQZ5D3d0xKOMTYDhAQ0uuX1JD6WSVuhFRWPsa5UL+melzsZdsItF6RVQPVN9RJu6QAb43Op3HK3wkbgleXULVAlj8HjdUsrVTkeo5LHsuruaMDzhoH1GWure94HdgdlSjUX5RGcrMem9b5VZ61jzFf11Isd+poAfw0EEa8wtwvlGMBDCOM9tAOKavm3kMUBz5jFPZFxl4HsV6NCEnD1QnG1EnhTi/rLgOjO8Yzn5LxITxVBovcgHEtXSYETY65umMbM6k39NS7Bo4LyGWdMGGhA9xXs4leLEquEV8bUskw8HM5j/rYajxWAkjBLANUDxbj3J1Rb1alaK+uphrL5LLOeiTFV09C76z6MVWYQ9v5D6VNKgyKfKHXod0A7y+DOgsI9oRuvdy5s1g2kD2XFbyWATBVW+aw6T0/VX8syd5ZEIdip7vO7tdh1glaHh14o1Qz0r1Uh1FrNyp/XeSNSyUumTJmS87g3Is9/tTz+U4DlRLZMToANGNvaiiomd0Mrv/mv/7RDEYiVD+S/fuab+0h3fHj66afjpptuyhhfJ510UowZMyY70DdbyVW5+BzsFOxEKif5uq+pvNLcUK0kpNgUXqlSMvB3uvyhKBLieKxwyyTM0J2tBx2g8YoqQYffC4RWYVToqmbnKJwp3chUzJiEX4KZXrjA1BgPgf9UhfnHnfecvgiRBBl5La6tkqvyXoQvAiIBmfBElY9B34Ui3kMJPoQp5q/yx2OFTgIboVN+Rx0ZN8x/W04VXyqghFrCmgRw3K9lF1C5cqLiS8AkEFMdVMSrIphhAqLCuDW/ds7LQOeUvwjIXqyKeq4wJ5VJrvbmM9M9aWVeR8imiqtthcH0O3CLGUCZCyhl/Qm53HFQlZjQqgBeSGdxUSh3gLR+dM0TJKr4KpVPnq/yymsMwFA3X+/ReFLuQqcLo8+tTD6T5YCt7vxXBmYvv9NFsA04qEthCa/M12fej+dlfVgHhN3l90K9Z1D9VlaeVxLnwrLWbxJLy7wtn1ClhnZXQtMO7kN4ZSwz80xXFkeWzekNqAEMQXZzqVoP0GVwXguZUCmj+ki4U8IrL6Srl8ZA6apVXlxg4m5/Ai/P0U3MfqgykLjHqlRSLaURoYqGZpruirqmCSKEWroWlrsGGtPJY4ViG6ZJBajSYFGS7nkCkQQfdHulu1qqlbwOzUQlkQotwZCudCqn3L2ujMGUZROwAK90pdNd0iDyXoPuv1P9VZTArlXYJkwxsHtPKqgEMuZjTKl1jK0DAFVcPlMCIyCT1yshUx4LYFuDUT0A+FQeq+IJ+553n/ti5FbZlK6ElBlbMlVT9eRD9XKc/VHhUlfma3B44ZfQyhhSArCKWLjAnyImWTfyL5+PpoBquXLnQl1L23lWPgfhps+sEvQl7MIVUqWWsKt8Nn7eBLziEgmVrHuT5VS1V6fLKfVuKuoEMEj9lWDMsgulPMJ8VXBZNgPtGyTf+/B361/1WC8qrRJeraUAAk+32zaP4krF315zc3qdNUBV6iLonzJlPCnUyQmvAAUZa4idgoVXgb1QuHkVDSHBBGN7oRri2WIveIxJWFMGdy/zVjHT0Qqg0N1PNRUvn8ocZ2vd3FWwUqkluMD9zdTNHQ2FFp0pQUd+Rx9TNySVOMEin65/qqRUHelaVp2gjdwZ2yrhTsIm3dzoD3T5q6pmwgdsMxaYSqNuBEYvW1seK7xS0UoSvAhhCvc3FESCPfLIP4yHRXynwjbQ5XA9MaWqerHopTtj15uVWXEO7tmUjX9QZmwnFV9536WibUNsqYRXncqvVIj5zJjgupNigjoCvJeB1BMiom4W2GUg9RVLyJ/rq8DClqt8LrqFdnDN7psEbc9npeqOsnFSQrnMS/VWZTyu8lbIBzpR2KoumnXuuriuZS71jFtkBqDHEuC5CdXcHTFjaGW5sYcEmSXoShdSMsZesnwF2OPZYiMS2CphmKq/bsa26gR2ncUAcAH+eK78VX60+efrrQE7aVIdoKcSOAgnVGb1xD2uvY2YT6iAVCD1oK9PeNXZVacKCnglAHYxImNL8Z2AyVhZjvu1qJoMLl4m57NCIGNoCa9UYQmNBCZlMraU45nwSndFv8+d7joPaAWM9QB4GfdJlZKKpt7AJK+7dD59AoNu/yH1CXkSXqFaKstgmQUn/QAx9hPNy9ytrzYVYKoGezA3biFPd8bze9VLazohjtddA9gzRpaAqAmIJpwz1lOZhEOqyVSGOfYLl/pwLeFN7ojHh7raZZB5ThIwtQOYMng9c3qVTu4IKDB0fNeO6yBug6owgZQQcTXGjmoqk8caB0oY1sy1hGuqk1SKFSo13QqJs9tpeHRgt+geqLt4D+7DuUfvGhb4qct2nrHzCgGR971qFTCN8thKrGcVY+XOjssWCg3ZrREYZVLNpquhO1IKkSpTgjBWsnKO148Fel7hVmCUbYGpCHG22ICM+23juQivyuD9ZR62o6bFXB87J90KO7+wDfksBW96J1gHKts8Xr6RAf9py29E6gnoGzp0aOhKKIPZnP6xBjZYG53fKVsTzJTgykn07Nmz47zzzovrrrsuJx//mM3/+RPzMFbU2WefHVtuueX/+eD/Qd86EfNPAhDq7M0c48sJf1J1DBUVPGVKtZKDOV2GAdt94RNe0YO4ta3KK8GPgEDA0tLp8lXpfpguZsAD4VUZN6vM35+qqnSR6w2YUt1k/CLPEWaVMbL8vnU1gbw782B9HiBTqKIst4S7pwYG9a3bmfGehFElQPM6Qh3hlR2kMaGEJ6p6WlkxNcZSAjeu72dCKWNbmSyf11B9pfuj1xJKCY6Ee17DvE3GpTLp5tgbI9fyO5To6reS+klFGAbkClZSvWZvXRnsPUlZ1xiwlluIowKpm4AYYKNrpYHwBWXCPq+nCsk6N8+EV5RjxarOwIYYZpXwSjAlHBPmCYMEa0K7vjw3oZzPtayfNeTZF+VV5Y6FuuWtIBhvf4zqEjr5WTX17c6OQrEyeR/NbazEkmqRz5axrfxdt0uVdbr+FXVjcMi10bSykYl9sUuloGktEDJhIvlarjbglrtcmpdxtyrvzXx1uRQS1uV9F4aH7oTWm85Xa2inPtccgD1hc3pDakD7nSZAYoVSlUwtUAtIQtPuSsInbKKNwIRfCiJQ0eexniNcWIMMvn/dBlVMeZxqG20Q4ZVQxJhR5iuE0k0vVTbGGuB7AZSGXqVbnfkIc4pE58X3qq3chU57wjhX3ksew9eFckn3WVyCMUq8PsVN8FIqj8o8jXmVAAdlWZ5PPuswWNJ1EUBm0uAS7hkPS1WWv7urYfGt37ExAfflTnwlkOKwDGLvfVSCLgGZ7m+Viizs5AR46c5NNyjEEeh5b0KeFdSt8aB8LgmAeFZFoHVLB6gTfqFMMtaV53k/ArCyfAImVWnarwbY9zn4b+FVqQLzWJVRvbmeX7LQnPCvnN+VxwuXKp+Nn6u8sqyCOmFmlol7NBaWCqsyjpqLlwb670mmZcB5oZtltx2ad1lu61sVXNfvlE1o5w6Z9Z0xr7yO9bGcgPG6YtZiQHd2x1mGzX+9/hpIG8iHW4W6jrHMlO5ixEUsFES82PTVxjMylpXugIUKpjA/UzXFG9OtFlc5xv10A2Q8MF9hl0CmMuX3LXOAD3XkDwRiwpXwKqHPsK4y5DnYAhmvietnwPDO8hXfMfEwzhUjiOVcz6KPAcC79UFlsJJJMm6AAh133CNTjgWYCMs6lczeUwIg3qL1whDdJylPKqoY/7NsqM7KcqRLnOMoL0RCMH6uMz4W4CXPYQzjH/zvuVtwf4XLlDAvoRNqqa6A6kWuxd/kI5wR0ghzUvHFO5eudrpLdiraPDhBHmUQ/AjmEs5Qb1WMq+uxq1LthG1iSrc6rl3Nc7F86d6p2yCPpQh0vuG5pAsmz7u6H/CwvGfzIO8iMDwdGDZKdT0xdLDrBHwJ9ypgotdMVRT1ajuwfjP2l58LGa03d6WkAPk79ZNuiKq+sC0MBu8x65rncjr2brYn+xphF4oubLeMNQYYNZaZkK+jDdWfKq3OuuZgqtGg4NQJ7a8barfN6Y2rgRRHUK++2mUqAA+2K4OXKqQaVE4qmhz7jXtU9tdCAkGTtqj5CKq0AxxsBVSrMUJ04asET15D1zehjbvcFbvwMXeocEdUTePud737AU3pCwQRlYob1WDa8P0ASB7r9WoAIKZlKIKc/w0ZCfSlKMKp3J2vM6aWZRZO+Vl3oJqudgaOV/EltFPhZNB2d91TNZ6ukcbVGkDgcoynIg4V4TxwYRNeCfZ6dqrCvH4Bh9qiBvc7d0JUzdQTWCVQWwlYEbRY9vJ+BTCqv3qiHBJ6CYMEQc73XW7Spq5i7PXfwhnd/lZxnOXzfTAmmfN5YVWr9YrrZE8Cw3e5FQKqhFPlDodCRsvEhCu6dwbfd0Fc+KdCSmWYOwxa/wZwFxZpb3gdgaFlsK6alrRw3yxKAflMqp1aGldEA7s0li6R+QV/paum8AqD0mfZk3rXTdMHtxq7qG+DIJKg+Xwm9PsHeMXzbVxE38j9lvHNzJvutYB3lN85TS2xxUwGpXfub9uz3nPcym9e31/GD7vgggvCjfC22Wab15fZv+jZ/ynAkoJK/3r1cuc6A9yujiVLlsScOXNeczUsWLDgNSu4XvNF/5tPtG5srCXAEvy9WVM3V64obxHomjeRJOgR+KjKMqC2Ps/CEwcH3bF0ARN25U59GHceS5fJJAB4AhQxCTP83HpQTVPCmvySvwRVQgY7EuNZCYhsT7rMCTCcQnmMUMsxTfdC87BsAglMCLodDBe+NNCoMZTsYN0xrwQtXssyq3gSOqneEp4UZUO6zv3VdIIPQZmfq04S9niOg1YvyrNSw4b/PNfYSu546EpMWR53zPPfusG5AuFx/i60MUaXii0BniAJm5rvN8ArAVMT8R4EVKqsdF90x4ve3djCl+OFZEIzQZWdo+UzVpQQy898droXrkSC77Pqw7XL6af3LlDjEaSLo/G5PNZn2LPT7c/70o3SOnUnRRVilt1UxKVqJ/Bz/7wnDcSM0cVgVgZxzwP5y7LpHiiAajC2VWc78HtVeNZNPwx/XUBtE8V9L09IZ5B271XAZtytUkVl3CsVda5o1OG6WPlczTd3SqQu6jt3o/SzAnphMPMMBawOvNZ3c/sSyvjmfQ8t+/+0ZLtqByIwrie8Em6UyXhPQoM6IESFXUWb5blh65mERG4jrRuhCq1OfpHfCSzaMCp8vzMmk/AKQCJkEcYYl0rljADKRVXVVDT3hDOWq0wqeZxDCylULglvhD4e36cTfLnboEqcfhiXzQAlXQF1Iys+V7WzsWub7oruoCfEFWoZEywBKf57ghShU1kEwRbNN3/X4PKevSeTZSjuvYjR5GfeQxNKJeyohGZlPqrVWvmjkqpcRCa7BGfrKQe3l/emGikBknUFvCpdJXXxbNbVkXsT7JisY1VTxrpSaWYh3fmvvKbP1Tr2K69bPkfdBuFeMbDT3c84Xbp+qoYrgt9vcE00jwxCzzMrlW5e2yRoMuB/XUWZfDZNgioskFLtlnXCNd2l0vhYtjPv3TJzOL97T0W5rW/72ARlfCdYU5XXm0rbGF7hFt1aKAArY25Zrs3pjaoBAY5PSLCM2xVjzPqVumoNBeoUdkK6oTHGGTPJ3fzK4OOp0lKpVCOYoDEwJqokyokp41Ol+12Wln6+Q6WVroadwCt3w2PxparvkI1AhC+Z+QuFqnrhUsf40JW4jvBItVU3dyNU4b0SmCS0Ep5hm2Q5GOMgH8CrhfwAkgCpinLQJnG1Y1YGjNEu4n3XFQ5bI5U+lTsOluXwhaP8pfIsYzdhq9ixpiKJ8X89UCnrrXOhLFVU7UspA/lbb4KdTVIGKlc1JrRJdRaxnVoBM8A643kVvRJFE3LxjIRC+Ty8MHZO3it2UAZSZ4w2FWo54V0BCNPNEFuC2V7CoUqoaJDzdM2zHisBIfdqHRpDqlCjAa+8Vz5LpV0ZNyuvyOfYnkV5iHvFMyhjWeX9qSxnx0FukmvxTOlsBXMJvLjvUqWVMJSLVFeowBIyaqsLQgFTArXc8VEFl+6MWWdlIWhf1jcdTwahx4ay/rSxjCUmANucXnsN6LanAsp24PjtTwGOoMd3P13mcOVzTqWiqXTrsv6FGr5Cqp664BW/65q3mvG8by3hQQArlUlVVyuBylXceDHPFzSUyUDcbXzfg7HRuMC6N9YOqPgelzYVWQ2DgSwM4n5f7iioK5+xroYM758AqGlZC/CsUGmZf5aZz3qWyi0AlKIA3eFUl9UC6txtMQOXu/CF/HsFbnbCopUVsbxKmFVNG66Mw2TdNVNX5q8ro8HrBUa9+hmIvQBNvi/lLoxUb7SQv66Eq5nj6yLpvRUeJsS6Zf5q+VbxfBoG4YqozYZSq0aoxGBsPZq/9Wcw9pXuOIgdZGwpu5JW8lbpJZzKZPkAjh0YZt0xdBy5HbO9B8HYauNOsWOg4NE4VyqvfN5ex/lOBrInD6Gf7aNhMIsHnG+ZjZ9WS1D/Mn5ZcUGGF2yFNhR6zjc9th/tQSWXdsRabIbe2DI1fa133EFRZlW6mZZlbiHgvS6Rg4YXirgy71baWc41mMsZ5F4VXNm+VIA53+mueyT190Yk62D77bfP2FcCxs3pH2uAp7xxEsIoO1SyVgKsESNGxBe/+MU4/fTT8yFtfMZ/7bfhw4eH+fwrJetot912S9jnv21sNuI3Z+INzimopaMj4T/BkyAgd4MDcAlV1mN09FD5g2EjVEmYwwvbioRdGGH8ohIwCJl0PTRbgVKlSserlHDLl0+4pStfG0aKLoKlK6FAJAEYk0LdxrxmqSayxGV1Vmf5kKtCumsx+soyeB1TKn8ASYIx4YwB0s3XMtZTNhVJhTsica4EO9yjMAenlnSjy+DplEX3QINIZrB5JkyWJ+NSYfyo+tLlz46lhFMCmQymzuBXx3VW8rvTrUrXRus4A6NzvvctkNLFry+B7nWbtN4KaMZ1eQYCKON1Ca+MWWabcqXCa9XhPicIqmxnLRhkwjAHtD6ArzXMWHtSHuNwdUEqwFIL9WPeQrbS7dI6UDElONSd0Cl5JTCqjEHlcxFeCRxrgWilssv6t26bidHhffTlHr1u3jfGpvVl/u5MaT0LuMp8Baaq17wfgZhl3oAFmPxzzwbBt40K48pUuAsqjWZyQbm85kogmAO2boSb0xtTA/ZmtqvuPB/sjoQKZc4CI8GBsY4EKGVSWaSKSHc5dyMU6LR0Qq4SynisRoUuhWTDO10EU1c1tQojhCZDW2BFEWiie5zASJAhoBEOlf2C+WDPcA4qKYBNBiVHZWTeQhndA72mYCiDjvOdyi7hk8ouA7GrHuvBu14JOFTtsDCZRlAtuyaaXwIsWic2GvCrACleX3i2jgN64Z62QlDENcguU6qhvHfqofLehUOpIgNAlffifTRzvjCwhE/WvXUpOPO4VIxRv6swxvpQD15PI9L6KeuzjDVmEeQK6dYo0OPBaMRuCpisj3buwRhU5XWFTrpT+pkgyd95tbgOyjgmC70xmCvvp4nYXhawsg6tAMveRlmNd1bWmeUUdnlvdQRYL+vKY72muxC6A6XHueMgOSe8Ekp6bAJHjivvQ9hpOxJe9a/doO7TJdSYY9aH5RL+9eKYyv7FMm5Ob1AN2EB5ZkUgduISMRaYcsc97ArhTZUq704IlCqt3CFuBKvlRd+ewMkeQWAjBKoENjTedc3z+Yg4h3W4AvJd5qFrXe4qWMTM9JqmDPCuMgqXt43c7mh4hdJH5RHlxF7oaEWhg21jgHZBVSqxWDCxrAl+GKO7YilxkwlRsA3WozqykygCrQPBDChOPuU9FuUQogFOqJ9qIA83S558JhwhJpcuhCqfCoXXwA3Xob7WtSw2i0J5hP2waSp2LixWChJWUW8bVGWqoYp+OcsLyBOydWSQeN8qHhb1nq6LdLhd98d4mrv/Cb8o37qmefzk/i0v97ARVKSMCcsI7r5RXC7rWMBnLDEhIYBSaLSOAPCpIitVbJ03VKq9DOBfAC7UeNxLGVy/uo65A/ef4I12IMwzFplAKsEh+Qie1uuW6LGdNkDR9jieXS1tfwmzKEe6RpKfQfM5uCgF+aayC5tR1NEF4/xcl0Tb7maA1fnE/vkf9vdCA4GVIMTOXOiyhvGkJ+58dQRMF8isbFsbA4YSnqTCv13llYOZ8xbd70qwJUBwhzjVU2Xw87Jk67CDm5eyux9gS3WX4KNyR0DjYrUSoLs744PKprXptgfk7EwqpFaqPsJ1zn8btN0YV47bqrIELYOGE6aEFR/VUUITFUNlUuHTHeNFqJaxqGhTvTCiWoBaNbrtca+Fm16hAlepZdysIoYVoJ8y+7vl9l7SlbLMnJ/WiQvsugYmXOMYY1k1sxsglZv2Qm2pNKO6df0zxpVzrl6US7VQ+4oVLPDhqQJ0Ecr4u9dJ5RjHG49MF74MEM970QBcy8DqwByfQcIt6sNdAbnERgBR98d1uD9W4ypoHFXnPQ39iaOHHbICN1F3K/Re25p1i2R+BcSzPei+mLtHkmHj0mbubW0M2oI+nOsI1Zbj2ldT3xsYJVzekFLJB3ATwhmHzLIKCH2XO/hd+9C4XC1cry87UOrCuGkShq7CNhswjDmSLgGdyXLZS1gGllYzFpl13ooKrG4w7pIaR9RnX1wc21BkvRFJFnP99deH4p8zzjgjg7m/Efn+K+XxD09QeFUCrL6QykKC1zN22mmn17WLoBPUykn3v0ol7r777rHrrrvm7ThRf7Mmy2ZgSt2w1mJQqJQZwiBSxLHqmaBA2KMLlzCiB6tjwghXQlTuCKMENH5mSnjFSprKF10PyxhL5f37fYIpPqhBxi64EDpIsAVMwiCBSAtugxmssNNtzFUL4zhpXBlvai3l7cWqngondxFM9zsMzMokhDFYurGeVEnZk+o2qGugwEfFk+XxOAPZl7G8dFEUmKzj3uxcdSkUkAnZzMR7FRz1BewIvQQ9HSg2avhcAGR+xnViw8KsR8GO1+lXEaPJcnqMybI5EVUlZll1OfSdsAwmYY73qtugnbAAyFmjCjLvXQgnoCuhlOcIeIphXQWLgxMTTQOjU+clpBKSCa/AdpSzlnotXnvL606BPg//WBZVVMYh6wckrARGPmdBmXUmhLNOynLYNlSXWUeCqvK6uiA6S1VtpSrK66mOK+GVbcJ2aDJeWZYhh4n8KI+37oSKPrNy4lm4WCIF5vNGXEDcHdNrNhGIVeWXKrfN6Y2oAdwxaIJMezKoaaV7pp+rYlLxVMYp8orapap9hFc1KG40HJcDK2oBPiUcKUtm/CIYQ7rD6XanusaYVNoCgiyBBk06wYdQS1e+SuBhPsIy4zmwklcGAABAAElEQVQJ0AQZqq1gOQm+sElpk7Rp8hQy1QKWVEPRzHlXCmUXC7C0R9pfhcuZEEXgtZblQoO2q8DSBdBF4h4Yu30r1EtCJ48VLJWgyPxMCaRQQ9WqPCo/5HPBGrZmulJiD2Xyd4Pg98XIEtx1fkwfWhxroY01ZZfgdYxjZZ1YVx5vnycUEsyVwfF9Fpa7qHcheBG7qrymFxYKChc9p1Q3CZxUxdUDfcwvVW8c6/eCN+ukVGmZh5BRZVule6Sfe14bdaNLX7oIclM0i2wP1mW6SHbaiIJQlXyCTK9pEl6Zr0aj51tuPAeo1yJuWfG7G08IJLttDK+4r0agltfWJVJ4Zeqr5G1z+u+pAdVHLaiYGMvLHegyiHinOjgBQOmexlhngOyqPoKNTtUPdoYAIuMcEYex0hXNAuduhrwHJbzK3fwIyl3Vg+vp2tf11nAs41oGPE8V0ibfoUQSPKna6aYrnUocXOrXo7gW1BhIvRsLJsZ3StBBzoVqykbUqeoSkKxlUs0LqZuZAC7zYYwu74eDE95ZB5SIMgJLsK8yeDlZCfgSFHEtd/Yz8HuXux8virBH8JUKsVL5ZaadKXcXZPz3tjOoOVBI2KY7Y6UCqYBcqNxwvzOYukDJGFPZmWSd8Y6hUM+MuB8hXBE4nXtqWcjnKNh0HRSApQqs82WiLtY1q/TCU6NC6WXxEix6nYwzBfhhXNaVM3dn3ORejENmGQ0IX6jeeF7Uk/fX0U57Unnl7yyiGjheGGWdei/poso9CCTXr1zKsaO6wFPWD7ZWQirqM8Ee9mcqvShjQi3DUmQSuKHIw86x/QnLTNqjSDeoGuqIQPib0+urAQFUzgXpvIUCLe7whpKmH6DFIO7tTWz8Mxjbs6KfNqD5OgZl7Q+BThlbSbDTBKDqxVhYGafIEvrcdO/rybjcE0NArw8VPmUXIUATOjl+9gaqrcblzADonbw3F90ERDW42AmsWrmO/1aJJDRbhotjf1RKuisKbxyxS6WT18/P6CPK2E4CFd31moFXutgJxgyCrhrJsgi7dJ10TGtebr/CeM/x/KNQZek6V752fFoEZ2fcxrUwlVsAIcufnzu4duc7YFZ5jvAqF5Xpo3UQtH69Zk+CpwuTDKhuXCzBmvaRAd0FWrorGk/KwO7uaKj6zRhQJusj4RaugC766wpYJp+Z7qDuEmmgeL266urdvIt75XxBpsnA+WU+xtoy9pduo9w2zwePEQK0DwIm6SYoVFu+mI2tgJV92UWyMiVwI9+8Fs9aUGncLcGjNpOvcUJDIR7toQzeX5lHqvF4lvWo7Srhabo6cv81PLcMvj9I1VjR9uoGAK8wLsg+65pLZZuqzPe1/luA9de//jXuuOOO2HfffTcDrP+kIsveO7/ypW9vJ8g0f1RfqZzR/7KxkdWiNygNGDAgBg8enKqlNyjL/1+zaW5uRpZJpwTF7tePiT3Q782YemDc6EYonFLxYxD2fhgM/hRarGUlS7BhR1TGvLI9CKFUFQlfBEGmBE8YE8IdlTG9KtzI/F7w4nkGW1ft4/GF6x8dOvDDYOkJRMhjNbCmjFfluUIhzxdwuVJg0HJ/Cn0EHKXboceahCJeqzsKOK9l56yKSfc/4Zw7GZbQSABSxvISeuiyp3pHtZlAyfu1nB4vzLLj8948bgUGt6quEk5ZjwYd9x4b2JHHfHQ7dFe/EhBZPl37hDe1qI4sm66Suv8JuhwpjKnlwCIc87kI0Kx/B0RVVf5s594zsDlGpvVSJuvK3RgFWD0xSC23El0hTgmRsn6AQAZbL3YsLFYtEjoRl0pFljsUWgZ3WFRhVQZ3L4GRRoeKNKXGPamLSnWZZVwOvPJ6GcydezC1oFSzvny2FIvnCrSjTsvYVj7/dEWkzlRzmWcJxDy/UHux+yE7JQntyrJ4z8JG69l78/5N5mXbtc+qGOfzu81/vfYa0EXQmAUO0L4fJn8YkNtg38aq0tWv/Fy4IrjpCYRQrSNUEcqUAbqLIzFcABYGJBeGaHz0ADQImky6hQlRNC5rgCa8EsAQIdHGgc49WjWQQbx1UfQaLtoKvkqVlG52upvpPrdaY4YYXGV8rXZAiMqrhgrVDodwLY1lwZCKHcrCvWqY5M6JlE0Dz+QxGRSdvFdiYAteBGYmwZp1VNx7ZwXxuUCqjfvsj/Ko89Csz0ZiQelCWYIe8xAAYW/mOy28MheVUEI6A+pbJsGgDb7RnR0rzvcZucugZXLxQjdDFVvlNc1fUEcYC9yYN1zXulJNpcuk4EtgZHB3rylQEmKVgMk8fI6rqMeGisD0Zd6CsV7kXanKEtLBllLZVSq4VKkZJF/gmfdPBj5/21Gu8gKvaEr0CfQjCSsL10W/X9YC5OT+Kp+hAd8TXlFWg9GX8MpydTbhfD7+vjm9QTVAG9SVrIrJQcIUs2W8EEgkFGBsLl340uWMhYcqxs3SfStBVy70MMEVhnSBhaJ8wgXjEhW7GQJytROAGyqEilhTG96xhCcsjDkbLaBD5XeALcCTaiGhS6qeWPAw/pVwxEFf+FbFAlCCH8anIu5UkUcRN4oxTugibDN+EnkVKi1GKeyNMvl9qpvoPbv1RVkFuEkIA9TJa7OjrveaZQDsVca3WseYGmsBNLphdtpdZb7+zODzjLFV3agvxk6hWaqVjDuW7pjFOCyssQzCK1VlBK2hjNg2Lp7p/sj4Wal0S2Wai0XkmRCQMhRB21VvCXAq6lLgI5gzaH7FqJvKKOonQRk7O/p8VLh147qVcI+TuA8D7PMdajvjjRk0P+uJei8Cs3fCQduG92aMLewK6zuVVwwSCTLbF/DdcPLvVP1h0woKyx0ns63ohkObFE6priqPtRx5345ydO7GJBOa5/PrYDGV441JVnmPnrM5/XM1oP2gqih3ngOQCEYEAMZnUmG0bBGb/KCsqVQxrSQ2knCJJ5MKqzIwuiBFNzLhgS53Fc0vC9UE6HCcNlD5Ss7XDU97wmQ5dEvT3ax2AHYkMMmd7srA6I4RgqZURzFICbp6E7fKAO4CkeVL2sgP6JaudMA12lQZ4Nz8jZOlUMAdB8sdEy1jKqBw39PG76a9zL06IOka2RtFkNDEnQ5VJVkn3Rm/jP1kQPZScWb+ghYDtKsGs2LacN1TKaVLn5/bdlUwpRs2x6sUs750l7OsuvzpQpeuhLjxCa+MP9XLMnDM8kY3bsIVEldAVUaqs1IRRV5NlBWBFIo55kXUh993BXjvrF+fmbG7BJW9MaLc5dDzVXw1qTpjjDAESzOuepZbSGY+ui5mIHuem3BtRSu7CwIJexA7SzvIZ1qNHVIGcbcuTAJAVWd6Y6ymH68BjuWOlhovVJDfG4NMaKggpwxmnyd3/rUWQ9H2JIQs43f5Vd4fIK4WeNfSImR0N8O1gDRVdH1SBea1bH9ruQefrUqwNyJl/amOI9C+QpLN6R9rYMNsmO8kfosXLw6hjMHWm5qa4jvf+U7ccMMNG52ZBJ3G6E87g/LPRgf9J784uXzPe94Tn/vc5/5l3AnvuuuuuPHGG5kc9IljjjkmjjrqqJww/Ce3///7R7xjvHwYDECL3O2OgVkVjCDA6ZGdm/AkFUF0jIIhwY0QyD9CBEFNC+BJd0ABUanIKm/OtuD3JZhy4EnXRH72A5ToduYxRd4b8ujgxW9ubQSK2QEhLcVISaDG9YyPZCBz4VcJZrxeQiTK6GBQ5+olI5SAQ9jSC/ChGsgk/BI0pRILyOExxpiiGHn/AiXzEF5Ztt7CIDo0gwDqqqgiSpc/1UNlmdoxBJGpxYBeg3neTmAZRDB8Va6ZVE21sZLrccaR6oHx6u58DgxrMMQ7GLBrgFrej4ovwZOgqBpYYDB869fOVvDTnXNqufdKMOYz8z4ESD4zBzLz7Yfh3b0ziKpqKVVJpsrA6E7HW9mOW4VVEbdMlyvqn1VM3RbTlZB322SZWtuJUdVK3Ajqo76uPkFbfkddLXfLbX4pwZ6fW48q5hpwCbVnN+6ZgNC8TQ7uTbhQWK+6/tVsEjstXQ/5XthVfFcY47YN8xVo2Y4FVr1pU8jish2u5H46i53X2fzX66sB390+tPGcJBXNITNU1cMj7Ar2XV5FOCMwyoDngBXhlUBHNVXF6QmUWjhWlzDhq0aoroG2YSGV7myO16k4InMVXcbAKoN/+46uYNGgfR078yAjV5HjNVXh6A5nG1CVZKD13DEPo8dzsDtYYChcFNu4RjUvXQMB5YUjJlVQHm+b5dWjzytUYEIty1gjRKq4ERVh3VBIrFyJuxOZCHz82rKrOhP0VN674KZtVQHM5E4m67ixBZcV2nI/3CjK/IU6giHjQQl2ujNRxd6nHooCrKHNq1byXptRS7kq7e+d2SbE05DVTVKlW1/qgEO6kjbWcgxEcW9dLRM08lGl1kSwc+9TkOQx6ZIJ+GrnGj7LjBvWmYuATfWZ8Koy75bmFlRZLAKwoFMGYveUjIXFPdTjkllCMOt8OQoqFWqlS6DKMt3/7BNVmvl8eHwJ0ModB21nGWCeY3Q5LMGcNqsB233+9Tzrsj/w/Nxl0jrlnPKZd1XI5n+8vhqgflXiGBy8TIUaSFiEAic/p+KFD8RnUgHUBWwY49O1SxgCyCjjZnXlw7jZAQzqnjGQeJeFHsIrWnt1rS5gGxp2uqJhfzhbrdY9rAKEJdhyAxmVAVUspOHybjnymHXGymRiqZ3DeJTgh3G5cDErxp+EHNmgaEMskuUOiIz5CboYezd2R0O1oBqN47vXUQ5ATuEmR30ASDrYBKVwWSQfxvdUZ3Xeh3kH47aALwBJ6wju3o0OSQV9JsqZSiWBDPkX8Z+oV85RkbTBfRG3RRVL7IQo8OKmqF+Amdd2wY7xt3gG5f1RHyQBnjG5Ooxjxi6PkByOE14Vx3lM1iUgsLpu5EafF8ooVOmU0XpVLddBcHjdJW0DK9u4NzrI3rW0EwaR9SqssI/WszmNzyLvxfaAq2gVMTkFgqmYok661FbaHLp+0t4S5BnvSyVf2fawZRJwqRbDxk33SXtaVxywP6uEkiyslSndEmmXdjLGZ+Oo7G+8x1yPE3h1LsyV52z++c/XgGpsxyTHyuXsKDdiqyFdMYyalgg22NmcwOxlUmHVjmKGhoSrGnOHTtmvY7kAwYWtAUOxRzfpzI0vtZpxqQ441Y5LmIG4S5hj3iqr2nFTrB/YF+DD4jXAwxhSZdL1TTtckJaugbxnueMg4+Gi2YB0bO9+I0cmJFkNvCh3QvR8lUe6IqoiEmQIYlRGrSAgqB4llt2xqG8/xAIYJCtQGBk3qlcf3BCBVdoOxqby2i2ApxpUS7q+lWkd49cKYjyZPzkB4poBLr0TrAnq3BSqH3VoHZsEMIbU6Ml4KNxxx0EBW98agrcDlvo11AHZ1mQevQnGLuwy7nFfAtYnfKPcGwKr00dyT7oE1qAcy+91sVS11Wm4GNuqHaCWYUOAPq1An741zK8oT8a2or/qw/0tB171Bi6qYFvLSpoB5bUvVjQ7z8CVsVlFXF/AIauI1JdqLOFnQ4XKK2+Q74z3ZZmdD+giqW26kj7eMgmvVNhlxXLtyuD8eT5/+ZyWLzLQPvON0uWSz1PZ5v1xzdY2YofRJuwGli4AKuKWmjG6OI5s8zqtAMQ+qLR0t3yjkkKizel/XwMbRn6OUebnlo3Lly+PIUOGRP/+/VON1cags+mfZcuWpW/mwoULU6GlaqvymBX40vqn8rPWVoPeEfDRt/RfJClNtQ5mzZqV9WAH9WZMwkZhjBBRCOVMS2AlBPJ5rMVIEZCUMYh00xJe9QEQqL5yaiZYMObVClzMajEsVENVJu9ceKH6SfeuMii8xLoPyp0CdhUxlgyeLtBS/WMA2CduvCF+f8458cIdd9EZo6ShLHaCugIaX6wWN8VK9VHhosjqIEZdHQaQ6iUBhzDIe1SNZZkFdOvYHckd/uzwjcOkq5vnlf82X13xVBjNmzwl/vClc+P3X/hSzJ70DJ8V6i+VW7q+WWfNBFqd/+rL0Th9dsx/cWpMe2ZSLJsxByMMI6gzPX//xLj0E5+IOY89Fd2o7hUYew4udsYUNp7nPi/9xFkx6c7bkE03AswoO+9dy9yFMWfaS9E4a27Me2VaLJ7xaqxYuDR9yXPk43TfHjbaxRZjF0TAqe51zuAWPD0lrvjMZ+KBa/6Ij34TQEpVEi6exPIoVXLL5s2NK7/8pbjz/F/FOuTb1ptt9q5LLok/fPYL0TRj3kaQ0HYgvLvnN5fENZ/5Ysx59jk66+L91W0Q4T2gwR0RC2WXUE23QHcndDptbDJd+opg78VA3Ixh6A6JlkkIahnKJNxa7uoqdZTAsvM7257t0d0b/bcqrD7EENMttQPDvBeAcC0woRffu9Pl5vT6a8CnpZIpFyw6s1Pd5E6CtSiIjFNUJuGEsMM5lgBE9Y+KJSGUA3yZfEV0OasBWBSfqzTkW5qUAENXQpU1AhSTCivd9krg4Wf3XH5pnHfqKTH/uafzeBpaKoNSscQvgifnKsKscvdB3QuNTeXnzUAkwfGAugKOmCeXzTInyeFd0qVO9zoVVgYt9/cSkng808F46aEH46IPvS+u+PRHY8XiOXiZFMbpMuBVQjzO8R6XzZ0Ts198KV6cNCWWv/piLJ32InEWMMw5Hi4U86ZPiys+eWY8dv11yO6R45N3+2oXCzB0qZOZjz0QP3v/+2PyrTeygVszYyqGKv3J0jmzY9b0GfRFM2PlgtmxjDFoiePQMnZG4rq5UyGVWwtg6rT9LXp2QTNenB5XUu5Hrvw1ebqDKsYwKqg+GMsJDjm/idgi1//71+MP536VvmlJfsfH8cRNN8Z57zsjXpr0NDERaSMVVoRln3j1n+LSM0+L+ZMfZrLI6iTJZ9PCzaq4K6Gez0JFlv1EP9z8tIF99oJBh1HrvFRp2e54ZNkOhF5LUZyZdFuEq2fyc5VoQtdKeOXnuQsk9dmHFfCK4hYnbv77jamBzkmMmak0SqVTNXZA6d5Hv72uZT7f8v7lbnLFkzAAuB2AsZV026tMqSpCTVUNmBFGYCykMsdj0gWMMblMhSqJBRvdvVA8de0WyAHCo1jXFnOnTo+ffuCs+Puvf5lju3GZEpBQdncbFIJkPih6U5nUCcAEIra/bqgHVPxUEfNJ+KO6aT2LTZsCnlcfvT/OP/PjceGnPx+L5y7OcmdweBRXqTRCdaz6qXHuKzGfSfHcl6by56WY+/yz0bZgBkCmIfNfNntO/OK9p8fE3/0ekFW8Sx1AOGdSVcQSnTVtVvzk9NPjwd/9JlavR1G+HqUpdvfSWTNi0YtPM9lqxIZ4JRZPey6WLmyK1sXAHsbNrG/AVsK7rEAUE9XWW0M0zp8XF37kw3H9eb/KOlKRtOE4bkX3PeDWX/7jl/HbL2AzLMbVsTM9fcsN8dMPfyqmT5oUVaqlkGtUMQ4ULqVV8dStt8YPTzoxnrvnbtzCmKzyzJNE8O4nVOK9t42o1vP3DCbvIqUB8nkWgsvccVCbRxgq6HLx0jJm0hUQ+yHbEvWhAjDhFOXA1iTgUsay4mrF0cJOXR1pmwazTyjGM+XB0ndTH728986sN/94XTXQDxWOQMkKbcBNsAzALeRZC5hpGFwBvxkc2gBNLuD0IYaUap8ytbDj4CqUuP3JY9Mg3KqTVhKDqH4ggAb4onKmEnAJmNqbdCfsBTghFhQudJW7FurW6MBby8Am6KEJpNKGH7F4ztL40ze+Etd+/XOAKuZB5FVL3K4S3rhAlnG2AB4enwHauWdtcOc0Qhzvs3Xx3DjvlJPyz5LZM1Ah9QZEtXJdeDVqIyGLLogtvFeLZtAnvPRi/pn9wguxkHlB3UDaO3ktnj0vLv/ER+PeKy5BfEJbxVVPpVd3vtNGnzl5Mn3HqfHIX64GZLFoz2DayFxi+YK5MXfatGheMC8WvfpKLHh1OteaG8vmLU57XndOk6pt4Z/KtJXEoTJmmHOUK8/5RPzxG99M5Ze7H5bKtbUsugkcnU/eccF5cflnP4lokkX7VGqtjecfvD8u++RH4snb70gAl8Heqag2XRdRuL3wwD3xHyeeEI/97SYgHN5MQDQrUtWW4KweNdam72ILz6sHC/guMAqZu6NiMyB8PhOMiGruWRvMuZ3PatOknaFbYndsxkpll1BLd0E/85laDgP0L55XuKVWHlu6WNbx3ISwm5Zx02v+V39XwLDffvvFYYcdFltsoQJ0c9q0Bjb0CnyjK5wKLCVruvoZoHyPPfaIj3zkIzSCohcXKkyj8V922WXx4IMPxp577hkf/OAHMz6WE+Gc7HCssMpjVSaVUMffhw4dmi6Emxbkf+rv3q/3J6Qp7/PNfC+64/UAZAljhDtCH0GPsZeEPP47VUwAJgOVlyDIe9Mdrg3QoxJJdzGPrUwrAQxFLCpjRuFbTR4CIOGP6iePF0J4jIBL1Y6fzXphStx/zZ8YEJqjfuRwtk9lksHApVudctUOVhaWLZgZfesb2L4Wo5GyqODiH9FzffdYTqe+htVEAl5B2/tlTC7VWO6U19aOUmMJUn0GjmoGilrOF9TpNmkZdc1rZRehNXRwS1+ZEfde+BuMrJvyGmuaWuKkH4+MQUMpE1BEcNLGSuDyZYvjD5/+XMyb8hy3DyRjsB04aHCc8YMfxsgdd07b6KUnHqZDfjC23G4HfKqHxnonVRzTAylrx7IV8eCVV8YzE++LqY8+HHW8E/uccnIsfflVBpu/5ITSHnMtBut67qP/0CFxxo9+GqO2nRBzpr7IBBWDGPtL8Gf5h2w7PkZtPSGa5i/imhOjYdiwGHvQPmzU1Bd1QgOKsmJAsvwTr/p9PPTnP8UBp5waz911F/Zce2x32MEx7eknEh5ut/d+MR9D+tWnnkzYfMD7z4hB48fGsHFbxcNXXxMP/vGP5L9FVON7r9tpLUZmCa90yxSaCZ56sHOTSrze1LEumGVbccdBg7Lr8ui5laoy29Jy4KBqsHqM0kpg6XnuEmM3ZFB93RF1UxRCqp6zvmwXOlbpEtqbe610STTvzem114BvOgt10YP3yHhPJVgwRxVQjvH2hUKoBEm8v5WuYx5noHPhlW5owi9OAyT5ObACtYzfl/Gk4JfRTAwjpfOlssk8NOZuPv/82GLc2Bg6djTvgbBaGG3crapY27gw5rVgkAwYFvWsDLpzndcUuKnamvkq6g9entFbDQNIFZNl7K0M5l6F4beOFdmVwKh2oGv3uiGEXkFyDkixPGXiVmP289Pjxu+cGzOeE3ITpJyYDCd/53uxxng8XLNSeSRUfv6RB7lh4kt23vOHAMjDd9o9VnVgVE5/LqY8ODGGjdgiRrIRyOoOgG9tfQwYMiBYn4y7L70snrj9ppgz6bH4+6jRsdOBB8XgUSPj2n//dr6/Xm8t5Xai2AOo/a5v/a/Y+6gjY9LESdwzABkoBUpL+D5s/PhosK9Y1hTTH7iXchrwFBUZddCDm6xDHeU75u/P3noDMOp3sctBB8WCZyfFQ5c9Hod+7KxY8Mor8dTdd8Z2xGVY1zgvZj37DBPmWXHkOV+ImlHjYsiECbHgR1Pi1p/8R4y88OLo2TAYlRjxt3julUCzGXjFI+9SUPn8jb0l0BReldCy3HHQ5+yqu4CQQ2Ig8Kpsh+YjDNONtNzV0OdlWxSa9sAI55bojxiv/WJz+m+rgQRA7UvhDcCrCoVUxiBinK2uxxjvXGTI2EWMv4XaZsME1sIJllJVRMyjVGXRvxtHSbggvKp0ATOYtzv4MdNJ8FEGhc98GJcEUI4NN//ykpjFgtO7v/RZ4pcz0UR1XEUsGifWzYTLsJXU1qLsHLIlHVpBRt1lsAP7YvGsJdG2aHbUsbg7eJtduRbtl/Eud+rrBF1eb/G0Z+LKc78RLz0zmcmcblM94wM//PeowY7oaOV6uL+nKxvuedefd1E89Nebopp6WcP9kWm87ztfix0Peyd11BJznp8SU+67N/pit2y9zz7MkFn9R1FQPwiXxB79s2947PZbYubjj8S91/wtjxmPTX75p85ChUJsSBbr1mDP+05Xc5/Hf+kLceApJwKfnwWW25PxBfW5tq0phk7YOcbsvHusXjornr333hi14w7E96SsG0FC6nlNY0ye+GjcdtlvY9u93xLzp78UN//sp3HMpz7MJHhhPHnvPTGBvqF95e0xY9KDsWjWwjj6c1+IEdtuF6N32TkW0off8O/fiFFX/yHqBqF4UgnWD7UUvVQCTmyeVLNRJwmjjIem/UWb8pmkSou6X9c8l88N9g/c8j5Ixc6QKrl0AQVOqTzjmQq51us+qbslyi1Tuh6qpBeM8vzyHOyJYldHnpuB6bFdhFuZBGG2CStzc/qna8Bqs4lbe84FTap4DMI+cBjjpsYASTtOV7o1LCDpplfpUig0akOdM2CormUbTV9TMdOyjLi3KKtU9Og2VqmsEm6Zb7ru8Z7lTuLljnlcdxUxDVQj6ZqncknoVN+pCGtZvpJF9uvj8Vv+TDv/DGUklEYdi+zYDKb506YDguZgl2yJYmcsgeoJLM88xkU8FV29iCdl3KTq9Svit589O56+/76uenj/zy9kzoPLLktX3m+qpmjXE397cdzymwux31VDY2NRLyd/+avx1lPfAzxqi3lTX4mpD09MYLTNvgdlgPiqtXVRT/+0BmHFndgNk+68PV7FbnjsL3+KYVuNjx0OPYIFt4+lqlOVmX2D7bknoW+O/tyX44iPfDSe+vvtKOSWAvfwBgHYm1ffhqExZtfduY9uwOe/x9DxE+KEr32zq359RTI4P+/pjCfuizsu/mWM2WnnaFo0L+685KJ42xkfZF7TGE9SnpE77JDuka9MeoIFhWnxjo9/MsbtsRv23PhYMG1q3PWrn8YeRx5MrTKHAGKuBZ71R2m36WtnIP1sS6xg2dfJGgy0rz2kLdpBvRkiR5GJ8bs6u4h8XvkXbdEdCgWcDRUxxjKeFgqxPsyf7L8FYu4UuXQ+m1Rx/w0DNoxTxkNzowBBZ3fUZL0J4t68TNXg608KN0455ZQ44YQT3rShiV7/Xb6+HDbqAWbPnh3+seJUYLlrYH19fWy77bZdV1FV9dhjj8X06dPzmFNPPTXe+973ZuPxIJVYN998c/z+978PA5x/7GMf24ge2rDKzqsr0//B/2hoaEh3S5Vmb365H5OYBFZqkZgsshqlC5rxh4w1JGQQ7HTFlAIwlRBAhZJqGpVUqmY8tjKZl7vJ9WRVUKXVCkCPoMEdB3X5UvFQHEMQPVYKSjC2etVKjKW7Yw4Twd1OOC62mLAdZgzqh3V0TrTDqmWr4taf/Twm33ZrHPLxj8fbP/gh1A8MLtzHrEeeivsuvjimPf5YdsjDttk2Dvv4J2LvYzH+WMl4gUnj33/965gOaF1LR103dIvY693vjn1OOzmGjh6TUEqF0WryWjzt5bjzFxxL2z7ofR9kdWZ1TLrlxph4yRVxJJO2nkOGZhBzdwfsh4vjfiefGnf++les9jTHnoccHqPprKc+9khc/c2vs7KxgLmqA+CquPEnP4xbfvYTCH/POOZr58bbTjktHgZSzXru2dhmrz2jfemymPHUU7HH0cfFuAP2Azr1i/svvRTDsSr2OuEkBsapsZgJowP/K08/Fdd+59uxZOYr2UEz1Odk7/gvfjUGNgxhEmtcDny5MZKbly+NoQRPD9QMHb1wjUD9NemWmwBYV8Uo6mmfE94Vj1xzTTzy17/EQS2sLiNTWIWrwtXnfjnfT5VmI7beNrY99K0xZOyY2PPwo+PJP/81nrr5xtjqoP1j7H574SLYP5VPtgNB6HJcEww0L7Ay+Lpy3srg6wLQxnZWZFhZUDVXqsLKdlTspshKCWBLYFgmVX2OXg4Suk4KRFV5CWPrkfwL8exXrA+va8D79RmUtsxh88/XUwPWrHMdA6wbCL2EBua5GtogJBAe6RpmLCohVH/UTZ32aF5awLCM2Eq61Agm1kBytGEFEsIe23cbCqC+wDEVPSq66AZSRVTZ0zxw1ZWxfP7cOPrzX4oeDf1T7eX0Yj0nradtXf7pT8SMp5+MD/ziVzHg0EMBIqhKMTomoW669Ve/jDmsYnajzxuxw45x1NnnxK6HHw6sMd4DEyGu9/Tf74g/fPVLMWzb7eNkFAYjthyWsC1vwuvw56Unno0/n/v5WDB9apwKtJr+yCPxAFB4dUe3eMeXvhEjRw3uunfh3M7HnRhLFrKaOvX52Oe442MoMHg5qt1rv3VstC1bgpEEkMGFxpXUB676Le9+9zjsrE/HsWefHY///R4mi/fGdrvthZBgDcqGx2LcDtvHDqzKve0jn4pHr7gIaf6yOPB9H4glqDWew0B0p735M2fFH7/8+Vg2H2VYZ+HXUsn7nvpByvgFALNuVMYrWxtLkeC7jXg9f9avY3dWXIXmTH4mbvnJj2LAwAFxDMrY5++9L265+CKeLQ8Ml6dqbuxa+jq39nbFtW7goNjuiBNi/OAtY4e37Bk7H3JITLrtlph8/8P0F0cAnFkd5jnna0p5MnYWWamUsj3l8wdy0XxSpVVCS90aVVAJRgVbS1vdkQl4RftisTWT5+pOqAtCCcj8zGuYVPO1s5qcrpGAzJ70hZvTf18NZLB1oMdG8AqXcIOqG6eoVEalS10GYQd0ZX9dtlTagyAh3csANSy4mXLnvrXCLtzFWFzrSoKktqW0IdR8Kq9xAexKgC3BWRU2x8xnpsYTd90dexx2ZIzd6610aqq1OlAsXxe3XXx5LH6VcZa2PHSrcXEsk7m9jjuOMWdltKM+/NMPfopC8i8s7jIZ7d2H746PE7/06agbNpr72aACW/DiU/GbT3w6pj37bLzn29+NOVOmxMTr/pwg/PRvn8vxo5KHdLQvAuQNi92OPgEF5ax45bGHY893HBHDx28d61Gt/fC4Y6Jl6VI4F+8oivdH/vTHeOKGv+Sk7MATT4hTf3heTLtvYjx+000xYZddUW3Ux1OArmFjx8TwscPiiE+dEw9efRUqjRlMHj+AnbEwHvrbX4E2xO5sWRNXfekrsQSlFV1e9mlruO/9TzwpTvvmF5lAsyjEAtN67msV9jwoJ6vToNNVq5YApObEtd/7DxYLa+Pkb34rXqWvuO2yS1kQQCUBdK/mRf3z97/P5L1Q+/cBxu/xzuNj+NbbxBZbbR1vOeH4uJP5wZT77ou9jzksuudukxxL8HhGBNwOAZz00e5mqQpL4KQ7n8AwVXce1cJCBC95Eay+KF9xDACzN1BMBSC2nXfn5gGZsn0UbaNwdcSuEFABpnJXQ9rcepR31T2YoFax2LBuGc96NGHDlsS6dtQp9CnV6ca60bSpyHvz3//XGhBMVbNy5ZixijhJgQBwOa6DxqGqhFG6+Bm8e1N4ZayhRlwHddlTDVOZjKHVuIjviE21EhDVh3hOlaot1UOChvyM56gfec2AYmHXfFTcrEBxVUusrNxlT9c5VEAMkiz2tEXz4uXx2DVXYJ/w7p9wGi6AjIGMN2uwua/95r/FA3+4mr6hHdu0V2z/9kPjlH//YdSOHp7qHoEzwyxeFE1xEQqkZxjPT/zC14jJ1Bw3/er86Dj7rDj9hz8Dfo0EFuFWiCtaA4HEdzz4EBbIno1n774jdj30mBi9687Rn3n5dw8/hHsp7IY1XHPy3bfGiw/ei2tfn9jvXSfGGT/8cUy+5/54/Po/xZjtto9hY8bE49gF/bCXthjPHOljn0g7fs6LU+LA954JoGnHfvkjfQHqdxa0f3f2p3OR3s1rsqqAaTsfeEh8+MKLECAYoxhYw8IeLyX3QOVZd4yv67F/mhfPjBu+/510ET7529+JhS+/HLdedEGsaFoOpMKGQdRw03k/4nxd/VjUGjAw9iTszuhddote9UNj7xNOjXuuvozy3RxvOek9xPVanbCyhJs+K5OB1Z27Cgl1WTQ2lQAtewLLTd66/Oki6nMsVXLF2cXfwrF11Hf/IQ1dcIsscUnE64d8VcNlzC7go+20Bwto9ajfSoPKMvjHjQJkJs5PevD8V65qrLzMa/6374vxxxUDjRs37jXn8698YldPbGW9+uqrMXPmzFRJjWeltrYW+SCdTZk85p577ok/osLQhfB0pMvHMcgbvLxMrua+wCTh4YcfjknIiIU6Z511VgwcSG/1L5je/va3x957751qlRr8inVfe7OmjD9F4VRBGZ+prgajHrWMMaBMGVMKMKDrn4BJeCXoMoZUQi1AgXGlSqiVJ/GX0KvZgJncew3BRNcAGVa6+sfv5l0onthxjlgIbk1aq/yevI1/s3DuzJj+5BNp4G0JBOrff3AqtObOnB5Lnp8WU++6L54EXulit5ZVFYFTFSsvy6ailsLt7Zm7/84q3iBWEPrEzCnPxp0XXUgnMyhqRwyLv198YTxz6818P4RAiHWouObFvZdegrFXF8M+/LFY3WN1xlR65dHH494LLmbl4PHY75T3xDGfOYdOrBEY2xZ3MultW7QoDjrrY9EwdmSCvpqafrHz0UfGQ9f8IQaOGBlHfepTMZyB4rZf/jxdg7Y/6O2pjJj62KOx5W67xarlTUy658eQ4VvGvOdfivuv/D2DFLtAjh8XMxsJmt6nb040dzzikFjZhKFGZ7jjwQfH0Wd/htWL30QzhqZ+8vUjx8aRn/tMPHPH7THl73+PMXvsETsedHAs4539j5OOjybAWTuug49eeVU8w+4VPRhs6wcMQhny3VRf/PV//QAXo1dShSYUdLWjBUnwo1f9IaGQBueex58SWx2wb/QZABzAKB7Cqo3KvO489x0OOjBeeebJVI1ts8ee0RvJrEnYlbsQUm5jpblrpc9cBV/ZVoSXxuNyAuvOkIVLYZ6ef/lcV9KOhKO6A5YpNxhgxmqcL334Ve4JU40NNoBV2w4sA7cndzfLJlbZhzaMzsDxlbHSyrw2/3xtNUC3z3PU/YqVuoruTbCwQujAzyIeE+7BwCyVV9h2GyXVVObTD8i1EqjqQjY2RkIF24Q78zE/SlhkwHYOTRWO35WpcdHieJbxp1//gTFi572AFUJ3wC5qqEUvTo4n/3p9THngXia/FAigugJI1gujYyZqyGu/9W+xaM6sGDZ6LKB3ZUyjz7n6K1+IXv2vRGmwY7z8xDMx68nH46HfM5GdOzv6Dx9NX8Ya4CY38uhtd8Zfv/stlGDPxbuYBB74njNir2OPw3heFA9ce1WsRB154tf/LdUGVbxPqr92Of7dWbZVTIRP+OrXYsCIEXH/TXewWtgU2+53QPSq6RuTbr81Ruy4K0qhHvHqk4/G0C1HYaw3xo0/+iHzbGD0+O1QRr4QPbCwjPXQUdU7djxg/3j4igtj2332A8Z9Jib++YZ44b67mQAT43DgsHjnV77KBPq5+PslF8fYnXaizzouFs1dEBe865hYxfjd2rgsnr7pb/HSAw+wIgpsZpJ/7Ne/F0OZaF7z1c/HvBnTYjQg77af/zx0ZV6FQvZ+INvInXZNmLbX0cdmPzV07FgWHHrEAJRd9Si6ehNPZO8TT8x7evLW22Or/d/KMyOYc+ezNMi6MbIqY2El0GJOg93ImKFeTCgOYwCG9gMu2nZUXhnbZHA9LpFA0DI10bao6oRXXkNoqMshw1huAiAMdVMBFmRpv2xnwTOtbFdlPpt/vs4a0F4QNDAeCGfoNTLDhAkrgUjGKWLxIZNgCSgg/NkodpRfAhSEYKpmVMWYCiBBYOZeA9PNrWsWQU+RKi6UV1XdibWCqqrrO8qRii0sjW7EU3rkr7jgMkHblQWu7t1pXLSTV595If703R+wq9iiGEE7dgLzCtDpqq9+kXd4LEBpdPzt57+Ou1j4qendM7baZXcWkp6MO678HbBmUBz3xXPTzdoyvvTAXSwAnRvTn50S7zz7s3HwBz4Uq9lJsJH+5H7gV8viJXHa974HYELZqaoIlfJuRxwRj/7lzzEfGCQQG7TNnvEqC1UtTFDHMuFrGDosHv/rdSw6bRO1TF4nA30Gjts2VmML/eW732ZyvYT+51jsiwVgZ+6XRcT29rWx53HHxt9/c1GMnLAjfc65MRnlyOM33xQ1g4YxcR9C3/A1lJTT4o5f/iIGjRkXB7z3/dGOuuz7Rx+fE8IWoPgrjz8a3zzoAFQmTBN4mU7AdWinA/ePK770bzETJfiIsePitgsuiCX0DWup13uu+G2M32MXHv/a2PWQw2KXI49N+0Gly6jtd8x81q9ti32OPQLF/TXxOPe9x7HHM1aormL3RBY9iyD9wqyFDAao9g1Oj+3ACiR15hwCZYVKLPr3bnXAUAcSUnEM6gtcTddjH3Rgg+SiFjaIAGwd7alwW+Vg2lfGEKMtemzuzohqOzccoAPRNbMbtu56XAurgV+GNehgx8zug3akHrqmTHndzX/912tAILAOVVNPxm0XS3XXU/1SxhIyJwOAuxNhH1SQlfGKXCQxTlYNXhaCrcqkSkZ41ZdzBBZFTKkNC6AGMDdou+OBiiKhcOWuham4wY3R3fBoSRm3yt0OhSa68rUDfJsXzoiXCVmw+2HH0C9snfDKMtzyi5/Fzcwzash36z33YuyeFPf97foYMHyLOP5r3yXOEy7KuPXOn/p09ikvoJQ8+PQPxDu/+PmEM3OefwG4dGus/FQr4OmHMWj0hHSfM+/tDzwQW//WmPrg/aidvh6jd5wQC195hcWv+dgsO8fgrbaJJ/92XQzh/R0xYft49Oa/8W4PALY0xs0/+gFxm1piVxSPa1fiHkz9dcM+F4rvd8qp8cDVv6dv2CHeDYB+4sbb4qHrrok+2Ptr11XHsV85F2+OObzb5xN7bGAc/NFPsFC/PL5z8P78JLRMS1O88uRj8ZW9dud1MP5nrzjogx+LPbEHrv7KZ+PlKZNji+Ej497LL485L74U61a0xcPX/jEWz5yBeKF3bH/QIbHToUdi04xLNenQrbYlBlVTQq39Tnt3PPzn38f9V/8hJrz9GOZuzKkrY1VQL7rs+Zxr6wysbuwqdgdkJ0Xe3M5xnbEegyADuvNMS5WcdVomlVPmM2AoCx4bEAdwv3BJrEFRL8gyvMkKABnZoXrdcKztwl0Wu2NX9OrLGIXdUS6iW443IunV9RfEDj/H/rrlllti7Nixb0S2/1J5dPXGKqd0DZw7d266A1pZ+mBWpqdQilx66aXx5JNPxv77758Aa1MyaNwsFVkLmExfxaB/8cUXJ+D60Ic+lECsMr9/hX+7+6B/TAK+N3MqXyzjB+nfb2wrYwqZ9BE2WLp3YHyr0rVL8JBwCpBZy/E9WJmrTAKGJqT7yjY9z534VvCZfsm6DRqIWzCmukYWKhizU9BNbGXHKny6Z8byOfNi8LjxMXqbCamwaUNJMfXO++LuX18ci10lxCCqaxgQ7QRyFabV9+kfCwFBs1jlHDBmTBz1uc/GUFxrbv7xechlH0ch8UgMWDwK+f1LUTd8VLzz85+PcTvvFjf+7DzI/l9jAfEmli2ej6vZqnjsT3+OR/5wbTShiNjv3SezIvH+WDhnJvF8VrFS8fEs28Rrr4npk5+Ot3/kzNj7yONidcOaWDh9arQva4xt37Fv1A0emp1v7tKH8XM4iq0mFBdzkMfuffy74iWMTgOxD6ZT74tir37wYJRVL8ZDgKMqjSP+PPi738Wil6ezSjyZDrkBhURVXIIbgKorVy2r6YgHjBvFoLUVq0XrYvrDj8Y2++7PBPq9TFrvQ6pLnCw69ZXQ+pr6/jFgi+GxdN5cVpVnxLIl7NBDMMQ+gLtR1LG7drUxGR2283bU3+hYOJWYWwyKqrTecvLJOeF84a4749p/+1YceuaH4y2sNncHzm65+66AwPpYOPmlWIVqIwhLYtkbMT6drPTj2a5Qpk/+7hhZQiSf/3JcNYwF0F/VFlCzbIu2JVd12oyrRqyusj36uWAs8yNvdxs04LvB7Y1zVs/KrK6RLbgz2JbM2/eviJu1cb9lXpvTa6sBlVdCKofkSpYjJGgRXvF9DXGNdNEycLkxjjaFPgIEg7Qb7HsVgCvntRidBhYXKhirii6B/qLYiXANmbtroDCiTEw3mRi+EAtmzYod3nZwDB0+KPucVmDXpBv+FHdcdAHGFX0ME5uevVQAcgKdmcBt0k03x3zGo+32ekuced4v0t37gvedHnOZeL3y+INRzyTxuq99OWa8SHy31cWOL9h6tNO0S7IIS+bMjrsvuzzuuuxiDJ/WeMdZn4oDT38fqsvHcPfrF+/67o/jpu9+HYXHHcCtF+JwlKA7HXMik6YBQK1FTPKAQSgl+mIktjNpt4V6ewd98Mx0+X3m/vtjpyOOZZK7kH7gpRiyzQ6cW4txOjrmvDQlHvrjFRihtHHOuY/JcxOG6JxnnklgPoS+8/wPvh912RTqEdBNP7MF9TP8xHfHnO23T7fhoeS393tOjzlPPxstr06PZYCy1uVslACMH7Ll6Gjh/V8w4xWCqLKRA9Im3Z62xLDsBQRvAXYNHIvr4bhtYtoD90bjzJd539bE/qeeFjsceBCga15cduYZ9EXvob84E8hQg7HNYsTgYcQRfCiqmVR3rxqQ9chiLeOJY8+GWFjCqzbAVG8mDO5AKVxylbcIwK8et4BXxlgbgNuggdzLJLwyT2Nh2V5KeOUCcR/yEmRpfBokvmxO1uHm9EbWADVK5XbvofKFSWmDKqvCTjCGkTsIJniizy5ava6Aqm1QtBDku4QQ+QFtPGMgubFHHi+cwJWQeItV3VkQSbVO+SRpJyyc5W6AgIVCxdXZNhiX1qG8Mr6RAdJ1y3nl0UfSFWP0hLHMgpjQ1vWPGVNejSWM48NHjozP/vEawHD3+BHqp6WoPOeiCu+JivnR6/4CHFqfbvx7HHlU3P/7y2PSfQ9Q7uIeG+lb/MwJn/Fjj0I9efQ5n4sXJt4JQO8R7//xD+Kqc7+Ba919Me+kE+KIj300Djj9zKglpstKFsnmYMcM32ps9B+3E4tOABuq07HsAN6n8XvtE0/dclPsfNhh0Yt+5sWHH2HcP4CJYEcMGbEFroBV+X6r4nS5ceL1NzDpbgaazc/+cGvUTj9lcWsBSgj7hqFbb5dhFvahb1gy7SkW9C7GtWhr3t2TY94zj8crTzwdPdjEqZWVf2NsDho1JlqWLInZ9EltzSxMoY7qQL0yCnV2Tb+aaJw3K/oPGxKHnnYSrkd3x0L6AoHPPqeeEbu946ic7P74hHeyMHYiC31n4Sq5Mkbtti9hGYbFDEBf87LlMYixYz1xvXKHQfrG3OmR/sc4VkVcs2W4aRbtJN372D25G8Hj7aNM2cbcCbnfYNoKKnTUV1W2P+63GwBKBZ4/dROUUArA7KPyOGOlMblfj0IwByHaUeGayiILcKzYRZKvaoZ1KQHzopv/+qdrwFhWq4AGBvFekzvV4dplXKPOpPrIQOa9WDmq77/hc5o1gINd5lgYcTfBymSQ7kZiu3XnO/t1neWNKVWm3KGO+FI84txJ0PfEuFg5qHgQ75m74Qmayl3/BFnudqi74vLFrTFoeP948vrH0tV+x4PfzrFFu2tesjjuu+IymtQ6wPT/iv3xrrjnyqt4D24DsKAKBdK3EY/y4WuuYjH9l7GU49964nvijO/9IBfi1qJoP+OHP4+e3/xyPHHbTdnvHAn4Puj974taFuFNz0+8PwYOHx7jdt2J5lmdQE2Yt9NhR8Xe7zotpqCs2u6At8bYXXeLyVx39M57pP0zCMXOi4y9j153bSqXu1M7j9x4fapJ21k0F2TtDnD66UnvwgV4GuMjdsOQkcCY3vE2+p1lc+fGvVdcwULe8Dj0wx+OJTNejhfvuY9n0449sJRn0TsGj9wSWLY05rEovrq9BfBG4HpWnUah8urDfGHRDBYMx46NEdvvQPzOmzIPB/ddjjgaL5f30scsifPfc1psues+KOq/ApgkaDsgbiBztgWo1Ve1LqXuUUdVJF1O3U3QZ2jsLHeZFCQ5uq+n63cRfh3P1LlDX0BpuWtlRRbpJtpC/F/jpFXGR9Mlkc4gQaaAi2lnuo57bsOQIjSEix7uJmm4A70JSuhZjc20lnLY3t6o5BigIEgmo2BoLHW5OW1cA9rRmXQdfP755zPo+tZbbx0qsCqTcOsCVlvuuOOOdCn8OO5cB0KIKxVaHi+FHD16dJzICuzUqVNj4sSJceGFF4audqeddtr/ADe7yrv+v//76aefjjvvvDN3bDzooINCRdamdfJ/z+X/zREZ86l7EYhcpUwJC4QQrQz6HaxMGSy9jGmkykWo5RSi+LyIHVCWVhCmy5bmZB0uAEIEd4kzQLquhgbvzmDrGIuMFExaADNK03kxPc7rrmHwWNG4PEaiYKoZivqKFbHexIjYkw56+Mhx6UL32A3XI1t/lfwJugjt78ZK/dK5xKlhlXD8Tm+N8ayKDhhC/Bhc417GbXDZrNkxAWXD0bjgVGOE7bjfW5HJsiLnKjxGTQerPjNeeh61xZV0rLdjgA2Pd37hy/FWViZc0bz5AgKcr14TJ335K/Hen/4k4ztMuvW2uPrzX8KofSGOOftzMffJ55gANsWUe+5iZWFmDN9lAgPpojTels6Zg5R2UcawWoyBt+Phh0S/ugExcMsto3dDbQyiIxqN6+Fg1CDGj9hix+3j5QcfBjqNoJaqYr+TTmbiWBNLWEHd7bB3xFtweRzERNYR2tWlEi66q0k1E9G98ZHelR0w77j8orjjvJ/Hfrj1uvp772+vQCV2Fa5ZLbH3gcdF2/EL46UHH2IFijgWTBZ7sBqytnoVxvT7UIZNwX3q9riZFaWRd94Rrz7+eMxHvaEMwnfaHQ57bTEwXSGd7K5uLfy8hZc+/9o+dRm8n+lH7mxYwqvCtXAZ7mfIooFXfVlRL1VZtiMBqHBTmOomA2WybeiySlNJo7Nv7365s6XxynR5FZAZc2sFBqtGy2rAmTG5DOBemX+Z3+afr60GsAN4j+kBNjCDNAYN0o69CVR0B8hix0EDgBvfyvZQJt0LV2CoJbzCHcx33yS84jUEXjLRxCjQ9UvvNBU3wiuaZ1fy+xUYBk0YSoLMMbvsSB/RM3elU02zN2rIAWO2irb5s+OO889LdWM3AD0b+6R7YxXuqtsxEdyfMWnwGBZmeIcGjNoy5gPPl8yZh9y9b5x47leZfKJeZMXrubvvKO6hswzzp0+Niz7y4Zj+3LMxmHf0pG9/P/Y9/p0pi7/y8+dE/eit4pOXXhIfJ97T34gFc//vLo/f4oq7890Pxpm/OC8WsnK7HON1/XNr4uJPfiL6A4y2pK9yEcFA7AZddhdCg6vuhBvxmAnbRB0Tx0GoILcixowxpvY87oR45No/xK4nvy8evxrDEggeGHvbAZBG7LpXvDJ5cmy151voK94b2+yyfd5jUYEFfDQgfU8mcLu9/W2x8/77xDP3PRiXfOwDTIyPiJP/7Zvx9O23xTXfOJf7xsAfPjQO/tCZMQkVp+XqwQKNypk1xILY46ijMHSHxg3n/yLuuPBXuC48HDNffJF+7EVgvAHZMfp4xN36b4HaY2gsmjYFKLcgBo0ckRPE5biR9hRU8bzpVliQYKdInnl+1hnI3SYieFKRZwwzd7MUXjXwfRkA3ntT3ea5uhPaXgRZBv0XcPWmr7ft2doMZu+1/Pdqo9tv1EL5dXN6XTVQ1Y0FCSq4ivalmqVrFzzaQ0crShqVUSqOOus94xQBMrrVbgBdWQD6/LUtLFhhOxhM3OPd8atwLQNQ1qrA2dARCSCQ/nBd+qcMNA6pNNGAUqXTwXe4k7mTXdPUZ3nX8C7YckQ0EMC5KlVFNVE7eBBth1bPOLeKDmiddglKXycnDdgfs4gNuZTJ3lBUkwOAXM8wRg4eNTw+Thy+fiyqtTKZ++UH3hcvoLwYQl4f+eb3Yt+TTkp3od8CsfpvMSS+jCLjoxddeCjfCAAAQABJREFUHjf9+Htx1+W/jd/9+/fjxYeeiLMuuyLf7cUoQ2vqauPiT3yKievAmPDWtyWcb2TismDgVPpb3KMWzI/ddjk8TuRd3WI0bs09OmK7Qw6LZ+6dGId+nKD0F5wfh9O33HXJZbn7Z6+tx+O2987Y6/C3xaxJjxC/ZheA83tzousCUzfcOVk2oIqZ2jLOVgF1xnLMp6/8LZvIzAih0zZ77xMfZhHxxfvviQs+/rFUw/XqVx9HfPJTMREXQPtvq1Hotpq4prsD94YC4q763vdZUPh1LjAuQXUx7YXnY9cjDue58Mx5rn0AksO2HocL4QOx9NWXiIHHAp27J7Kwlc+UPshdBh1odA0tAvIX5VzfxkJbvxEbYBJtpjgGeMq/dQEk2Fc2g24sdKZbITZfFfaCPYAwFSMGMGXbIGg/9kKh0rPvoo1hx5q6sZvzOhfdctMBqqlTCZhfbv7rNdWA86LueE9oTDQSi2r4+GFdAEG7QFgkpGogEHllF+1OgAY/HwxEqPzccWIZ8MqfhiUxZpU715XJPA2OLkxyh7n8HvBBd9GVdCPrjg3dCyjVzLG92TFPN0NBybJFzbyXhERBVfzyo49in1bH2N136Tp35uTnUq09jPnDkHFbxYN/uTEGjRgeH/jBT6LfoGF4UzTFBe87LaZOeSr6s3B18rnfZXH7w6mE+j12Q49efeKrt98dZ/3mN3HDj8/De+QXcfX3vx2Tb78lvnD93xI6LwYcGavqVx/6AONwX96jI/P3Rjw6GufOoCxsjrJ0MfbMqDjqM1+KLXHFq6K924dMuvE6xvFPon76XbzlxFNiCovSum8PQc094aC3x+4ssM3G7t+S+cfux5zEvQm/dPt1x0BUjBheKqyEe4PHbh0fveIqFrpmxX+885gYu9vu8anfXR1P3Hpn/ObTZ1L/PZhr9Yl3nH1OPHTl5czVmF8IkHCfXI1L546HHApoOyAu/9zZ9B2XoRidzbzp1ZiKMGDETnukuqkH43bH2h4xfIed4gmEBs2L5saIbbbqqu91a1joYgfGGmKbtrEroF4ZPiehkf9pExr7zMG+J//uSUyqTVO6mtLOhGWVbqi6j65l/lqP8s6dFN0AYB22Baw+VVoGiU8YSkB55xc2oZ7cm4BsLWNHH4zNRfOXp31bKLE2vfI//7v5KCKyHb9Ref7zpXhzn0Fv4jjBLnBPPJHKKhVUu+yyS8a/Kr97lhWi8847L+VsdbhiHX/88TFhwoSYgtTaFScHeBVXuh/OmDEjd+XzszlM5M1b+KUSy7haRx555L/Uw3DXRoPZCwBHYuC87W0aHxU95Jvo+Wvo+UfDo5qB2+TLocuXcEgFTRmXKMECq5uYB6hdGro+L29HMGGQbicFdRiPnm+Ad1MfwJUqGw0KXQ871hdgzLy9nqouAUV3jCfdWNawatuDVRljW/Uj/oMqrf5b9894EHMwfl7GOFwye2YXuFBptIJ2txaVVEP/gVEHHFJ10YctZ3XbWUXnUztsaIzd9y0YxO3xOADsvt9eTsDAqTEAuDqOCdwIYm2NQkKrpNWVzu33fSsrMOwysQg4g+S1GpzPfCgGbz0m3vX978R2bz0wHvnzNTGOTr6DCeeUu+9CrdAYy7mfhbT5JiZpQ1j1cLePP3z9K9n5t6JymnjxJUyQa0OgtB1QrZU6XUusiJbGpSntbVq0gAk8vufEUBvKxJXuOCYDiRtQdS3DLWAPFFyjMCy7MciarDfBDRWZv/vXemQsq8lzBcoQA7vXEixepZcDn8ZCP1wxavrWosaaycrPXagu+gLU6nNCugjDWDeDXY8+hq1tl+Vq8Oynns561DVp7G67YryxxS/GXC0r1g0Y6Y2z56SvvJ+tY5JSB7xaw0r7Op6zLqnlroIp++YYVVQG7K9xVb3CerANNWNw9mFybNy0SlVWuhSihnHVSbdCwUUzbakPLgH9gFnuYum1azhXKJrb6ArZgGDdNsv8u9rG6/0HryVtDsBAp+EgarNTMaMyqwaDQ4AlbHDXPRUv4oEyrcLgaFnFdtbAirXQBYGXE0PhhX0Q4z7ACnhFHCThQ2s78JN/w8O6ktdrI75CH4CXSoBuvCt1gJ3VrI7rPWJQ7kHb7MT7vEMsnzs7HrjiUowPICflWoP1odpHkP3Osz/BpI92wjv+2N/+FnPpV5itYiBtEw11fWPQoYdFC9eaO/1VVj3vzn6tLES/oSNi6LbbxdDtdoyDPkrA0QnjMXLZYpvVR42eXt2J7cF7Vs+7ceq3vhNbo5C4nUWbbel/enOjD/+R+BgoLSR1TQ/ch1FcFwPPPNOKjRt+8F3aK6u9uBM+etVl8ewt18eOhx6NYuGEXFFcA3BZgary5SceJXBrS8x4eCLxQ4DfwPDBY8bEJNyCNNpUQuz/3o8AqA7EqNpguAkgBUp9BI3UVTUG0Rrej1Ws7LlSOWCLLTDuUc6mmsRdWzmWe9H4fppgzLWEB+hFDBvVX/NmvkL8oHfEAae+J16e9CQT1MkoRp/hHe0WY7adEBP2P4DA2EjvVUXxntcPHRTzn8dVBEWIMSnYPIp6Jcg6z7gbDcVrqc7z335G8TLphsrp2eaEVwk1iWNlLCuaTybbYOtKYq0BtVTZ2ZaMc9WbNtiLjGx7qv4EpeaPnZuKLoqBWtAG1plRkd3mv19HDVR3H8S7SO8NyKKBdeW0rnkeDxwFXB2wtRM8GZdoPTFCutUM3QAh8gxVWfOzj0lg4fOhzSVwoDHoGkbmXXkLOjpYXEubhjiIZVwtD1CtlTsg9mQnP1Rcxt5qZzesFYyxo3eYwKGMQ5lfVezw1n1ip333ickPPBA/PfGEtFd1J9z3uHehmNwaZfRjOdY2LVwQ5592Cm7wxDyh+YzfbY/4wM/Pz40kRm0zBrfg4XHcF4idN35r2vEalBLGjuI/7axqd2xeGyd++RzcZw6P2359QWy11160y464//Lf0C6FcBEvPjCRCdw6ghzvSPPsFjf//Kdp17TjnvfwdX9JWDWB+HJvO/4QxuTh2AQEhubcqQ89wKRrBYqvB1E8NafqfEsUkLf+/CepRpn7ykyUkR9FEfWO7GuEOsXOgEJFb4+3EuW4AKk30Gd9By6B9A8Nw0ek7VLdgaraAymT5VyJEuvJe++KQQ39MxyDsSjnofTe+W37x+Ef+WBMmfgQE+PngdfTchOaMeO2ih0OeAsTXNRQ7ew82KtnDBw9nnf07mid92pUvWUvro0iygUrbIVuKKnsgIWQKqeMgZZKrFbah26oPL8yGRct3UZVS7mbJQu0thvdDYWfAs5uNbYd2wXA0/aJrWKe3q/wiw+oD+Brp4uix3bvMzJWN82KqiF7c9vePQXanF5XDQinXIBd074K9R5zhIqdBVVeOUb8f+ydCbxfVXmu15nnKeckJzMZCQQIQwJhCjNREBBRiwMqFq0TaluHWtt6tdRqHTpoq1eLcx1AQQZxoioiIAIyz4QEQkLIdHLmebjP8+3/Pvkn9v4qkLZe71mQ5Jw9rL32Wmuv9a13vd/7NbfRJx2eC0mNIfWyWmftdt+KUzRH5w5saTZAGlrQmKK/NjQDUkZHzW7uBoQZhHlZA6PLiIP1nM8j5nmFEQm1L7y/m8mpAjvXyHgCEkbsrMB1rRmG2AgA2E5scdcKjaw3TGPMLc88vpGNXeahrs70mQsvYKOln7GhJM1ZvDS95pOImGO3H7jmOHTv2tIZ73hvWrLqsLBNu3Z00p2Y4yhrrSLyeBKc+Y53pUNPPzldjWTAfrCmK9Cz+vfPIx+C1Eg9EiMP/eKmYDktXrUqxrxffefr6b4fXUO5O8IGWMf6fQ5z8AkXvoFNeggEDepujaQnkSMYZuNp4513ANBtT0uOOi4dsvYU3I8vIRjFrNT5FIz2tWeiwfti2iTbQNY9zvlXrxrn9jHAwwFAqLZZbURQ3BRrvYq6BtiqMNWY761DWVGZa/54uosN8GbY17V4ghg5defTT8EMOzQtXn0skienEWn1gSRzTRbT7AVL0upzz6bu4Y/yew+C/k3cq2B9H/rAeRqnDDKf6tlslHHlWsFxy3e00esAkzLwioA7tFst/WvvpKuorqaVgE3F52VbDeFm2Yg4u2XqhVSB9160UfMMPIawFyybQGoASqwM/TeiKHoZ768daF0ZAGDLExm7eO/nP9vftbdnEpCrFoF9bdep9Js1ENaGQNNNTOBqYMmqOpLJNRckl0X1yU9+Ml122WWh5m+n+cY3vhF/uqEaDyFi5zEXq/kff7fyrXhBKwXOFX7/V5BmG0Rx99+XJPLvu+qv+rueAjmmrHyLk+O8QIHC2DJaFOA2CSzIvBqdGAlwQiZVcQpWFUwYGVeCFyYjv/mRVwMkmY99QFF3J5Z6rsnZNQJj5l+JS52Dz7A7Yfw3xDGBD8EKgS2TzBqKGgCPv2lIxLWwbnoZ2EXTZSCVsEswDptBtFzQScbREIamgFn/cEfagtbD1nWPA2z1wproTj3PbAX0aklr3/IW8gZ1b0QolnoZmoDNwzMqMYIGMRoHxzJUvrGpNR11/kvTQS88lcVuKxE9rmKX8lGeP5KOJCT0U7AfXDQOGe6VRerIEM+GQnva6y6CJdaZ7vzJ9VGe/jEMQQSjeQTl6Ek9aPqo4TQ6gpsFdafg4eO33Jx2AgQrBjhAGa76yCXp51+6NL3wXX+SDjrl1DRWCZhA3dmW1g/FDnDJnZJRJvsS6t2oh2UYibrbWW/xLTsjMWk6KR129ovSgauPS1seeiRd/8VLQ3xy66YN7Ea3pD/42EdggKxg4VcXER8r6muJDIg7AQaeQsyVRP9zxO4a6EpNBVaV/cCIlrKocnaYxrsAp0BTDcapIGgObFEo+iA6OOShi+nerKwQ+6f/GUHE/iXTrxujW1afGmy6G07Q3nW4ARiJcAzmoBELbUP7y1TaVzWQjRW6ECoMXs4ELXDQDyglmFCLG1gIuPPRNRXYM/mTBRQEj4wcZx8dcDeLk7KrBKgEEgQcwo2Q890wZ8yv2P3Q6wU43P3CTo25hs4HiyYbHwTQBL0qyNCdsDG+PcFgxwgjI3b1AZ7J2gFs4iuIb+3Gr301XfnRv007WaQesPr4tBJmQCVucjt7AOEA1mTrFCffYwLXpVd8+BPA6+g8NRtZCMCN8nRRtnEAJvsdr0CCycEO54Frz0j7HXl8akWc9qn77k6P3noLu8CDiBe/PGhC62+/BffjzjB+Kxjz1OU5jcARgrU3fPPrIDuME/TvQR6iET0CG1StjFEA3Z1PrIPWjqvFzh1p3a9uS4/d9ev09EO44sBGveFzn053XvFNBJzfno556cvjvXSx1CgzGpJl7ON3JDnYSd3KOIxL7+zZadRdPr4h67ueXUvby7lcDv0Ba88OZlcJ39/lH/wLrhsnnPhT1FVlOuevP5YWsHvbhOGrXp4uyr0DJakf8KiNCE217Gb7nRtYQiDTsVnAyfGPoRvXc/4iNSOsHpgSP8vIc34yYqEuqYM0fCXtWxzR0j7Xa99Ck02xd15jD/CKbsDv9FG0s2gq+itAKr+X8WCDEFgXU2kf1kBenfm/ZJ2xrDDqFeQuzOe68ynMXlID4MVGR3EaRyvKFALermDpN+ECSK8R0Mojx3mN7BnBK8eCEuacScYXR3Q/m0AP0QhypTAvJ9j0EPeaKKmO8aGCxWAmBM5BWGA9WzcBeIussgEE+BPfAX28CxfCPrRkRkTYec5Af2+wOI8BuLr1O5enB3BH/N7ffSRd+NEPpD9gw6q8YSbfGyAM9o26SiUCKSQBNqMYymSsJPriIafNSUuPPRb2RRUyCLeHK5F2xLJjTsfVZjnszS8Hs3OMb6aScasHRvipuNlUsUn3I1ie2g2ZOx3zHfm7gN78wINgNgDMjz6MPUVEUQDvO66+Kj3x2LrU9fF/iI2p6//1f6dfspG35qXnwqB6MwtPAJ6xzX7o2DzUN+XNhfQ7YZIPc7xtHm56Eyy2ceszZfqu2SaGttehLIQPOHoVror96Tsf+3vGr8pgIchuexUsrP1WHIZ9xshbhl7N7EUUNmNHlJRjJ2A3S4YcN9JfaW3Um8BaWYNgJ/ac/YT5PphTApndgFcCkjLtCilE/Sm7YFT0N+1U6j/alzEkALA6XLGiDegv2LN0Fu7mHjZJwx1RBh956GZajJwEAIrNMoZd4Zg3lfZFDdDgtIt2unNmnkJnCtH26bNx0yoamxVt78bVq5WIg2rnFqcuQIZBtN6aiDgow2dvoW71tXRTrKnH44P5oRZAp9idTJdidZSacXvrQf9Ke1rXQ1k+HVv1KilJ02Y2YpszLhjUgPnYiTEi9zFHGaymgk0h1zn9rCuWsMF1/HFr0s3M3+sfvC/Yln962eXpvPf/BXMzEd3RuHPzSGBbcCny4l2HYX2iMgx4wsb9McelxUT65knIBjyR7vzed+OVW9G+XfOaC9NVH/0gnifP8Mxx3qs+bQdUP+nVrwVIaYDV9KXU394NQKctxFqmn7HWMQEPDzf6n163Du1RWEUAxL/+3rVp4+NEDv3kR2N86fzG1yJ6+akXXpiOv+CiqAsf7JrE77wft89mmEkyQdXZdd02bfZ8PyvW+K5/2WwCyHJeH5IBRd25Vtn/2JP4HHvT9//hExFgasvjTzJGVqeXfeBD6H2ujLVhyww8U+bMdEkR7qOOMfU8y6T7nClnPtXU0T7sdLpmcz0yqLYXN9ayAWlfGadNymD4NTRmsjhxc+Ev8xfwVLMqGH6F4zK4jD7ZgGeMa6NdO4lsjq2qzal7q5EYA7wiWqEabv5sveRuqv5u/3Ew02arwH7aV1iAINnatWvTd7/73bRw4cLi15n6uVADsRLQx1LmlGDM0UezI4Xga55ygMZQlDKL/HcHO+Eigi6MpyEaNx13hlns5La3twdA5b/5H0NbKvoueKX74QEHHJAWLGDHivt+H1IIlfOO1s2+6rj/VfVSwQQvYDAwBgDAQ0IMmwm/BpFuASyTYIDR4mTUCEioY5UtfeJ0DB66DQpY6DYme2AIg81BxYiDMmQwB4J5JRAhW0Z2jUmXRMEyGTPSU02NzdOxKZicGMhrSvFDz41dzhllwqh/w5TRZDlcEA1geBIsi8mknM00BmqMvUGAkn6MTDWlqjFSawHSjApSCpX0hW99e1p+wsnpp5d+nogdP02P/vyWcDGcs+KgVFeCSyJtJ9Ci3RwuiozMDsr8H4CMA7egXWvrrCh7O+580xFZ7tu5LY2zuBJAc4enf7QrtczFRWFWOy55D6eDTz45rbvjNnYH6lPLwnksFFlAwRgCBkoz91+K7tcCQkqvQ8j5uHT3ddele665DhtvIO3PRNaHO5OaNi0z53DtYia4tqiPepgSRujLwBpAr61PYXxVAiBMSzsf38CkSrQvxGV7EUs1Gp+7Amo5OLk44wgo/vKrX093fAvfeBbGvbDNhlkYr8NlcAML4sUrV6ftVRvSE3f+OnZuDnvFeWhkLA7gaJB+IfNNwxOtR0ApjE/+U3xdcfWKgqFrW/XSRwSoKjCMm+uaJ4Etzznpd7lzStkEpIqBLfud4Fg5Rmwju+cyr3pxQa0GjDQggPlW0o/tZ/Zf2UHlGM6+a+626ARbartEC/rEqfRca8BxwnFNA0B3rVGBw2DDYCRp3HGsEQAi+lfhIaPudPXJjgMswGDoBogQqsgjznmZulflGFtsek6CUHnkuUI2weyyCQU73KydNp1FF33YhSbLnz3u8x7BNcsrVKZ7GfZOgGJ2/QE2W678yIfTDf/2VbRcOonqc2Z6xYc+GIu0HsAQ7BDYn0LCu5PvLFiivtd4TUNqZBNMw8ahq4t7fGcBkjwxBER9jMPebJ2B1hv3tRD5VI2qLnZpa9FrUODYyuzlO6pm3lhBFLI7rvxW9s1TRo3c+YcfkUYYp5upO2C5VD+tNR15/gXp1q9eipvAO9OP/vmf053XXhtuRcthSQ7TDj24CTUz785aithzKwt+CtcLABaOMQxmLqQ7dwEos7Pcwly95f67UjljWkUz+n0Yg+MYhsK/zmfWV77AuOOyr6R7vvtNFgFoJMIoFWSTvXb3z3+e5q9ak/rQJHn4gXsRmH80nXrxu1PtnEXRzuBu7NbuJD/yZswbGmVBgE6Vx63XLvqHdd6CLhqfaqQhysuQFEw+zweAR323NLCraqFIQyweemkT3Vrth+bVW8S88hrdW2VieU83+YzozsAzGusx7hlZKpk3vG8q/dfUgKDRxDCaRkRs2w08ybDaylyJfcC4ns2u2fPVKArBbMEuerwpIhmO4a5Ri/YQGyB5Uu8ohOL5/o02WByNUABkYhiX9goWI7iqTbCBoyZSadW0VFU6TJ8gxDnCvK6g1c3yzy8uvzo9cu99ada8+elCXPwMjvDlP3lXeuDXtxN18JpU0zKNy2F5zpqbLsKdrm3uPDTr2olK+LfMmbeyANyVpu/Phix2UFY2ADM2mCbGYPtoRDB/jRO8pLR9Ib/j3s7r1TYAnhBhrx53ptkwR3d13QqghG3GeKAtpD6N39tJF1yQfozdvADX4IZp05EI+EJaevyJEDYyBlJIPrBJfNa7352uBkx78Xv+jEAyn073/fsPcW3sTMuPPgobvQbm1k9Z6GOj74+OXds05kbvR/TeaFnYS7KPhoaIILbhCWQNFsTcH+D2dO1axizc6UyOTSbBHRWHbr78ClyucTPmWC9jcjk2wJaHH4poiMtPOIlx66m04Y5bIhLjWX/8J2k2dkxZAFAEXdn2NC7NfMPYNQ44RpANfTPqSEF3Hhwgk+Ub6wZow2YsFvuPCIPjtC3sO1lUJdiw42yYqYPFC2XgFbaF/U/A0z6pG6BtLsCVMQFhgwFQBUNr0u5kLsDeKC+rDYb3OPZqOZuqJdg23uNzosBWxFR6VjVQzmRfCSAgW2cAFpZJAEEAaxpMFxlQeXIzStF2gZ0KvtviFIBXN6ADEQeHAS4U8S4W6s5YWwjwY3/QfQB4YHsVuZN5Tx8ars3Tm0K0W2ZOU6tzM3bLdr5bJod6XBGdM7vZlG6hbJVsSI+x0dyDXV7ZJOBRDcMo27xv4tt8w2cYG/ZbRKTzOembf/WeYEx3s05uaMPdtwo5A5hWPbC86o2W1+kzsKF5x34ArenzGOOco/n2q1grCNq1tLcAah+bbv/hdQFkN7bp2ortA/tR0Pnk178hff/T/4jG1JLUtnhZup7gKgeuWQM4wzsB3vkuVYBKZ7/rPekHyIKsRnrgvh9eC7v856FLdzBsqGqedT9Myqa21jT/IFhfaNAKWJW4ZqAs5UzW1h9y6EnwqW3+/PQkrOthxs8ZixZizzCOYg/6/VcLLnHt6BATOOsltbfu+t7VFFUAcIB10dzUu2Nzuvsn1xPw6hDes41I7HemXZueTKe/9S24QC4LULC5tZq1D2M4Y4LlM/MuwCMJAq7TdB2s4b0GBpQOYb3Gc33GML/bB+oFrzxRnMijc0dXgJGhqVU4P+mSSJvIsuoEFB0CSHXTMHcxtB6dM6pYV7leETRrxIXRpM3UBctvGDBUN8sRbBNxzn2ZDAy3ejXsVdpjKv1mDcSIsWLFihBkX7BgQbjA6SaYp9ns0L7pTW9KJ510UjCq1LIy6qDXGKXQnxUxt3P5Efpv/nN8lBwT7NqCz65AmQCZoNbvS9KVUj0w301w7ne+o/nx0iYjLPIHmMzVu9oNXmVC7gql6wrmH8GoPAlSyaoRiJIZI2AhSDXMQigYOkzuMnAEwBTaruV3ATCTrKthGE2Ku+uWKIgRwBk79xV8pMPQb0fYyUtuhJF81gAaFrqJlfMcwQiPqYHEwwjvzsQAYGYUvW4Xh2XNRPwBhGIAacTlRa2n+//u5yzolqBtdUHa/6Q16alHHwrR5c4dWxEP7UiLidYlYBZACEu9mnLKyqrKATEbh/BBpj8bMUW2Ty5gv3T1MWEsfuN970XvCeYarKRdHZvZbRhE7HhhOuK8lzAwfzaMys5tW1PzHPQzls7nm2kKF0m/ix1PPAnTaiOug70Yc9vYxexN+x1+aGqdOz+tPu9l6f4bfxqiyktPWZNWvvBFuETOgJ5cmUaoJ8EtXTaNgngDVNzVL3kpYetPg8a/Ps1YuiyVQJVW50epaNtPw3OUmci20t//xD+8MBnxUW2fn3zhCyzQK6Ithin/5R/4S6qXRSzv3QxIt/+pJ6a6ZYdEu3ahfdWPG1Mt4HN762wW7xWAGjKsagMYzVrORXwfC3yMdv5TtF3QtDh1YqBaw03sghaDV7bvLsVY+a+pvjlzG8SYtI/KilM3TTC0mgVxuBByfR0GuuwrgS/243EzxGURA1vgzHqeSs+vBgQIhzFq4FLQHnyeTZm+0CjfiWyeWkAEQYk8CQworF2FQaB7oUDEKAZPI8aOgI5JRoyCm7XsFPYCNLnzpX5WcWuFfpEHMIr8B0IObjoK97LA2/IUjDz0LhpxFwPk8WPtlamDgaGejcCITCo1sLzXUPDf/Ms/T7/49uXBXjz3/ZekF7z+Qgw3BNYpSB8uAtMESXhG9t1zE0nXyLZWxkryrgIN8Vm+n8ygcb6PBtzT8i7mfYPkM8G7qr+UM8nqKPOZH/x4+tbFF0VZfEt3RI0AWtvYnI7m291y76/TNZ/4GAYQmwa1dejpraZeq/kK3IXEAERs/a4rLuO774CN+YXYNV1y9PHhNrnmorcS4eihtAGm1/7HHp/W4A7dQFTWvkEARjcqeljc8e3fj/7F/TfemGYuWw5w96G04bZbY1HcvnhpGmVVLehrXcVONy81AphkPZ7y2gsJfw3LAsP5O3/zAa7L3EdL6BNXf/gvqRNLSV3jLrBk7blp1cL9aHfGVMA4XRbK0e1wUakGWt5PumFegXumFtwGWWNEIluCBVDP9IMeACgeH23ZLOhEu5gEuGD7x7iiq6nl7eJa3Vvz+paxp4ug9p7tZwPZRsG84l8jounG6rGsteMHf5lKz7kG7P0kq5L5Ws0qQQKZMXnKGFbYh/WthQuzM4IPuviVNszh/mwBG8LsI2xGVaFRxLw7mbAzJphXXCUIahVHHJSNE+AVwIN6WxMARxPYIerfCYapm9LYOiPt2LCB7wkR4iYWRDC7Ntx1dyxMFx22AmbUabGDPveApelpFlbr738krX7xufQV+hcuMy0z2cDCdm0gH/tQMHNqeB/Os5opRLFzEAHc1q3RL5j6UM9pD5YYOkyyxJrmLksXfeZz6R9f9jLWfCwcqT+ZWlvweqhkE+6IM05Lj6G9c90//mMmkcAG8yHM887hDoyjvR3hfnjDF78YoP5Pv4C2DPbGYt5lv+UHpbUXv5OIZTuSASIWswg6+bUvA1SaxzNgaXVv59xWyl5CFOh708fOO49ocPXprV/+Wnrghhv4XmthVx4K2FUf7AmbNpMxgJFGGVnXpWNf+uK0bM1JaRgphSs//vfUBzsN5FfKv5d/6AN873yjjC0KQ68iUqJRVv16R7o2x5hl9K4m5A4mhtnMcjMMe0xWFFSKgosnjwo3VJj29o/oYNQRoFLodsGQGu9D3B+ASZfSTCuLrQ2ATFfesqyiXchTJle4J8rIoq3GdTckv2BrYT/kKSJaYt+Wk/cwLo2UgPdmwQoQOm6URDdjbaip9KxrQLtSDayxbkBJNsVMu9CZagAsyt2xPCbDZRcsqLqmmj1cvTwnODWAm5kRCt0ED3CqyBWxj/Oj7oLQRIIJlTCFqwlglCfvMQ+jDA7BrnRzTmF41yMydGJd0lAZkRE7cWusAxCxueccsCzde+NPAV0eBuw5NHpiBUByJfNJDZIc1XpxwL5uwP0NU4ExhW8MKZPyWuZ0Iif2AHTUwRTqB4Bxc9V5doKPqIb8i1lnRkvUdq8jkNOrPv6ppM7WKHaBLCHtpK6nn4wN5yORGFiPW+APP/NpNq7Qm8RuOPysMwFYYCLxGSplMsh9P//KV0Km5c6rvx12g7IpTdNnpOOZ1ztgcz10040wrI9Kp775HeTvZIwWIBH9RvpYY2ATaFt8/LxzONaT3nv1delBxoY6xsADjz8u6qpnJ98rSd0ok2Cia4ejWMMcetra2Ki79uMfi7HSuXcCFtj3PvVx7AbWJnx31ayJFh91PO+wGK0ppAw4v+nBB4hUXoPm4JxwAa1g/SLw2QeYWAOre1CwimfpZSIryjpzN1FB9czdN4qS/UUf0PVvCDuhFUaddWgSfNIlsY5xTvdFwcUBok1WYpDIkFOoP8ArnlnN5oLtpWi80Ssd7gdhuA1RDlndNTDQ1dvSNtyXyXWoGtuf/exn09/8zd8EKWhf5v/7kFeM3KJ8559/fjrnnHOCVVW88BOcEnTSrdAkOFX8b/G1ceI/+Etg5yMf+Uh0eJlZUuN+X1Iru93HQgl34LMu8vr5XXw/wSXZKuPjaEIwOc8omwNLgg+S/2Q2CTwJ5gho/QZ4hSEmeOV53fx0CRSokFElgCA7RmaQ58NtDJDB62LBhsEgKObzfY7R+nzuKJpJVexu1LdPB9DZEKJ+MxYujGvUznKUquc6Q5+znKJ8fezKD6XW5jYiXRyAUGJ7evL+exlUf0aUCH6+5z4WTDWpdTFaVFz38C9/mR6HWaQG1ezlBxKF6PbQk2lg16+VewWvBHUUKBcYKWXnzgiKRs0zlTFSjTDB1QJQFYMwshBKGOQUQh9msJcBtmvL06FRs9/KI9MhR5+QhhnYv4fQsdF8jn3TH6b56Oeo7aWeTVcn9Hj6isDuMOOpO7wmoyrqFuTuhfTZcf7c8C+fTT9jd+cFb30bmmD7p5u++TUmrjthRzEos+s59+BD0n6HHZ7uY4HaidvDwhNWUy+AzOw+jkMJsT+6S9KDwczamvcZIZrapQz8ilrCbiIPwbAR3ruCneM1r7yAyGInw3ADvGPgXozRKePJtOGee9nd6UyHH/1CJn0WyfQhGWu6mNrOJuuuG9DJsXxavSyU3YsYz3diOGa6WbKydu+s2S/CVZE2aEAodhQjW7dBeiz9iwU2ZRREtB18rm6F9RgQ5VxfQZ/uZZfbe8o5HyxAZ5mp9PxrgHFtgF1SmbhNgBACTe60CRSEaDtgTdby2aMErGQpKcruNZBjUhOugYI6JrKir2W6VzJp7Cd7a2epeQRuE/lqFAhWyPprXrgMAebm9Nitt6Yz0c2rrpDJQVlgXlVihLiuE3DTRpHNlS807vzBdelX11wdRtiiNacF8+HuH38/dhvr5y5JBx59JIbo7n5qSXUdtADgNAFsVfM9mGT0CK60AMh1Ye+5kBXoESupiW86A8+8WjfG7v4SRJeJ7sNOoUCa84RaPI/fe3dauJxv94Al6QVvfyesj3eyE93BbuS7OL6EuqXPk++OLdvCKFM7JEv26xIihz6YutHgevDnPwtDcwwW5Q1f/lciFH4Fgda16ajXXJRu/PTHcG++C6OZTQcMUMGrlWtPS4/c+LP0zCYCXRx3Ymqa0x4gVPkEYx7l1yh0h1Vmnemmb3wt3cZ4FDR+dLHUFbNOTMdjMxxy8mmpbsZs3nM4LTrkUL5JNxtSRFTdsWlTmsm4N3u/6YwD2fdon+DS1Ez95X3C+jPioGZB7kJo/vahHJiyLgW4wnUY0NTsZPHZ13LwU9CTZmAewv0ScFUwTPF3wascPDNfk/1qKu2bGiiD0SOw7Icw3oNOHeBNsYtggAK4D066BxYeG4ypoY4Qcy9hHjGFDtJgB/fjLgYQFR9hnKBt0UQSmAh3N7SRwkDwHuySCe5hwiKvNhaGgGhskuhCGBpH2BmNsxen2QAyd8FC2PzAnanxlBdwe2VE+3LBteH+B9PTsIcU7t4Ee9p3UWtvvwMJpgDzc8fmp9ItAOArTj0VZsE1fNsjBGNYxFgiIMd78zz0AfgDQCrDjI0UCkKZWAAXM8hkpxFxr6RWgI9F2iw2gnCrUcNKV0Z1LB+7jYAuwaY8KL34z/8qffq1r05Ps3G09nWvT7OXHcj3BVBOPr2wSGQ4lrORZ12gVhMLtGfWP05e/elBNvEExqAIpJu/9fV0y3cuQ5h9dXrZe96ZvvO3f5cev/teFmXM4TLn2Uhc+eKXpEduuSU98eD9af9VK2GWoX/J3DvGgO03XTqhJEH28btI/+WV16Q7f/jvNMkY7AWApMLawG/w2DPXEljmXNywZiJD1ZX2W3l8AGAT1Mv2J9annU9tQT9sYWppY5OU+du6EHBkBTvJtIq2E8wi4qD1GimAQvoHANME+WbgFewqbU3aX60sfMeyPOgrtkvGzoLNJ3hl7fU8E1mFDlqRDRJMLWyLEkC7ypYFqe/JnzFO8DaRz9ZU3rKQ26fsiqwhnv3f1cwNgjX97EK40aNrXSX6VHW47hWnTkAtAYG9jws8+aeqAbAAm9Yen0cE9H7PGYxBwNk2K0Nzq1jrKOYwnqnLmfambmeKdmuLd8q8om+Uy+xtqAtNLEW+c+bWQSefkr73uc/AMLwHMON8tJoGALIOSe1z90tbNm1Mv/j6V9PRLzs/3fv9q9g4Gk9z5y8EqAKAg/3VI/ACyCG7yTWGrnCCE0ZOFDDJk8wyWT6CZuoy1QCK1RDcoR/Zk87tBELCo+ThW24C9J2B6/8c7Ib3pk+96iXpycceTif+wfkEt1kFuxwSAHU7hmeF4ErY/zzL+vb9t/LtqSt870+vjzKMkOctzO93XHcN2nuHppd/8G/TlR/+q/TkXXfSTkSEZGwY4pojzz0vPXTzrUR4/1VaxhpnLnq9fd2OC7YD9QZDiqKH3IHriTuuujLd9+MfBsusj82sGYsWsN5g7GCeWPmCFyEq/9II7NIPaaGhfb9U18xGNBl07NgeGlnTYcQ2tc+LOqupqwomnAL7unNm7STIV43LH+Mp76W+WbGLaF6nupIO6ALZWs/5zIbKgakagHV12fp7B1m7DfOugO08yz6TX1PN2Gyf6KUNw82Q/mu0QtdRSrm4ThNMpQtR7/lT982/2opqi19xxRXp7W9/+xSA9R9Ua24VxwLFRcp/lPwIng8wIytJF0PTbwN4/Udl+F091qvA7uOP477WnxYvXvw73clkzMiactlYCXhSrD0kkNPHDpP6VXW4/RWLbTvY68YlYCUII3NKfSVBIicLmVYCCzKzZF5V0I+8LgfGzNvtEAdRXRQFyMYx7gTMps9fkBYzcN5+5RVoODwaIWH7YIYJctSjlYAZCODFZMNAMQpoUYuRUg1TagGgzZKjjky//O4VCBJ+KJ41BLPhgGOPSwtXr2LXozmtY8C9nYH5u5dcEhPHIIvexmnT06Enn4J48zLAFsT7eAfZPU4sgzxXBF+m1QiTEGYwi+uMVZb3PweVbnaMxzSsMO5u/Lcvxw6Jrm5l5LMEtoK7PNvWbwhh9mFAoqfvvj8NbNoONaw9dXZtR5B+Y1qKITkLQOqhm3+Rlh13bPr1VVfjTnBAal4wPwCjjSDvj7JQX4DA6fwDl4fLo4BWVXVtWnbCCWn+kYenQ48/NSIvPrPu0fT9f/oHJpEywKcTU/v0+dDp0clB50c3zD4YSTLkbCPZVgfz/q1LF6WOp55Kd133A16NlqIdbbdVZ52dlhx3fLr1+1em71/y4fTCN74Zlsh52PrlRBy7EZbZQJKBNoHhISApgJVDGDKoulkADLNb2cjioRpmVn7O+rO983N5pEuPW6fhUsg4o9uqRmPPAAAmx0N0k3+NQihAal8SvMpcFt31UASaSUX3EX623xUDY+Y/lZ57DQgSwJCeFFenKQArAKn4Tow+KFiUJ8EJbInQw8pdvRoBG3LXQM8ZDa+GY7of+rsgRXEeAlxGpuPT0gaN55p/H3nPXDifKDtHpIdv/Enasf4R3PTaAJxl/mYgU2ePegYA0IwDAln2H5PudqGZx+8P//LnLBBviuM8Jp3w8vPTQSsPpp9mRrQuth7no+b+LAtZZr6mbonWheCLjLDInRPaZb6L5aiH+eW/gnzBRJMJprYX4+3t114F2E3+lE9wasnRq2OBuPGBhybLvOmu24nMtS7VAwZ1DpRGJKIZCxamtW9+W7rikg+mYy58c/rJP38iTV92UDr8vOWxk7l9w/p023XXpqVHroa9dSgLzxVpJoKruj4uPPKYtOCoY9Pio9ekRQcvxW1oIH369a8N0H3lS1+Zmgh84azfsWlzLHZH0BcTdFT03fcwyuH85QfHAvtnX7gUwBidQ9uGc0e++Ly0/Pg1ad1jm9J3/oTIpxe8Np3+houC+n/fT38adX74C05PDexQm+xL1qHRBHXxM1mHtq3/CmyarEtBKRl8PCZ+D9YeP4vjyeQT5GRaiP5jOQMYpdyuBzxXg2GqvojPKVoj0CWYh8hHQKzQPfhtKj2fGlBM3E2diVEW/86lgAnOKabMfQv3sPp2Dk2amwBVsAP7AbsUcy8APKFtBTuJlSfHZTBlfcR8gmHFnKtLWKbVVOg/5KNekmBUWQPPcKHGJkmItxMZz0FEl0IZOIedcUb61Q+uTQ/fcU/a/8QzmFsSWnHnRvTdTdhwf4eYsIuhLmy6NlgNx5y9Fkb1knTShW9IV6AN+bX3vZsFM4tbAi7UMFeefOHrQ+syB+hKdHNDBN1yZ4wzOmRWDb5CMIdkpwmQZHVk39YF3rn1pvQYi1PHrn50ZVcB/lSwAfQkAPSIOrPMrU/ed3966oH7AIqX4hZZjWbmY4hbz0nn/dX/Sv/65jfw7b02XfNP/4w7zoJgYzqn79q8CebpZWk/wLulxx9DZOd2mJfNISWwmHncQC3L+cYVn9c2//RrXsWibCid8JrXp0oYUiYBJ+uximeWlPDRgTTzNwD40bg7r2KROpF+hjyDwGF8X3xgq2CuHXbmubBlH0ufOP9PCEbzB+mcd/4R88ZoevDW+9J2wPATLzg2VeJOWVKp0D79gc3P0vqMuZaBm7C4G4k4SL1mSaAQRin2pm6kgqQCniABdC2YUdiMgl4hxk5fi+iV9Ef7lWBmiZu3st+w+cr2cG8ld/rWBJtgppwNxiAZv8dcgM1ZzKLLTkz9/WxqQNtajVhd0zq3d7HBSoCo6Zk7bJ6PUQNNjQASxUlAZ5A/aqqVM5eqC1mH+HqeFGQfdWeF722UyUAh7wYizRWnbnWMAFoEXfphR2VsGoA0jjuX6IJWC9DUB6DhZytwkqd5yw9LbW0z0z0//EFayyaTGrets6en0972jvT197+XKIIfTv/+mX9K3T24GDJJHY3XRyubQz1dAMSwh3RR6wU8a25DJxLmjyyzGBqcvEi+n+BbE0CLwJoaVs3UTTkbSluffjL96FMfjU3cXbs60uozzoLBXs14cHesiWRtbiJowkMA1gsOP5LxhDGMCH6tuDO+kMiEl/3Fn6Y1zM13XHNl1N2BJ57KdzpKpPSt6VeA8u2L90+HMjbWQQyYNhvAGWbaIiKQHnjccTCt1qR2xgbBwUvf+sb4vo975aupX6LMVyP3sWNLrJkaEd933lZwX0LDYjR2Fx6+km9yON38jW+w4Q5zjncsZaxbyRrjyLNfHAzQL5//sgiQdcFHPxqstUduuinkFhwvKmvw7oJGbx1WI7+gfJHUzxImdNl5ttMozKraJsoC4Ll3kiXV2znAeSJJFlh42pS6BNqHjDypFlrvrsGwE0phB9bBlsvBqyrkZww00NVB8CiYWmUBZOGOzBgoW7UHl8PQXqMNZQJuY43X2LJnv927TM/2dzGZ33mvrmf7Uvvw+t0WxT7M9D/K6vcNuMrfUddIKX63Aja8g2hXr3vd636HGWYOmtBuARaMCCfDyCQoIEAlqNAAgJBrCXkuA6/QTimAV7UYDeoNKdqugWQEOVk2ggoyY/zYGhRQ5Zz3CnqFGyAAkYyraoxV9gXQMcGo5ZrWaTPTgSecSJSNG9ND1OGSk9eklnkyw2TbQOWFcbEYoKqMAWLxiiPY4ccQoVzqR5321rek2tZm3GHuYKCE5nvwwemIl5ydFqEhU8UAe8a7/jg1z5ud1t96G7sXgFezZuIScF5adcaLUhnsokEMJkERGTxGyrM+ZPxYbncRSjGGPZ8nlz6duLiBXLFQZaBiMG1DD6uFhfX6m29jQKwjGtjT6YvvvDgiJ84+7BAWh6UsuG9Kn37gNWntH78do5QoXVu3phVMIuXsKPTBgNoIs2mAiW/xicelY857BQykhvSjL34urYeRtfolL0vHYAzW4hYpLXkBO6P9iKKqeSVw+PQjD6cr/vYj6alHHkonvf71aZQdie998pOhRXEfzLT66dPYneAPwA7EhACpjnrF+Rh9gD47d8V+qmDfMH75g4Cw3//nT6Xma69Mm+66J3U8vg4wiB1l2vTB225JD9xyM5PSqjT7sOVMLjUBZAr8mawb3QYVipQZJQOsGAQNgBQGXQPtV62xWUgavNaphnwj95VQ5xmDC0FE2kWQ0D6Xg1e6EfreAmcmXinayzYRuKqmLxoRbirtixpAE4lsFOmvI5S0O2SCEIIXtQAD/DqZIjIhwEFLo2GYAW/6AR1BeYojx3kvTOwwggyLraB7MXil/akbnutW1iKAV5mLXg8uiVEQFiPHvvKV6YFf/Awh0uvSTIxK9WBk6XQiwl5e15hWnnNuGujYibbVvBiLZOW0LlpKhJ+z+LIB3jA27HMDBZBs6cqVAL+7N27msKt6xBlnp1mLl6ChUUP5MyDHyHi6TDbIJhO9KiTzynohdQLQ5ft4aFcvZSY1AML0Et5wBPdco4MuOOqE9MgNP4IkgGGL6POlF78l3X/TjQDqB6VWxr37f3p9+iSBIU74o4sBmtem7Q/dk5affDKaHM0BIm1AAL4PI3YhQPmZb3oTdPd63ABuIlDET9KSE09Px190IW3QFADbmy79ShqRWYrRXs2fse6O9KU/e09ad89dCDCfzTdcma6D3t+5ZRMg3zXxLeniVY+BiK0Wvx//igvQ6Jibbvv+D2IjQS2IOtwEfLsffeZf0l3X/yQ2HnYQ7tsdThcpu9g1vOXyy9J0Nq1krDhWRERKdMPUQbPvZGZ7BmoJPmHfB2iJ7cx3T6RKQUPrkufYb9y517BUVy0MZfpaLeCn1wgg5lpluhnarwZpL8tSyX158r7BUfsUABp9xnun0r6oAcFAKpfxWmZMfMD8HZHjdCdEILvYnVCh8wBydK1jnoiEbRCAA21T1mDUuN3fWIAZbMKEXlFoKBXmHPIZA5AoAawoQyAdhIE8CgAHIIzPEdhQD8uPcsUJq9P8RYtgOF+ZTnndG1ggNsIgPDG96TOfTjd8+Stp56YtjBkl6VAA21NeTVh5AOFSgIsz3/HO0Ka565qrImS94uRrXvXqdCRjTaJcgi8lzD3hNihwAuvHBWKAaQ6GJmyKcZk/zmkhVL67840iJl1bX5eOPOvMdO9PbiD68NOpZc6c9L/f9MZ0OyyGhQcclOYecjDl/nb6xEtfkk5/4x+mE175svTwL25C+P2QYGMIcj36KyKN7ehIh5/54nTWO/80IoRtvPv2dBObfAedfFJ60R9fzLeFDcjm41suvTTVtc2BJYLQAICUzPAvXvy2dD/sr5WnrEXvZm667G/+OsbS26++Ktq3CVsC6hjvTFvR3Ee//FUsmI9It119TYDypbA1qgGr/a5+/IWvsFHwq7Rz4+a0ft26dCSanAKcKKemG7/xdXTt6tNR554DaQ4mFXP6BIFZgnFH/WXg5jOAWYBXzOd5EihkFcn1tKvglewy0iQYiB1Ril0myBluhFaxdirXltCOwdQbEuBCcwj7cncCGCNvN8DC7ZB+VFEzncXxFp4FCKoNVCvTbio9nxpwPJb9NLwe7Vg+i0bYd8VjsGwZwaeWmTAYd38eAXzojuf91YBKutNlwEFWmgy8UsYkY9Popuj54iS7Sbaic1RfL2sBXIqdU3QdG2ejo6oGrTQ6tZvP4wUgKb9fkKNu+qx0wqsvSFd/+h8IvPDjdCKBFbx29XkAvrjP3f+TH6Zu3HfnIcdzCLbGSa99HcweoqvzbVVj8+vmpoub2l9qJrkByKDA++Ouz/MDsCKC3RAaUgMAMwJZw9hC/YAk1YAtJ73+D9M9112XNgMmt6K19cW3/RH6WNfiibI0LTnyqGBYfvbCVwBUXZheSHCqe6//MWPI/DRj4QLWDQBc6FTqMrx8zSnp3Pe9Dzt7PCKF3nHVVUQGPDmd+973Ux7lDUbSGz/3JYDxNsY+xlU2vDu2bk/ffP/70kOsAQ459rjUvv/+6Wvvfg/5ZoLwFbxDI8HajAhZCwAka/NQIhseevrp6ZffBrxiTVAO+F2B3IdeHzd86VIAt/uJCr8urWfd4nUmGag/+9IXsDUZG857OQAimoW68MGCkr01ys6abdZIPQry9QE8VdZloFNkUPSXbda9s492pS9wfZ76AA/dMJA1ZR5dXFOJjaYx24gWln3AZ2rn1LDm7PJn+oauip20oe3pWN3T3RsuoZIG7AeCn4O9RHZ2TCru1PmDn+O/euno5vr7ip88x2qZvO2/DcCafOLv2Q9O/rmwvSysbEHzu/mS8REgkinglLuFGRVQsW1BpYgAWATYCOQo2N5PJAkjCcqCkUEzoAHBNy8TS9c7Xbd0LzTJgNHlS0BDt0HdBWXIyAQSXJC147XYP6kR49Xfl+CeevDJp6ZfYWg58J5+0RuijOZXP2t6Ov7NF6aTWME2Yeyo5yTTR+HwGbjfnP2X78f4wQVQo4VdewddgQwBqVkMtOf+xfsBZvqYZIZiIGxigaboui6U1kdEHMSAcjopZ4E8PMFOCPlXAoBVEza3OPVQT1JHFSUfmTaDXc5jU9uKZbAUTkg//6fP4U9dFwPzzo1PptWvPj+dcNHr04zps9Ot37ws3fDVLyNG2JHa6+en6ehczTtiBbtADM5oyK2HrtvEzsfspcsAqtADK9Mwc58oA9AqKEfscGPTjyOY3VBOW1D3AkQangNogB1y6ikY5X+YHsdt8ldXfAfBxG2ptrkxrXnta9N+Sw+MelZ3QL92mXI7H3o83fP97+NKOR1G1dEpQQvexQQcE8sDD2B7l0TI2wWHH5Z6MD5v/c6300h3DwDhOQCB7Twf4cMCeGUdWTfhOsokZT8q1rbK+lg3fSgX9Le2nb4BvXT9Y6ezCWCrlPBoXYOAaoCH3i8YqitrBl4NBtAabL8io1aXVQMKKOLfwOJJN8g9rJ940tRfz60G6H98U1Lf1ZcaRQxb7at6Iwlma8jI1khxCrzrYihesBPAyZDKjeoUZU0dzCuBLw03XcEEGbhkMrkgMiqhCJCRZXJwS2DMj1PwQubNERg7q9a+MN3yrW+mAzAUlx9/LH0PRg6Mrnn7zUzu5DEIB1A7Mk7QEbQOzn7vezGYiVbI03yk++pmCxEoFm85gOUafPnaM9LBp68F6sLYVoeKG8zbKHbBCioAKxYcD91gWmkY81lOvk8n7y8g24JouXaqEXpkO1RNn5dOfMPr0s/+qTWinO18ZkvoWKw8+7x0xh+/J82ePxsm6uXpqk/+fSwcayrHQpBdl97q5umIxC5Ij/7ipxj+00OguRb3AsuuFo/vNDAwyuYBi0h2gH2XsiYEjQF0/ExrQKQ6CKe9iw2XecsOTuf82Z/j5rwVoepvI7a+DbeM5nQY4PlSxjN1rRSYHSUTBV03ProhIqE2NjenFdTN/EMOgjFyS9oMeL7loYdiYbE/u62KyFZgqN58xVfZjdyYXv4XH0gz5u8Ho600tKoEA4sBTdl4uioKairKLghlfTfQb6w3k+BVtD/vIXPP4zIAdenEdoz3lMHFujf0wow8aOQox5Z6WFh5/3O+6QJUpBvR5tyXn4inTP31fGogWFHMRSUljL15vdJ31J4KoXXmqjwpdC6QU1LFeK+rnY3LtWPdW/kXW6FxNodo2ELKmDjorJBvJvKdmayyaBRCdw4va5zJeRk3uBjyLRr1UvaM4uQRtbzUzqUAAEAASURBVI4291zT7HnpRX/63vT5d7yNhdLn0tl/+k6+n7q04uTjAHhOTwM7t7DQwn0MFx9ZIqWU0WSfPu0iQKNzT0bvE13P5tZYjJUgIj6u7STAUQfAoQA5v0+MoMeku5rP51z0X+rCzhtlxdbKkwvERUetSgfXHp3Oes+7WQh+Flf9BwG4e1goX59Wn3VOeun7/hw9mLlp+bGr0Zr6BAzN9YxnuFjhSrTy7HPQlC2Fnbog3fvzmxkb2tMBJ5zEQh+NMNhO42wgjjC4jrFBGZFI0RAtqWhM0+bPp1y7yzEKqNW5+Yk0Z/6C9PK/viQWmr/GDahnx/YA74576dmwX1eRZ8ayGnNsYBOpi0Xxj/7lUzCpmtPBJxwLY2NlWnHMsTBH16E3tp7XLEnLDj4oHbzmiFReP5Px7Zr0xMMPp5dc/Gbciw+nzdEOQ6Mq2ha7LfpHL6wOAKRikCm0sbAzacnoU1RmgIe5plqAWzzLfiUAxmqXR/M7toIMv8i3byv5ol8W7qd5C5Cj4BVsfN8nP1de084xwIXOx6MdbeOp9PxrQFc6mVS65+V6ROYqCNXfPYjLKeNCPvhzPLSGuN5+JPg1gA5RLWwYgQyT92nXCjjIcJJ5JXurqGsHACY4WcWmdV8P4BXnZfYLagl0NMCaGQRYythXnBf8Ksw/Rr3r5x6F3E98/RvTTZd/K/34U/+Qjjr7LNzTsY2wfda++U1pLaCy6wxmMkBhLA3HK8YdmUIyvHxfOjtgjs8D5I13FDBCvgMZEsswAtAkeOXzA6BB62vpcbCnR1el8//XJYBRi2EzfZOxpzb9GvBq5doXoGd5CYEmZqZ5h6xK//65f8Sr4sls/QIItOK0tXGt7MqHb/kFgDbeG8efEPUgINRDucYgHgxiF4zR1wW1Rjg+a/H8GFetX1lTXdu60A3ckWYyBp1/yUcp2zDugd/jvTp4v5Z0NGBT+0JE4JGJcJOTLzrTrMLb5IeODZTloNPOTCtOOTEdesrpEQRm6xNPMg+Xpf0PPQztrrOCEf4AG+6P3nM3Xh9vSwcctRLmFQAUUifaIkY3NNJ6A21HtRKkQhYVEQXRpNo7GRigawdAFbarkQTztrR/aYM20CZxzXYYeWzM2laCXLEeATCU9RRui4BdlRgLMrG6OrqxKXVrpT1lcDEe7MH6olCu16plglnAfZD0eluyZEl617veNenBtg+y/b3KgrUCM9FUes41sHHjxvShD30oXYubyvvf//70tre9LbSNnnOG/4U39qObcOuj1wMgdaZj9l+bprETJYAgQ0pwKGe1WIQcvJJV1QgoVQczS0BKJpZdRuBKNy59ubthU4k8GzUudw0TJNFFTwNTVFudJF3YBK8UdJehM/k88ntm0xNpI77cM2bNTfMAXASqzKN3AGCMwV7ReO/PWV26/jnwmIdgii6NgmS6/wlo5Owf3QCdi9x1F/xgmA7m1QgGru6SMsc0oAX0zLMX94DOjZuCWWaEj4iEwf2CfLJ/GonUUUMkJd9bMfIh3rEZ43UM33NBJiMIdfd2pJqZrWk6UQurECbtAwDc8Oh9TIKzUltLO+KJmxhFq/m/AeH5/rQTGm4Fk/LM2fsBoIHi81/HU1tSz9Ps6Cxdhk4Gu8vUQYf0eAa1zE0uM+QFDx+579eppaUtzZg9PyIH7nrm6dSL7g3+lmnOvCUwWXDpoK42PvQg9bw+LTjkMIA4GHPsrDS3tkMbnkW46ESghSdTGYvISgxJqb71LS1pALaXbdv12FMYtUOpadE8Ioiim0O956kP47iTfiQY2Yz+SfE5NbE6+6gP2kgNq7xdYrLAcLSNW9hVt926CIFuGyjALoCVg1e2Z4jF037FmlqyugQy71p/Q3p86/2prZ5dsoMw6HHRMA/LM5WeWw0o3H7tDbioEG3nkSegra+Yl2YRWa8RgCB3CTTnYRCBbgAbgQkBHl3EBLSmAWYJTJiwP1IPxwUddAXz2lzQ3fPOQEaSE8Qy1eKjBp4R18rU4vZgPSmi7re89clNaNY8hA4DgG/bLL5BGDWcawKRym1f7M7UD7DhusNNsXoWedhWjGHowXFcXSQ2avdIiofzofBtZy5obNYGSGVExUoybkJQPM9fRlEXO8ZPYHBNb23CzW4ZxjORhshbUKYJRKs4/10YYBAo0zR2KEfRlugOHQVcbp/ZnNqW7p+mEcY5wD1o8hsfeSK1M340tjSl7Rik1U1EIMVFaqSnk13AXRFppx1jUt0Jkzuk9952T1q0bFGau3g/Fu5lIY5v27hojXen4izzugfXRd0u5FoXj9ufeILIPpQNN6u5C2fB/nSMBIR86qm0+bFHU8vi5Twb4dRn1hPhqBG3iLmQSCrT008TLAHx5nraVNaKTNk6dHR4LVihaAn1bE+LDz+cAB1NjFsCoNRfEaApU8o+wXAWgKgg1AjlLa43gUM2hB26ot5luAlycStjYAaOWt8WeIyDtYCiZEe+zEXUv+2dJ/tXrwww+uUXv/vrtObw+Wn5ojbqp+ii/OKpf59VDYwyDz7yvZejhXZEmr/mEr459F66ASEEcAR2csCGOXesayNAAQvQIpaVgFZEh6ufEWBD/nCBiBDbpgMICOUuXIqQj/fCZmLgKG2ATQOrSeF3aDf0BdrTP8w7Jbjz5W5jujYKbhgo4ZEbro/d/YVHIkTMBl0Zm1rjuNbGope+NMHYF8BXfAn+DmOM54UYezDGsGniGKAb15TiuiiIFy6QPZspK+BHWU16jAjEirHPXzyPgQR2EELkJdhNeySA9WGAOBB6vmd0QYHZjdCHs3zaurkTRsfhAUbJ8hrjj5tjlY0ziHQ8N217YmOEc69Kvcz3BL0BZK9Q/Hj2HLb7cImjjP2A2o/e/DMiAB6EWyTuenxwZXuBhBhotNfmtHOb7v8lobOldta2DesA9Z6GaVCXpi1YFgs4AcWunR3pyXVb0sIVh8Y3/xRsiirY5NOZHyoap6WBHdgfsBF06xQ4qirtCw0ywaEtjz2SnnnobmQTTgUIRC5AjSrm/2hb7FBF2wMQNZpgXv+89zjsKm24YEhpB8LsK6O/sKqNetf9z3ZQvD90rxz4sSlss3i/rk0BZpUW5Ws7yMoaxy4272JB96EuIij+5G1p+gF/kLav+17a/0VfCdslWFo8fyo9txq456aH048vvyWtOvmgdPJLVkcmgkhdCKa3zGgAcMnmNE9kIA4MOL7/eli/Q0wGjtc1aBSZQvOKfmoEOO93npBVqbtensxb0W/1jmRENQBU6ArmvTK+ps1oCt0onzsEiCWQJAhmcp3T1aHQt+5r2OUYFR1PPAaT6Wm+y6NgS+E10FqXRb7jeucg3QNzly9ZPgJwRj0U+BCQycCzUtiSv6S8Jal1/gE8UxYqAUoE1wCvBJd2Gi0YF8LSEm0SxeiJwA24svmxDbGBtWvzY0QMX8X3iqs8AFQ1ZRwAMHLbu655BtetC4+Q6fNmAQx2pF6+2QHm2wUH7w/wUxlueaDbREm/nU2y9jQf7xWBrEbKkoOD1n/nNtznGtDLxTbv3rYdl+plzNkTadPDj1I2tAVbsfcb28LFTz2vLes3pq0bHuE5B+PiOS09cBNjIO5/C9n0UsR+oLcvbWJDTFdSwSUjOdY18/1TF888/jjs8IfwTjmOoQNxdQxII81372SMpt0V3rdtu6iHwd5RwE4jVxaMzKgl24B1Ge6p2nzTGO/ciDANAHSqV6XbqEDhrmcAqmT4u56iXGqPGYXQIGOCjj2AoU4IdXrM6HoKiKU2lv1GELJZYKyQ7EcP/3pD2rRhW9ofO/nBO9anl7759Pz08/rXPihBRlDNOppKe9bAXib8nienfvvPa8BojAcdRChkRCwXLVo0OXj953f+D10RHwHDHB9GH5F+YiBBH6AYdMjBK5lXDbjoCF4J9MhqEnwyCpx/zEOxdRkzsm5y8ErGjX88L2BRxYBZCeDRjwaSDCaBjOLnKcxe1daUls84PtXpYsigIpDRx26he+lNkTcGIv8JZlgW17rVGK45eDWKhkF5AbzSFdA84jqMM4/L/sJECcBExk8VBm12HjCOdxkCAFNDqxb3vVZ0dmT9mIdJgKaXumrBINb9zXLo9jZIVEXBl2rerWRaxtYqZyIpHahnYaf4fFWImqsLNmvx0gD4zLdu9owAbAQBy6GnlrXWgjWxAwMYph885mSaw25L5eIDGFizAViBc95qD/DKduoCWJuLdlZ9uIQCGjRVpgpYXJVcr/h8Le6iGoIyUJoXzU2tSxYwgDNRV7SmWQBm7hBbp939Xakdo7iaxUcGE8BYYGdUemwTYrqth7WlXphYldSlrLU8qWsVkQMxJJtw1ShuV5lsuhUKJuWMsfw+AcE+3Aamkbfnvc6omAJUPt/rc7dBgVPBUuszTwJjQ7yHbafx2c0E28YCwTzH2WZpFLzabcfkt039+yxqwJ3QHgQwnThHRhHLBjTIQSSz0UgQQFALS1ArdK8ErwAqcvDK6xTorgRgCm2iyt3C3J7zO5ZlJeDk9CzzSvBKMW+v96BaSLngN59Hqm2fnQ5GHHgchpXXVFDOxiLwimFnErwymp55Yp9wvUA0ABrvIThVnHQRdBdS5lQtTCHspgDeutT74sKGIvDKMvSzWNTF8NATjg5wy7HCPHoASVq4thi8EqgZGqogshf14kvWAt6X1sGkBLxpnxFucZZPV7qegbK04MCl3J8ZKzMWLALYVRie81XtuAu1x/NolCi+4OA4kdBWvfBkxhABNlyDKYcAUYBXgD5gR7DnBO4m0LtYwjiWgU5wkXAHWBbujtZvsKMKlSLjo4p67ukrSW11bBTMOSzydpexo4dFAzuvs2a17AaJeK7gpcyMpSsO5NoDWIiWpe3dLMy5p5iNBz4AqM24TLkERAdwoeB/3lFGbFYArxG8cgi23WRf+Q5qVzXQnr5+zs5z4VBFv9JWFbzyWuszT97ju9dwTbgO5iem/t03NVCSfad5ZuO9LKRonz3AK770sZ4tfM+ACsXglewX5tZiLSzzCTAILSu//2LwSq2i3eCVwJEaRyw2mItdcEB/iJ/DbSyADllZglfqctHjcaE7kG+2hHlxoq8TEGRaMBhdzE3IIGNTJIAMH0zKGEHPBPiVuTtyHPsh3B21b9C1FHCJcskIq4bhzdzvHKYmHRmmCcCT0jrBub3AK+ZvNZ3KyE+2kdpLFcxrzUZIrJudGuYxFzI/B1iGDVIC4Dxj6XKeh0sMFdxOxM+xzid5v4Y0rQ3wJp5KmXmXcTawzK9mtAstqhejC4b0Ac8JnbAihpsjcICNzLszliznN6wM8tbumLnfrDQxG0YMwJrl8zrTtAVodc5fzrdJfXPtwsOOAAgEiOL9Jvq7U03b7FQ7gzrRkhGQqpL1lNX/jDmtlPss8odZ0bM13C4zYNJyUM/M26X1mdi6z4r6x1bAmCQftczqg8EXACPXej5jcHEP3TCE3e189IVMj4xS9AI0+k57g1fYW8Hs4pwgmmBYJIC0El0HsetG6VeyZdQgG4PBFa6ERXZIdsPU379tDTTiJqfEQ787HSTt3a4drDOmIcJdBF7JkBlQkJw+XYtNra0rsFwDuGASNNA2rW8iAjgC7OpftQBGFYNXkQegUDWMSsGr+gJ4JajUvas/tc1qzCLa0deHh4YDBMrBK59h5MBKJiRduNTcUvC94dBD0pyRg9LOZ7pgA1VPglcR1U4GGBNPaLHyLIGoQTauBIAFQQRwdDUzOTb0dQ/zzrrEs+lVYF55bweMJ/W7igXqjfLX38f3v2BBuBe27zcDdtQw9diP0Ltu/VWALXNiruzc0RXRzGsB/SrZDKyqmYXUQnOaQf3qQikAJKBXxfe05OgT4h0H0Q5tANzJwasRmGG7tum+B6ONdyGcOCxtNiP4Dp3jFwBIVVL2IQDyEeq+Gq2oTt5x2pxZaRab3I4NnbhnLsDduo42ytlKo+N40syYm9rmMK7Ed8q3Sgp5AFyaj37xwtDR0va0P2TAJLYJzCuBR9tOV70m3E/3Bq+oOtz/sP+x45oAFifBK1hkQ3jgNE1roB1HAQcBr7A18r5lm6iVZb8UvBKksjz1jYjHU1e6EMrIGqS+Bb+MWpmnAFHtl2hs6arZDeBZW+ij+TXP59/BwcGIRHj44WxkwOSfSnvWQJGZt+eJqd9+uxpoYtf54osvTv/2b/+WzkAILyb13+7W//arNEz8Y+pnoT/KClTXwGJWS4BX7EqF2yDAVT2GhxHg1IsyIp8AhaCRYFAf4JUMIPWV8jwEuASfzMeJX+ZVFaCPDCnZNrrlCdzkyWt159MdTcZNAE8YJRkwNh7MqzxvAYt+yhHuiORbA6jhMaMICmJYTgGzMkAWyyFoo6BgAEX8K1AzhEEiu8d3F2DzXQwhPwh45eCtW6RgWw5eqeHVDZDWxDuaj4ZpD7u9g2MDwVqrZjfZY6aIwEf4WcEXrw1BWA10/pNtJSCjy5tJfadBIodZL7VS3PlvkHcZx0hV/8t6y8ErwR5BN8X1c1ZRgGjsXkbUEhhHuTufoJHMMO+vod7zsgmiOTkK1AkoCroFeEVdC46FlpnglYsA+ohMOd1FG+gfApMK/PuWlnsyT8Arn6XlKEMubyffz7qNqILU+94uhQFeyeyDGVZFPQ0gtiubKhd9tyw+RxA0jhd+N1+T7yhwZiSaIcBM2Vu2+xAAmG0su0+x+qn0/GrAoaIPg0GQRD2qWkAqPulIHuuCsVTORQp+h/EAqNPINYJceRKIkrZtUATBiWL2ltf0AijJirJP5eCVgEMfecnIysCrbJrCToBlwKKPE4JXJsGNBsArQZo89RV0tGRvydrJN+l0PVMva+8yyEwKphd9Vlc2/9ClAY4yVlijbLJC/j5PV0eKTD7sjILUOVb4Dup+NQIOmX+eZJwJmjXCABMk4hGAa45LgnS69pE3P0d98jzrOI+8Zx6CNFXlRtXDvY7rDE3v92myfnb10gZ09TrKoUGoW56gngZgXYF15nVdgEv+2+SxQmX5+061w8iyWJfKvHupf2QeuD57H+c13e46C254TYBakY9l4Y8gne0jg6qcDB27dgF0qSPY1CCwZq5Ze8loo9Y4Dk8E5NJ6CABNVlV2GWMCi8iol8x10OMD7HirPxZ1R33YFh7XXdX7ZWfp8piDf2ZlfQuyapzqmmhxp9K+rYFS5isZTlG5LPwnmGMzEIIGLKRwEeTnYP8UdhZC62hgB0ypDPTJrw2GFcCOqbRmN/NKACYiyNGmu1lPzGtstNkRSvgQon0JZ6/bmILdHi9l7vWHADsAWEpgBrHyAyQCtKAssrAEudSzCte/HOAByBgHdFMEPhOOJzMGuigDc1BWBhYVdLI4xvyuWHg8NP7Gxuji/gC1du/YcyruCa0sQBR8FrP8yXNc5hqi5gJs4bYmYOcci10Q4uLlujdZDgGfzfyMQDSMLD+WzLZjvMVeKGXzSnfGAHqwbXSpKyXyoayo4hRi8+SXuUAKDJM3KUTzsQFKrEtsH0FJHsp15CEIyfedlYPnySDj3dWxKkHXLwOkqKeuzRnrCXY/F4cuFU9ibGKxh8uo2mQhvs5ZwSueGnVqm0SivTOgkLpmAS6A5e+KuOei7RP0kxI1zrAzIkolefhzBp7yTO0v6rAMMXjLMJk4NsGml+O8zLBJdh/1NNb5FK/DAhg5hGHcGbWTol1sE9pqKj33GqgFTDJpEwhAdRBx0Ah0xYLpShYYTc85UaHtigAusOsAMUxGgXPu0p2sG5BpmHFfRoyC23mSiWMeFUzSMrAaAFGMJieopTbSNNhN2hy6zOlNobh7de1um1GgxN7iGkaXuYhWyM8GBpEdJStJwMfkHNMNu8q+5M8yerxZkK0G9pG6S2p3VRaVzyiGEaCI+wcA10K0nnt2PkN94J0heytPgnzdiNs73zYCnmjzj2CzCLpUYZc1AJCZfHYXIJK2mJEOBa9MMrv8qQJbo6uzAF7h6tbDceflIfTzzCMH/3xeBwwlA6A0tgI88zkGqMP4pLeOPGcBKTWvBgGG6nhWJ0Ln6jXZjo4N3bz7KKCb752DV2qXDeDGp3B/Dn5HASmvulOy60Kon0LpatoF82qUdhQAE6zSlVCws7qe9Qv9Yo9kG/BuY9hmDdN2A2YCf8Gso62UFtil26B2LPaAGlfmKzvLoGKy82TsRWRB2lCdqxqYpb6T+Qzq6sk1mfunml0Zu85y1MCwc703DEBm/eyL5Bpqw4YN6cILL0x6ek2l36yBfVPTv5nv/zdHnPAdAE355P+7+vICO7rNjQJaDDOB12Hk+HueArzCmBPsELgQ3NJ9TPetYEkBighoCcR4TAaTUfryPAQWBB3817oQJBHUCJAKwzZj4uw2AIJlFdoMFQFyOKEI1AhO6OIWTK1C+eJaQA8BsxqO1WBgyPwa4V2cLSy7ixTF273X650kBXIEfSyTAJNAhwBYgFcAYAJdvq8O6wJoOYvMOglAivpowHAS6LJ8vrdgThNhvuNYweAzny52dEXJZT15bTe0difpZgws2UO+mwBaDecF26wrBcoFA2Wn+W7VGGfWmfebBNAE/uqr92QgCQI5YQnW5KCWg7CgUaU0WOrHdzVZZvuobVkTACLl45xlMGqgulG2Y369bqMDgGsNMkUAtQTdWC5GuXOgzDbqxsClCMEK853yMvvMHNgyqmBePo/3wOqSzWZd17GbKrtKsEzml37lUngFEAWiBCsnAcVCfZiH72Nd2v51gFv1uIYIWAl6NcGSs82Ly+I9U+nZ1YC9z67dxe5VKUBhPe6oMnpM9jvBIOGG3DXP32VC5RH7vE4DdBgjx+t1j5PBleXgWQwrDE/BlnBBA1gRN/IemTxCWrr5ye4yeVw3sBEy04AQlNJVzyiGOWvH6wRwxscdkzNWTg4GCWKwqRbXc/tkwlaLMmgQC1zJvvK07wNTPICnHADzPcwHWwbGjyzB7H1kBgkQ6U5XzGIK5g9AUDOgjpEITRlrCEOYPATn8ry7AHWqqN/i+rN+rAfLqHFXDDJZFsErdSeaAOlsKxlcAk++i+1SqDrcCRFApf4ElwqM+iiLAJOi9rKgiutE0M18WgAGLXdeXZ08b5jMfZ88bzOyTsQMdbEsdBH6TeGZgFf5sbzM1lpLI39TTp/j75a3MJRGvxAsE1S0TXyWQKgFsT0DcORXfxY0s150l7QdBADzfCyb92G38o4AbvmLcFym3VTaNzWgy6Ag7gSbOuNoNwXTBZAjTwF+4BpfBluJ1U0czt3ySgz4EsLvhcZhnt4NlgBe5ZtdzG3B4BLkgEkTLnvMl5n2EZ2A+TUYQGzQlMIaH++DccTXk7kC0oHId4K5sQRXjMTcJeghaDEOkBVlYvMjA69yFo4AEewh59EAurLyZeAVdgRRFXPwJYAynhYubfTm7AX5DhVtd6NIgGXyK8pOC7ZMKEzPBpjsCAdJ8476yEEwjoWuF3WXsY8yTS5zkL1knhkgmNWpecR7Y+eN844hKq+tMwjoI0iY12VWhAykgq0VrKy83JwL0GcIRhWRztSmGsdGk+VWChBVLKpu/Qa4xvMEyEqod8XSTZkLqUwyXUgBD9mgQqGbPLDberYVwKvs2nhHylGKRlasls2Ackdda7P5XBjmE2yY+sxg08V5NK2wf6IdkVewTwV4FYLr9Ed+n0BTM4uAWWiXyNtyc/1kvWbgou+tbpt5lIebJbbvznsZe6kHbLLsXcxgKj3XGhB8qESvapxBuQOwpraRQCkANnmS+SLzSbBB3SjP6c4lC8sNZn925G7gvh5AEnWNmvBgKAY0nPt7Aa+MNGdU4cxtkM0SwKdd29mMhr1TCQDTy/0aFgFmFJVBlo6i8Wo06UaXRyu0bF0CILlIfGHIEiDyfZx3ZIQ5mYZoPPeH+xc6TsUAncBW4VZYVGpe2YeJGAowVoVwucBcngRtLHMJk2XuHimzSyCnEoFyWUVh5lMpCo6PMNcLplQVwLhBogLKGhIQEiSqQRBdQMl6G8NgcE2ge6bsJpN15/MqsE0accd0I2yEyX0YEE+Axm9ZlpI/9/XQLgRtUBNKFzcj+Jl0lRzskdEG2aFQr6OUwTLXEzmyGGi0MXsKwurqJSuwXmObk6ci9vWw3AIA4zrZTRWCakX1Ew/0HNcPwVCrAljM+8IYbTKARIuuhwJhan6pf1mK0VUBq0pwVLBuKABOtIdl/cGYa2isxwUa9h3tlgF1uGdTxroihpr90z7imKs2lqysEQTqO7Z2hhtqlGsf/OW6TW1tQbWp9Js1UDSq/+bJqSP/eQ3YuT7/+c+n17zmNelHP/pRAAX/+V3/M1e4FOF7YzFJJAXAm+JocAJAvQAJugmqeSVQ5cfTC/tIgEfWjqCDYISARs6mkj1kEpn3XhlRDuQ1GEsyr3KASJaMYEu+HBIckmUVDCLy9bhlUAjcvAUu1E3yeIBalEGwSrc4jwebSMYS//mzrCoZPBl4BctKRhfXCRwJVg1ioApixSBMHQjYeLwfw2wMMEQwpZhBZLl7MQJlU2VAlQwfwBaMOdlUxeCV+YarnDsQAjnMKAI8usSFdhdGrMl3E5yRZSWzqJYdPgEzQSqv9VywvArAk3XUN9jP4k6Xy907MuYt8FMPI0sw0SQjS3dC676O9rM+TJlOFCGGeUeBRvOxTm0vy2xfsL1zYGqABYBueI2CV1xr3egqmQvwC5LpUmkUyolYMBLRkvrIwS+fKSg2ynWCoHn5PK6eWTd/BPjsC5bJ+ixnsSO7zMlMRpb9TlaWfSjYcJQ3T767fTLKzcLA/qwOmW3ZiKFbjYh13sfye6b+ffY1oP6A0W+2d9AvQT2qi5APAQttmRy8UquI/4kes5tp4xMFQrzONioGXzwncNUPo4bHTIItXivwQbcKwCF3w/O4DB9BH9k29QBH3QAf2lyyv/LeIciFncU4gaadrBzBDJ7lfTKk6vcqn/mqvSS4Y745eCVwxAYswHOWh+U1BeAmqMK1jYJxZO4zd+EOJ4hWDMJ4XFArhN8LZbQM9lPPqemaM9V6glXG/UXlE7QyPD1FDANVsCt/T8siE0rgr6EAXllnus/5Tg2wpnJgzDbo5/1lhuX16f3qlnlPsa6XxwUArduItlj0TEFFQSrrpBgwtOxqnjUXseAE6axzRewLdrFZ07a8OC/RXAC17EfWh8yoHFwSkIr3pmwV1LN1ZH3pTig4OMYL2nd0GRQgtP1NMvM8lufjMfudkSNtg5yVZVt7vKcXNysrayrtoxqgHahPAY+czWLGAYaMMM8Hc6ewa87cEG6AAgNF7mIBWgggoAQVelP5nCdYAZjEhEM+AkculPg2dIvjXGI+kWU1DqNGYGqc+YteVAAcCgszWUwsxiawXXLNJRlKXiezK4CuSdBN8GoL7yEAg4ZSAdwJsAaQLsCrAhiUR0gs1k/iBoAk2V8ATOEuWfzlco6yTFAnJbCpcnAs3OfieRkrLPJwk4rnBagFSyhPsqNAczLgqTDPZ9fLhubDE4xDi9LyCw6VVDZTPzApipJg0MQwboa61eWMM87HcVhxoGqwoaYDAslUgiUnK4w5uzgJbAkM6j5Zwvw9CegBUNk+ARxZd7Sbbn4liEiPo4cpS01g0BTPi/6BiyXlzdNkXQNG+dwAo7CTwoWPNg8Bf+1D7LYJbAI11HQnzSJBCqYCbuI6GK6be7n8jbOx6Hn7qYEEMjCVMsuGoz4zN0uA8+r2NLRra5rIj+0xAuclnfr32dRAAB1NsGsQ4a7APa0YvNI219VOwETwQxaSQFAFgJfspS5YPjL46gGvhgAb+nAD1NWuGBxybO/Frc4vTrs817yS1bULtlcjroqCErJnFFB3TKijPHlyPhKQErySTROaVUwq5tuJq6KfWwvAjnO/SabWQA/9hgMCT4JsAmW6HTq7CI7VAqrkKQAlznt8GOBEzSvvyfLGvU5WVyFv66OLZ2IOA15l7pEBMKFL5dyfgVfZxYqtD/awAY77sVpNJt0adQ2sC5AJsAk2mO9u+Xy2Y2ctDKPc1c4CRx2TZROSLoJXgnb9gDnxwhzPI/r14WZXzqbxAKwkA5kZfdBkOfq6kISpzyL9ecwhOgfcFMovTl7ve9pWRviT2daPO2V/13C0f369bSI7SkZYzoDK8/HcQNcIRFbYaAXmmuUWxKyFWTbK+woUChJa7z6nzjrifb3X4AD5e8pEk3Hnu1uPMvl66ZNqjOUui17bAxgouFgJi0tNNt0djUZpvfKIfZYs71T6v9fAVO383+vmtzrjYnvbtm3p/vvvR9j26TDIf6sb/wcvEoRSyyhPAV7BNJJ104ihJLggKCTTxT+6DdZxzPsEl/oBqgLQwngwOegLlAjQOPgKJAkGBUAhSMUxAaIc5NDlT3DI3xtgz+wGTzJgTNZOE7uSusRkebOTRj03ckx3Re8TYBKEcVkn48b8Bbgsm4OtjKUckBJ40k3Q93TwE7yLwQvALvSVAKkUcfdZ/jHviJTIM2WB+Qzz7ujZyaDFxAfSLpOoB6CmG2N0SydUef4T4JNNZR11ck4WlACMzxqkXIJt/ixIlLnJ4VdNvQVAiJHle+d1Yd3JsqqB0SXbLF+++i4KlzezK5y/n20gqOg1DRhkOeNJloEudraleQsK5m2gG6RikwrvCwaZLHevjDOM0QDMHOBppyrKJtBmvQiS+R6j5GvY4gb6S/488/B6XSEbMZiLNatkdXVj8FqfuhRaVstguHGZXuYt6OZx+5zaVrLp8vfO85bVpmtkE+CYLqJeW0lfq2RBUUe+ZQVAz+un0vOrgQAS1X5wgi4gEbr8CRzIjhJ8ElwQ2KkHXCgGKwRrZDDJxBTYcQzIk+cEPrAnwjXR++iqAcpItFHsOwccvEfwaoB7BKQaeY5l8DvStS/Pl18DjJKJIytJvSMfiW0UbCoj4CkkXpx0NRTs8vr6AjvMsskKauR6KfT5HbK9BEMCvKJ8vFakTgC3Caie1sdkWXjmLgAmQTTrxWsthxH1BKZ0PdQVzix8noCM75IXz7pQN0wtN++NshWe50NlQskYlX3mM7k86ohXCS2wnLVm3ro11lNvPi9PlmOQNmwuco30nAwuwSuv1/0wf6RAUz95NdsuRY2s6P0gddJiPoXsAzDjmCLqRZcGq86ohnmkSt39jFwpAJcDa75HP21in3Ldq1aZZbAuWMNM1mENrhEalq67bVNBSN0CrO/iJEBqnU6CfOTbS5mNpOk4P5X2XQ2UV88OIImt/MlMA1gY3JkBPgE6eUpw6BkGBkK0NxUzbmDFqFWk+6FsIcCJSMxd4SqnCx1BOnIGkECIrooycwRnfFa4ATKPCERkbJmsUwbIBMNHoCoHrzJABNdBbQIZULjKZc+jfLr9cWupIuF2RFIALQSrKSXwzST4Isu7fxvADGDR5PvxGIGnUZlouvYVGF2RC+dkCg3JBMO+IZqx+Y/LpqKf7vk85kbqTuBoMlojV2dRGWEVAeQVuwMqRj6h7UO/LhG8cvMp6pkxApH6eEChDJm+mHkIGu1eUMZxwKokK8zIjow/AkWJd/uNPJjPJ9hIokS8P4BUgXkV4BzRGcsaZ/HIQv0LuDE/hz4VdkgJkgemEOnHJVDXxmJ2WNQfdRTlw97znQQro52oqOgnvF+0O/bT+MBOniXYiA6WgwJtGgAp9072o3gip6wn/kTkSOpJ0FMX0pKwCQugp+6Q9KPq+oUsfrE9XUTu1Y6F7Kb+eZY14GK/EdaQ/V3mT54cjwW1hmEMCfgIUil+LnNHIKETVpB2pqBWsJLQiZLNVY/7YXGSoTXqRMbwLnilvpFzRcdWomAXdKW8X/dCWaMCSMWeMwF+ca8bJTkgZf5dO9m0ZW5SZysHUGTv9KDzZPdoasX251m+R+TNt8MUDStpd/lk+Mj2EXxSwkQwRvDK9xaYasa1LiY8H0g+mbaXYuSsvQqTaTfX+gwBLe81DQOcdOFiWA17q7HgTuj798A+qhRkGmC9AeNIxlaALwAyspWrQyOrMD5xvRpWYxhgzWqJmTfHBIEmsBV0L5SJZvkEkmwXPSAE+nJ3R5lrPR08kzk9B7rMQ7dGiQrNuiMWpSHAP90KtY2qiRBp38jzqG3KAEwvl3HW162GFW69uaFRyMf7PVeFDdJEUAgTn3/GChNU4vwQIugViJqOA2SVcH/eJgOI9tuWstt71AUzgA2/C2DV8XPUFWyyKlwkc1ZX9j49AFVjAJ910Te9TjdQmiV1Ev3Q4/sqqbG9fPny1NCQvdu+yvf3JZ89Z9ffl7f6b3wPEVJDfbqzkEef+G98/HN6lEBBWWFCFtTpYQJX2Fu2kAwiB0jdt3oxUmRpCXI4eeRufNI8awO8ygZQj6vnVI4OhuBXDo4NYVzoDyywkzOCMpYVWhOMhAIqCpcPMUDJxtqFcafg+ii7jrswvjBpOUd4Z8AgTSFBDQdNQQuBHAEMyyJAI/PKqIcCPwIynhuhXA44o0b2c5eV9y7nvYNVhLGnC6QLxBKMnhAUjNqUCeaiFMOM/7zHURszmgENDR0MMd1u8jQGyDWKca07TDYRej+DO8d95xwwwgSLeo0CcXMlhqNMMstrWXV/y56V5aw7YbxfCKDDfFPfg/8EwsoxsATzdAmNsnG/YF49DKSqwjGP6yo5RlkEo3oot2BaBWCU9Tei+x1GG1Mu+VVS50wEuDQ0V02Leo5nsavpOwgkSe8VJPMe77WOFfiXWZcngTVZeM0Y5sXglfd108dkz8nKEqTT1dH2asblz/dRQN/J1rIJjgrOWQaT/dE+GuxA3lv2m4BXAKZxlbAhbUXbFjVNXqypf59jDdhnrc9mKN1qPQlOyLaRMTPJ8MGtr5yFihpEedIgUTTbj0Jdq2Kbw01PmUliDYIcOeYQ0QsxlFrQVirOS5CkT4AHo0hQZRiqV7/gC2XI7/W5MocGMCRk7OQR6jwu+CWTR1Bndwkz0A35hhD8VjzccxogllvQqZjxhP0L+JSxyOqLXOoEtTSCW+v3dE8TABMUEwTL+6NgDReTN8yrooKzAQlgVzZZn5ZZQMvRR9KbwFtxuS2fO4kypAr2K2UDdKdeBZLydjEfNjIDDCxmqVn/g4T/bsWFL7/fa20z87EsOaDkcdt7CFHU6bKmsvWoh+kL7pqWEFVxdz6uG9zYLY5A6bUCYNiOk4CZAJVAme5+xcCaQQAsXzDLCgw3f7cfOrf20ZZGstSWZ50DSw/Xa+6h6L/Rvt7XxznfR5BPcE/gU1CQYZG25l8LN5X2SQ0YQa+4n2ZgSA5O7Dbow0WL3l3WMIvnOrdmSW0jXeoCIMrBK06FcDhzW2nDbPp9gVnA3DExDNuKuUpdKCbKcFErYZ6awA4pRZh9EngSaAF4MpXAAgvAhjkx18cKsKeQr9dk7oA8rx5ALqwO+oogCcBOaS0ujXnZ6ETBAgK8KpU9XEgTbAIpaB5MsaJ8PT0JXtW0UW7BK47JxmJDr6yp6HnMxRlzikVquB9mH57lmEDYfjcLLbKgfEgEsKEmeBMgDvNpsMsEkprmcdHuDzei9AkaEZ2vGDTKWEgAi5Q5wCvu8Z0Vty9rmr9XHtheCuzT4iW4COYgmGWQWRaugAX7UuBPhlboovHOk+BVvON2wLYisJIcA2AawMVQpp3gFclnCTDJ0NKtsNSfOZcL7GdlhklW6E8CXCEGX6jjyIS/JugLoaklIAd4F5pZ2DGytsbQ+JLF57tEXdAuNc0LvKvwh3+m0j6pAcW/DZJdPP4KwMiKagQIErBSekMmjtH7BHgqoSx73Dl6F2CUEe+aEYQvToJXAwijVwFsNbRkYETobCG4LkPI+02CVCPMDa0zAb+LJsGIWIhAuGyvYvBK/afBvpEQfc91omQNdRYiHza1YdMWjJxeXPNk/Mh0UtsrT7Ke+mSGYRCoEdXgOQZMGWYyd6bNBBgrGkA7AczU9lJoPmdIdQOWWY5WjpUVbAiBrwCvkHiQkZUPwtYdw2xENc/dBq1w3fV0zZOJVqz5pQveCFTtadRJgFcUfECAiefJlKsXGKN8gjX9splonzJ24nQnNAkKduJeWY7dI7iWg3x9lMN8WwkGkZfN661rXUXVAaurzTSr4l3IQ/fHHACzvQXtBMXy6JPebzIaYNfODDBr0g3TiZ6ki6ZyMrpOWqd1sMx27WDDnqWKoKbJ9hNMrCPgVQi1A1Lp2ui96qGZZFlV43JZXE+6Rw7DdG+ewSZ/NeMR9aHrp3WrWH8HEWSjbSOH5/eXfWX27Nnpa1/7WmptdRNiKu1dA1MA1t418ix/17AWwKohzKkg1u8y5U+goFI3Mhg96lEJevTCitFVTWBB9zVTsIJgU+nCJSNLEEbgSaBKYMIIey4qZCUJTnQw+es6qL5SfwATg+y4d7KAgHLLvdJDhzHsFNkOlzZADu/1XCwr+VAtg0u1XJDbnwPcYRQWdCoFqHJ48h5d9AS6BH3KRqWEYpBgiCgv3kAY6Yg6SNkF3XTNE+wQmMvc0dxdcSGja0ldgGi+syaeII3C9I56Ms6MZuh7drLbm+t3CaKxZIvju3jXELEGiJOt4rVd7BRaz7LQHEQts2BgCM2zaBLEsaxjGHXbMcZGMBCNIKj+U5bwn3eHEGPU+hfUGmB32fqTqdWE4SlwNUD7jI0DPFJvtuM4oNKWXU8U8mBwd3eYdwyw0rwZYC2frn2y2Uo1dh3wuSaOA84J0glMWffWjfdUqZnFjmxG8dWNtAn2xlBEXxTEtC0qAMZsF99TdhV7UmmwnImAviLzTc2wXEfM6+xHRqNsxnhVz8z2cYcmdNbIqxLAzTKYbCtZV+Y9DXcO29G+qPi9fUbmXCs7r/brCr5FyzOV9k0N0Pz0kdLU1qLGDUYnoIVuXDnTRX0hbKEAEjQU8pQxjbJofMUsHIGLTkCISgEYRcAL9wiGDBPlcEYT33VR83l8aITnN+52iesdxEDSta8IMPO5/UN8WwAixQCT4IvfclU5wAgGJJ9fJIXD1Y/SiCmh/7PmtasjOg44rnEnsykvByeMmMdljCsaRFnPdAezFzCpDte8zfTHHn0ONRg5rkul7CE/L682ao91p0tCSSEstgUxj1HAITYK41rLYEEsN0WLd8zLYdFli+lKF4BU4V0sl/UkSCd4ZTuYj9EXZXvpPhefuXmTFEJ3OGjgoXXsyE4afQCRvpu6XgKPJVYW7cToGwymbYX6Nn+/YUGwRtqwq8d2ZNzGr7ALTa16QEm0VKMc6p45srIuCd0sx1OT5RVQ1NXR/PI0OEI+vEc9x+NWTvjOVUY7ok5qaRffUeCwCiCLVxS7CGAzv968op/BjLOPeL1JcMzHl3E9Uwnjhc8uenh22dTfz7EGKtGEGglQgwyY20JsW5CkAEKYbeZOyOwAGMXKZfJJIRg+yi697KYcIOJsJuzNxlOAV5n7oSDExOAO2DiCQLrV0UeZH0yCM5lLXtboAXAA1sieyfS3sjzGezNgphQQLQfFvD/AJFhdZZaP+TGS79KLNlU1od6xe/KkjlPmsiYQVehHfIzj/YAyvnfRe3jPOHaBoFuwyArnMvc5IpcFeFV4ntfiRqnbXLH7IoNVAC4hHM/8mKcJ5n3LLfCSsaTo5Ngx4R6ocDm2yGTye4FRpbtjMXjlgCFwJ5NM/TDr1Hx1yysTxMnropDROFqfWZ3OjGs9HOAadkuIpRfAKzIJLS4/szJdFXOWG9f7jrLkZNDlKQOOYOzZD3h/0wS2gkmtMN/TyIJRduvDqIjagLK9Cm0QbQhAubdoe4CQtGOwyxrayQtGF/aVYvnhaigops4WNkWAXAwWVc37M0Zg39D2eRNHYab+el410Dy9OZgqeSYKsQteKcReTTQ3k65dgkJ9MFsUJBcQMuliaHdsmcF3VzR8K+zeuwvAC+ZOIxHzPOf8LvNKTaWcdSOQNIj7ePN0ox4WfXNMGrKpKkJXiu+8kLfXC2BNB4ApjlBotDvn3lYi8ebTiDpLg7CBqhsA0NTCKkp9XG+mtQByuZi77ocyhFpnAewWvwsgyhjzXfs8j2cnsoiKQ1yL3ms+qZGjDCl1oZp0rSvkIagSrmxsOqrnNCkWD+NouHc0q+c9BOvRySKaoJEB8+cZ2bePdqmqQ2KkyK0xxNypE7XLJgEl6sF20VZpad/9LupEDVB3ze2UITf2KHPOAvNZDU3IoNAO1qUsN9s2gMnCuwjE2Y6CYsVJBtiurYBd2KN7uFIiyO457RojSNp3OjFIGBJTC0BjXg6F28vcMO9XCB8yAULtDCnYTbiNAkQJVFXtBV7Z5sMAeoJ82jvhzgl4pT3R1NZMXbMO4rnF0TSLy/xcftb+Frz6f4Uc81ze8fncs9uKeD65/H98r+DVK1/5ynTKKaekefPmTQ4Av4tV4oAhZBQgGz8LAghy6K6ni5jAQB9MF4EVjZrq0eq0Ezr9EDujPdDiOzFyRsYHWUQJQACQsNDJovmxY8lE7x8/6tEJ3Mtg9aiNJNNIXSMBIAeMBow7wTLd4gSgXFXIuhG4amInTBaXDB2BD/WpBNVyNzeBlh4iDgnONGAYq3fkpKDr28AQUewAEGsKO8GOf30AZX0APepYqYfl+8tK8l18rm5uucteljc+8oAhAnQRxY5FXDe7inUYTRFF0PIWkgyiNqjOstYEzByBdZ+rpS6DhcZ7WIeCS11c6+wiuJNrQsk+qsMw8lgljKNsWezijkESI0pNqPxaB3fL4aRaZ8TBWNXK0hAQ2IlLXQbOed7k/T19hH9lkao4usfNvwPDXdZZLe6Vgmwm+8AujHzdMH2e7LQJyrzz/7R3H4CaHlX9x5/tve+mbhoJIkUBkar+RewFxK4oiAUrduwtKHYRe0Fs2LugYkONKIooRVEBkRRI22RLtvfd//nMe+fuuzfv3SR3N8tN8pvk3XvvPM8z5Ttnzpw5z8y8tRrO6i2OsxNlxC+eko9bd93Qnrt91/Xl8Ks3q7R+q6cVZ1ZjlEpp+blt5ITsjrSRw1A7lFFYzi0H2LfVeb6+vPhY6WULpO2J7lGd/eW4wnBzGcC2sgqcoJxeZAPro/U3+eH44phLODcEyMyWWna/pt5gHSnnAufQuOOI08kqmDF7qmV8pJwym8sZxXl1rAzD1u9KTLbXOQX+XlaOj/212+VInUth5ZSVMWvK8XH79prwEPb6/3A5Kbbddail3b68p+TDCrCd9YZTGXSBw/X3/voGnVIVo28FrPgDZRAeKc+NFTa2OnqbuMjyyKkgeY4d/d2h9P1S21ZW93CEOLSe7HIicTKJs/rIs8JoC1rNhSqO3HK6rKol8JxX7pXuLsJbwVYEWym91FtbRvhS3qpKx0HkHreazd+CunMwWXnlPKepJCrfii+DtrJpZ1a5X/mPVpw8bdFcXBm38tU9HIucRSvK0TeetpVdDtLnQDxch4LurMkBQ9VqJSvGmo2p7vU/R9nRcmp7y9kLojyH6355MdTU1UXlw4rRqIzt/vqbflJ/jizP9MDBt6HeiNsS6rnVtb3B148rnxVZG+trwX3bomfbeFBlW1oNvqpWU9lCcLicZ85U4zxdXwb2yVoJNir8KAer1PCzSq2ap8qsSvV7oSbDyrKqDnAdK1IvWn7OkcDiGiMP7Pzvetph6+UcqNXA4+cucUTYcrZo3RXVwU7paGdSWUG0aO3lFX/KHG0OhpLFhWu2ljxN3V/eSiuLxE07YEp+2tlF5YgYfdugXjUKvmWunR819W2DYk+yeazSnlmOGnN4Q9uh6D2/uv9EfatwWw1UNoRwosYd29lOnqgzl1ZeXH+XEDpHqySsbW2z5twLrbqvh+PlODnu2+xqVdGJ4uAwc84hK4CshGoHyU911BMH6sylSnNROQSPV/mPF5t6oJx5taqobIoFtZp8OtSsrG2VKyFv503VigHB4fHNOVPj93ho5cP+8G3VZ/VOfbKYcvJV/ML6tsShVsaIP7F/W/WpcoodulXEVKj4Otwdw7bt7+B7q095ubi6ymGFWjl6do9YeKCt4JraEtraqNURJ86/WlGuLlZ5VWCXtgPX68txGrtyVplRnqjVWLZDtq2atlNaSV9t5dshdWgrzry8M8Y0BVjcF60tmWl1a0lXQSrPymfBygurjuWcqLGhsSxb0VbU8VV4J+tYA6VpTsxqoyWramWHtBPOGYFNF6wd3vnmG5pu5sQ5XM6rLZfUjoKpczY5a46Xcl9UToL1tbKmDZSVu1U7J2vs2DjmJFEoZ2YdKufMxovqW61rVYyXyaMVQbXtsIwTK69sI9RH77i5nKDVBfxttY1g3LTKy7fV2VK4844ph3g9YhsfB9ju2mI21UVrTBx9k+H6Ogx+23u3t/yks2d7bcGrvNcfXdNW74gjO1ZeHahDzdeUY82ZVPJzJpdzoayEOmgp+NS9ttVZlbW2Vpcdvql0UmWqqyqHc5tGu0MovbJvaoulbyJcv2V1W6026gKVH0dLMbFlsh1UX2lwGjmcfWU5rtjOo8qUfV4Om731rYyr6vyuwzXWOyye7eTbAKuXDGsXWlWER9kJZW85CN25T1Sk869U5mC1C0fVplpF1lZ+sQfKzttdDsHltUpLOX0E8Xvq7DL1X39BLRIog8Fh6w5NP1xONGloO4Ejal850Tg2uwyIx29fpbFijQPvvUQXW0wrHW24sAxPK8Y4q6o52sH2tmH2g+q1o8UK5hgry0m1ZGrJubLZ0XOg6u7bI/u3OEq7ffNlGY5Wko10zWglH4cnB59nV9dB7qtrRVc/uN5zZxt27NgxvOhFLxpe8pKXDJdeeunZJvege/6UxfCgq9r5q9DWrVvbUr/5vPpqnMbuck684+a3tDH+aG37sv3uQBmXVlMdKmeSlVK0hO0xy5yHUEYKJ9TGciJsWX5RTQ7qa03LADlSM0dOj/V1EOsKTp+6j/PExKd9A2E5JEbKpb7ivJY5cIhwJllR5UJzmJXTZ0P9zmlkK5LgDKX9J/cNG5dd0BwU4kzunDvlm/N8qx8HmGA1j+2ES8p5tdpZDPWfwJnk41v9ODk41zhCxAlWBPWzm6z0skXNlj0OlP5NhA5+p+zbQezlcBFM1u4qA9YguXYlh9TIqdW2z5Vh1765b8rRwsHnmwkNauvq3p6uNDmkOJI4bZRNsD3QSiPp+vY/QX57Dte349QoZjVcd2qpy576piXbA1fU28PuiGur5+oQW+UYnd81Slv9OHg219kW3RFkGOSIW1VOOPylIY6Ta90qq8CsRKv2YmzW77YBKs+qYjq+3XE7g7QGCo447VO3NkfcXfU2mnPN9syjxZjT02o9DkjbLPeU8XjnnpubQ9FKsrZarGRDfhxRBmvspLuoOFut1c7mqvQMPu28tpooeVa+7YyvsckRfglzJ2CZPtG88bZ9taW3VrstLWdE9a/9teR9b72JOlZtYyPW4fKANMdTZXVXvd08WNet0vJGsq98IjecVVbykUgOmAPtPKJKo4ROPofK6OJcGhlRDKm6UXf2U6if+lT/WxpT/09fX1neLit2zCs5uYTlFdd0S6XFKSJYObmyHEp0nFVYh8vAW1rOkZXeypKvuqdsrJpTV3x5OpwBtryukeXykbXrzmVyn0/7t+zQOve+5LfHVZ3YoFVmzhrldR6DYOsgp1adxdz6izhb8jByntMgj1HCxbn0XDm2ltaqo9oV1OLbt25W+yyvm5Zz1EiggjJzQDsnSjl6OFLOIf6Btl2ybq6N0MO6QsFh5g0nxxaHjn6+spw7VrRZ6bXUQR4Srw9H18Ha+rew0l+gw1dA0zZPBmnNN9rfbldmDscF1c+l6cUGudhfRiaH26HDzuarlTF17Za99c2ktSzf/IUTbH8Z9JySVq4dLKPaV4YLvlhgSbWRA/eXtckOR1alUXG2uGqjsseLU70BrzzW1lYSqzKVY1m5XI9eAABAAElEQVTBXu9g2WpzBneX15Zw/jlrAuX+rEnnruHAtn+v9i6nxsnabtccJZV0ycuRHe+qjlETnz03ViOP+uDJWn1sZZLtdAv2Xt/klqCdPG6VVX2FuplbUwJ0QX1sBay0Hdw9LWnHaiVE2QvOYTpW14/XGCqNoY4hsJqmbVmbdkhVGrUqvBKo/1fVQrFd9UxtXZRHvQSp/S91rXeaSqPKzdnkkPien77S4tgwJVvTAl+68GS9lBqtDqrbBR2h7rf6hzLi7BmFijOJLNlfcNoKqXK81zimo1rxKpxojrXRvRVZMca+kdPYSreWSbt3pFVbmRWq1UMBfOrvGn/l19I4aRKtvNWP1Z133n2uCzoR5dkVqDj3KZs693srqsUvqHZVhlY+N1eQXy/HVLlPlaMuTZWv1aXGBOngY1VbK7KnpeFa41TspNMcX1X24rKAnTU93tfzzjnDub1onKpLpYPT0uWXN2ehfKz0WmIVmmvqzMYteXB+Jnl01tbC/TdVs2+q478qvmyghHNHwDlSR0uv33L9HW3VkxVJvtGu9aXKxrfN7S0nzqrS3wtLr2sizqa95QjyzYTOXdJn99UqGePKkTYg1xhQ6Yh3NpUDzK2mMRb0YOcBh5nn+8pj14xd7UzFGkdGhaj+VemKby/myxFSPp2Sl3K2lKPipPhKg4NEXvI85qVRjUstXYKlb1SwnbDd27pYXah7OTvqRxu3el/202ovaXo51ONH9akXOW1l9Oh5PKxu8tPOBT+ldyq/GstnS6NJ/ejmkVNvZjk4BKsuZQ84nL3p6qp8K4d6V35eVDce9U/jwaYrHrgqv7Lg4hcORORaqB/Hq45s+iU1fptDGLuNxc4t43iSRmNX97IfT1SeS8sJJt1RqHYpW825X8tLFpoaqfxw5/gkH75xsaVbRThab+K0+3IrrFq1y66p7ZZH6lxNW1ltTXXBpaNlkxyuePaiNJzDVlqlpeGgfttbOTrde6JsVfXgcNtVDj6ycqjsCt8iuaIOzT9XwZfEXXfddeXgG81bz1W6D5Z0+oj6YKnP+6Qeb3rTm4a3v/3twxOe8IR24Nr7pBD3MlNb0P63luG/9cZ/rI5Y5zcxSvxWnZFThJK2JczqqGV1MCangu7trCpb6fa37W01USgDjJJdVW/Mdu6v86pK4ZsMlkqt5+vZcvhQrIwC2+E4Izhr9pcTZVkZhO7xbXbOj/KteYcX1LlMZaAoh/OwpL24HCXyoTCs0uLgcf5Rc2JM1dfZTZxIDnFXdoGDiPHLweH+HtSVh31p3csBJ6ibc7a8AVxTjqPu1KKwa5gpx9P6aaeR+x1yrmJr65t0ujNJPKcP51d3DomzukmRZp4JpT6rltS3/NWqp+68wp6Tb5TGyHkljVLh7Z5VK06tyBJv66e6jFYwGSRGQR3X1so3DscaClskxyQn37oZZ1Nh65sJba3sDjAED9aKO04jq8Cas3Eq7eZkrPbsZRbN4UampDPacjm62Zlom2tpf0+b89Lqss3rt7btiTV8Nfb7ypG3vd6malNtcNfB7W1F2L4690x7763tIbZQalOyKFg9tqjqzrHatkJWe2woJ+qaWsHX6zEqRf49GwIXb141vP2G7cM/v/WGapnqj2WgrSpjQj+3kqpshtbjOBqqMVvg4Fldg7i+yAG2rD5tJVSJ4to6K2r0xOjfUhktWHWzolYwWSlVyZbzo5w1ZbBUUmcMnpc2Z5myCMpm9RZVZGVUi1a+SszKHw4TczDlNIkru6OtYmqrusSNkqn40gz1xxKG0+j/Ziw7j6udPzXqWu1u95X9WvIn3akE6ofVSs7kKr/JqBw9bffW3Mt8rN9eaq/Oq6izvsq4Gk/DI7Kixk5lWV+AUIY4A4+BeSq+2FV9dJO2jW8qv3qR2TJiG47eLY8uyJMhKr8eL25PLa8/WZHS7eXDBW9lPj0/et/qrVPsRqnXv1Wfip4OlXSNE6Wfi4czSHbWhKSdRVX3YVguh3a/e+SnXCtKfpbXRzLuEd+cYWWsChxcdLh0+EXcx6gdZcs4rjFo6m9l8WGAr68GIAMJ54bAqoufNOz4v1cNN73+xdUWJmmcnNq7RrD6WDmh/RryGdj9uaAmNEtKfy+oe9u2vhJi28iW1pb1BV4SkXPfElh6fzhYq4NIQo0JlXDJcF0/dEdt9arxu770pDX6MBrfW6atiiUjNVYNth1OzXqWLLu43uJvrftrNVXZMSOhGRXOAeOCrWvTAn+yRqgTNf4pZ9sOV2WowFFmOyDHB1unh3YuVTlhltTqsnbIOwGt0FaX1aHnC2r8H00QK41ylJ08Ut/U5wB7zjH1q6Ko84LqEM77mhLqdu1ErehymLwVZiOooutFgjOyantl66gVJZysF2AcSgussCrZX4JBORzb+VTSLm7TiZed4FB02/iaIpGAUKylo3zTaVeDHq8XUOykkaNwdKt/Txwqx6Ttgc1pN2LatnqWB35hrYRi37VAoVTax51PVXy8mNJmnIEnbfOrFVZYn6iVXK3+NVk+uv+WamLPu6+cVlUHWzePnahVWxV3vFgeq9Vt0jpR9TlSq/YObH99bf+pb16kEFoY5b/AOFNZGimcLUiXmViPHBFlo1Q+K7c8ZeqZ/DgXBKyg2nTJhuHv/vBfi2/pihrHmq6oxDlVOFZHLxhGLz6Oexvlvmo795IDzy2qAW1Z2Q1W5fqb02FZ2SdL6yUFJ8emi2zvm2rn+lnSNVxdq7SccdTauTlLSl7K2bK0VgGvqNVJi72FqXCgHBZWBfuGwkXlyJEMx9Ou+gbANRtrx0OlQZJGK75G354480wuZ1YdLyfa+vpGv6litLR9G6ItjUtrtVgPvo3P2VzY9DOoXLOiyQrD1bXVrgdOo523126RTTUXGktD/J7ahmf1lrILOO6pFVamO7br9SB+d503tcJK6Kk0KqocOIfrGwBrW105fDAXdDWOJyvdfEugeFfwkLZVZIvKhmvfwleOJdcO2fpZ39zXgzirqdhlq+pb/7SLF6CH675D5YCcdlK5sdK3GswK89XOPSsN076t0DWXjRGVkJYVpRz7a2W+lU+cUDgIxv1FjpeZtgfEjraVevawtm5bO+uPpnfIVp2zWnlvv23nsKdWt3FM+VvdDjngU93rQxa1qWODOOka74p49JOurjYZyZDczjbYOtg/Z5vWg/H5egFTrZFwVgRe+cpXDq9+9auH5z3vecOznvWss0rr/n6YI4kzwGHoR8oosF3LiNC2i9XAbwtZ01jV0Tl2rG7R6Sl/vx8pg8DET+c1sFgBJU0GgBVM7SD1MqSk4R5xh8sR4acIyoczTBlGqbqvJkBl6NimZphhY5hccH5xNBFQKzeUw+ocDgxnRon3oYwYK1aAOV/Kah9l9Lfzomxd84x73TxlR9a1Wq1RCq5ya8/3NN3WQnWNleUM4qhqBk1FWj2krN2Z4j7pLudYU36VngptmWpdbG9JWin7lX5PK1GL1AvxmDSpchcurfD1r3s5vEzrRk7DlkT759Rdp+Kws3XyUBnwVmfMFhiiBw7ube3MEO95HjrqDK6SgwJHXagjWThYRj550faC30fbCjkQFrWVfSMHpMOZR3JCLpTdtzlaVeYbBDkNtR90zmfj9NIuVjRypHJ22orqrDN5c3ZxFC6vN6Om2dJojrjmtOtsZ6tl4u8tAauVjpTBaAJK/LRPk0+/zBb6PROuz3xqXFbHkxyPn5DMaVGT7vXyj216pvx6ImXntroxrMbvFy2Mx/lb2s0B5o+xoE+O18EleszzM+Mn3duKUf9w2swMrs2MlsbE+FnulcDd0pjKaDxems05OemBqfvHfzRdLWJC+uP3jX6X06jUjFLy1WPufu/kGBMTOkB7jQciivM4a/MeeTjvajpU9t5OL6uVWzOSmL4lv8yBQOnyY3WA9/F68XDieJ35OLVt/kSthDpeq7tPHNpWemRkO7h2vF6EHa8XJcKxesZWuWP1UobOX+hlVI0Hfi6ssXdhnTtpjFlY44CPMWjJ8joDa0ltWavfF9eB3OLbGFInYS6t1TXVynW9Vg/XCt2RcHJOmFiMxnpjGTmqYo8ujwtORY3k1M8x2el/VdlOC0S6K8jxCzqp0O4fT2cq09PSrnvdPzPtUQoVP/583Vrj6Wi10unxrUIz05guR7+3/5S4Mo7/PVvcLPHssqa0TqXRtgC2uozirLRr5SrbkUPrSJ1hxmmlTibnRw/WFsYKx8vOsG2y1/XogZuazLh2wtZPeCpJq9SONzu0HB1ti2VFVtyxY/VysW5a6IXc0nK0TdWNDDR7sGw5dXW9xdX1RctKjhZXfNkki2uLImfZktoOS8FwJC6ul3OLOeKaU1FJEs4FASuwOKtsYbMqigiSlkP17RzHymngdzEO4j5czh06mx3iUPAe2qqXetY1wfY7285GwWHj5I7QEI/RWVbuNeo4GN05RnSJQ9WNB1O3tvut4LGlkU6xsoudfbIcI8dqGTLnmyDXVfXWin3fHq6/l5UTjUOIo/RAvQhyvpV8ehjNI7xEM+8pMWvPchyNzoFdOrWdrd/ffk7ootgp48zQ6jDCMX2J46mdmzUjftK9thqqWGc6nUhFt/nauB6qOM6ikfOm7py6pz1TvzdA0wlwNBX54n9aEu6bVBBxQr+5/z2Kvdu/PYm73zYqCIeTwFl58EAdOVNtw5Y4WCv/9teuAd8sb5ujeOU5UFs9D+0efYOhNheW19ZJTlLbFtfU4fWcnSur/VfU2Ver6qytxbWii5NwUru0BObwz2233TY89alPHV772tcO11xzzRxSeHA/cqpnPbjreb/Wjoe0H+J+v2Z0DhK3YmWZ2V21fJ0MNZ1i696n/mnxFNZ4GF0ej5t5h74vrt9DY5oA1zLb6biKqYGI82I8HK6zlo4wUup+ms/9Vg2Jb0FSlSxDhBPNtXF9bDmns7psU1tsdlNvS5XiRDlVdtd5CsfKiFK2HhjEzbFTy8s9e1pi/aZKwfbK5nybjpv8y/FK37fzMYrnY1AuK9UMyOOhGfGNCzacQeWsY6y1anCo1TLbMvhGEVP86odBa5Gvrq702pvTirO1dC3HU/3HOeg8MgOQFQ8r29ld1A0n5NJyPtUe9Xq2fbRXy1B+5Rys/yqJqaClWjJT97izYipd8Uo0+q1+STinBJxdZAVMtfY5Tff+Tox6u7fhvg6A9yXte1uG+XafrZT3fzgfedz/tUgOUwRKl3MALLYiqMKKDWPje7MJ+t81svdxuI27nEj1Mqu8jSdP1vhftsLRWk1j+9ixQzvaeH+0tp2frJVWRw/eWpOg/aX6a2J74PayIW5hXgzH7/i3GghOpX/cSqsKJ2t/7vG+ksqLr2VWN7XRpBwYViGVDNbfHBTOZDoVKs5h5jPGStcXl8NjWFwHJrehsP1TsbbK1OqrGvtGI5I7R2FRvXhZVKvI7jkY0+quzuaeHlCPe3Nvu6/OoHGmVBstT0/YC6Bjdbi8lUqnQo2okq+4o7UNdPw5jrPjdd5oK2t7oOwoq6fKUTl68VkOSed1tnPB3OB6OSxto1S/Cotq9bkxRVv4cDRyKviinkX1cmpkK1phU3ZH2QbskWVrH1HPV3tVnRfWi6oldd7WgrI/Fltt5ulKZ8nKOvxdwdkVi06t/hit4BMv91HodtDIdpi64Fmh/ew395+jS/n33BBw0LUFiGU1jr7hbirZ1va9W03Hjf9y6uJI/PvfpUcqYqRbtJmVeHTC6Lp7rYYaGZY1h6gVvA5z51Cx1fBgrTrqzc/X4RyqplxKaPbVgfKeHcnq4mHbe3Y0Oawb2uocPlyyJVcOtKMccP6uf4607erKURFVCKuufDhUbIkfrXQaXVZUDqwlVkTV7/V/c4assM1tOtQqeCuYOOLqBnkuqy3//ZsK3Ybh0jrLwHa2loibJFbdZ9VqZ9C6a/SsaKE5rOpCv9YdPqeuuX/qwfZE/VN/nuasqb+n75lxq0dsseTYU+7TQs90LLK1Y7uvjp4ox+RRRy/UfaI4may60r5WZgmOnbCt0DcLSs6qrnaERfE/WuekHqg05N0cVMUBZy9jl9Q5yg7BN4e3km9hOS0X1+6TrRdvrG9CrONZ6iwtWw4d9I5R2yZZP2Uin/az/RCnJOc2rFu3bnjxi188bN5MzyXMJHBf7feZz+fvImCv8KpVtQKnDnR/YIVTPa79duqfVo1TV8dqNTFy7PqkX+/FhHL18hlabUp5tQFtRpqjSzPub/dMurt091RaM5KpP632srWhG793v4OTa6az7e53WbVg6ay0Jl2dH3HOzZkeYCYUSdNaWdaNO7dYiVUmZFPUMx9pxuJpkSPh6CJy6jpl32NHD5ypHKcleQ9/nJ7qPdycyyEQAiEQAvcjgSmNXOPGdKiocT09/fv0Ld3ZYGVDTb5WXTp6dGpcHr3UMo7PGKenBtt2VtLYwDta2VW5lGPMqi9puudonf1pUiqdY7UKyGpw4ShHWTlmRqGeqxXkh+66of60knwqeurHieP/XUnUc9OVcKFWh9SLLs63mfE106r/e9qnp3X+/jIxu7tzreVf9Wur1+yzGa+setdEbeG4Y8+9S+rczxUXFsMOptpr5db6gsHaajkVxalkJfwolHOvvqxmIefelA2wcFG9OCUflQZbw4oo4NoKuXE7Yez3cZuk3Qt0a4OajfbQ7j+tYfqV/JzPBMaarNmFY38r9ul/nv7XmapVfogZYWx+VrJ6csuUwPp9xp1kc1rEXR27YezXcqJwvI8eJn7HaoVPW7E+lZ7rbbtZ/e02B9EfLucKZ8jRWtlzoLa+TYt5xTmM3nVxbOajld6dt9VW2ikKZji33VQO/bECHa/t+Bw606GetTJK3qfTqxfy5bgbL//omTqjs5xk7dvzZlz05/LaWrmkHdg54+J0hvfuFzrDqrRT23gnPycXB8Q7lF2wsmm0IwQT8+0p53c5txeX86mH9lLdira6acVq2zytiFpZ5V/ethdy+q2prZvO63KgO+c9xx/nVX9XUck3ZG2+UunIb5JM9jzv7598C1dffXWt6qO/E2YS6KPMzPj8fR8IHK1vdNq9u/bZ14FrCXMj0BX09NNTmqT9mI4c+2XWC2P3nPdfqd75WLD5Wq7z3kDJMARCIARCYN4SqPHTrEGYmlX0EbX/HF2c/d9FdabmKIxPuOqMnPVjf485wya+oBq7PntOp660M6zKSXb68G/bUznRHNNglntvK3Aq2XPzW2W9uFY8TwqKNVrpdC+nAq1tTq+Iyd5p9lufDfYM7/bM6c/32/IzBM4bgRLBaZltv8/M+d7J6PjKJyks6774mclN/X1qZdEo4pQjuP8988FxR9r4PV2X1VlSteqLw2q8xM2B5byD00I5sHy98IxgK51v2espjl+2ssk3KB6b8Nz4fff4eytcfTvg+toOXo6kiZlNJWKd1apyPI3OAqsdHOVw6lstqZJF5UyThH+W9u2ZCk8PtXzaryLG/h5dGDmmpjJ6APzYs2fP8E3f9E3DS1/60raV8AFQ5PNaxHs5ap3XMj2gMjtcyxNvv/324S1vecvwlKc8pTzm9c18vooq4SFIYEp7zruaz9dyzTtQKVAIhEAIhMCDgsD4uFe/n/bn9PIvO2vOPtTWt9nDpKnh7HffP1fGK3//5JBUQyAEzkxgpgNl2ol25sfOeLWdb3XGO05d7KvFTsVM/TbrBb73c6i/OJnulvmEiHbT6M6xXyfc+OCOsvJqy5Ytw+te97o4sCY0dRxYE6DclyiHEFJKhw4dGt71rncNt9Wha5dffvl9SSL3hkAIhEAIhEAIhEAIPOgI3Ksp24Ou1qlQCITA/CLQVyjdrVSzXmjrmO52eyLODwHbGzdu3Di86U1vOj8ZPsByiQPrLBts5cqVw3Of+9xhw4YNw8033zxs3749DqyzZJrHQyAEQiAEQiAEQiAEQiAEQiAEQuChRoAD64lPfOLwtre97aFW9XtV3wW1PPAcrg+8V3k+KG+yldD2waVL62uc65MQAiEQAiEQAiEQAiEQAiEQAiEQAiEQAveFwJH6BkY7vSyWSTidwDnZ/n96kg+tv3zjxGtf+9rhVa961bBv3776domFp30LxUOLRmobAiEQAiEQAiEQAiEQAiEQAiEQAiEwVwLj32o51zQerM9lC+FZtiyH1Z133jm84Q1vGLZt29ZSe8ITnjA87WlPO8uU83gIhEAIhEAIhEAIhEAIhEAIhEAIhMBDhcCOHTuG5zznOe1Yope//OXtvO2HSt3vTT2zAuveULqHex7zmMe0VVfveMc7hne+853DW9/61sGWwoQQCIEQCIEQCIEQCIEQCIEQCIEQCIEQuCcCtg1aGOMbCK3Cat9geU8PPcSux4F1Dhr8EY94xPC4xz1u+tsIr7/++uGmm246BykniRAIgRAIgRAIgRAIgRAIgRAIgRAIgQc7gf379w+veMUr2rFEz3zmMx/s1Z1T/XKI+5yw3f2hAwcODATOtwW88Y1vHJ70pCcNz3jGM+5+Y2JCIARCIARCIARCIARCIARCIARCIARCYIqA79Z797vfPTz72c8eHvnIRw6vfOUrhxUrVoTPDAJxYM0AcrZ/3nLLLcOb3/zmYevWrcPjH//4s00uz4dACIRACIRACIRACIRACIRACIRACDzICXBiOV972bJlw7p16x7ktZ1b9bKFcG7cZn3KPlV7Vr/ru75reM1rXpOzsGYllQshEAIhEAIhEAIhEAIhEAIhEAIh8NAl0FdeveAFLxh++7d/e7jgggvivDqDOMSBdQY4c7l0ySWXDN/4jd84vN/7vd/wwhe+cHjpS1867Ny5cy5J5ZkQCIEQCIEQCIEQCIEQCIEQCIEQCIEHIYGjR48Ov/Vbv9W2Df7v//5v2zr4IKzmOa3S4nOaWhJrBHhNP/VTP3V4+9vf3pxXVmXdcccdw/Hjx4ctW7YMixcHe0QlBEIgBEIgBEIgBEIgBEIgBEIgBB5KBDitfNvgokWLhpe97GXDj/3Yjw3XXnvt8Pmf//nDypUrH0oo5lTXnIE1J2z3/NCRI0eGX/mVXxn+4R/+YXj+858/bNu2rR3E9gEf8AHDZ3zGZwyPfexj26Fs+WrMe2aZO0IgBEIgBEIgBEIgBEIgBEIgBELggUjgxIkTw/XXXz+86lWvGv7sz/5suPzyy4eXv/zlw5//+Z8PGzduHJ7+9Kc/EKv1PilzHFj3I/YdO3YM//7v/z5s2rSpOaz+7d/+bfi1X/u14b//+7+bh/V5z3teO6DtfixCkg6BEAiBEAiBEAiBEAiBEAiBEAiBEDiPBJxttX///mHVqlXDO9/5zuETPuEThhtuuKHN/7/7u797+JZv+ZYhi1nue4PEgXXfmd3nJwjvXXfd1Z7zbQK7du1qwuprMX/nd36nrdL6kA/5kOEZz3jGcMUVV2SL4X0mnAdCIARCIARCIARCIARCIARCIARC4H1HwLzfSqs/+qM/Gv7kT/5keMQjHjH8wi/8wvB7v/d7wzd/8ze3RS2f+7mfO3zSJ33SsHbt2vddQR/AOceBdR4azz5XK68I8cd+7McOn/mZnzlceOGFg6WEDmt7xSteMfzmb/5mc1wR7Kuvvrrd/453vKOV7sM+7MOGL//yLx82bNgw/NIv/VL7dsPly5cPDoz/nM/5nOHjPu7jhn/5l39pzrDbbrutPcMhJh95/MEf/EG77veLL754+KzP+qzhyU9+8vDXf/3Xbdmi8q1fv3748A//8OEjP/IjB2m89rWvHW688caWlvJ81Ed9VMv/uuuua6vKnOel07n/iU984vCf//mfzRHHy7xmzZp2AN0TnvCEYeHChcN//Md/DP/3f/836NCuPf7xjx+uuuqqFvfWt7512LdvX9sD/PCHP7x16kOHDg1vectbhve+970t/82bN7dnLrroouGWW25p8fJ3lthll102bN26tZ01przyF5w1duWVV7bfb7rppnYGmfxxE48/p6KzyQ4fPtzKia94e5LFu+4Z9cRafvIXj6V9yxyO6sQpaZuo4GtPpdWVkkP81UlarlkmumTJkmHPnj3D3r1729loOHnGvmft4RnbUAVx2kf+yua6tDwjPZ57f6uHcglLly5t9/tdOni5Rxry9ox7XfNTWp7xMyEEQiAEQiAEQiAEQiAEQuD+J8C2F9joArvcvEFgr1vw0IP4buubA5iLCNIwnzJHcN3uH+kdOHBg+jxmaZmbrF69us0Lxuca5gDmW4L5jHmQ+4VLL720zV2kdWPNtfqcQlpX1pzK/MJcy84j+SuLI3NcN6d817ve1dKRnrmcLzpTD/PDXk91dLyOMtux5Bxpwd8f9EEfNDzqUY8a7rzzzuEv//IvWx7Scub0x3/8x7f8/+7v/m4wbzYPVB5nUcvH/JTjqDP7wA/8wOE5z3lOm4P9/M//fCu3Z8yNvvM7v7PNk30LoDm7OZF8PuVTPqXNt9/97ncP3/Vd39XYYKEujgvCzhe4/dM//VMrs/w7Q/Pd7/me72l5Kr/nrpyan7ab88+cCOQ08Tlhu28P6RTOveKI4Kj6m7/5m+ErvuIrho/+6I9une1//ud/WifQQTl9OGW+6Iu+qAm/TsXpRBFZfvjUpz61dbLdu3c3pUUJCTo+x4j4gwcPTjs5dFidhVLhMKHcOFt0LsqJo0gno4x0VM4oThp7c9/whjc0BweFQnlxPL3uda9r+3WlyRnEAUJJ/dd//dfwUz/1U9NK6lnPetZgaaRO/RM/8RPNiaaclOO1dUjdF3/xF7e4H/zBH2xOHNecFeYZyvElL3lJc4iJf8xjHtOe+YiP+Ijhp3/6p1t6FCSuFMa3fdu3DX/7t387vPjFL55WeJSNtHCRlm93ECgS+X/e531ecwR+//d//0AhGQAotG//9m9vjBymR0nixxn4Az/wA60dfvInf7LlhbH2lDYnnrPOOCm3b9/e8uGoVEeK+Ud+5EfatlFpaUv588ZzXMoDSwr6S7/0S5s3nkL/2Z/92aZUPYOvJaae/dEf/dHWBpxVnvmGb/iGtnKP0vzFX/zFNlBo2w/90A8dvvIrv7I5uDB+85vf3NqKI4zy1c6vfOUrh9///d9vMuMZ/Mmp9vftmd4eCPKXDxkQr67qT6m/6EUvavW3Vfbnfu7nhptvvrk985SnPKV9C6f8lNl1skCOyT6ZIkuvfvWrpx2FH/MxH9OW1uLxq7/6q61dDIKch9jYK25QUVdctZl2lJc+5E0Hh6B2efSjH90GNYPna17zmtbPpIWZNx7v//7v32TlunLI6jOCwdEqSPXyDDn0jDSe/exnt/zl/cY3vnG6/mRSv9Cv3vSmN03XxaCmL+uz6v6e97ynpSX/D/7gD2593KBuYFVmgSP2cY97XJNrg/ett97a+qV+po6cq2SVIaCvStsgKC/9QXm1i7Yk9w972MNa+8tbn9fHBU5X7aDe2robD1aH0j3KyBBxnfzJSz4crOT79ttvb+m4Tzr0jjzF97S6g10bGbA7Y2yVVxtpZzqoG0IcwYwR90irO6PlT/bVCSvpKZc8lUn+nnGtO32VTX3EY9LTUnDtSRblSyf2/KWPaU9LHxPk7xlp4iyfnr96+HhGWq4rl3vVR/2l0/u4fBmcPUjHR/DMeCB7gvx9eujl9ff4M/J1TZCvMvXQ0/L3+DP3Jn/pSK8H+Yyn3ePzMwRC4KFBoOuTmbphNt2ESn/m3uqmcX02Uwf2tKQ7mz4bz4f+NQZ0vWXccF06xiZ5+dDlxgBBPH0uyGN8PDHe97T6y0W6tL/c9Aw9bwwQ5G18kJ8xik1jvDE2Ged7/ux5Y50gvpdZXsZm44fxx/goznPqwq7Gnv3Vx0D3egY7tkG3TaXNNujzhe5YEK8u11xzTUuLTTU+Bj7ykY9sZZZ3t/M8I+8ryz4w9pvbYCOoHzvYTzat9JTZx1zHC2u82O69zMrkZbky//M//3PbboUBTp/2aZ/WXu6/7W1va3ajPDBnn7LPtDFHAoeMPLTlC17wgtYG7Gx2mHQxk4eX+GzcH/qhH5rOn41rHkE2zGfYdH4X2K1sOjabeYi8MWfLfu3Xfm2r/9d8zddMz4HIDDseT3a21Tc9qItFCdrYs+Zn0lJ/ti97g8Pj7//+71uZlds8x1zj9a9//XBtzSHkL978xN9sPHa69tRuZEk5cf71X//1Vh+c1d/KH/Mj9f/sz/7sZlNhRl44bfQBaSqLPMgSLi984Qub3W6eoG+4hsl1ZUdrdwsqzBsFafzxH//x8P/+3/8bOIm+93u/t8XjwrFk95H8lV/dBf0Fc+2gXZRFkD+25mGuO+RcUGZ2Oztc+L7v+77m+PK7tMiGBRhkxnzHnJE8kinzPTJDNrBzv37Z+yKGGJMj17SJ0PuV+Yg6+sneJSfkXXnEe8bHYgq2e+/XbNyEc0PgdIv53KSZVCYQMPjpMCbPJpQEW+czkeYE0MlMYLuy9PukQIH5zAyUiM+k8B3f8R2Dz8zwhV/4hcPzn//8pogoNp1bR9TBTKQNuDoxhaMT6vjf+q3fOnzBF3xBU1Y6unIaqHVcitLgKt4klbOIAqBUP/3TP73FU6ocUtLksNDRKRP1NqjJR1lwovgFgy2Hj3woJCvOKEuKRby0KJGnPe1pTWm7ZiCgXCkdbHFWFopEPf3eDQxlcq90KFJlcY/rDA7x2mr8434fcUK/lyI0kBuYe1oGJ5Nu9/T75UEmxKmvtHrbMwi8NcBGGuqIveuYdMOKIsVZ+XDjSHGv57xh6JNuThnpCQyUK8vYkNaTnvSk1t7aWD7aXD7S0p7KrC0NJsrqGY4U5cNP/rhipa21cXdUaA95kSft5T6ygWeXfW2kvOKF3jae4WSRrvwZaOKwI5sYYKbevVzaUDmt2tP+HCMGWPXioOWQ8bdnXFd+ZdUXu2GnPO6RDwONs0h51aM7htxr0O2GJeNFHu43IMuns8REHax0/Md//MdWZgz1B+1m9SXDgkHoGU5H9dZ+DnTkKJO/urlfu3BEcpQyfHDj6OYoVS6rNw3UmHHgcRxixXjgKFRm9WcYMfikzyCwF1+wApNRo305cK3CJMtkguOS0cfY5JDGV104qhlgDIGv/uqvbvyxZQj98i//cmuTH/7hH26GbdcljAzyxdhlpGgHZWbIuFcZOWzVFRdyxhAjew6+5ETWhp755E/+5KaTsODM1jby15Y/8zM/0/q++znk1UU/+7qv+7pWf+kzqrCTFv3D2UuvyJ+hJH/l4ejWPhyb0pOffBhOnN7kRv7eGIqXhjIzZnD43d/93db+5EGb6Su4Mwq7Q05f0B5k+toyHv/1X/+1pavM8rASlxwxrDszzlC6XVt4c6j9OzNp6dPePHpxghnZpls5hLWhZzhSPUOXkxmGFhnhrO266eu//uvbCxfGe28zeUofKzIiHlMy65oyY+qtKAbyF8gRmSUz+Oszvc1w1o/JLPkjM8KXfMmXNJnBTD6YCeSbzNJ1P/7jP96Me2UWlMskhUHNuW48E8gZ5742lz+DX/3pJX8bbxi7+qB+L1i1bNKhryojneJ5ZX1JvcTQN7W3CUcvM4Nbn/KSiMx03ajNjKM44W91svrTceomf3KGm3K5hplzM0zO1MU4I3+6SduQGe1sJbZ4z5iYqD9mVm6Tf+lJ32SMXDk8lh7yDNkUT2+ph/r3/DEz6aBDTMrIjmfoKv2fXqZjPCfec14iqT8nuXy63iVn2OjXXrr0PkNmtLOxiuyb/GhLaZEjLyv83V+UyEca8jfxoE/+6q/+arrMxj2yTlfijJ1n5E/PkBn9nXxoC4HMeElIjrUFZoKxVT/zPHnrZe66wfiGlwl0l79P/MRPbH1dvp7tMkO/6md+ktnravLX8/+qr/qq1tbSpyf72IgJudNG4rtu0p/pCuWjm/WbLn90k/RwN/nVDspvPFU3/Vx5//RP/7TpGfU0AbVy3ziqnuwYzxjPMdPe4k2itQsZwtYkFX9jA2aeITOuKQ+dSw7FazP30Xcm9nRDL7NxgTzrK8reHTX6prp13eBFlrzJOV3y3Oc+t43XxiAyKh9jKVlVZnqWPvEMZtqdfBibXXO/tMSpJ5uNfYyZ+43B8jQOeyFJ1sX7aFvjoH6uzMYC6dFNv/Ebv9HypAu1s3htbXxVVy/x2APy9jHGaRMMMeP4UWZ9w7ivH3hRp/3k7RljCb1Fj5vY65uC9rX7QnvjgHUP5M7YaQeEekpHUH+6gt7D8sZyfAl0E2eCNiMvxpYeOInoM/qVPUM3K7M2M2YaG8iL/PUX9cfJfEFZPWMs6G1Gbj2vvfRD7H3cI2hf7SJ4Rt8XyKM+ZjzHxhjc+5UyOXtIuj7KJSgb2ZamdsOqB/rBR7ryUXbB89qjB/IlyJPd5aWe4H7lFsg8m6QH+lqQJ/2gbhjTCe4Vup3smvL1umgrdqu+ST/0dJXT+crkUBrs6V52bcNGlYa6SE+gqzDr46k8BXVR/v43Tr1efidbyo4Ffeqn++kh9fA3LsYFrOgCcqLsrvlbHtqOLPaxERfPmBfRHcZdQRrmjT0tL9HVRRru19aChQrGRvEY9HmEubc+Sn8qv+uC/mycnRSU12dmIC/636TwzGc+c1J04u4nAqMeeT8lnmTvToBC1BF7YPj4vK8CZUJZ+PQgrivvHtd/UrA+MwPl1hXczGsGZZ+ZgSHvMzMw1jj1JgUH3/vMDIxOH8pZ8FM9hGvLwDPAGggoUIqVsmVgmhR2g4MSpED9Lf8+sJskmJBTnow7jjIDgzQ4MChFTjKGhIGCctSmGCqHZ6x4YkhSnj7iGWMMkj4wy0eZGQ8Gpm7w+11+ymWywehg8FHQnJmuMfQ4JEwGlYFxZDDVrn/4h3/Y3kpIW9tR6n4y3Cl8xpoyMwJdkx/DysRK2hS2tNTHBPa6MsSURT0MHgYzkwTxjCiBAw0DeSqvFXqeMbgZvITuDDIQjRsB2ki+fbB1r3SUUV4GX/XvA6x4hgeDSPmVC1txGHGUcu5Kz9/dsaRN1Ete0sCqD4Rf9mVf1gZ37aTdGSLKYBDEVrygPq6byJtYKbu/5eN+gYErD8/IR7kFbff0pz99um4tcuqfcQNxPN6A3gf18XjtwLCcFBjrPjODevhMCpw/k4JJsQ8D26cbBO7lJNHGGGCJv/oyRExK1B8T8a5b9q3PahfPYKwPCAz83i/wolv85ERg4Lpf6HpKm5skkF35aBcyIH+TMhNpz8jfBF770MMmg33CJQ/paT8GdncSeMbbZ/mTXUaXesqHkdiNVA6s7liSvnykRWY43vVndSJzrpNlEw7yLC1OEGl5xsSbbhGvDnSi/E0gvEAg/66po7orI4eB8ol3r74gnuzjrcyCtPxNB+jz3XjEvhvWnM6cb71v9JcOV5bzmyMBG/VhAKqLMuvznveMfPH0Uz1NcHEWpKt82ogTHSdlVnf9r9eXXPQy95UE2of+1c4C/vL3jHTJo+cE9ZO/vkHPd2cUPeEZ8oANA9zvOPZJA31OZrozQhmV2XUyS8cqM1lWD0HbiOtlxkb+yiH/Ls/0D16C8U/dPKfsfcLgmmexdK/6jYf+t5+e7WH8mR7nZ7/f9R48J75fm5QWLr2s/Tk/x58Zj3cv/lj1e/p1f8u/59PL7e9+rd/rZ4+flJZ0en/u6fg5qf7GFv2i97M+LshDv9R+0hLIiny1mfbvbdn7knuM2WS650/mPUOOnl76vMuffqY85GpcZrSx/ifQK57VzgLd4m99kcz0PkOWuhz0l1Pyd68JrJ/KRDf2Mktb/mRd/l2fKY+PZzhZPNPzJ+ee0RdN8vUZXDEjn57hSMWtB/3JM/ofB6T6KxtmnnHNBFL+gvbUb8Xrf/52v4+0/K2fP79erurn8sRLGQRc/I6Hcht7BfqTY77rRgy1reeN5/SjPAVtI9AlHM/q6CMNwbPG4N5nMSQTArvQ2CVdH7pCUH9Ots4SQ3URjH8cbWSRjutOB7aJlxLyFrou0z6/Wqtf5C8P5e66gf7l0O5BWQXyx0nkGWWQV2emLl5K9NDlTxtzho7n7x5lH3dsKkPPX1uynXtwr4APu4FuNDZIs5fNxN54Jh2h8zdGsGfIjPu7Pvc72ey6RFuTCQE/eenPZIrc9KDte5uJ6/XSJzh8evt3B5h72abKTNfrf57x4QzqjmLl6HYXW5eDvctsb0t5Y+YlmoCLsVpgn/t0mVV2QTtpt95nOkvX3Htljbfa0UfZBDpKWcgKJjgJnjVvUU/yQy+x3ckgZ6XxSTqu6ZvawrNe7ql7b2P1wYlt5KWoeH9jrkzG8n68Tcu4/nGPtDlKJ4XZbE3yYVXXpEDP+swM6qwMkwJ7yGdmUO5u28y8lr8fuARyBtYDt+1S8ocgAQNeH2ANGhSzn+L6IOge8QY48QYncYJBl1HHsDTQcSIZ3KXBeDOgMFot9zaxdT/Fb9JtgORAM0AzUNxnAsqA47jiQJOmPA2Q3v4bPA3qVjkoH8OJo88z7vcmxdsfhvrTy/i3rVba3jb2lRkMc29CDEzeDnpryvBQR8akZ5TX23xON9dMuL11ZhB5O3ldOdcYGPL3BvkZ9abxL/7iL5qRKh+BgcvRKV1vP/+5lrArszQ4p0wC/OT0U0+Bwc6g9HbLSgxssMVLWiannDHqqY6uWX3AecVJ6O2jN3DiTbI4Z+UvH3XSbvh7RprecqtLn8AzDHDTVsrlzTn+JjzPrwkAo8dKGitztJe03S8tRpy0uhF4VU2sTWYYqt78alP1J0cMCRzU0+qAPrG6sgwsxqhy9tU33cDsExhv+DhJyZL8lYkRop0YdeouT3LJuOoy6/4etBsjiqzKyz2C9JSvhx5PnseD+N5PZl4bvy+/h0AIhEAIzB8CxgH6m64Xui3Tdbpxoev2fs194jzjPmOZMbvHmdgbb9gaxjT3CBwqHARsJqsZxx1oHGfGISt52DPy9RyHonHeONdXDYo3Bnenh5XDVqDJ38dqRo4LK5Oszu2BQ5sNoFzsBvaZoKycCcpnVReng3QEL0i8pGHH9FVzbB2OCDaR8dhLJPZGZ8U24gQz/ltphbGP/K0+ZSuwa4z1nmHHsS846aTppVwPzy87w4oU9oQXL8osTxzx4Phgg3Gu9TZUTqvA2TjKgjdmHJhW5CiLlXDsqd5myil/Dj9lwUR7eBHpxRanEPuQPSW4ZkUp+8mRDF6kqkuvp9VC7BJ2oHKxPdg4XrbL08ta1zlm2L7sI/ewW7qdpczsZnX0O7vIzx6UscsJW6oHPHv79bj8DIEQuG8E4sC6b7xydwiEwPuQAONg3EhleHRDgIHgmp/iGTCuMeY4Pjzrb0aI64wmhmJPz/0MFfeJ788wQDhcOFo4XBhqnhXPcGWouZdzjzPOs4wehhXHjLd4DLFeLgYSA1o6nHie8QbQ2zCONWXrb/IYW9LgXLuynEUcWLYX9bfZ3mx6i8s4txXjxhtvbOXn7PM2mpHsrDXbSxheDKfnl8HJ6efNo+0KyiFw+jH4vLW1TYKhyCBjhDEyGfAMZwZud0hxoHEuMngZ2Ja2442J8sjfyijbazDD/9prr21GN+PZ9g2Gv3w4z2y1wlkZGZ24MoYZrIxrdXnZy142vWrIG07bfjjwbMXoTk8GJScgZrY/jk8sbDli8HqL6Dw4kxRtz6nnb21niw+HnPyVh0NTe2KCWV/N4Q2+t/valhHPsMXL5MGbRe2svdQVF/X39l5d1ZvBre20M8ce/tobYwZ0lxmTGqseOGhtrcBb4AiWHlm0xcNkTFrK3CdJnJHKLX/BhKuvLjKxUg4yr96cywxyb5+7A1V6Vjl4g0u2paX+4smKtLSRt9LkT7zQ5dw2Eas9tbFrZMI1ZeYkNrmUP9n0ZpXseEaf0Tc9g6O+hodJlXJ4Rr4mNfq0tu/1l7/JkLTca9LZJxcmgZyu8hNvwtXzJwP4i+srUOWvP5El+ZMbMuMZ+eo32lzd9SX3a2f5Y+le+eDvGbLZV13j3J3h2kwbawfpSM/9PurvIw3P6MuCe+XPiet+8idvoddfW2nLPkk0ofMM/nRW33LkOSy1qUmgeqqL/HGUnt+l1Z0BGJIn7aAdtVkvM17aWr50zXiZ1VN9Z5aZjOGDmXbuOlh/6quVxPdJqjpIS5upB8dCz7+3GRniwNemvd+YvGNnUis9QV37Cxn61UuH3mYmtuRcfuTfKgzB3/qyduagoLOk40PGOP6lYWulsaPrYGfQGFP0Zf28j0F0ufpof/2ZzApe4nCGGBvEy0seAl1mcm0ssWWsl1mftcISf7qwO2rour7t0pZLYwrOwtPr5QaHCP1uNY16KrOyWpGh74jv21vVn/7zQgZLupm8CdqL44Rc0Z/OIBLUgZMCa9vhPKOMGBjPjDXa18sp8qHNOity6MUQHdyDsUo9pU9/dWbY922wxii6Rt7KbByhg2wL5FwR8OSAofvJipdT2kxgF9DJnFLGE5ylRdawdCYQOTLWdZkl/8YzgcNnfDugMVD7GBfG6+IlGZ50lhVTdLNAv/StymSJbKqHMpNLMsiOUEZBeY0nVsspJ2dcd7ppD3qWPtXO4gV16bpRuvp/X53bx0c/tYfy9aBs+p9n6AXpyFP/1scE7UsuexCv/ELX8X6nT7r+8ndCCIRACMxGYPFsFxIfAiEQAvONAOOGkTMpiPdhZI0Hf8+Mc92kz8RoUjDJmxQYsD4zg3wtkZ8UGOo+M0OflM6M97cJzqRgguMzMzDwry2jeFLgyPKZGayQ85kUTDwYnd0YxYrB6a0po5ixKohnqAreDDNSGaTuVSbtZcLByO8BW+3BWWcLiXwY/eL6lgfbOvpETFomkBh702x7W89fHoxnz9qm0R0LDHjPyN/yeZMFz0jLJNn9nD+eMVnyXC+Xe0x+lKU/YwLJKGf0myx0Z4hJKgbKxsFl8t2dK+4X/PRxD56dl7J51jV5ihc3/oy/XevxJikcRRyeAkYm49LgJOBc4GSRLr4m8RwLnumTDhMOq/0867yMG2uSqM3UnzPMZHzmZNhWR5Nk+Zv0mVhhI47c42lSe11NyLSlMmsbkyhODbLRHXU4eUaZOURNfOUvDav2TKKk5U2/MsvHNmyH3krDdpgbq8zi9UUTYFufbJXmqFQvwRt7k3tMTAZN1uRDFmypNYmy5Qcb8dpHvEmkCaLtED1/W2Y4SHGXf3cgYOVMMvk7g4rjuedPtsgeB4Xzi8iZfNTf6grtZLLcHUXaRXlM/LujuE+G1d8qTBNqTlbtQJbkz1GMAyevs3lwEeSv/iaonALK7hrnmbpxOjmbikNGWmSMk4J8czhyyJqseobzWr3VjcOAQ84zyiwtji8rGThkldkzZIbeIX/Xlm7qjlJ9ST3Jhm3HmPUy24bLWc/hRAd1/lZLaGdtRDd0Z4i/ORToMbLHYUCfSI8zgu7R7srOKUTm9FH9W/3VvTNTH/2GTHPcWAXc9Yn6kQv5Ka9+4359VttLU5k5I3r96SnOPdydj8jB5nn3crQIzlnkWPGM4H5OVM9og+4op2c8o19xlPStTZ7Rz68sZ0lPQ5nUv+sN7SpfdRdcd00Q7/f+jL8Fz3DO0h84aSt/CxxsXR/5u29H4lxSlq4b6cqeLweSdhXE0cHy9QKAntUvBM8oi3FZ+2NMv/vQC4JtUtLrAU+BU7afweZv+qTX3ZlbZLmXu4/7nPycb4K8usNFmvScPipgR9YFYxknUw+di37LITcp6P+TwtPLYegzMxi/rECaFPRPn5mBLqCjJgWy6zMzYNq5jl/TNmR+UlDfXufx657pXMfj/a5f+UwK2HbZnHQ9cSEQAiEwiUBWYE2ikrgQCIEQCIEQeAgT6JNKkz6Tkx5Mjk32hJkTj7N5Rh59gskJ0SfvfWJpAul3ToU+WTcZ7o5SE2erRXrZTHpNmpSJI6RPRk1sTVTlJQ9OGc/I3zPSlL5nxPuYxJu0+V3+0vL7bPlL2yR0Uv7q0SfKvS7SwlL+fqq//AXX3N/rz7mhTj3/7myfrf7aqz8jPWWSj4BXdzgoM5bqpH7deSOfM5VZ/p6dWWb1x9rz8u/8pT9bmcW7PrPM0pGegIu8pKvNPOOnNlNmwbXeZv6Wv8A5oi7K28O5klnp9bT8PrNviEsIgRAIgRAIgRA4ewJxYJ09w6QQAiEQAiEQAiEQAiEQAiEQAiEQAiEQAiFwPxI49Vr1fswkSYdACIRACIRACIRACIRACIRACIRACIRACITAXAnEgTVXcnkuBEIgBEIgBEIgBEIgBEIgBEIgBEIgBELgvBCIA+u8YE4mIRACIRACIRACIRACIRACIRACIRACIRACcyUQB9ZcyeW5EAiBEAiBEAiBEAiBEAiBEAiBEAiBEAiB80IgDqzzgjmZhEAIhEAIhEAIhEAIhEAIhEAIhEAIhEAIzJVAHFhzJZfnQiAEQiAEQiAEQiAEQiAEQiAEQiAEQiAEzguBOLDOC+ZkEgIhEAIhEAIhEAIhEAIhEAIhEAIhEAIhMFcCcWDNlVyeC4EQCIEQCIEQCIEQCIEQCIEQCIEQCIEQOC8E4sA6L5iTSQiEQAiEQAiEQAiEQAiEQAiEQAiEQAiEwFwJxIE1V3J5LgRCIARCIARCIARCIARCIARCIARCIARC4LwQiAPrvGBOJiEQAiEQAiEQAiEQAiEQAiEQAiEQAiEQAnMlEAfWXMnluRAIgRAIgRAIgRAIgRAIgRAIgRAIgRAIgfNCIA6s84I5mYRACIRACIRACIRACIRACIRACIRACIRACMyVQBxYcyWX50IgBEIgBEIgBEIgBEIgBEIgBEIgBEIgBM4LgTiwzgvmZBICIRACIRACIRACIRACIRACIRACIRACITBXAnFgzZVcnguBEAiBEAiBEAiBEAiBEAiBEAiBEAiBEDgvBOLAOi+Yk0kIhEAIhEAIhEAIhEAIhEAIhEAIhEAIhMBcCcSBNVdyeS4EQiAEQiAEQiAEQiAEQiAEQiAEQiAEQuC8EIgD67xgTiYhEAIhEAIhEAIhEAIhEAIhEAIhEAIhEAJzJRAH1lzJ5bkQCIEQCIEQCIEQCIEQCIEQCIEQCIEQCIHzQiAOrPOCOZmEQAiEQAiEQAiEQAiEQAiEQAiEQAiEQAjMlUAcWHMll+dCIARCIARCIARCIARCIARCIARCIARCIATOC4E4sM4L5mQSAiEQAiEQAiEQAiEQAiEQAiEQAiEQAiEwVwJxYM2VXJ4LgRAIgRAIgRAIgRAIgRAIgRAIgRAIgRA4LwTiwDovmJNJCIRACIRACIRACIRACIRACIRACIRACITAXAnEgTVXcnkuBEIgBEIgBEIgBEIgBEIgBEIgBEIgBELgvBCIA+u8YE4mIRACIRACIRACIRACIRACIRACIRACIRACcyUQB9ZcyeW5EAiBEAiBEAiBEAiBEAiBEAiBEAiBEAiB80IgDqzzgjmZhEAIhEAIhEAIhEAIhEAIhEAIhEAIhEAIzJVAHFhzJZfnQiAEQiAEQiAEQiAEQiAEQiAEQiAEQiAEzguBOLDOC+ZkEgIhEAIhEAIhEAIhEAIhEAIhEAIhEAIhMFcCcWDNlVyeC4EQCIEQCIEQCIEQCIEQCIEQCIEQCIEQOC8E4sA6L5iTSQiEQAiEQAiEQAiEQAiEQAiEQAiEQAiEwFwJxIE1V3J5LgRCIARCIARCIARCIARCIARCIARCIARC4LwQiAPrvGBOJiEQAiEQAiEQAiEQAiEQAiEQAiEQAiEQAnMlsHguDx45enw4cPjosHDBMKxesWxY6JexsHPP/mH3vkPDkiWL2vX1q1eMXc2vZ0Pg0JFjw6EjR4dFCxcOa1Yuu1tSd+zaO+w/eGRYtmzxsGbF8on33O2hRNwrAgdL5g8fPTYsWbxoWLV86WnPnDhxcrh9155B31i2ZPGwdtXyu91z2gP5414TOHny5LD/0NHh2PERG8zwrQAAG21JREFU2xXLlpz27LHjJ4bbdu4ZjtfP5UsXDxvWrGxtcNpN+WNOBMj1/kNHhuP1c0XpFLI9HuijbTv3tijXsdc/EkLggUzg6LHjTefMZuPcte/g4LN40cJhZekjcr9gwel20AO5/u/LshtjDx4+VjbOgrIfl96N6/bd+4a9+w8PS0vXr1q+bFi/evn7srjJe54QYAccqLGqhqomN/rmeNh74PCwo+Ymiyp+RcnOxjWr7jZ3Gb8/v4fAA4HASF+O5oST9OWdd+0b9pXs05drar5ubpIQAuP6ck2Ns/TieBjXl83GWb1y3ujLW7bvHl7/thuGxT/1R/847NxzYLjx9l3Dzdt2DdtrMsL5cemFGwcTxx0l/AdK+I/X70drsnLw4OHhaE3Se+C8Wrt25bB+XQ0GZcBtu3P3sH//oX65/Vy8eOGwYcOa4eIL1g0Xb1w3bFy3clg6NREy4DAEd+zePxwox8uJyocduGTRoirHkhpo6rO8Pn6vjwkUQ9EzN922YzhcZeLMWVEOhVXVCMsWLx4OHzs23Fn1UK9Dh48MC+o/g5kO7L6V7d5l7X6/L60Jl7ruq/x19AP1zMEqV3NYlLPocBlTR8uoWlT3rVuzYthQ9d1Qg5/8lEnDcxrdtfdgGb2HW/nWrVze6rm+7pe/NN2jHBQIg/fEiRM1oB4Ybrh153DLHbuGncVgbRljF29ZV46QunbX3uFQTdyP131Hqp6tHWqQ7kG+69evGtZWHiaa2+64q93fr/upzps2Ffst64eLNq6tsq9oE0z3Y79z94Fh5979ra6FoLXh0qWLqn1G7Aku/svrJ07Y37lr33DznbuGY1XGRdW2K+v6ymXL2nWOzTvLiXYX9s3RVuzrOe09aqNlzeBfVYrUc+I5JvYdwOdw44f7oanPkeJ+rORNPdYVs/VkrX5yIHleYMzuLnnAfkm1/7pVK0bsi6U67at0pWlizZnK4D1SE5Q7qh433rZzuPXOu4bdVd6N61cPF25a2+7XFuRdJz9S9TioD7CMpgLn7Ia6f3W1pcnO7dV3xvuF25aXfGzeuKb60vrhgpJ/eWszjhZOgR3FflexP1TyJTDY8VhGTpeNZEsdybx4MnpL9a9tO/a09lYG8reyWC6pPqCeHJh7isXhqi/u8tN2Ppgz+MmtdBdXH8MX+5F8jjjpM/qVNJRVP8R9w9pVje2qlaOykaHdJfN7K98DxX559dW1xX5zyaSBVF/eU20jD3XaUPUn+weL5+079g43YF/cyOEFxX1T6RBl12+PF9OjJRfKgL127EF5sF9Z5dBP77hjdytnv+7nqspny+a1w6Ul95s3rK5yL299z2Cvn++4a3/11wNNDty/uPiRe3Xo7Ju+qXKTGxzeUzpyR02elMW9K4vlymonOnD3/gOtX+wtxz1dsaTai16iS+kYbcTZT267ztA/lOVAk/sj0zJP9jE7UXmuLCc1ud9Y/LHVbtpSeXbtOVjPH2qyrW3XlVxvLobSJ7cGID/9TeblT+5uLhmiO2+rn2SWvllTfHYVj92VJn2jDtgfqvKNoR9WVLtuLJlWhj3V9ttrIBlvG1P4NVXWC4r9JZvXD1uKPXnDiHN374FDw/Zir52PVtmEJSWjS4s752PX95iRe2MHWbyp2NMpxoY+LqysdAXysr3knu7GRXt5Thm1zzT7ul8eC6tdDpaMN51TcmvcIZO4qzP2Kr1qVU2OG/tVjU/vi+qxq8q/r+ri3tX1ooBe3Vj9Y1n1SbqFTjpZ/8nfGECP7qlx8b2lo28qudeH9eetF21ofXtX1QETfUq9Hnbplvpsai8g6BdtSV/p38q4sJipJ52sPsdP1EulGiv0JfXRh+kv7YsJ/qur/22pseCqSzYPD7tk43DxpnWtn2o/+vGOGm/kQY8oh9B0d+XR9Za6Hez5VB4tr2J3uD6e8VGu5SWn6k5XrCo+q8httbGgjOSeLLInGvtKU99U5houhzVVVmMkneNFDfbS5TAlp55XLwb5hrInNpXMGVtdx4otQu42FHvPNXuhZOg9t+9sNo56bb1oYxvPdjLwq23oK+1J5o23PZA5Mr2h+hYOd27fM+wt2R8P4teXrF+8uWyc6k90WXf2YktPbq/J8/4q27iN02ySKZ2zcsWI0UhGFzR5MT7RcXTJ8uoT9Mfy6hfawTiLxcEqL1lbXrwvv3jDcM3WLU0PGK/kbQJzR9lDe6uOxm+6aUn1D/qfDUIPNdnRFnX/kfro/8eOnWj9Tb6bS24uu2DjcM1lm5tObfq0ynSo7vPC8vZKH+P+DJkkm8YoMkGGp/NpMnqq3ekbekrbH6g+JY0ejIlrazyhA7XDttL17KDxIA866ZILNgwX1k+6culUvupDP/gYo8g62fDMMtwb+ykbp3RDty/Vib4nD2SFDm06qewLdb6jXpgYP+gM9t2qktErLt40XL11c5O5kQP0SBsT9Ck6vvdZ7BctrDGl+qzy6UOjPjvSPTj0Pkv/syFa2qUPLi2dqj9gwcnHmSf93eS3OApkEXvlxl4dWp+VV/VZ8nLwCB1RY0w94x73Lq+xin1A/3Q7gSySGeVkvzZbSr+dqC9Hdi372HhCVrVD05fFn51wtGzzri/1EeUky3Sj4Bn6kozvqXZ+T9kH75nSl8qhz+LHPiPPvX76LL3YQ+EZVlU6G0t2yPsO8lnjznigE9fV9Ytany07YWrsxJYeYVMaq+h5fUm8eUnvs218mdJrOOGOEbuGjErfWNXGoPp5tFibTyk7eaAHpNfYT+nL1XTdlJ0gTUGadOW0vqx6tn5a7UpWFlQ+ePexqqVR6UmXfO4q3dN1+mjuYay6u770HDuBvvQM3fPeqTkh+3PrxaM54c6Suf01vgnrKp2rS99cUeOYPmKs3lO8tu3YV7K5t40/5gjscm0t6Ot0Gnv94EHjbunbqgs7X3viKF024dWXbRmurLQv3LC2jaF0Bd3fxyocjKNkg/5Xds/rP9qQ3Bvr5UXHGafM5+jLk5XXkmLc+nbJPLkc2Qsjm7vPCUf8q6xVZjpsZCfcfU6IPxtLespgnGOjyVto85KqF1uBzlB27dLnhH2hhznhiP3OYWfJn3a55IL1jRv50X/7nND4OVNfrivbeF3lQdfdbk5Y948Hum9TzQUvqXlJ15e4Ya9M8mePnElfdjtUm2K/vcr13prDsjfIHQZ0iOvSvLNsC/pSe9C/q8u2uvLiskO2bmrzIvpSu5pb3tHqeEpfSqPbONI6TV9We4zbOCurH2wpfXnlJaWL68PG6frS3FQ5pU/fqK+greh9P7s+ISstr2bjjMZFsj2uL5vclL6iL1dP6U1xgme1LdkhN/SuuTw59ynxa3MU/bDZOMWD7NGX7KCRbT/Sl2tW1py1dNkmfpNicbgYs6OFcX1pDHjPtrtG+rLGp0XFWZ9lOxjPmo1TdW7jQemn02ycSmt15bGh9KH222FMmaEvjcVka6QvRzaO+lY2rb4WLfHjnFlfjmzwri/Z7PQlme76clVxkC59ub3kRh/Q5tjr1+Myv+DyT/qOUSs2HPknBEIgBEIgBEIgBEIgBEIgBEIgBEIgBEIgBOYXgdPXjM2vsqU0IRACIRACIRACIRACIRACIRACIRACIRACITAsXllL12xV6cvw5sJkTS09e/wjrxie8P5ba7ne8ra8zRYLS8os1bOU0rI4W8XkYwmhJeEX1bJ0yyYtKbX8zfJB27lsx7LcbrZgufgVl24eLqslkJb+tb2atXTNcjNL3/bW8kfLJ+cSLPm9+ooLh6tqubYlzpYfWt64rdLdVVu+bGtS3h78bgmsJYO2B+yrelsON1uQvo/lw7hbEme5fl/OONtzs8XbHvjBj7pyeOzDL2lL4i17tpQfT9uZLF20RFsd2vLOWiZpqevFtcWn1839tnTdVuxtQ3TfpGCp4AW1lPWKWpppa5YlhfKxbNDSVuz3zdhaMSmd2eJs+3r4VRcOl9cycUsrLY8kN8pmeyb56dv4NO+xWo6OuyW9lkfuq/qOLyMfz6eKPiyrpZ6WQvdloMcak1pOPEdZubiWZz7pMVcOj77yoraMsnGvMuzef7Dk/nAtN65tPLUdwlJNcmLp7uZ1timuacuh1c3WBmcI3VpLP+8s/r1+42X3O9YXVX5X1jYFbafM+hjulsXuKvYzt1bMTONMf9uK+vCqhz6lT1rCacm6su2pOh2r7Q61grMFuMgs9pbHWjK6v+4ZX5I6nhe5WVFLqy1N7ctAm9wXl7mgt9T0isu3DE9+zFXDNaUH9J279tmOiXvJPfZHa2lxsW9bYYq97RGb160p9qubzlB2Wzhv27F7uK1kfkfb0jVe6lO/a7dLS+YtS95SS2i1pa0724u5z67iP5vcnUpl9t8uqC1HDy+dc0n9tA2QTlMP23IsnaVzuoxOb3Oq8retWHXf/pKD8WXk4zmRm+XFvi+rt/Tc9kzL9efC3ta8a666uNhfOVxx4YbWP8k99pY1Y0+ubRVpY0q1jSXWttBeUFusLJe3VHx76Qz6xjbGu4rhbMFWtMuqja+4aFNbei9ty6u7rsd+Nn01W5o9nk64tPT81Zdd0PrU2tL1ltK3PlllolfonHH22tn2GVtA6JsDxX+2Ptu2MZYOs8SejLatUlX+2dqql6v/tF1Tn9JXzjZcWP36A67ZWrp1/ZRurf5YbaFM5Mi2Adt1brx1R9uOebz6ju0Vtk3ZnmqLii2AtkN0Xb+/2nwuMqQu5PKKyy+ocXZzswNsBdSv76zl4rbtaOdx9srZ2Bf/ttWc3Nent81MPvqsrW+CZ8/WxmEnPfb9Lx+e+MjL29ZGsk7uffbsGx07MC73tog4DuCi2gZj+b9y6tO28t1W225vK9ZnshNsbbqiZPOKGgsb9+ozO/bsazbSzpLNPdVes9kM7AvbX2bTxzNZnelv2wo+8BGX1bizsfVf9p1tDPJWX3rXluTrb97etsUeKllajH1tA7D1ZbSVbFndW1v52GhV9r31c7Y+M6ksxqYPKvvyg8q+tM3C+HqXcRb7srmMQSP2pddKt7Evu41jyxR9rZ221bYK+ub2GmtnY0MnbKrxlX25tWwddTX+2f7Z5L7aj40zm9w7NuDYfejjk+rb49i5H/iI6rOlZ21vsz2pb/Vh1xmDbEm+4ZYddWRGnb9ZusJ2OXpDn11rHK8+S185juJsbWPj+NbiYlvXxSXX2NIhdIdtjOdEX1a5tUHrsyVjZ8PS2PGo99s6PPlRV7Txh+5qfbbZCbb31Fg1ZQMaQ2wrW13yrc+yP9XXFpc7du4b2QnVZ+n82YK+wja+vPqKftL0KpmvMWq0JWfffZL78XyM31decUFtK9/c+uHaSl+wPdhYapsmG7+HmfqyjVWls+4PfYkT+07fn00n9XLd009jwOUlX49+2MV1BEEdN1PtoM+L149ty1JnRwo4BmFX1d1WQDqvbeWqctA5tiw61sFRETurz55J195TmWwZfVjZZ9j34zHoL7Yxu6dtfxwbo5VzfE5onGrHYMySkfSNVeNzQnJ/X3TkeNIbNq4envDIK4fHv98lTQ/vKX2pnGeaE64rXcH+PDUnrG2gU/rSnPBM+nJzPdf0Zf2kn8z7bW2mL41VZ9KXdFXfrj5eh7n8Tm8/9uFbh8tqy2nXl93GYe+z65q+vHX7cGfNKeXbtgOzcdpYNdKXdGsv+97SsbP1mXsqo35Blq+u4yDM+bq+1F/vLJ1iK/pMGwdn+R+oY13Mq9iXs/Up8ynjzTnTl5XWY2qsf/KjLm/zVH1tWl9WWWyHbHZZ05kjfamvdX2JU9OX1ea3bufHuetux0mNM+M3IjdXlL40XtHHfAlNX5bs7Km+e099YEEZOtNjsY6noft+YQNfn4RoDOcemMCZ3DLgCKozXi6pfabnOmyr8x2uL2Pa2VwMPwL5sJq8X1NnDOhkZwoMfoc17mxnxIzOpKIcGCP2Xjobo59HY3+oiTpoYDHUCP3ZBI1sny0+lBsF3M+n0cEnBYOPg6rt1zbwHSxBxl65GWT2TXN+OGOFASftUZqrJyU35zid5Zaa1F9/S+1/rz3NOtNFZUg9rM5NsadY258pqIcOurM6vn3Eyk7E1Ns5MM5EafuFS2m4xgDF3mTPhNhk72wC+SU7HEiUg3a2r39TnaXCCJgUtNdI7kdnUThD7Wid78UIUG5ntm2u5w2iOrROuqnaQrrnMuh/JpE31MD8nho0yOMlZUxx0lxVcjmb7PQy2PNv4FDGfq4Wnp5zBg25b2dcTLUhOdpeThz72beWQ/JsA0cy48JPbY59OxuonV8yuV2V2V77/dVunDX2d2s3csjZuKUmL87Ckd6umizZQ09hcm6ey0AGnDtgP/bNNcE0wb6smNA3l9fZKtr+TGGkQ+pcrWKvHXu/dfYXuXcmGCVtQkGuTD7oJ/va6dSzDfL1AkA5tDkd6Uym2WQUT+ybrm/sR2cQ9YmDc+8uqHL1CaD+zOnFcW2f/rkMykzmsb+tHIkm7FeUw8VZPpeWEXtPwfhg4GOg6TPqQIdjT04a+zqjgGOQM5AhQ38258JZ9mEcjTWcofTdkiULm9zTN7ONU2S7OcGq3uruOXpTuSu5VuZ+poi6a1vySQLVj2yZwKibL4648bZdLZ4DThwVyjhSNmdCqudsZbkntme6Ts7bOKvuJUPyFedcF+Ms59dqZ2A19qPzq0bnQB1pjvKz7cPG+TtL33Fo4qm9yStdPds45RllbUZi6ZsDYzaOumK4pZyt9KW2cRZIc2CXHJ7t2DSTJV15fZ1/edO2nW2CYbJ2VTmsyP1s/banQYacXUnuOIQFev6ycro490sQr38LZEHb0EXr6zBW59T8Xzmd2BxrjMmlm/QZ53wcP1lnpi1YWBPlVc3maAmcw3+UhQNKnzVWkGey48UJXUh2lE8fNWZdWO1xLoP8felHY1/2JUP9wnKuXzVlX96TXOJonB2dbzN1dkeV+Yo6N5auEegkMtn7rL6tz+LsWbbtkXISkzdx6m/sO1Hs9Z8L64yae5KBuTAh/8bRLje9z2p7epct0PWldvDyUx/npL2kJoj619kE7NmH8mdz0Ze+bMjL4s5uZvpkvfXZkuXRz7vrS2f5eF6axioOZH3hnsbtmXnd09908bvLYajPcrbj4Yymh5edwD4/U1B34766Ow+s/mw6f1xf6ovsBHOVZs8Ve3YRJ+ZsOu1MeY5f0/bmJV4Gnwt9SXbMCZWN7tFOZEv/IPfHSuaFDaVvXHee1s11fiC739zFQfoYGKscCuTsG2cIkrtzHYyf5I4jh4yw74ylzt/ElfPLSxRzNX2BnOmn5mDmhMp/NoGD0bldbBQ6lh24bo2xavWs9hSbYHpeUmPR+JwQe2fKbp7Sl/2luT7gZeG5DOTWodk3lJ1B7jkyzAnpS3J/T3KpHn0+bm6rTzYbr/pN17XGAy85yE234ZwZ5rox/oYpfUnexKn/uL7sDvVzWW9p6TP0iT47sq1HNs5s+lKZ1NWL3EunHIJnUyZ9ihyaK7BZzInIKUdqZzcz/dn0pX4pdBnx0/jvJZQ22VrnK55rfensLePsjXX2qBcd+v1V9TL64XX2mfnJmQK5w9453fSlYFGC+eLtNdf5r+tvG05zYJ0psVwLgRAIgRAIgRAIgRAIgRAIgRAIgRAIgRAIgfcFgclLUt4XJUmeIRACIRACIRACIRACIRACIRACIRACIRACITCBQBxYE6AkKgRCIARCIARCIARCIARCIARCIARCIARCYP4QiANr/rRFShICIRACIRACIRACIRACIRACIRACIRACITCBQBxYE6AkKgRCIARCIARCIARCIARCIARCIARCIARCYP4QiANr/rRFShICIRACIRACIRACIRACIRACIRACIRACITCBQBxYE6AkKgRCIARCIARCIARCIARCIARCIARCIARCYP4QiANr/rRFShICIRACIRACIRACIRACIRACIRACIRACITCBQBxYE6AkKgRCIARCIARCIARCIARCIARCIARCIARCYP4QiANr/rRFShICIRACIRACIRACIRACIRACIRACIRACITCBQBxYE6AkKgRCIARCIARCIARCIARCIARCIARCIARCYP4QiANr/rRFShICIRACIRACIRACIRACIRACIRACIRACITCBQBxYE6AkKgRCIARCIARCIARCIARCIARCIARCIARCYP4QiANr/rRFShICIRACIRACIRACIRACIRACIRACIRACITCBQBxYE6AkKgRCIARCIARCIARCIARCIARCIARCIARCYP4QiANr/rRFShICIRACIRACIRACIRACIRACIRACIRACITCBQBxYE6AkKgRCIARCIARCIARCIARCIARCIARCIARCYP4QiANr/rRFShICIRACIRACIRACIRACIRACIRACIRACITCBQBxYE6AkKgRCIARCIARCIARCIARCIARCIARCIARCYP4QiANr/rRFShICIRACIRACIRACIRACIRACIRACIRACITCBQBxYE6AkKgRCIARCIARCIARCIARCIARCIARCIARCYP4QiANr/rRFShICIRACIRACIRACIRACIRACIRACIRACITCBQBxYE6AkKgRCIARCIARCIARCIARCIARCIARCIARCYP4QiANr/rRFShICIRACIRACIRACIRACIRACIRACIRACITCBQBxYE6AkKgRCIARCIARCIARCIARCIARCIARCIARCYP4QiANr/rRFShICIRACIRACIRACIRACIRACIRACIRACITCBQBxYE6AkKgRCIARCIARCIARCIARCIARCIARCIARCYP4QiANr/rRFShICIRACIRACIRACIRACIRACIRACIRACITCBQBxYE6AkKgRCIARCIARCIARCIARCIARCIARCIARCYP4QiANr/rRFShICIRACIRACIRACIRACIRACIRACIRACITCBQBxYE6AkKgRCIARCIARCIARCIARCIARCIARCIARCYP4QiANr/rRFShICIRACIRACIRACIRACIRACIRACIRACITCBQBxYE6AkKgRCIARCIARCIARCIARCIARCIARCIARCYP4QiANr/rRFShICIRACIRACIRACIRACIRACIRACIRACITCBQBxYE6AkKgRCIARCIARCIARCIARCIARCIARCIARCYP4QiANr/rRFShICIRACIRACIRACIRACIRACIRACIRACITCBQBxYE6AkKgRCIARCIARCIARCIARCIARCIARCIARCYP4QiANr/rRFShICIRACIRACIRACIRACIRACIRACIRACITCBQBxYE6AkKgRCIARCIARCIARCIARCIARCIARCIARCYP4QiANr/rRFShICIRACIRACIRACIRACIRACIRACIRACITCBwP8HFRHQq7tXx0gAAAAASUVORK5CYII=;" vertex="1" parent="1">
          <mxGeometry x="41" y="-204" width="1200" height="204" as="geometry" />
        </mxCell>
        <mxCell id="Lz09PXeNm3lCibMd2Dtf-16" value="企微&lt;br&gt;&lt;b style=&quot;color: rgb(153, 0, 0); font-family: Verdana; font-size: 15px;&quot;&gt;（121个破解功能）&lt;/b&gt;" style="rounded=0;whiteSpace=wrap;html=1;hachureGap=4;strokeColor=#82b366;align=center;verticalAlign=middle;fontFamily=Architects Daughter;fontSource=https%3A%2F%2Ffonts.googleapis.com%2Fcss%3Ffamily%3DArchitects%2BDaughter;fontSize=24;fillColor=#d5e8d4;" vertex="1" parent="1">
          <mxGeometry x="305" y="310" width="170" height="85" as="geometry" />
        </mxCell>
        <mxCell id="Lz09PXeNm3lCibMd2Dtf-17" value="QQ&lt;br&gt;&lt;b style=&quot;color: rgb(153, 0, 0); font-family: Verdana; font-size: 15px;&quot;&gt;（93个破解功能）&lt;/b&gt;" style="rounded=0;whiteSpace=wrap;html=1;hachureGap=4;strokeColor=#82b366;align=center;verticalAlign=middle;fontFamily=Architects Daughter;fontSource=https%3A%2F%2Ffonts.googleapis.com%2Fcss%3Ffamily%3DArchitects%2BDaughter;fontSize=24;fillColor=#d5e8d4;" vertex="1" parent="1">
          <mxGeometry x="545" y="310" width="170" height="85" as="geometry" />
        </mxCell>
      </root>
    </mxGraphModel>
  </diagram>
</mxfile>
